%TF.GenerationSoftware,KiCad,Pcbnew,7.0.9*%
%TF.CreationDate,2023-11-09T15:49:42+02:00*%
%TF.ProjectId,keyboard,6b657962-6f61-4726-942e-6b696361645f,rev?*%
%TF.SameCoordinates,Original*%
%TF.FileFunction,Paste,Bot*%
%TF.FilePolarity,Positive*%
%FSLAX46Y46*%
G04 Gerber Fmt 4.6, Leading zero omitted, Abs format (unit mm)*
G04 Created by KiCad (PCBNEW 7.0.9) date 2023-11-09 15:49:42*
%MOMM*%
%LPD*%
G01*
G04 APERTURE LIST*
G04 Aperture macros list*
%AMRoundRect*
0 Rectangle with rounded corners*
0 $1 Rounding radius*
0 $2 $3 $4 $5 $6 $7 $8 $9 X,Y pos of 4 corners*
0 Add a 4 corners polygon primitive as box body*
4,1,4,$2,$3,$4,$5,$6,$7,$8,$9,$2,$3,0*
0 Add four circle primitives for the rounded corners*
1,1,$1+$1,$2,$3*
1,1,$1+$1,$4,$5*
1,1,$1+$1,$6,$7*
1,1,$1+$1,$8,$9*
0 Add four rect primitives between the rounded corners*
20,1,$1+$1,$2,$3,$4,$5,0*
20,1,$1+$1,$4,$5,$6,$7,0*
20,1,$1+$1,$6,$7,$8,$9,0*
20,1,$1+$1,$8,$9,$2,$3,0*%
G04 Aperture macros list end*
%ADD10R,1.200000X0.900000*%
%ADD11RoundRect,0.250000X-0.450000X0.262500X-0.450000X-0.262500X0.450000X-0.262500X0.450000X0.262500X0*%
%ADD12R,1.200000X1.400000*%
%ADD13RoundRect,0.250000X-0.475000X0.250000X-0.475000X-0.250000X0.475000X-0.250000X0.475000X0.250000X0*%
%ADD14RoundRect,0.250000X-0.262500X-0.450000X0.262500X-0.450000X0.262500X0.450000X-0.262500X0.450000X0*%
%ADD15RoundRect,0.150000X0.150000X-0.475000X0.150000X0.475000X-0.150000X0.475000X-0.150000X-0.475000X0*%
%ADD16RoundRect,0.250000X0.375000X0.625000X-0.375000X0.625000X-0.375000X-0.625000X0.375000X-0.625000X0*%
%ADD17RoundRect,0.250000X0.475000X-0.250000X0.475000X0.250000X-0.475000X0.250000X-0.475000X-0.250000X0*%
%ADD18R,0.550000X1.500000*%
%ADD19R,1.500000X0.550000*%
%ADD20R,1.100000X1.800000*%
%ADD21RoundRect,0.250000X0.250000X0.475000X-0.250000X0.475000X-0.250000X-0.475000X0.250000X-0.475000X0*%
%ADD22RoundRect,0.150000X-0.625000X0.150000X-0.625000X-0.150000X0.625000X-0.150000X0.625000X0.150000X0*%
%ADD23RoundRect,0.250000X-0.650000X0.350000X-0.650000X-0.350000X0.650000X-0.350000X0.650000X0.350000X0*%
%ADD24RoundRect,0.250000X0.262500X0.450000X-0.262500X0.450000X-0.262500X-0.450000X0.262500X-0.450000X0*%
%ADD25RoundRect,0.250000X-0.250000X-0.475000X0.250000X-0.475000X0.250000X0.475000X-0.250000X0.475000X0*%
%ADD26R,0.900000X1.200000*%
G04 APERTURE END LIST*
D10*
%TO.C,D14*%
X139700000Y-300100000D03*
X139700000Y-296800000D03*
%TD*%
%TO.C,D22*%
X163512500Y-262000000D03*
X163512500Y-258700000D03*
%TD*%
%TO.C,D12*%
X125412500Y-262000000D03*
X125412500Y-258700000D03*
%TD*%
%TO.C,D47*%
X258762500Y-262000000D03*
X258762500Y-258700000D03*
%TD*%
D11*
%TO.C,R3*%
X157829250Y-321191250D03*
X157829250Y-323016250D03*
%TD*%
D10*
%TO.C,D48*%
X264318750Y-274954000D03*
X264318750Y-271654000D03*
%TD*%
%TO.C,D52*%
X277812500Y-262000000D03*
X277812500Y-258700000D03*
%TD*%
%TO.C,D29*%
X196850000Y-300100000D03*
X196850000Y-296800000D03*
%TD*%
D12*
%TO.C,Y1*%
X156640000Y-313014000D03*
X156640000Y-315214000D03*
X154940000Y-315214000D03*
X154940000Y-313014000D03*
%TD*%
D13*
%TO.C,C2*%
X173863000Y-306771000D03*
X173863000Y-308671000D03*
%TD*%
D10*
%TO.C,D42*%
X239712500Y-262000000D03*
X239712500Y-258700000D03*
%TD*%
%TO.C,D67*%
X372237000Y-242950000D03*
X372237000Y-239650000D03*
%TD*%
%TO.C,D64*%
X343693750Y-262000000D03*
X343693750Y-258700000D03*
%TD*%
%TO.C,D6*%
X96837500Y-242950000D03*
X96837500Y-239650000D03*
%TD*%
%TO.C,D3*%
X84931250Y-281050000D03*
X84931250Y-277750000D03*
%TD*%
%TO.C,D40*%
X334962500Y-319150000D03*
X334962500Y-315850000D03*
%TD*%
%TO.C,D17*%
X144462500Y-262000000D03*
X144462500Y-258700000D03*
%TD*%
%TO.C,D27*%
X182562500Y-262000000D03*
X182562500Y-258700000D03*
%TD*%
%TO.C,D50*%
X372268750Y-319150000D03*
X372268750Y-315850000D03*
%TD*%
%TO.C,D65*%
X372268750Y-281050000D03*
X372268750Y-277750000D03*
%TD*%
%TO.C,D54*%
X292100000Y-300100000D03*
X292100000Y-296800000D03*
%TD*%
%TO.C,D45*%
X354012500Y-319150000D03*
X354012500Y-315850000D03*
%TD*%
%TO.C,D63*%
X334962500Y-242950000D03*
X334962500Y-239650000D03*
%TD*%
%TO.C,D38*%
X225425000Y-281050000D03*
X225425000Y-277750000D03*
%TD*%
D14*
%TO.C,R4*%
X170537500Y-304800000D03*
X172362500Y-304800000D03*
%TD*%
D15*
%TO.C,U2*%
X234182500Y-249488999D03*
X233232500Y-249488999D03*
X232282500Y-249488999D03*
X232282500Y-247138999D03*
X233232500Y-247138999D03*
X234182500Y-247138999D03*
%TD*%
D10*
%TO.C,D9*%
X120650000Y-300100000D03*
X120650000Y-296800000D03*
%TD*%
%TO.C,D34*%
X215900000Y-300100000D03*
X215900000Y-296800000D03*
%TD*%
%TO.C,D1*%
X77787500Y-242950000D03*
X77787500Y-239650000D03*
%TD*%
D16*
%TO.C,F1*%
X182248000Y-311531000D03*
X179448000Y-311531000D03*
%TD*%
D10*
%TO.C,D41*%
X230187500Y-242950000D03*
X230187500Y-239650000D03*
%TD*%
%TO.C,D39*%
X234950000Y-300100000D03*
X234950000Y-296800000D03*
%TD*%
%TO.C,D60*%
X315912500Y-262000000D03*
X315912500Y-258700000D03*
%TD*%
%TO.C,D16*%
X134937500Y-242950000D03*
X134937500Y-239650000D03*
%TD*%
%TO.C,D56*%
X296862500Y-262000000D03*
X296862500Y-258700000D03*
%TD*%
%TO.C,D36*%
X211137500Y-242950000D03*
X211137500Y-239650000D03*
%TD*%
%TO.C,D10*%
X105568750Y-319150000D03*
X105568750Y-315850000D03*
%TD*%
D13*
%TO.C,C4*%
X152068000Y-313248000D03*
X152068000Y-315148000D03*
%TD*%
D10*
%TO.C,D30*%
X292100000Y-319150000D03*
X292100000Y-315850000D03*
%TD*%
D17*
%TO.C,C7*%
X174254618Y-319341789D03*
X174254618Y-317441789D03*
%TD*%
D10*
%TO.C,D25*%
X268287500Y-319150000D03*
X268287500Y-315850000D03*
%TD*%
%TO.C,D43*%
X244475000Y-281050000D03*
X244475000Y-277750000D03*
%TD*%
%TO.C,D44*%
X254000000Y-300100000D03*
X254000000Y-296800000D03*
%TD*%
D18*
%TO.C,U1*%
X169766750Y-318278750D03*
X168966750Y-318278750D03*
X168166750Y-318278750D03*
X167366750Y-318278750D03*
X166566750Y-318278750D03*
X165766750Y-318278750D03*
X164966750Y-318278750D03*
X164166750Y-318278750D03*
X163366750Y-318278750D03*
X162566750Y-318278750D03*
X161766750Y-318278750D03*
D19*
X160066750Y-316578750D03*
X160066750Y-315778750D03*
X160066750Y-314978750D03*
X160066750Y-314178750D03*
X160066750Y-313378750D03*
X160066750Y-312578750D03*
X160066750Y-311778750D03*
X160066750Y-310978750D03*
X160066750Y-310178750D03*
X160066750Y-309378750D03*
X160066750Y-308578750D03*
D18*
X161766750Y-306878750D03*
X162566750Y-306878750D03*
X163366750Y-306878750D03*
X164166750Y-306878750D03*
X164966750Y-306878750D03*
X165766750Y-306878750D03*
X166566750Y-306878750D03*
X167366750Y-306878750D03*
X168166750Y-306878750D03*
X168966750Y-306878750D03*
X169766750Y-306878750D03*
D19*
X171466750Y-308578750D03*
X171466750Y-309378750D03*
X171466750Y-310178750D03*
X171466750Y-310978750D03*
X171466750Y-311778750D03*
X171466750Y-312578750D03*
X171466750Y-313378750D03*
X171466750Y-314178750D03*
X171466750Y-314978750D03*
X171466750Y-315778750D03*
X171466750Y-316578750D03*
%TD*%
D10*
%TO.C,D2*%
X87312500Y-262000000D03*
X87312500Y-258700000D03*
%TD*%
D17*
%TO.C,C1*%
X154654250Y-323053750D03*
X154654250Y-321153750D03*
%TD*%
D10*
%TO.C,D32*%
X201612500Y-262000000D03*
X201612500Y-258700000D03*
%TD*%
%TO.C,D58*%
X334962500Y-300100000D03*
X334962500Y-296800000D03*
%TD*%
%TO.C,D15*%
X130175000Y-319150000D03*
X130175000Y-315850000D03*
%TD*%
%TO.C,D57*%
X301625000Y-281050000D03*
X301625000Y-277750000D03*
%TD*%
%TO.C,D55*%
X287274000Y-242950000D03*
X287274000Y-239650000D03*
%TD*%
D20*
%TO.C,SW1*%
X138739000Y-310971000D03*
X142439000Y-317171000D03*
X142439000Y-310971000D03*
X138739000Y-317171000D03*
%TD*%
D10*
%TO.C,D24*%
X177800000Y-300100000D03*
X177800000Y-296800000D03*
%TD*%
%TO.C,D13*%
X130175000Y-281050000D03*
X130175000Y-277750000D03*
%TD*%
%TO.C,D7*%
X106362500Y-262000000D03*
X106362500Y-258700000D03*
%TD*%
%TO.C,D68*%
X372268750Y-262000000D03*
X372268750Y-258700000D03*
%TD*%
D21*
%TO.C,C5*%
X155763000Y-304673000D03*
X153863000Y-304673000D03*
%TD*%
D10*
%TO.C,D28*%
X187325000Y-281050000D03*
X187325000Y-277750000D03*
%TD*%
%TO.C,D49*%
X273050000Y-300100000D03*
X273050000Y-296800000D03*
%TD*%
%TO.C,D23*%
X169037000Y-274954000D03*
X169037000Y-271654000D03*
%TD*%
%TO.C,D37*%
X220662500Y-262000000D03*
X220662500Y-258700000D03*
%TD*%
D22*
%TO.C,J1*%
X239106500Y-246813999D03*
X239106500Y-247813999D03*
X239106500Y-248813999D03*
X239106500Y-249813999D03*
D23*
X242981500Y-245513999D03*
X242981500Y-251113999D03*
%TD*%
D10*
%TO.C,D33*%
X206375000Y-281050000D03*
X206375000Y-277750000D03*
%TD*%
%TO.C,D59*%
X306324000Y-242950000D03*
X306324000Y-239650000D03*
%TD*%
%TO.C,D62*%
X354012500Y-300100000D03*
X354012500Y-296800000D03*
%TD*%
D24*
%TO.C,R2*%
X227985500Y-246371749D03*
X226160500Y-246371749D03*
%TD*%
D25*
%TO.C,C6*%
X164721500Y-322897500D03*
X166621500Y-322897500D03*
%TD*%
D10*
%TO.C,D5*%
X82550000Y-319150000D03*
X82550000Y-315850000D03*
%TD*%
%TO.C,D35*%
X315912500Y-319150000D03*
X315912500Y-315850000D03*
%TD*%
%TO.C,D8*%
X111125000Y-281050000D03*
X111125000Y-277750000D03*
%TD*%
D26*
%TO.C,D19*%
X147575000Y-301625000D03*
X150875000Y-301625000D03*
%TD*%
D25*
%TO.C,C3*%
X153352500Y-310580250D03*
X155252500Y-310580250D03*
%TD*%
D10*
%TO.C,D21*%
X153987500Y-242950000D03*
X153987500Y-239650000D03*
%TD*%
%TO.C,D18*%
X149225000Y-281050000D03*
X149225000Y-277750000D03*
%TD*%
%TO.C,D51*%
X268287500Y-242950000D03*
X268287500Y-239650000D03*
%TD*%
%TO.C,D26*%
X173037500Y-242950000D03*
X173037500Y-239650000D03*
%TD*%
%TO.C,D53*%
X282575000Y-281050000D03*
X282575000Y-277750000D03*
%TD*%
%TO.C,D31*%
X192087500Y-242950000D03*
X192087500Y-239650000D03*
%TD*%
%TO.C,D20*%
X244475000Y-319150000D03*
X244475000Y-315850000D03*
%TD*%
%TO.C,D4*%
X101600000Y-300100000D03*
X101600000Y-296800000D03*
%TD*%
%TO.C,D11*%
X115887500Y-242950000D03*
X115887500Y-239650000D03*
%TD*%
%TO.C,D66*%
X372268750Y-300100000D03*
X372268750Y-296800000D03*
%TD*%
%TO.C,D61*%
X344487500Y-281050000D03*
X344487500Y-277750000D03*
%TD*%
%TO.C,D46*%
X249237500Y-242950000D03*
X249237500Y-239650000D03*
%TD*%
D24*
%TO.C,R1*%
X227985500Y-248911749D03*
X226160500Y-248911749D03*
%TD*%
M02*
