%TF.GenerationSoftware,KiCad,Pcbnew,7.0.9*%
%TF.CreationDate,2023-11-09T15:49:42+02:00*%
%TF.ProjectId,keyboard,6b657962-6f61-4726-942e-6b696361645f,rev?*%
%TF.SameCoordinates,Original*%
%TF.FileFunction,Legend,Top*%
%TF.FilePolarity,Positive*%
%FSLAX46Y46*%
G04 Gerber Fmt 4.6, Leading zero omitted, Abs format (unit mm)*
G04 Created by KiCad (PCBNEW 7.0.9) date 2023-11-09 15:49:42*
%MOMM*%
%LPD*%
G01*
G04 APERTURE LIST*
%ADD10C,0.150000*%
%ADD11C,3.048000*%
%ADD12C,3.987800*%
%ADD13C,1.750000*%
%ADD14C,10.200000*%
G04 APERTURE END LIST*
D10*
X209860416Y-322717319D02*
X209860416Y-321717319D01*
X209860416Y-321717319D02*
X210098511Y-321717319D01*
X210098511Y-321717319D02*
X210241368Y-321764938D01*
X210241368Y-321764938D02*
X210336606Y-321860176D01*
X210336606Y-321860176D02*
X210384225Y-321955414D01*
X210384225Y-321955414D02*
X210431844Y-322145890D01*
X210431844Y-322145890D02*
X210431844Y-322288747D01*
X210431844Y-322288747D02*
X210384225Y-322479223D01*
X210384225Y-322479223D02*
X210336606Y-322574461D01*
X210336606Y-322574461D02*
X210241368Y-322669700D01*
X210241368Y-322669700D02*
X210098511Y-322717319D01*
X210098511Y-322717319D02*
X209860416Y-322717319D01*
X211241368Y-322669700D02*
X211146130Y-322717319D01*
X211146130Y-322717319D02*
X210955654Y-322717319D01*
X210955654Y-322717319D02*
X210860416Y-322669700D01*
X210860416Y-322669700D02*
X210812797Y-322574461D01*
X210812797Y-322574461D02*
X210812797Y-322193509D01*
X210812797Y-322193509D02*
X210860416Y-322098271D01*
X210860416Y-322098271D02*
X210955654Y-322050652D01*
X210955654Y-322050652D02*
X211146130Y-322050652D01*
X211146130Y-322050652D02*
X211241368Y-322098271D01*
X211241368Y-322098271D02*
X211288987Y-322193509D01*
X211288987Y-322193509D02*
X211288987Y-322288747D01*
X211288987Y-322288747D02*
X210812797Y-322383985D01*
X211669940Y-322669700D02*
X211765178Y-322717319D01*
X211765178Y-322717319D02*
X211955654Y-322717319D01*
X211955654Y-322717319D02*
X212050892Y-322669700D01*
X212050892Y-322669700D02*
X212098511Y-322574461D01*
X212098511Y-322574461D02*
X212098511Y-322526842D01*
X212098511Y-322526842D02*
X212050892Y-322431604D01*
X212050892Y-322431604D02*
X211955654Y-322383985D01*
X211955654Y-322383985D02*
X211812797Y-322383985D01*
X211812797Y-322383985D02*
X211717559Y-322336366D01*
X211717559Y-322336366D02*
X211669940Y-322241128D01*
X211669940Y-322241128D02*
X211669940Y-322193509D01*
X211669940Y-322193509D02*
X211717559Y-322098271D01*
X211717559Y-322098271D02*
X211812797Y-322050652D01*
X211812797Y-322050652D02*
X211955654Y-322050652D01*
X211955654Y-322050652D02*
X212050892Y-322098271D01*
X212527083Y-322717319D02*
X212527083Y-322050652D01*
X212527083Y-321717319D02*
X212479464Y-321764938D01*
X212479464Y-321764938D02*
X212527083Y-321812557D01*
X212527083Y-321812557D02*
X212574702Y-321764938D01*
X212574702Y-321764938D02*
X212527083Y-321717319D01*
X212527083Y-321717319D02*
X212527083Y-321812557D01*
X213431844Y-322050652D02*
X213431844Y-322860176D01*
X213431844Y-322860176D02*
X213384225Y-322955414D01*
X213384225Y-322955414D02*
X213336606Y-323003033D01*
X213336606Y-323003033D02*
X213241368Y-323050652D01*
X213241368Y-323050652D02*
X213098511Y-323050652D01*
X213098511Y-323050652D02*
X213003273Y-323003033D01*
X213431844Y-322669700D02*
X213336606Y-322717319D01*
X213336606Y-322717319D02*
X213146130Y-322717319D01*
X213146130Y-322717319D02*
X213050892Y-322669700D01*
X213050892Y-322669700D02*
X213003273Y-322622080D01*
X213003273Y-322622080D02*
X212955654Y-322526842D01*
X212955654Y-322526842D02*
X212955654Y-322241128D01*
X212955654Y-322241128D02*
X213003273Y-322145890D01*
X213003273Y-322145890D02*
X213050892Y-322098271D01*
X213050892Y-322098271D02*
X213146130Y-322050652D01*
X213146130Y-322050652D02*
X213336606Y-322050652D01*
X213336606Y-322050652D02*
X213431844Y-322098271D01*
X213908035Y-322050652D02*
X213908035Y-322717319D01*
X213908035Y-322145890D02*
X213955654Y-322098271D01*
X213955654Y-322098271D02*
X214050892Y-322050652D01*
X214050892Y-322050652D02*
X214193749Y-322050652D01*
X214193749Y-322050652D02*
X214288987Y-322098271D01*
X214288987Y-322098271D02*
X214336606Y-322193509D01*
X214336606Y-322193509D02*
X214336606Y-322717319D01*
X215193749Y-322669700D02*
X215098511Y-322717319D01*
X215098511Y-322717319D02*
X214908035Y-322717319D01*
X214908035Y-322717319D02*
X214812797Y-322669700D01*
X214812797Y-322669700D02*
X214765178Y-322574461D01*
X214765178Y-322574461D02*
X214765178Y-322193509D01*
X214765178Y-322193509D02*
X214812797Y-322098271D01*
X214812797Y-322098271D02*
X214908035Y-322050652D01*
X214908035Y-322050652D02*
X215098511Y-322050652D01*
X215098511Y-322050652D02*
X215193749Y-322098271D01*
X215193749Y-322098271D02*
X215241368Y-322193509D01*
X215241368Y-322193509D02*
X215241368Y-322288747D01*
X215241368Y-322288747D02*
X214765178Y-322383985D01*
X216098511Y-322717319D02*
X216098511Y-321717319D01*
X216098511Y-322669700D02*
X216003273Y-322717319D01*
X216003273Y-322717319D02*
X215812797Y-322717319D01*
X215812797Y-322717319D02*
X215717559Y-322669700D01*
X215717559Y-322669700D02*
X215669940Y-322622080D01*
X215669940Y-322622080D02*
X215622321Y-322526842D01*
X215622321Y-322526842D02*
X215622321Y-322241128D01*
X215622321Y-322241128D02*
X215669940Y-322145890D01*
X215669940Y-322145890D02*
X215717559Y-322098271D01*
X215717559Y-322098271D02*
X215812797Y-322050652D01*
X215812797Y-322050652D02*
X216003273Y-322050652D01*
X216003273Y-322050652D02*
X216098511Y-322098271D01*
X217336607Y-322717319D02*
X217336607Y-321717319D01*
X217336607Y-322098271D02*
X217431845Y-322050652D01*
X217431845Y-322050652D02*
X217622321Y-322050652D01*
X217622321Y-322050652D02*
X217717559Y-322098271D01*
X217717559Y-322098271D02*
X217765178Y-322145890D01*
X217765178Y-322145890D02*
X217812797Y-322241128D01*
X217812797Y-322241128D02*
X217812797Y-322526842D01*
X217812797Y-322526842D02*
X217765178Y-322622080D01*
X217765178Y-322622080D02*
X217717559Y-322669700D01*
X217717559Y-322669700D02*
X217622321Y-322717319D01*
X217622321Y-322717319D02*
X217431845Y-322717319D01*
X217431845Y-322717319D02*
X217336607Y-322669700D01*
X218146131Y-322050652D02*
X218384226Y-322717319D01*
X218622321Y-322050652D02*
X218384226Y-322717319D01*
X218384226Y-322717319D02*
X218288988Y-322955414D01*
X218288988Y-322955414D02*
X218241369Y-323003033D01*
X218241369Y-323003033D02*
X218146131Y-323050652D01*
X220288988Y-321764938D02*
X220193750Y-321717319D01*
X220193750Y-321717319D02*
X220050893Y-321717319D01*
X220050893Y-321717319D02*
X219908036Y-321764938D01*
X219908036Y-321764938D02*
X219812798Y-321860176D01*
X219812798Y-321860176D02*
X219765179Y-321955414D01*
X219765179Y-321955414D02*
X219717560Y-322145890D01*
X219717560Y-322145890D02*
X219717560Y-322288747D01*
X219717560Y-322288747D02*
X219765179Y-322479223D01*
X219765179Y-322479223D02*
X219812798Y-322574461D01*
X219812798Y-322574461D02*
X219908036Y-322669700D01*
X219908036Y-322669700D02*
X220050893Y-322717319D01*
X220050893Y-322717319D02*
X220146131Y-322717319D01*
X220146131Y-322717319D02*
X220288988Y-322669700D01*
X220288988Y-322669700D02*
X220336607Y-322622080D01*
X220336607Y-322622080D02*
X220336607Y-322288747D01*
X220336607Y-322288747D02*
X220146131Y-322288747D01*
X220717560Y-322431604D02*
X221193750Y-322431604D01*
X220622322Y-322717319D02*
X220955655Y-321717319D01*
X220955655Y-321717319D02*
X221288988Y-322717319D01*
X221622322Y-322717319D02*
X221622322Y-321717319D01*
X221622322Y-321717319D02*
X222193750Y-322717319D01*
X222193750Y-322717319D02*
X222193750Y-321717319D01*
X222669941Y-322622080D02*
X222717560Y-322669700D01*
X222717560Y-322669700D02*
X222669941Y-322717319D01*
X222669941Y-322717319D02*
X222622322Y-322669700D01*
X222622322Y-322669700D02*
X222669941Y-322622080D01*
X222669941Y-322622080D02*
X222669941Y-322717319D01*
X222669941Y-322336366D02*
X222622322Y-321764938D01*
X222622322Y-321764938D02*
X222669941Y-321717319D01*
X222669941Y-321717319D02*
X222717560Y-321764938D01*
X222717560Y-321764938D02*
X222669941Y-322336366D01*
X222669941Y-322336366D02*
X222669941Y-321717319D01*
X223098512Y-322431604D02*
X223574702Y-322431604D01*
X223003274Y-322717319D02*
X223336607Y-321717319D01*
X223336607Y-321717319D02*
X223669940Y-322717319D01*
X209590760Y-319590069D02*
X209828855Y-320590069D01*
X209828855Y-320590069D02*
X210019331Y-319875783D01*
X210019331Y-319875783D02*
X210209807Y-320590069D01*
X210209807Y-320590069D02*
X210447903Y-319590069D01*
X210828855Y-320590069D02*
X210828855Y-319590069D01*
X210828855Y-319590069D02*
X211066950Y-319590069D01*
X211066950Y-319590069D02*
X211209807Y-319637688D01*
X211209807Y-319637688D02*
X211305045Y-319732926D01*
X211305045Y-319732926D02*
X211352664Y-319828164D01*
X211352664Y-319828164D02*
X211400283Y-320018640D01*
X211400283Y-320018640D02*
X211400283Y-320161497D01*
X211400283Y-320161497D02*
X211352664Y-320351973D01*
X211352664Y-320351973D02*
X211305045Y-320447211D01*
X211305045Y-320447211D02*
X211209807Y-320542450D01*
X211209807Y-320542450D02*
X211066950Y-320590069D01*
X211066950Y-320590069D02*
X210828855Y-320590069D01*
X212257426Y-319590069D02*
X212066950Y-319590069D01*
X212066950Y-319590069D02*
X211971712Y-319637688D01*
X211971712Y-319637688D02*
X211924093Y-319685307D01*
X211924093Y-319685307D02*
X211828855Y-319828164D01*
X211828855Y-319828164D02*
X211781236Y-320018640D01*
X211781236Y-320018640D02*
X211781236Y-320399592D01*
X211781236Y-320399592D02*
X211828855Y-320494830D01*
X211828855Y-320494830D02*
X211876474Y-320542450D01*
X211876474Y-320542450D02*
X211971712Y-320590069D01*
X211971712Y-320590069D02*
X212162188Y-320590069D01*
X212162188Y-320590069D02*
X212257426Y-320542450D01*
X212257426Y-320542450D02*
X212305045Y-320494830D01*
X212305045Y-320494830D02*
X212352664Y-320399592D01*
X212352664Y-320399592D02*
X212352664Y-320161497D01*
X212352664Y-320161497D02*
X212305045Y-320066259D01*
X212305045Y-320066259D02*
X212257426Y-320018640D01*
X212257426Y-320018640D02*
X212162188Y-319971021D01*
X212162188Y-319971021D02*
X211971712Y-319971021D01*
X211971712Y-319971021D02*
X211876474Y-320018640D01*
X211876474Y-320018640D02*
X211828855Y-320066259D01*
X211828855Y-320066259D02*
X211781236Y-320161497D01*
X213209807Y-319590069D02*
X213019331Y-319590069D01*
X213019331Y-319590069D02*
X212924093Y-319637688D01*
X212924093Y-319637688D02*
X212876474Y-319685307D01*
X212876474Y-319685307D02*
X212781236Y-319828164D01*
X212781236Y-319828164D02*
X212733617Y-320018640D01*
X212733617Y-320018640D02*
X212733617Y-320399592D01*
X212733617Y-320399592D02*
X212781236Y-320494830D01*
X212781236Y-320494830D02*
X212828855Y-320542450D01*
X212828855Y-320542450D02*
X212924093Y-320590069D01*
X212924093Y-320590069D02*
X213114569Y-320590069D01*
X213114569Y-320590069D02*
X213209807Y-320542450D01*
X213209807Y-320542450D02*
X213257426Y-320494830D01*
X213257426Y-320494830D02*
X213305045Y-320399592D01*
X213305045Y-320399592D02*
X213305045Y-320161497D01*
X213305045Y-320161497D02*
X213257426Y-320066259D01*
X213257426Y-320066259D02*
X213209807Y-320018640D01*
X213209807Y-320018640D02*
X213114569Y-319971021D01*
X213114569Y-319971021D02*
X212924093Y-319971021D01*
X212924093Y-319971021D02*
X212828855Y-320018640D01*
X212828855Y-320018640D02*
X212781236Y-320066259D01*
X212781236Y-320066259D02*
X212733617Y-320161497D01*
X215019331Y-320590069D02*
X214447903Y-320590069D01*
X214733617Y-320590069D02*
X214733617Y-319590069D01*
X214733617Y-319590069D02*
X214638379Y-319732926D01*
X214638379Y-319732926D02*
X214543141Y-319828164D01*
X214543141Y-319828164D02*
X214447903Y-319875783D01*
X215400284Y-320542450D02*
X215495522Y-320590069D01*
X215495522Y-320590069D02*
X215685998Y-320590069D01*
X215685998Y-320590069D02*
X215781236Y-320542450D01*
X215781236Y-320542450D02*
X215828855Y-320447211D01*
X215828855Y-320447211D02*
X215828855Y-320399592D01*
X215828855Y-320399592D02*
X215781236Y-320304354D01*
X215781236Y-320304354D02*
X215685998Y-320256735D01*
X215685998Y-320256735D02*
X215543141Y-320256735D01*
X215543141Y-320256735D02*
X215447903Y-320209116D01*
X215447903Y-320209116D02*
X215400284Y-320113878D01*
X215400284Y-320113878D02*
X215400284Y-320066259D01*
X215400284Y-320066259D02*
X215447903Y-319971021D01*
X215447903Y-319971021D02*
X215543141Y-319923402D01*
X215543141Y-319923402D02*
X215685998Y-319923402D01*
X215685998Y-319923402D02*
X215781236Y-319971021D01*
X216114570Y-319923402D02*
X216495522Y-319923402D01*
X216257427Y-319590069D02*
X216257427Y-320447211D01*
X216257427Y-320447211D02*
X216305046Y-320542450D01*
X216305046Y-320542450D02*
X216400284Y-320590069D01*
X216400284Y-320590069D02*
X216495522Y-320590069D01*
X217590761Y-320590069D02*
X217590761Y-319590069D01*
X217590761Y-319971021D02*
X217685999Y-319923402D01*
X217685999Y-319923402D02*
X217876475Y-319923402D01*
X217876475Y-319923402D02*
X217971713Y-319971021D01*
X217971713Y-319971021D02*
X218019332Y-320018640D01*
X218019332Y-320018640D02*
X218066951Y-320113878D01*
X218066951Y-320113878D02*
X218066951Y-320399592D01*
X218066951Y-320399592D02*
X218019332Y-320494830D01*
X218019332Y-320494830D02*
X217971713Y-320542450D01*
X217971713Y-320542450D02*
X217876475Y-320590069D01*
X217876475Y-320590069D02*
X217685999Y-320590069D01*
X217685999Y-320590069D02*
X217590761Y-320542450D01*
X218924094Y-320590069D02*
X218924094Y-320066259D01*
X218924094Y-320066259D02*
X218876475Y-319971021D01*
X218876475Y-319971021D02*
X218781237Y-319923402D01*
X218781237Y-319923402D02*
X218590761Y-319923402D01*
X218590761Y-319923402D02*
X218495523Y-319971021D01*
X218924094Y-320542450D02*
X218828856Y-320590069D01*
X218828856Y-320590069D02*
X218590761Y-320590069D01*
X218590761Y-320590069D02*
X218495523Y-320542450D01*
X218495523Y-320542450D02*
X218447904Y-320447211D01*
X218447904Y-320447211D02*
X218447904Y-320351973D01*
X218447904Y-320351973D02*
X218495523Y-320256735D01*
X218495523Y-320256735D02*
X218590761Y-320209116D01*
X218590761Y-320209116D02*
X218828856Y-320209116D01*
X218828856Y-320209116D02*
X218924094Y-320161497D01*
X219257428Y-319923402D02*
X219638380Y-319923402D01*
X219400285Y-319590069D02*
X219400285Y-320447211D01*
X219400285Y-320447211D02*
X219447904Y-320542450D01*
X219447904Y-320542450D02*
X219543142Y-320590069D01*
X219543142Y-320590069D02*
X219638380Y-320590069D01*
X220400285Y-320542450D02*
X220305047Y-320590069D01*
X220305047Y-320590069D02*
X220114571Y-320590069D01*
X220114571Y-320590069D02*
X220019333Y-320542450D01*
X220019333Y-320542450D02*
X219971714Y-320494830D01*
X219971714Y-320494830D02*
X219924095Y-320399592D01*
X219924095Y-320399592D02*
X219924095Y-320113878D01*
X219924095Y-320113878D02*
X219971714Y-320018640D01*
X219971714Y-320018640D02*
X220019333Y-319971021D01*
X220019333Y-319971021D02*
X220114571Y-319923402D01*
X220114571Y-319923402D02*
X220305047Y-319923402D01*
X220305047Y-319923402D02*
X220400285Y-319971021D01*
X220828857Y-320590069D02*
X220828857Y-319590069D01*
X221257428Y-320590069D02*
X221257428Y-320066259D01*
X221257428Y-320066259D02*
X221209809Y-319971021D01*
X221209809Y-319971021D02*
X221114571Y-319923402D01*
X221114571Y-319923402D02*
X220971714Y-319923402D01*
X220971714Y-319923402D02*
X220876476Y-319971021D01*
X220876476Y-319971021D02*
X220828857Y-320018640D01*
X222495524Y-319923402D02*
X222495524Y-320923402D01*
X222495524Y-319971021D02*
X222590762Y-319923402D01*
X222590762Y-319923402D02*
X222781238Y-319923402D01*
X222781238Y-319923402D02*
X222876476Y-319971021D01*
X222876476Y-319971021D02*
X222924095Y-320018640D01*
X222924095Y-320018640D02*
X222971714Y-320113878D01*
X222971714Y-320113878D02*
X222971714Y-320399592D01*
X222971714Y-320399592D02*
X222924095Y-320494830D01*
X222924095Y-320494830D02*
X222876476Y-320542450D01*
X222876476Y-320542450D02*
X222781238Y-320590069D01*
X222781238Y-320590069D02*
X222590762Y-320590069D01*
X222590762Y-320590069D02*
X222495524Y-320542450D01*
X223400286Y-320590069D02*
X223400286Y-319923402D01*
X223400286Y-320113878D02*
X223447905Y-320018640D01*
X223447905Y-320018640D02*
X223495524Y-319971021D01*
X223495524Y-319971021D02*
X223590762Y-319923402D01*
X223590762Y-319923402D02*
X223686000Y-319923402D01*
X224162191Y-320590069D02*
X224066953Y-320542450D01*
X224066953Y-320542450D02*
X224019334Y-320494830D01*
X224019334Y-320494830D02*
X223971715Y-320399592D01*
X223971715Y-320399592D02*
X223971715Y-320113878D01*
X223971715Y-320113878D02*
X224019334Y-320018640D01*
X224019334Y-320018640D02*
X224066953Y-319971021D01*
X224066953Y-319971021D02*
X224162191Y-319923402D01*
X224162191Y-319923402D02*
X224305048Y-319923402D01*
X224305048Y-319923402D02*
X224400286Y-319971021D01*
X224400286Y-319971021D02*
X224447905Y-320018640D01*
X224447905Y-320018640D02*
X224495524Y-320113878D01*
X224495524Y-320113878D02*
X224495524Y-320399592D01*
X224495524Y-320399592D02*
X224447905Y-320494830D01*
X224447905Y-320494830D02*
X224400286Y-320542450D01*
X224400286Y-320542450D02*
X224305048Y-320590069D01*
X224305048Y-320590069D02*
X224162191Y-320590069D01*
X224781239Y-319923402D02*
X225162191Y-319923402D01*
X224924096Y-319590069D02*
X224924096Y-320447211D01*
X224924096Y-320447211D02*
X224971715Y-320542450D01*
X224971715Y-320542450D02*
X225066953Y-320590069D01*
X225066953Y-320590069D02*
X225162191Y-320590069D01*
X225638382Y-320590069D02*
X225543144Y-320542450D01*
X225543144Y-320542450D02*
X225495525Y-320494830D01*
X225495525Y-320494830D02*
X225447906Y-320399592D01*
X225447906Y-320399592D02*
X225447906Y-320113878D01*
X225447906Y-320113878D02*
X225495525Y-320018640D01*
X225495525Y-320018640D02*
X225543144Y-319971021D01*
X225543144Y-319971021D02*
X225638382Y-319923402D01*
X225638382Y-319923402D02*
X225781239Y-319923402D01*
X225781239Y-319923402D02*
X225876477Y-319971021D01*
X225876477Y-319971021D02*
X225924096Y-320018640D01*
X225924096Y-320018640D02*
X225971715Y-320113878D01*
X225971715Y-320113878D02*
X225971715Y-320399592D01*
X225971715Y-320399592D02*
X225924096Y-320494830D01*
X225924096Y-320494830D02*
X225876477Y-320542450D01*
X225876477Y-320542450D02*
X225781239Y-320590069D01*
X225781239Y-320590069D02*
X225638382Y-320590069D01*
%TO.C,G\u002A\u002A\u002A*%
G36*
X212328305Y-303196934D02*
G01*
X212318806Y-303238399D01*
X212240843Y-303567937D01*
X212189917Y-303829496D01*
X212162763Y-304047777D01*
X212156117Y-304247478D01*
X212163574Y-304413204D01*
X212214323Y-304775361D01*
X212317362Y-305100110D01*
X212484361Y-305415636D01*
X212706527Y-305724532D01*
X212997997Y-306117593D01*
X213214383Y-306473125D01*
X213362371Y-306806715D01*
X213448645Y-307133950D01*
X213479890Y-307470417D01*
X213480216Y-307528611D01*
X213430236Y-307951381D01*
X213289229Y-308352222D01*
X213063155Y-308719227D01*
X212757976Y-309040491D01*
X212698521Y-309089810D01*
X212573236Y-309186449D01*
X212475919Y-309254858D01*
X212439786Y-309275094D01*
X212435212Y-309242789D01*
X212466319Y-309142962D01*
X212526538Y-308995968D01*
X212538317Y-308969696D01*
X212703983Y-308550161D01*
X212800016Y-308164102D01*
X212823965Y-307799287D01*
X212773378Y-307443480D01*
X212645806Y-307084447D01*
X212438797Y-306709953D01*
X212149899Y-306307764D01*
X211958150Y-306073778D01*
X211748271Y-305817475D01*
X211599130Y-305608293D01*
X211501069Y-305425888D01*
X211444428Y-305249917D01*
X211419548Y-305060038D01*
X211415850Y-304931577D01*
X211461489Y-304559566D01*
X211599040Y-304168824D01*
X211825940Y-303764745D01*
X212139629Y-303352721D01*
X212197050Y-303287152D01*
X212286947Y-303189576D01*
X212326452Y-303161204D01*
X212328305Y-303196934D01*
G37*
G36*
X215150035Y-302323725D02*
G01*
X215145482Y-302336480D01*
X215030486Y-302747407D01*
X214982738Y-303217112D01*
X214985450Y-303487625D01*
X215021787Y-303837481D01*
X215103214Y-304146431D01*
X215240581Y-304440556D01*
X215444734Y-304745937D01*
X215579734Y-304916443D01*
X215897305Y-305356282D01*
X216119778Y-305792819D01*
X216249203Y-306231078D01*
X216287849Y-306651067D01*
X216250688Y-307016558D01*
X216136607Y-307366882D01*
X215938056Y-307724918D01*
X215928985Y-307738620D01*
X215817049Y-307886805D01*
X215683771Y-308033731D01*
X215544066Y-308166972D01*
X215412845Y-308274104D01*
X215305020Y-308342705D01*
X215235504Y-308360349D01*
X215217466Y-308331404D01*
X215237754Y-308276815D01*
X215289843Y-308164588D01*
X215335047Y-308073372D01*
X215510702Y-307639422D01*
X215602929Y-307203021D01*
X215610250Y-306778386D01*
X215531189Y-306379733D01*
X215515777Y-306334177D01*
X215374774Y-306025954D01*
X215157399Y-305675663D01*
X214869971Y-305292902D01*
X214685872Y-305073807D01*
X214492874Y-304842189D01*
X214360629Y-304652495D01*
X214278391Y-304480353D01*
X214235414Y-304301391D01*
X214220954Y-304091235D01*
X214220570Y-304018438D01*
X214240375Y-303748407D01*
X214303308Y-303493077D01*
X214418262Y-303228729D01*
X214594131Y-302931648D01*
X214671551Y-302815796D01*
X214783930Y-302661848D01*
X214899668Y-302520076D01*
X215006458Y-302402928D01*
X215091989Y-302322853D01*
X215143951Y-302292302D01*
X215150035Y-302323725D01*
G37*
G36*
X218415116Y-303195339D02*
G01*
X218410894Y-303214023D01*
X218294263Y-303680234D01*
X218242929Y-304141662D01*
X218256558Y-304580366D01*
X218334818Y-304978402D01*
X218449006Y-305265783D01*
X218520607Y-305382023D01*
X218630684Y-305536976D01*
X218743973Y-305682766D01*
X219055273Y-306100142D01*
X219292734Y-306495421D01*
X219450303Y-306858321D01*
X219467167Y-306910950D01*
X219547995Y-307338380D01*
X219534329Y-307764625D01*
X219428712Y-308178975D01*
X219233689Y-308570720D01*
X219000055Y-308877346D01*
X218869282Y-309009603D01*
X218734611Y-309125970D01*
X218613773Y-309213753D01*
X218524502Y-309260260D01*
X218484530Y-309252798D01*
X218483877Y-309246825D01*
X218503473Y-309182198D01*
X218553846Y-309061339D01*
X218598835Y-308963742D01*
X218735009Y-308652422D01*
X218820008Y-308383505D01*
X218861773Y-308121853D01*
X218868243Y-307832329D01*
X218866464Y-307779315D01*
X218852404Y-307549854D01*
X218824684Y-307375408D01*
X218772706Y-307213538D01*
X218685870Y-307021801D01*
X218668407Y-306986271D01*
X218551589Y-306781438D01*
X218387754Y-306536356D01*
X218197606Y-306280922D01*
X218076604Y-306131685D01*
X217913495Y-305933055D01*
X217767120Y-305746220D01*
X217652812Y-305591323D01*
X217585901Y-305488503D01*
X217583283Y-305483572D01*
X217487792Y-305195333D01*
X217474086Y-304867288D01*
X217540647Y-304510306D01*
X217685957Y-304135258D01*
X217801434Y-303920933D01*
X217895553Y-303774941D01*
X218007347Y-303620065D01*
X218124922Y-303470103D01*
X218236381Y-303338852D01*
X218329830Y-303240110D01*
X218393374Y-303187673D01*
X218415116Y-303195339D01*
G37*
G36*
X223432032Y-306928524D02*
G01*
X223538457Y-306968936D01*
X223638188Y-307059132D01*
X223654607Y-307077275D01*
X223796522Y-307287700D01*
X223841100Y-307492653D01*
X223788332Y-307692538D01*
X223638209Y-307887760D01*
X223636087Y-307889814D01*
X223546224Y-307970151D01*
X223396080Y-308097306D01*
X223201967Y-308257763D01*
X222980197Y-308438003D01*
X222807097Y-308576787D01*
X222572235Y-308764555D01*
X222282534Y-308997110D01*
X221958788Y-309257703D01*
X221621792Y-309529586D01*
X221292340Y-309796009D01*
X221125622Y-309931120D01*
X220767127Y-310218730D01*
X220470035Y-310449466D01*
X220223039Y-310631424D01*
X220014833Y-310772695D01*
X219834112Y-310881375D01*
X219702687Y-310949828D01*
X219407456Y-311103352D01*
X219106840Y-311278207D01*
X218822707Y-311460173D01*
X218576923Y-311635031D01*
X218391357Y-311788562D01*
X218349143Y-311829951D01*
X218253767Y-311937254D01*
X218217671Y-312015849D01*
X218228781Y-312103476D01*
X218245388Y-312154259D01*
X218264351Y-312257843D01*
X218275733Y-312419579D01*
X218279827Y-312612591D01*
X218276928Y-312810003D01*
X218267327Y-312984939D01*
X218251319Y-313110523D01*
X218234452Y-313157050D01*
X218167509Y-313177496D01*
X218015529Y-313198009D01*
X217790976Y-313218159D01*
X217506316Y-313237517D01*
X217174015Y-313255652D01*
X216806539Y-313272134D01*
X216416353Y-313286534D01*
X216015923Y-313298421D01*
X215617714Y-313307365D01*
X215234192Y-313312937D01*
X214877822Y-313314706D01*
X214561071Y-313312242D01*
X214296404Y-313305115D01*
X214157101Y-313297703D01*
X213969845Y-313275529D01*
X213868798Y-313241600D01*
X213852399Y-313217018D01*
X213882052Y-313119075D01*
X213961978Y-312967649D01*
X214078623Y-312782969D01*
X214218435Y-312585266D01*
X214367863Y-312394768D01*
X214510556Y-312234581D01*
X214950375Y-311840835D01*
X215415177Y-311539179D01*
X215902616Y-311330762D01*
X216410346Y-311216731D01*
X216631286Y-311197151D01*
X216874571Y-311189490D01*
X217055796Y-311197189D01*
X217209718Y-311224034D01*
X217371091Y-311273809D01*
X217386948Y-311279464D01*
X217552075Y-311338549D01*
X217686840Y-311386314D01*
X217752828Y-311409254D01*
X217821889Y-311391306D01*
X217949776Y-311320949D01*
X218120188Y-311207922D01*
X218256414Y-311108355D01*
X218543127Y-310871938D01*
X218797993Y-310614950D01*
X219055402Y-310302693D01*
X219056933Y-310300701D01*
X219147612Y-310184704D01*
X219236294Y-310077576D01*
X219330823Y-309972349D01*
X219439043Y-309862051D01*
X219568796Y-309739714D01*
X219727925Y-309598368D01*
X219924274Y-309431044D01*
X220165686Y-309230771D01*
X220460003Y-308990580D01*
X220815070Y-308703502D01*
X221230835Y-308368911D01*
X223034437Y-306919206D01*
X223273905Y-306919206D01*
X223432032Y-306928524D01*
G37*
G36*
X215819424Y-309745876D02*
G01*
X216374872Y-309754854D01*
X216896763Y-309770661D01*
X217366407Y-309793294D01*
X217765116Y-309822751D01*
X217897954Y-309836156D01*
X218170510Y-309867969D01*
X218411016Y-309899024D01*
X218601871Y-309926812D01*
X218725473Y-309948827D01*
X218762336Y-309959334D01*
X218772419Y-310006475D01*
X218719229Y-310106788D01*
X218599215Y-310266664D01*
X218575009Y-310296447D01*
X218443950Y-310450228D01*
X218350972Y-310538990D01*
X218277149Y-310576819D01*
X218203554Y-310577799D01*
X218198151Y-310576892D01*
X217975755Y-310547619D01*
X217670605Y-310521842D01*
X217297397Y-310499784D01*
X216870828Y-310481671D01*
X216405593Y-310467729D01*
X215916389Y-310458181D01*
X215417912Y-310453253D01*
X214924857Y-310453170D01*
X214451922Y-310458157D01*
X214013802Y-310468439D01*
X213625194Y-310484241D01*
X213340499Y-310502520D01*
X212526848Y-310579277D01*
X211775297Y-310674708D01*
X211090389Y-310787640D01*
X210476662Y-310916899D01*
X209938659Y-311061310D01*
X209480920Y-311219702D01*
X209107985Y-311390899D01*
X208824396Y-311573728D01*
X208682928Y-311706345D01*
X208562615Y-311898207D01*
X208539584Y-312088506D01*
X208613621Y-312276838D01*
X208784508Y-312462801D01*
X209052032Y-312645993D01*
X209238379Y-312744491D01*
X209703476Y-312937741D01*
X210252483Y-313107627D01*
X210874644Y-313254147D01*
X211559203Y-313377303D01*
X212295406Y-313477094D01*
X213072498Y-313553521D01*
X213879724Y-313606583D01*
X214706329Y-313636281D01*
X215541557Y-313642615D01*
X216374655Y-313625585D01*
X217194865Y-313585191D01*
X217991435Y-313521432D01*
X218753608Y-313434310D01*
X219470630Y-313323825D01*
X220131745Y-313189975D01*
X220726199Y-313032762D01*
X221243237Y-312852186D01*
X221487682Y-312744373D01*
X221805882Y-312564339D01*
X222027545Y-312379048D01*
X222153364Y-312190600D01*
X222184029Y-312001096D01*
X222120230Y-311812635D01*
X221962659Y-311627320D01*
X221712007Y-311447249D01*
X221368964Y-311274524D01*
X220952515Y-311117288D01*
X220767077Y-311058205D01*
X220613239Y-311013708D01*
X220517480Y-310991316D01*
X220504432Y-310990031D01*
X220427777Y-310970123D01*
X220434506Y-310909293D01*
X220525554Y-310805883D01*
X220682920Y-310673024D01*
X220833665Y-310556695D01*
X220934822Y-310491407D01*
X221013349Y-310467795D01*
X221096200Y-310476498D01*
X221181577Y-310499814D01*
X221401834Y-310577830D01*
X221655865Y-310689381D01*
X221915143Y-310819753D01*
X222151142Y-310954230D01*
X222335333Y-311078096D01*
X222390244Y-311123291D01*
X222555941Y-311293958D01*
X222667755Y-311468181D01*
X222731111Y-311666300D01*
X222751430Y-311908658D01*
X222734135Y-312215595D01*
X222718621Y-312355098D01*
X222574854Y-313138284D01*
X222339696Y-313896778D01*
X222017941Y-314621888D01*
X221614381Y-315304919D01*
X221133810Y-315937178D01*
X220581021Y-316509971D01*
X220287716Y-316764279D01*
X220056293Y-316944870D01*
X219798126Y-317132626D01*
X219536922Y-317311465D01*
X219296389Y-317465306D01*
X219100233Y-317578067D01*
X219053323Y-317601606D01*
X218936722Y-317667767D01*
X218885723Y-317742896D01*
X218873936Y-317868281D01*
X218873896Y-317882320D01*
X218836441Y-318085171D01*
X218737859Y-318274467D01*
X218598821Y-318414919D01*
X218543416Y-318446469D01*
X218466902Y-318458725D01*
X218294808Y-318469234D01*
X218026856Y-318478002D01*
X217662769Y-318485032D01*
X217202267Y-318490329D01*
X216645072Y-318493897D01*
X215990906Y-318495740D01*
X215349241Y-318495948D01*
X214712346Y-318495280D01*
X214165893Y-318494031D01*
X213702821Y-318492040D01*
X213316069Y-318489143D01*
X212998575Y-318485177D01*
X212743278Y-318479978D01*
X212543116Y-318473382D01*
X212391028Y-318465228D01*
X212279952Y-318455350D01*
X212202827Y-318443586D01*
X212152592Y-318429773D01*
X212134490Y-318421584D01*
X211986699Y-318291840D01*
X211886018Y-318106229D01*
X211853551Y-317924611D01*
X211843333Y-317822461D01*
X211802946Y-317735873D01*
X211717790Y-317649698D01*
X211573265Y-317548785D01*
X211378740Y-317431893D01*
X210707533Y-316987012D01*
X210096723Y-316471378D01*
X209551546Y-315892611D01*
X209077236Y-315258327D01*
X208679028Y-314576146D01*
X208362156Y-313853686D01*
X208131857Y-313098564D01*
X208024272Y-312550108D01*
X207976801Y-312196029D01*
X207957758Y-311918462D01*
X207970748Y-311699628D01*
X208019378Y-311521746D01*
X208107250Y-311367037D01*
X208237972Y-311217722D01*
X208307938Y-311151036D01*
X208609497Y-310924636D01*
X209003938Y-310712707D01*
X209487565Y-310516324D01*
X210056680Y-310336563D01*
X210707584Y-310174501D01*
X211436581Y-310031212D01*
X212239973Y-309907775D01*
X212828599Y-309835534D01*
X213192927Y-309803493D01*
X213635831Y-309778294D01*
X214138621Y-309759935D01*
X214682609Y-309748414D01*
X215249106Y-309743728D01*
X215819424Y-309745876D01*
G37*
G36*
X163553643Y-315146487D02*
G01*
X163361331Y-315146487D01*
X163361331Y-314939382D01*
X163553643Y-314939382D01*
X163553643Y-315146487D01*
G37*
G36*
X163775542Y-315146487D02*
G01*
X163583230Y-315146487D01*
X163583230Y-314939382D01*
X163775542Y-314939382D01*
X163775542Y-315146487D01*
G37*
G36*
X164448635Y-315146487D02*
G01*
X164256322Y-315146487D01*
X164256322Y-314939382D01*
X164448635Y-314939382D01*
X164448635Y-315146487D01*
G37*
G36*
X164633550Y-312232218D02*
G01*
X164271116Y-312232218D01*
X164271116Y-312165648D01*
X164633550Y-312165648D01*
X164633550Y-312232218D01*
G37*
G36*
X164633550Y-312306184D02*
G01*
X164271116Y-312306184D01*
X164271116Y-312247011D01*
X164633550Y-312247011D01*
X164633550Y-312306184D01*
G37*
G36*
X164633550Y-312380150D02*
G01*
X164271116Y-312380150D01*
X164271116Y-312328374D01*
X164633550Y-312328374D01*
X164633550Y-312380150D01*
G37*
G36*
X164670533Y-315146487D02*
G01*
X164478221Y-315146487D01*
X164478221Y-314939382D01*
X164670533Y-314939382D01*
X164670533Y-315146487D01*
G37*
G36*
X165047761Y-312461513D02*
G01*
X164271116Y-312461513D01*
X164271116Y-312409737D01*
X165047761Y-312409737D01*
X165047761Y-312461513D01*
G37*
G36*
X165047761Y-312535479D02*
G01*
X164271116Y-312535479D01*
X164271116Y-312491100D01*
X165047761Y-312491100D01*
X165047761Y-312535479D01*
G37*
G36*
X165047761Y-312609446D02*
G01*
X164271116Y-312609446D01*
X164271116Y-312572463D01*
X165047761Y-312572463D01*
X165047761Y-312609446D01*
G37*
G36*
X165484162Y-312158252D02*
G01*
X165121727Y-312158252D01*
X165121727Y-311529539D01*
X165484162Y-311529539D01*
X165484162Y-312158252D01*
G37*
G36*
X165484162Y-312306184D02*
G01*
X165118029Y-312306184D01*
X165118029Y-312247011D01*
X165484162Y-312247011D01*
X165484162Y-312306184D01*
G37*
G36*
X165898373Y-312232218D02*
G01*
X165528541Y-312232218D01*
X165528541Y-312165648D01*
X165898373Y-312165648D01*
X165898373Y-312232218D01*
G37*
G36*
X165898373Y-312306184D02*
G01*
X165528541Y-312306184D01*
X165528541Y-312247011D01*
X165898373Y-312247011D01*
X165898373Y-312306184D01*
G37*
G36*
X165898373Y-312380150D02*
G01*
X165528541Y-312380150D01*
X165528541Y-312328374D01*
X165898373Y-312328374D01*
X165898373Y-312380150D01*
G37*
G36*
X165898373Y-312461513D02*
G01*
X165121727Y-312461513D01*
X165121727Y-312409737D01*
X165898373Y-312409737D01*
X165898373Y-312461513D01*
G37*
G36*
X165898373Y-312609446D02*
G01*
X165118029Y-312609446D01*
X165118029Y-312572463D01*
X165898373Y-312572463D01*
X165898373Y-312609446D01*
G37*
G36*
X166712001Y-312232218D02*
G01*
X165964942Y-312232218D01*
X165964942Y-312165648D01*
X166712001Y-312165648D01*
X166712001Y-312232218D01*
G37*
G36*
X166712001Y-312461513D02*
G01*
X165964942Y-312461513D01*
X165964942Y-312409737D01*
X166712001Y-312409737D01*
X166712001Y-312461513D01*
G37*
G36*
X166712001Y-312535479D02*
G01*
X165964942Y-312535479D01*
X165964942Y-312491100D01*
X166712001Y-312491100D01*
X166712001Y-312535479D01*
G37*
G36*
X166712001Y-312609446D02*
G01*
X165964942Y-312609446D01*
X165964942Y-312572463D01*
X166712001Y-312572463D01*
X166712001Y-312609446D01*
G37*
G36*
X167333317Y-312232218D02*
G01*
X166970883Y-312232218D01*
X166970883Y-312165648D01*
X167333317Y-312165648D01*
X167333317Y-312232218D01*
G37*
G36*
X167333317Y-312306184D02*
G01*
X166970883Y-312306184D01*
X166970883Y-312247011D01*
X167333317Y-312247011D01*
X167333317Y-312306184D01*
G37*
G36*
X167333317Y-312380150D02*
G01*
X166970883Y-312380150D01*
X166970883Y-312328374D01*
X167333317Y-312328374D01*
X167333317Y-312380150D01*
G37*
G36*
X167333317Y-312461513D02*
G01*
X166970883Y-312461513D01*
X166970883Y-312409737D01*
X167333317Y-312409737D01*
X167333317Y-312461513D01*
G37*
G36*
X167333317Y-312535479D02*
G01*
X166970883Y-312535479D01*
X166970883Y-312491100D01*
X167333317Y-312491100D01*
X167333317Y-312535479D01*
G37*
G36*
X167333317Y-312609446D02*
G01*
X166970883Y-312609446D01*
X166970883Y-312572463D01*
X167333317Y-312572463D01*
X167333317Y-312609446D01*
G37*
G36*
X167592199Y-315146487D02*
G01*
X167200178Y-315146487D01*
X167200178Y-314939382D01*
X167592199Y-314939382D01*
X167592199Y-315146487D01*
G37*
G36*
X167969427Y-312306184D02*
G01*
X167603294Y-312306184D01*
X167603294Y-312247011D01*
X167969427Y-312247011D01*
X167969427Y-312306184D01*
G37*
G36*
X168383638Y-312232218D02*
G01*
X168013806Y-312232218D01*
X168013806Y-312165648D01*
X168383638Y-312165648D01*
X168383638Y-312232218D01*
G37*
G36*
X168383638Y-312306184D02*
G01*
X168013806Y-312306184D01*
X168013806Y-312247011D01*
X168383638Y-312247011D01*
X168383638Y-312306184D01*
G37*
G36*
X168383638Y-312380150D02*
G01*
X168013806Y-312380150D01*
X168013806Y-312328374D01*
X168383638Y-312328374D01*
X168383638Y-312380150D01*
G37*
G36*
X168383638Y-312461513D02*
G01*
X167606992Y-312461513D01*
X167606992Y-312409737D01*
X168383638Y-312409737D01*
X168383638Y-312461513D01*
G37*
G36*
X168383638Y-312609446D02*
G01*
X167603294Y-312609446D01*
X167603294Y-312572463D01*
X168383638Y-312572463D01*
X168383638Y-312609446D01*
G37*
G36*
X168812642Y-312609446D02*
G01*
X168450207Y-312609446D01*
X168450207Y-312572463D01*
X168812642Y-312572463D01*
X168812642Y-312609446D01*
G37*
G36*
X169145490Y-315146487D02*
G01*
X168753469Y-315146487D01*
X168753469Y-314939382D01*
X169145490Y-314939382D01*
X169145490Y-315146487D01*
G37*
G36*
X169382181Y-315146487D02*
G01*
X169189869Y-315146487D01*
X169189869Y-314939382D01*
X169382181Y-314939382D01*
X169382181Y-315146487D01*
G37*
G36*
X169522717Y-312232218D02*
G01*
X168450207Y-312232218D01*
X168450207Y-312165648D01*
X169522717Y-312165648D01*
X169522717Y-312232218D01*
G37*
G36*
X169522717Y-312306184D02*
G01*
X168450207Y-312306184D01*
X168450207Y-312247011D01*
X169522717Y-312247011D01*
X169522717Y-312306184D01*
G37*
G36*
X169522717Y-312380150D02*
G01*
X168450207Y-312380150D01*
X168450207Y-312328374D01*
X169522717Y-312328374D01*
X169522717Y-312380150D01*
G37*
G36*
X169522717Y-312461513D02*
G01*
X168450207Y-312461513D01*
X168450207Y-312409737D01*
X169522717Y-312409737D01*
X169522717Y-312461513D01*
G37*
G36*
X169522717Y-312609446D02*
G01*
X169160283Y-312609446D01*
X169160283Y-312572463D01*
X169522717Y-312572463D01*
X169522717Y-312609446D01*
G37*
G36*
X169604080Y-315146487D02*
G01*
X169411768Y-315146487D01*
X169411768Y-314939382D01*
X169604080Y-314939382D01*
X169604080Y-315146487D01*
G37*
G36*
X170040481Y-315146487D02*
G01*
X169648460Y-315146487D01*
X169648460Y-314939382D01*
X170040481Y-314939382D01*
X170040481Y-315146487D01*
G37*
G36*
X170343742Y-312535479D02*
G01*
X169596684Y-312535479D01*
X169596684Y-312491100D01*
X170343742Y-312491100D01*
X170343742Y-312535479D01*
G37*
G36*
X170343742Y-312609446D02*
G01*
X169596684Y-312609446D01*
X169596684Y-312572463D01*
X170343742Y-312572463D01*
X170343742Y-312609446D01*
G37*
G36*
X170735763Y-315146487D02*
G01*
X170543451Y-315146487D01*
X170543451Y-314939382D01*
X170735763Y-314939382D01*
X170735763Y-315146487D01*
G37*
G36*
X170957662Y-315146487D02*
G01*
X170765350Y-315146487D01*
X170765350Y-314939382D01*
X170957662Y-314939382D01*
X170957662Y-315146487D01*
G37*
G36*
X172311244Y-315146487D02*
G01*
X171919223Y-315146487D01*
X171919223Y-314939382D01*
X172311244Y-314939382D01*
X172311244Y-315146487D01*
G37*
G36*
X164211943Y-314939382D02*
G01*
X164211943Y-315146487D01*
X163820702Y-315146487D01*
X163818462Y-315042922D01*
X163816223Y-314939358D01*
X164211943Y-314939382D01*
G37*
G36*
X165484162Y-312232218D02*
G01*
X165123217Y-312232218D01*
X165120570Y-312198933D01*
X165117922Y-312165648D01*
X165484162Y-312165648D01*
X165484162Y-312232218D01*
G37*
G36*
X165484162Y-312380150D02*
G01*
X165117301Y-312380150D01*
X165120323Y-312354262D01*
X165123346Y-312328374D01*
X165484162Y-312328374D01*
X165484162Y-312380150D01*
G37*
G36*
X165898373Y-312535479D02*
G01*
X165123406Y-312535479D01*
X165120149Y-312513290D01*
X165116893Y-312491100D01*
X165898373Y-312491100D01*
X165898373Y-312535479D01*
G37*
G36*
X166712001Y-312306184D02*
G01*
X166019721Y-312306184D01*
X165990830Y-312276598D01*
X165961940Y-312247011D01*
X166712001Y-312247011D01*
X166712001Y-312306184D01*
G37*
G36*
X167969427Y-312232218D02*
G01*
X167608482Y-312232218D01*
X167605835Y-312198933D01*
X167603187Y-312165648D01*
X167969427Y-312165648D01*
X167969427Y-312232218D01*
G37*
G36*
X167969427Y-312380150D02*
G01*
X167602566Y-312380150D01*
X167605588Y-312354262D01*
X167608611Y-312328374D01*
X167969427Y-312328374D01*
X167969427Y-312380150D01*
G37*
G36*
X168383638Y-312535479D02*
G01*
X167608671Y-312535479D01*
X167605414Y-312513290D01*
X167602158Y-312491100D01*
X168383638Y-312491100D01*
X168383638Y-312535479D01*
G37*
G36*
X170340044Y-312457815D02*
G01*
X169968364Y-312459732D01*
X169596684Y-312461650D01*
X169596684Y-312409737D01*
X170344680Y-312409737D01*
X170340044Y-312457815D01*
G37*
G36*
X170343742Y-312306184D02*
G01*
X169651462Y-312306184D01*
X169622572Y-312276598D01*
X169593681Y-312247011D01*
X170343742Y-312247011D01*
X170343742Y-312306184D01*
G37*
G36*
X170342318Y-312197084D02*
G01*
X170340044Y-312228520D01*
X169968364Y-312230437D01*
X169596684Y-312232355D01*
X169596684Y-312165648D01*
X170344593Y-312165648D01*
X170342318Y-312197084D01*
G37*
G36*
X172353525Y-318757888D02*
G01*
X172354763Y-318781780D01*
X172353525Y-318798569D01*
X172351912Y-318803158D01*
X172350797Y-318794757D01*
X172350443Y-318778228D01*
X172350902Y-318759968D01*
X172352096Y-318753124D01*
X172353525Y-318757888D01*
G37*
G36*
X171653887Y-315007800D02*
G01*
X171678833Y-315076219D01*
X171680959Y-315007800D01*
X171683086Y-314939382D01*
X171882240Y-314939382D01*
X171882240Y-315146487D01*
X171460632Y-315146487D01*
X171460632Y-314939382D01*
X171628941Y-314939382D01*
X171653887Y-315007800D01*
G37*
G36*
X165105483Y-314963773D02*
G01*
X165115923Y-314974993D01*
X165122723Y-314985097D01*
X165126663Y-314997504D01*
X165128524Y-315015631D01*
X165129086Y-315042896D01*
X165129124Y-315067325D01*
X165129124Y-315146487D01*
X164714913Y-315146487D01*
X164714913Y-314939382D01*
X165081842Y-314939382D01*
X165105483Y-314963773D01*
G37*
G36*
X166481255Y-314963773D02*
G01*
X166491695Y-314974993D01*
X166498495Y-314985097D01*
X166502435Y-314997504D01*
X166504296Y-315015631D01*
X166504857Y-315042896D01*
X166504896Y-315067325D01*
X166504896Y-315146487D01*
X166090685Y-315146487D01*
X166090685Y-314939382D01*
X166457614Y-314939382D01*
X166481255Y-314963773D01*
G37*
G36*
X166939845Y-314963773D02*
G01*
X166950285Y-314974993D01*
X166957085Y-314985097D01*
X166961025Y-314997504D01*
X166962886Y-315015631D01*
X166963448Y-315042896D01*
X166963486Y-315067325D01*
X166963486Y-315146487D01*
X166549275Y-315146487D01*
X166549275Y-314939382D01*
X166916204Y-314939382D01*
X166939845Y-314963773D01*
G37*
G36*
X167533026Y-311906337D02*
G01*
X167337016Y-311910465D01*
X167334988Y-312034358D01*
X167332960Y-312158252D01*
X166971240Y-312158252D01*
X166969212Y-312034358D01*
X166967184Y-311910465D01*
X166872877Y-311908395D01*
X166778571Y-311906325D01*
X166778571Y-311529539D01*
X167533026Y-311529539D01*
X167533026Y-311906337D01*
G37*
G36*
X168485739Y-314963773D02*
G01*
X168496179Y-314974993D01*
X168502979Y-314985097D01*
X168506919Y-314997504D01*
X168508780Y-315015631D01*
X168509342Y-315042896D01*
X168509380Y-315067325D01*
X168509380Y-315146487D01*
X168095169Y-315146487D01*
X168095169Y-314939382D01*
X168462098Y-314939382D01*
X168485739Y-314963773D01*
G37*
G36*
X170475431Y-314963773D02*
G01*
X170485870Y-314974993D01*
X170492670Y-314985097D01*
X170496611Y-314997504D01*
X170498471Y-315015631D01*
X170499033Y-315042896D01*
X170499071Y-315067325D01*
X170499071Y-315146487D01*
X170084861Y-315146487D01*
X170084861Y-314939382D01*
X170451790Y-314939382D01*
X170475431Y-314963773D01*
G37*
G36*
X163093602Y-314963773D02*
G01*
X163104042Y-314974993D01*
X163110842Y-314985097D01*
X163114782Y-314997504D01*
X163116643Y-315015631D01*
X163117204Y-315042896D01*
X163117243Y-315067325D01*
X163117243Y-315146487D01*
X162703032Y-315146487D01*
X162703032Y-314986663D01*
X162727423Y-314963022D01*
X162751814Y-314939382D01*
X163069961Y-314939382D01*
X163093602Y-314963773D01*
G37*
G36*
X165001846Y-311576068D02*
G01*
X165047962Y-311622597D01*
X165046012Y-311873782D01*
X165044063Y-312124967D01*
X164681628Y-312124967D01*
X164679814Y-311910465D01*
X164637248Y-311910465D01*
X164635220Y-312034358D01*
X164633192Y-312158252D01*
X164271116Y-312158252D01*
X164271116Y-311615029D01*
X164355714Y-311529539D01*
X164955731Y-311529539D01*
X165001846Y-311576068D01*
G37*
G36*
X165564074Y-314963773D02*
G01*
X165574513Y-314974993D01*
X165581313Y-314985097D01*
X165585254Y-314997504D01*
X165587114Y-315015631D01*
X165587676Y-315042896D01*
X165587714Y-315067325D01*
X165587714Y-315146487D01*
X165173504Y-315146487D01*
X165173504Y-314986663D01*
X165197895Y-314963022D01*
X165222286Y-314939382D01*
X165540433Y-314939382D01*
X165564074Y-314963773D01*
G37*
G36*
X166022664Y-314963773D02*
G01*
X166033104Y-314974993D01*
X166039904Y-314985097D01*
X166043844Y-314997504D01*
X166045705Y-315015631D01*
X166046267Y-315042896D01*
X166046305Y-315067325D01*
X166046305Y-315146487D01*
X165632094Y-315146487D01*
X165632094Y-314986663D01*
X165656485Y-314963022D01*
X165680876Y-314939382D01*
X165999023Y-314939382D01*
X166022664Y-314963773D01*
G37*
G36*
X168027149Y-314963773D02*
G01*
X168037589Y-314974993D01*
X168044389Y-314985097D01*
X168048329Y-314997504D01*
X168050190Y-315015631D01*
X168050751Y-315042896D01*
X168050790Y-315067325D01*
X168050790Y-315146487D01*
X167636579Y-315146487D01*
X167636579Y-314986663D01*
X167660970Y-314963022D01*
X167685361Y-314939382D01*
X168003508Y-314939382D01*
X168027149Y-314963773D01*
G37*
G36*
X171392612Y-314963773D02*
G01*
X171403052Y-314974993D01*
X171409852Y-314985097D01*
X171413792Y-314997504D01*
X171415653Y-315015631D01*
X171416214Y-315042896D01*
X171416253Y-315067325D01*
X171416253Y-315146487D01*
X171002042Y-315146487D01*
X171002042Y-314986663D01*
X171026433Y-314963022D01*
X171050824Y-314939382D01*
X171368971Y-314939382D01*
X171392612Y-314963773D01*
G37*
G36*
X170343742Y-311622395D02*
G01*
X170343742Y-311906517D01*
X169962816Y-311910465D01*
X169962816Y-311954845D01*
X170251222Y-311958875D01*
X170297745Y-312004938D01*
X170344269Y-312051001D01*
X170342156Y-312102777D01*
X170340044Y-312154553D01*
X169968364Y-312156471D01*
X169596684Y-312158388D01*
X169596684Y-311615029D01*
X169681282Y-311529539D01*
X170251712Y-311529539D01*
X170343742Y-311622395D01*
G37*
G36*
X166712001Y-311622395D02*
G01*
X166712001Y-311906767D01*
X166326439Y-311906767D01*
X166331075Y-311954845D01*
X166475278Y-311956860D01*
X166619480Y-311958875D01*
X166666004Y-312004938D01*
X166712527Y-312051001D01*
X166708303Y-312154553D01*
X166336804Y-312156471D01*
X165965305Y-312158388D01*
X165963274Y-311890192D01*
X165961244Y-311621997D01*
X166048650Y-311529539D01*
X166619971Y-311529539D01*
X166712001Y-311622395D01*
G37*
G36*
X167337725Y-315173797D02*
G01*
X167386326Y-315174156D01*
X167416529Y-315174480D01*
X167592199Y-315176586D01*
X167592199Y-315375353D01*
X167494194Y-315377417D01*
X167396188Y-315379481D01*
X167394152Y-315495977D01*
X167392115Y-315612474D01*
X167200178Y-315612474D01*
X167200178Y-315177056D01*
X167220519Y-315174716D01*
X167233526Y-315174139D01*
X167258968Y-315173791D01*
X167294487Y-315173677D01*
X167337725Y-315173797D01*
G37*
G36*
X168337622Y-311575967D02*
G01*
X168383638Y-311622395D01*
X168383638Y-312158510D01*
X168200571Y-312156532D01*
X168017505Y-312154553D01*
X168015475Y-312030186D01*
X168013444Y-311905819D01*
X167993285Y-311908142D01*
X167973125Y-311910465D01*
X167971097Y-312034358D01*
X167969069Y-312158252D01*
X167607354Y-312158252D01*
X167605324Y-311890124D01*
X167603294Y-311621997D01*
X167690700Y-311529539D01*
X168291607Y-311529539D01*
X168337622Y-311575967D01*
G37*
G36*
X166712001Y-312380150D02*
G01*
X166342170Y-312380150D01*
X166342170Y-312343167D01*
X166198372Y-312343167D01*
X166146810Y-312342792D01*
X166104791Y-312341712D01*
X166073725Y-312339997D01*
X166055022Y-312337719D01*
X166050003Y-312335771D01*
X166056050Y-312333772D01*
X166076782Y-312332084D01*
X166112092Y-312330709D01*
X166161875Y-312329648D01*
X166226025Y-312328905D01*
X166304437Y-312328481D01*
X166378716Y-312328374D01*
X166712001Y-312328374D01*
X166712001Y-312380150D01*
G37*
G36*
X170343742Y-312380150D02*
G01*
X169973911Y-312380150D01*
X169973911Y-312343167D01*
X169830114Y-312343167D01*
X169778551Y-312342792D01*
X169736532Y-312341712D01*
X169705467Y-312339997D01*
X169686764Y-312337719D01*
X169681745Y-312335771D01*
X169687792Y-312333772D01*
X169708523Y-312332084D01*
X169743833Y-312330709D01*
X169793616Y-312329648D01*
X169857766Y-312328905D01*
X169936178Y-312328481D01*
X170010458Y-312328374D01*
X170343742Y-312328374D01*
X170343742Y-312380150D01*
G37*
G36*
X165898373Y-312158252D02*
G01*
X165718388Y-312158252D01*
X165668212Y-312158057D01*
X165623018Y-312157510D01*
X165584886Y-312156666D01*
X165555897Y-312155582D01*
X165538134Y-312154311D01*
X165533473Y-312153321D01*
X165532418Y-312145100D01*
X165531441Y-312123650D01*
X165530566Y-312090534D01*
X165529816Y-312047317D01*
X165529218Y-311995561D01*
X165528794Y-311936831D01*
X165528571Y-311872690D01*
X165528541Y-311838964D01*
X165528541Y-311529539D01*
X165898373Y-311529539D01*
X165898373Y-312158252D01*
G37*
G36*
X171668433Y-318686200D02*
G01*
X171675269Y-318692786D01*
X171689397Y-318707846D01*
X171708356Y-318728730D01*
X171719092Y-318740769D01*
X171764707Y-318792221D01*
X171742478Y-318803716D01*
X171725448Y-318812116D01*
X171714814Y-318813562D01*
X171704432Y-318806981D01*
X171691827Y-318794871D01*
X171674377Y-318777125D01*
X171653491Y-318754969D01*
X171643364Y-318743903D01*
X171615701Y-318713276D01*
X171639545Y-318698179D01*
X171656093Y-318689195D01*
X171667159Y-318685887D01*
X171668433Y-318686200D01*
G37*
G36*
X169145490Y-315375353D02*
G01*
X169047576Y-315377417D01*
X169007459Y-315378463D01*
X168979793Y-315379847D01*
X168962234Y-315381921D01*
X168952439Y-315385034D01*
X168948066Y-315389536D01*
X168947179Y-315392425D01*
X168947340Y-315397628D01*
X168951643Y-315401221D01*
X168962304Y-315403499D01*
X168981540Y-315404754D01*
X169011567Y-315405278D01*
X169045093Y-315405369D01*
X169145490Y-315405369D01*
X169145490Y-315612474D01*
X168753469Y-315612474D01*
X168753469Y-315176073D01*
X169145490Y-315176073D01*
X169145490Y-315375353D01*
G37*
G36*
X170040481Y-315375353D02*
G01*
X169942567Y-315377417D01*
X169902450Y-315378463D01*
X169874784Y-315379847D01*
X169857225Y-315381921D01*
X169847430Y-315385034D01*
X169843057Y-315389536D01*
X169842170Y-315392425D01*
X169842331Y-315397628D01*
X169846634Y-315401221D01*
X169857296Y-315403499D01*
X169876532Y-315404754D01*
X169906558Y-315405278D01*
X169940084Y-315405369D01*
X170040481Y-315405369D01*
X170040481Y-315612474D01*
X169648460Y-315612474D01*
X169648460Y-315176073D01*
X170040481Y-315176073D01*
X170040481Y-315375353D01*
G37*
G36*
X171598470Y-315173753D02*
G01*
X171648033Y-315174051D01*
X171691777Y-315174464D01*
X171882240Y-315176553D01*
X171882240Y-315612474D01*
X171705944Y-315612474D01*
X171694181Y-315581039D01*
X171684713Y-315555226D01*
X171673724Y-315524555D01*
X171668221Y-315508921D01*
X171654025Y-315468240D01*
X171653485Y-315540357D01*
X171652944Y-315612474D01*
X171460632Y-315612474D01*
X171460632Y-315177056D01*
X171480973Y-315174716D01*
X171493757Y-315174157D01*
X171519093Y-315173809D01*
X171554744Y-315173673D01*
X171598470Y-315173753D01*
G37*
G36*
X172311244Y-315375353D02*
G01*
X172213330Y-315377417D01*
X172173213Y-315378463D01*
X172145547Y-315379847D01*
X172127988Y-315381921D01*
X172118193Y-315385034D01*
X172113820Y-315389536D01*
X172112933Y-315392425D01*
X172113094Y-315397628D01*
X172117397Y-315401221D01*
X172128059Y-315403499D01*
X172147295Y-315404754D01*
X172177321Y-315405278D01*
X172210847Y-315405369D01*
X172311244Y-315405369D01*
X172311244Y-315612474D01*
X171919223Y-315612474D01*
X171919223Y-315176073D01*
X172311244Y-315176073D01*
X172311244Y-315375353D01*
G37*
G36*
X169522717Y-312158252D02*
G01*
X168450207Y-312158252D01*
X168450207Y-311529539D01*
X168841013Y-311529539D01*
X168859684Y-311586863D01*
X168867457Y-311610846D01*
X168878793Y-311645979D01*
X168892745Y-311689322D01*
X168908368Y-311737935D01*
X168924715Y-311788878D01*
X168931681Y-311810610D01*
X168985008Y-311977034D01*
X169009344Y-311903068D01*
X169019390Y-311872315D01*
X169032731Y-311831152D01*
X169048178Y-311783265D01*
X169064541Y-311732342D01*
X169080632Y-311682069D01*
X169080920Y-311681170D01*
X169128158Y-311533237D01*
X169325438Y-311531267D01*
X169522717Y-311529297D01*
X169522717Y-312158252D01*
G37*
G36*
X165365816Y-315290721D02*
G01*
X165365907Y-315334174D01*
X165366367Y-315364996D01*
X165367475Y-315385350D01*
X165369510Y-315397397D01*
X165372751Y-315403302D01*
X165377477Y-315405224D01*
X165380609Y-315405369D01*
X165386216Y-315404660D01*
X165390193Y-315401093D01*
X165392819Y-315392506D01*
X165394374Y-315376735D01*
X165395135Y-315351618D01*
X165395384Y-315314994D01*
X165395402Y-315290721D01*
X165395402Y-315176073D01*
X165587714Y-315176073D01*
X165587714Y-315565192D01*
X165538932Y-315612474D01*
X165220785Y-315612474D01*
X165197144Y-315588083D01*
X165173504Y-315563692D01*
X165173504Y-315176073D01*
X165365816Y-315176073D01*
X165365816Y-315290721D01*
G37*
G36*
X167828891Y-315290721D02*
G01*
X167828982Y-315334174D01*
X167829443Y-315364996D01*
X167830551Y-315385350D01*
X167832586Y-315397397D01*
X167835826Y-315403302D01*
X167840552Y-315405224D01*
X167843684Y-315405369D01*
X167849291Y-315404660D01*
X167853268Y-315401093D01*
X167855894Y-315392506D01*
X167857449Y-315376735D01*
X167858211Y-315351618D01*
X167858459Y-315314994D01*
X167858477Y-315290721D01*
X167858477Y-315176073D01*
X168050790Y-315176073D01*
X168050790Y-315565192D01*
X168026398Y-315588833D01*
X168002007Y-315612474D01*
X167683860Y-315612474D01*
X167660220Y-315588083D01*
X167636579Y-315563692D01*
X167636579Y-315176073D01*
X167828891Y-315176073D01*
X167828891Y-315290721D01*
G37*
G36*
X169025966Y-312735383D02*
G01*
X169052073Y-312736158D01*
X169067759Y-312737803D01*
X169075209Y-312740605D01*
X169076608Y-312744851D01*
X169076013Y-312746888D01*
X169072097Y-312758679D01*
X169071523Y-312761681D01*
X169064603Y-312762876D01*
X169045749Y-312763856D01*
X169017819Y-312764522D01*
X168983672Y-312764775D01*
X168982764Y-312764775D01*
X168945296Y-312764630D01*
X168920169Y-312763922D01*
X168904932Y-312762243D01*
X168897133Y-312759184D01*
X168894320Y-312754337D01*
X168894004Y-312749981D01*
X168894841Y-312743864D01*
X168898945Y-312739714D01*
X168908710Y-312737151D01*
X168926529Y-312735796D01*
X168954796Y-312735269D01*
X168987254Y-312735188D01*
X169025966Y-312735383D01*
G37*
G36*
X164164953Y-315173906D02*
G01*
X164185574Y-315174348D01*
X164191602Y-315174716D01*
X164211943Y-315177056D01*
X164211943Y-315375353D01*
X164114029Y-315377417D01*
X164073912Y-315378463D01*
X164046246Y-315379847D01*
X164028687Y-315381921D01*
X164018892Y-315385034D01*
X164014519Y-315389536D01*
X164013632Y-315392425D01*
X164013793Y-315397628D01*
X164018096Y-315401221D01*
X164028758Y-315403499D01*
X164047993Y-315404754D01*
X164078020Y-315405278D01*
X164111546Y-315405369D01*
X164211943Y-315405369D01*
X164211943Y-315612474D01*
X163819922Y-315612474D01*
X163819922Y-315176586D01*
X163995592Y-315174480D01*
X164046249Y-315173980D01*
X164092933Y-315173719D01*
X164133287Y-315173695D01*
X164164953Y-315173906D01*
G37*
G36*
X169382181Y-315290721D02*
G01*
X169382273Y-315334174D01*
X169382733Y-315364996D01*
X169383841Y-315385350D01*
X169385876Y-315397397D01*
X169389117Y-315403302D01*
X169393843Y-315405224D01*
X169396975Y-315405369D01*
X169402582Y-315404660D01*
X169406559Y-315401093D01*
X169409185Y-315392506D01*
X169410739Y-315376735D01*
X169411501Y-315351618D01*
X169411749Y-315314994D01*
X169411768Y-315290721D01*
X169411768Y-315176073D01*
X169604080Y-315176073D01*
X169604080Y-315486112D01*
X169539360Y-315549231D01*
X169474639Y-315612349D01*
X169393113Y-315612412D01*
X169311587Y-315612474D01*
X169250728Y-315551298D01*
X169189869Y-315490121D01*
X169189869Y-315176073D01*
X169382181Y-315176073D01*
X169382181Y-315290721D01*
G37*
G36*
X173344791Y-318737890D02*
G01*
X173355557Y-318746013D01*
X173370548Y-318763532D01*
X173376209Y-318770644D01*
X173399331Y-318799838D01*
X173347347Y-318826016D01*
X173318413Y-318840321D01*
X173299588Y-318848436D01*
X173287871Y-318851021D01*
X173280261Y-318848737D01*
X173273755Y-318842245D01*
X173273736Y-318842222D01*
X173271463Y-318830778D01*
X173278184Y-318819526D01*
X173289281Y-318813045D01*
X173300137Y-318815917D01*
X173300197Y-318815976D01*
X173311471Y-318819652D01*
X173327638Y-318813728D01*
X173347120Y-318803520D01*
X173324756Y-318782094D01*
X173308848Y-318765808D01*
X173303838Y-318755756D01*
X173309438Y-318748492D01*
X173321437Y-318742339D01*
X173334626Y-318737289D01*
X173344791Y-318737890D01*
G37*
G36*
X166644698Y-315174163D02*
G01*
X166665772Y-315174700D01*
X166741587Y-315177025D01*
X166741587Y-315291197D01*
X166741680Y-315334546D01*
X166742143Y-315365269D01*
X166743259Y-315385532D01*
X166745307Y-315397503D01*
X166748569Y-315403348D01*
X166753325Y-315405233D01*
X166756381Y-315405369D01*
X166761987Y-315404660D01*
X166765965Y-315401093D01*
X166768591Y-315392506D01*
X166770145Y-315376735D01*
X166770907Y-315351618D01*
X166771155Y-315314994D01*
X166771174Y-315290721D01*
X166771174Y-315176073D01*
X166963486Y-315176073D01*
X166963486Y-315565192D01*
X166914704Y-315612474D01*
X166549275Y-315612474D01*
X166549275Y-315177056D01*
X166569616Y-315174716D01*
X166585591Y-315173941D01*
X166612051Y-315173756D01*
X166644698Y-315174163D01*
G37*
G36*
X169030603Y-312653897D02*
G01*
X169062678Y-312654282D01*
X169084030Y-312655237D01*
X169096695Y-312657019D01*
X169102707Y-312659883D01*
X169104102Y-312664086D01*
X169103253Y-312668619D01*
X169100953Y-312674269D01*
X169095990Y-312678265D01*
X169086107Y-312680890D01*
X169069051Y-312682431D01*
X169042568Y-312683173D01*
X169004401Y-312683401D01*
X168986391Y-312683412D01*
X168942364Y-312683213D01*
X168910963Y-312682472D01*
X168890024Y-312680974D01*
X168877383Y-312678503D01*
X168870877Y-312674844D01*
X168868908Y-312671712D01*
X168864991Y-312659921D01*
X168864418Y-312656919D01*
X168871407Y-312655886D01*
X168890744Y-312655000D01*
X168919985Y-312654323D01*
X168956685Y-312653916D01*
X168985770Y-312653825D01*
X169030603Y-312653897D01*
G37*
G36*
X169033224Y-312572795D02*
G01*
X169072974Y-312573733D01*
X169103767Y-312575184D01*
X169123657Y-312577057D01*
X169130696Y-312579254D01*
X169130113Y-312589636D01*
X169127074Y-312597317D01*
X169119647Y-312602705D01*
X169105897Y-312606204D01*
X169083891Y-312608222D01*
X169051696Y-312609163D01*
X169007378Y-312609434D01*
X168986904Y-312609446D01*
X168943667Y-312609187D01*
X168905634Y-312608469D01*
X168875237Y-312607377D01*
X168854910Y-312605998D01*
X168847159Y-312604515D01*
X168842923Y-312593638D01*
X168842228Y-312586023D01*
X168843096Y-312581357D01*
X168846977Y-312577901D01*
X168855792Y-312575475D01*
X168871458Y-312573899D01*
X168895896Y-312572992D01*
X168931023Y-312572574D01*
X168978758Y-312572464D01*
X168986462Y-312572463D01*
X169033224Y-312572795D01*
G37*
G36*
X162798455Y-315174163D02*
G01*
X162819529Y-315174700D01*
X162895344Y-315177025D01*
X162895344Y-315228868D01*
X162895775Y-315256081D01*
X162897580Y-315271433D01*
X162901522Y-315277842D01*
X162908288Y-315278243D01*
X162915524Y-315274158D01*
X162919965Y-315263224D01*
X162922516Y-315242312D01*
X162923419Y-315225924D01*
X162925606Y-315176073D01*
X163117243Y-315176073D01*
X163117243Y-315612474D01*
X162925506Y-315612474D01*
X162923369Y-315547754D01*
X162921806Y-315515570D01*
X162919368Y-315495704D01*
X162915547Y-315485684D01*
X162910137Y-315483033D01*
X162904524Y-315485951D01*
X162900775Y-315496351D01*
X162898385Y-315516706D01*
X162896905Y-315547754D01*
X162894768Y-315612474D01*
X162703032Y-315612474D01*
X162703032Y-315177056D01*
X162723373Y-315174716D01*
X162739347Y-315173941D01*
X162765807Y-315173756D01*
X162798455Y-315174163D01*
G37*
G36*
X172823941Y-318753625D02*
G01*
X172832575Y-318767084D01*
X172831951Y-318777051D01*
X172820440Y-318786416D01*
X172799686Y-318796600D01*
X172781572Y-318805354D01*
X172774985Y-318811680D01*
X172777829Y-318818925D01*
X172782392Y-318824225D01*
X172790628Y-318835476D01*
X172788163Y-318842405D01*
X172784334Y-318845136D01*
X172771788Y-318850870D01*
X172760052Y-318849169D01*
X172745456Y-318838573D01*
X172730064Y-318823541D01*
X172702084Y-318794887D01*
X172720771Y-318784835D01*
X172748801Y-318784835D01*
X172750605Y-318792578D01*
X172761742Y-318794413D01*
X172777893Y-318788981D01*
X172791522Y-318779503D01*
X172795863Y-318771311D01*
X172795528Y-318770517D01*
X172783825Y-318763807D01*
X172766295Y-318768745D01*
X172759023Y-318773408D01*
X172748801Y-318784835D01*
X172720771Y-318784835D01*
X172810516Y-318736561D01*
X172823941Y-318753625D01*
G37*
G36*
X166017726Y-315174174D02*
G01*
X166025964Y-315174716D01*
X166046305Y-315177056D01*
X166046305Y-315612474D01*
X165854569Y-315612474D01*
X165852432Y-315547754D01*
X165850869Y-315515570D01*
X165848430Y-315495704D01*
X165844610Y-315485684D01*
X165839200Y-315483033D01*
X165833586Y-315485951D01*
X165829837Y-315496351D01*
X165827447Y-315516706D01*
X165825967Y-315547754D01*
X165823830Y-315612474D01*
X165632094Y-315612474D01*
X165632094Y-315176073D01*
X165824406Y-315176073D01*
X165824406Y-315227850D01*
X165824805Y-315255060D01*
X165826605Y-315270648D01*
X165830710Y-315277778D01*
X165838022Y-315279612D01*
X165839200Y-315279626D01*
X165847002Y-315278217D01*
X165851458Y-315271873D01*
X165853482Y-315257416D01*
X165853990Y-315231672D01*
X165853993Y-315228326D01*
X165853993Y-315177025D01*
X165929808Y-315174700D01*
X165964119Y-315173933D01*
X165994857Y-315173758D01*
X166017726Y-315174174D01*
G37*
G36*
X173714368Y-318743238D02*
G01*
X173718839Y-318750473D01*
X173713965Y-318757084D01*
X173697577Y-318765696D01*
X173694730Y-318766990D01*
X173676676Y-318776149D01*
X173666034Y-318783514D01*
X173664826Y-318785459D01*
X173669692Y-318793448D01*
X173681518Y-318806115D01*
X173682611Y-318807151D01*
X173700396Y-318823859D01*
X173738263Y-318805737D01*
X173759653Y-318796936D01*
X173775128Y-318793264D01*
X173780392Y-318794508D01*
X173782609Y-318802829D01*
X173782063Y-318803732D01*
X173773199Y-318809069D01*
X173755547Y-318818221D01*
X173733355Y-318829144D01*
X173710869Y-318839794D01*
X173692336Y-318848127D01*
X173682003Y-318852100D01*
X173681370Y-318852195D01*
X173673367Y-318847295D01*
X173658665Y-318834555D01*
X173643419Y-318819708D01*
X173611535Y-318787221D01*
X173657818Y-318760096D01*
X173682600Y-318746199D01*
X173698263Y-318739517D01*
X173708019Y-318739094D01*
X173714368Y-318743238D01*
G37*
G36*
X167208428Y-312653866D02*
G01*
X167251687Y-312654082D01*
X167283599Y-312654615D01*
X167305888Y-312655604D01*
X167320277Y-312657191D01*
X167328490Y-312659516D01*
X167332251Y-312662719D01*
X167333282Y-312666943D01*
X167333317Y-312668619D01*
X167332817Y-312673217D01*
X167330168Y-312676748D01*
X167323646Y-312679353D01*
X167311529Y-312681173D01*
X167292092Y-312682347D01*
X167263612Y-312683018D01*
X167224366Y-312683325D01*
X167172630Y-312683409D01*
X167152100Y-312683412D01*
X167095772Y-312683371D01*
X167052513Y-312683155D01*
X167020601Y-312682622D01*
X166998312Y-312681633D01*
X166983923Y-312680046D01*
X166975710Y-312677722D01*
X166971949Y-312674518D01*
X166970918Y-312670295D01*
X166970883Y-312668619D01*
X166971383Y-312664020D01*
X166974032Y-312660489D01*
X166980554Y-312657884D01*
X166992671Y-312656064D01*
X167012108Y-312654890D01*
X167040588Y-312654219D01*
X167079834Y-312653912D01*
X167131569Y-312653828D01*
X167152100Y-312653825D01*
X167208428Y-312653866D01*
G37*
G36*
X167208428Y-312735229D02*
G01*
X167251687Y-312735445D01*
X167283599Y-312735978D01*
X167305888Y-312736967D01*
X167320277Y-312738554D01*
X167328490Y-312740878D01*
X167332251Y-312744082D01*
X167333282Y-312748305D01*
X167333317Y-312749981D01*
X167332817Y-312754580D01*
X167330168Y-312758111D01*
X167323646Y-312760716D01*
X167311529Y-312762536D01*
X167292092Y-312763710D01*
X167263612Y-312764381D01*
X167224366Y-312764688D01*
X167172630Y-312764772D01*
X167152100Y-312764775D01*
X167095772Y-312764734D01*
X167052513Y-312764518D01*
X167020601Y-312763985D01*
X166998312Y-312762996D01*
X166983923Y-312761409D01*
X166975710Y-312759084D01*
X166971949Y-312755881D01*
X166970918Y-312751657D01*
X166970883Y-312749981D01*
X166971383Y-312745383D01*
X166974032Y-312741852D01*
X166980554Y-312739247D01*
X166992671Y-312737427D01*
X167012108Y-312736253D01*
X167040588Y-312735582D01*
X167079834Y-312735275D01*
X167131569Y-312735191D01*
X167152100Y-312735188D01*
X167208428Y-312735229D01*
G37*
G36*
X168687753Y-312653866D02*
G01*
X168731011Y-312654082D01*
X168762923Y-312654615D01*
X168785212Y-312655604D01*
X168799601Y-312657191D01*
X168807815Y-312659516D01*
X168811575Y-312662719D01*
X168812607Y-312666943D01*
X168812642Y-312668619D01*
X168812142Y-312673217D01*
X168809492Y-312676748D01*
X168802971Y-312679353D01*
X168790853Y-312681173D01*
X168771416Y-312682347D01*
X168742936Y-312683018D01*
X168703690Y-312683325D01*
X168651955Y-312683409D01*
X168631424Y-312683412D01*
X168575096Y-312683371D01*
X168531838Y-312683155D01*
X168499926Y-312682622D01*
X168477637Y-312681633D01*
X168463247Y-312680046D01*
X168455034Y-312677722D01*
X168451273Y-312674518D01*
X168450242Y-312670295D01*
X168450207Y-312668619D01*
X168450707Y-312664020D01*
X168453356Y-312660489D01*
X168459878Y-312657884D01*
X168471996Y-312656064D01*
X168491433Y-312654890D01*
X168519912Y-312654219D01*
X168559158Y-312653912D01*
X168610894Y-312653828D01*
X168631424Y-312653825D01*
X168687753Y-312653866D01*
G37*
G36*
X168687753Y-312735229D02*
G01*
X168731011Y-312735445D01*
X168762923Y-312735978D01*
X168785212Y-312736967D01*
X168799601Y-312738554D01*
X168807815Y-312740878D01*
X168811575Y-312744082D01*
X168812607Y-312748305D01*
X168812642Y-312749981D01*
X168812142Y-312754580D01*
X168809492Y-312758111D01*
X168802971Y-312760716D01*
X168790853Y-312762536D01*
X168771416Y-312763710D01*
X168742936Y-312764381D01*
X168703690Y-312764688D01*
X168651955Y-312764772D01*
X168631424Y-312764775D01*
X168575096Y-312764734D01*
X168531838Y-312764518D01*
X168499926Y-312763985D01*
X168477637Y-312762996D01*
X168463247Y-312761409D01*
X168455034Y-312759084D01*
X168451273Y-312755881D01*
X168450242Y-312751657D01*
X168450207Y-312749981D01*
X168450707Y-312745383D01*
X168453356Y-312741852D01*
X168459878Y-312739247D01*
X168471996Y-312737427D01*
X168491433Y-312736253D01*
X168519912Y-312735582D01*
X168559158Y-312735275D01*
X168610894Y-312735191D01*
X168631424Y-312735188D01*
X168687753Y-312735229D01*
G37*
G36*
X169397828Y-312653866D02*
G01*
X169441087Y-312654082D01*
X169472999Y-312654615D01*
X169495288Y-312655604D01*
X169509677Y-312657191D01*
X169517890Y-312659516D01*
X169521651Y-312662719D01*
X169522682Y-312666943D01*
X169522717Y-312668619D01*
X169522217Y-312673217D01*
X169519568Y-312676748D01*
X169513046Y-312679353D01*
X169500929Y-312681173D01*
X169481492Y-312682347D01*
X169453012Y-312683018D01*
X169413766Y-312683325D01*
X169362031Y-312683409D01*
X169341500Y-312683412D01*
X169285172Y-312683371D01*
X169241913Y-312683155D01*
X169210001Y-312682622D01*
X169187712Y-312681633D01*
X169173323Y-312680046D01*
X169165110Y-312677722D01*
X169161349Y-312674518D01*
X169160318Y-312670295D01*
X169160283Y-312668619D01*
X169160783Y-312664020D01*
X169163432Y-312660489D01*
X169169954Y-312657884D01*
X169182071Y-312656064D01*
X169201508Y-312654890D01*
X169229988Y-312654219D01*
X169269234Y-312653912D01*
X169320970Y-312653828D01*
X169341500Y-312653825D01*
X169397828Y-312653866D01*
G37*
G36*
X169397828Y-312735229D02*
G01*
X169441087Y-312735445D01*
X169472999Y-312735978D01*
X169495288Y-312736967D01*
X169509677Y-312738554D01*
X169517890Y-312740878D01*
X169521651Y-312744082D01*
X169522682Y-312748305D01*
X169522717Y-312749981D01*
X169522217Y-312754580D01*
X169519568Y-312758111D01*
X169513046Y-312760716D01*
X169500929Y-312762536D01*
X169481492Y-312763710D01*
X169453012Y-312764381D01*
X169413766Y-312764688D01*
X169362031Y-312764772D01*
X169341500Y-312764775D01*
X169285172Y-312764734D01*
X169241913Y-312764518D01*
X169210001Y-312763985D01*
X169187712Y-312762996D01*
X169173323Y-312761409D01*
X169165110Y-312759084D01*
X169161349Y-312755881D01*
X169160318Y-312751657D01*
X169160283Y-312749981D01*
X169160783Y-312745383D01*
X169163432Y-312741852D01*
X169169954Y-312739247D01*
X169182071Y-312737427D01*
X169201508Y-312736253D01*
X169229988Y-312735582D01*
X169269234Y-312735275D01*
X169320970Y-312735191D01*
X169341500Y-312735188D01*
X169397828Y-312735229D01*
G37*
G36*
X171394778Y-315174078D02*
G01*
X171404248Y-315174767D01*
X171407900Y-315176785D01*
X171410735Y-315182308D01*
X171412855Y-315192985D01*
X171414361Y-315210462D01*
X171415352Y-315236389D01*
X171415931Y-315272413D01*
X171416197Y-315320182D01*
X171416253Y-315371175D01*
X171416253Y-315565192D01*
X171391861Y-315588833D01*
X171367470Y-315612474D01*
X171049323Y-315612474D01*
X171025683Y-315588083D01*
X171002042Y-315563692D01*
X171002042Y-315176073D01*
X171194354Y-315176073D01*
X171194354Y-315290721D01*
X171194445Y-315334174D01*
X171194906Y-315364996D01*
X171196014Y-315385350D01*
X171198049Y-315397397D01*
X171201289Y-315403302D01*
X171206015Y-315405224D01*
X171209147Y-315405369D01*
X171214763Y-315404658D01*
X171218744Y-315401082D01*
X171221369Y-315392473D01*
X171222921Y-315376666D01*
X171223678Y-315351494D01*
X171223923Y-315314790D01*
X171223940Y-315291169D01*
X171223940Y-315176969D01*
X171308092Y-315174672D01*
X171342892Y-315173952D01*
X171372960Y-315173756D01*
X171394778Y-315174078D01*
G37*
G36*
X163736867Y-315173881D02*
G01*
X163758899Y-315174256D01*
X163768165Y-315174831D01*
X163768194Y-315174841D01*
X163775683Y-315184101D01*
X163776005Y-315201236D01*
X163770077Y-315221732D01*
X163758815Y-315241074D01*
X163753558Y-315246958D01*
X163739733Y-315262226D01*
X163731967Y-315274099D01*
X163731368Y-315276393D01*
X163736168Y-315286042D01*
X163748408Y-315300574D01*
X163753352Y-315305514D01*
X163775542Y-315326774D01*
X163775542Y-315612474D01*
X163583605Y-315612474D01*
X163581568Y-315495977D01*
X163580587Y-315451233D01*
X163579304Y-315419289D01*
X163577496Y-315398154D01*
X163574937Y-315385834D01*
X163571403Y-315380338D01*
X163568437Y-315379481D01*
X163564139Y-315381572D01*
X163560963Y-315389176D01*
X163558686Y-315404284D01*
X163557083Y-315428889D01*
X163555928Y-315464983D01*
X163555305Y-315495977D01*
X163553268Y-315612474D01*
X163361331Y-315612474D01*
X163361331Y-315176538D01*
X163561089Y-315174456D01*
X163614181Y-315173994D01*
X163662508Y-315173747D01*
X163704070Y-315173710D01*
X163736867Y-315173881D01*
G37*
G36*
X173201777Y-318765268D02*
G01*
X173216138Y-318784335D01*
X173225355Y-318798263D01*
X173227421Y-318803627D01*
X173218527Y-318809002D01*
X173200845Y-318818186D01*
X173178626Y-318829134D01*
X173156115Y-318839800D01*
X173137561Y-318848138D01*
X173127212Y-318852103D01*
X173126584Y-318852195D01*
X173118441Y-318847297D01*
X173103901Y-318834679D01*
X173091720Y-318822744D01*
X173076628Y-318806110D01*
X173067687Y-318793909D01*
X173066542Y-318789713D01*
X173074297Y-318784694D01*
X173081593Y-318780446D01*
X173112406Y-318780446D01*
X173112836Y-318790849D01*
X173126303Y-318804672D01*
X173129075Y-318806890D01*
X173145206Y-318816706D01*
X173159330Y-318816336D01*
X173165529Y-318813877D01*
X173177417Y-318806053D01*
X173176962Y-318796578D01*
X173175025Y-318793170D01*
X173157666Y-318774349D01*
X173138151Y-318767613D01*
X173124702Y-318770923D01*
X173112406Y-318780446D01*
X173081593Y-318780446D01*
X173091675Y-318774576D01*
X173115297Y-318761314D01*
X173121780Y-318757738D01*
X173173438Y-318729343D01*
X173201777Y-318765268D01*
G37*
G36*
X170906013Y-315173866D02*
G01*
X170928667Y-315174264D01*
X170937321Y-315174716D01*
X170957662Y-315177056D01*
X170957662Y-315565192D01*
X170908880Y-315612474D01*
X170590733Y-315612474D01*
X170567092Y-315588083D01*
X170556652Y-315576863D01*
X170549852Y-315566758D01*
X170545912Y-315554352D01*
X170544051Y-315536225D01*
X170543489Y-315508960D01*
X170543451Y-315484530D01*
X170543451Y-315405369D01*
X170654943Y-315405369D01*
X170697787Y-315405241D01*
X170727952Y-315404692D01*
X170747550Y-315403469D01*
X170758695Y-315401322D01*
X170763499Y-315398000D01*
X170764076Y-315393252D01*
X170763933Y-315392425D01*
X170761286Y-315386877D01*
X170754235Y-315383083D01*
X170740313Y-315380661D01*
X170717054Y-315379227D01*
X170681992Y-315378398D01*
X170672804Y-315378263D01*
X170584177Y-315377046D01*
X170563814Y-315352654D01*
X170554582Y-315340706D01*
X170548662Y-315329128D01*
X170545324Y-315314313D01*
X170543833Y-315292654D01*
X170543457Y-315260544D01*
X170543451Y-315252412D01*
X170543451Y-315176561D01*
X170730216Y-315174468D01*
X170782408Y-315173983D01*
X170830617Y-315173722D01*
X170872574Y-315173684D01*
X170906013Y-315173866D01*
G37*
G36*
X169522717Y-312535479D02*
G01*
X169341500Y-312535479D01*
X169284985Y-312535412D01*
X169241554Y-312535129D01*
X169209499Y-312534509D01*
X169187110Y-312533430D01*
X169172681Y-312531769D01*
X169164501Y-312529405D01*
X169160862Y-312526216D01*
X169160058Y-312522535D01*
X169159220Y-312513536D01*
X169155294Y-312517485D01*
X169152294Y-312522535D01*
X169148628Y-312526798D01*
X169142003Y-312530016D01*
X169130528Y-312532332D01*
X169112316Y-312533892D01*
X169085477Y-312534839D01*
X169048121Y-312535318D01*
X168998359Y-312535474D01*
X168982939Y-312535479D01*
X168929774Y-312535394D01*
X168889560Y-312535040D01*
X168860456Y-312534275D01*
X168840619Y-312532954D01*
X168828207Y-312530932D01*
X168821380Y-312528065D01*
X168818294Y-312524209D01*
X168817740Y-312522535D01*
X168814929Y-312513419D01*
X168813770Y-312518672D01*
X168813500Y-312522535D01*
X168812278Y-312526573D01*
X168808072Y-312529676D01*
X168799168Y-312531965D01*
X168783850Y-312533563D01*
X168760405Y-312534592D01*
X168727118Y-312535172D01*
X168682273Y-312535428D01*
X168631424Y-312535479D01*
X168450207Y-312535479D01*
X168450207Y-312491100D01*
X169522717Y-312491100D01*
X169522717Y-312535479D01*
G37*
G36*
X170277173Y-315227850D02*
G01*
X170277572Y-315255060D01*
X170279372Y-315270648D01*
X170283476Y-315277778D01*
X170290788Y-315279612D01*
X170291966Y-315279626D01*
X170299740Y-315278229D01*
X170304194Y-315271930D01*
X170306231Y-315257565D01*
X170306755Y-315231971D01*
X170306759Y-315227850D01*
X170306759Y-315176073D01*
X170499071Y-315176073D01*
X170499071Y-315303188D01*
X170498956Y-315349732D01*
X170498444Y-315383819D01*
X170497288Y-315407786D01*
X170495240Y-315423969D01*
X170492053Y-315434705D01*
X170487478Y-315442330D01*
X170483879Y-315446475D01*
X170468686Y-315462647D01*
X170484242Y-315524617D01*
X170491804Y-315554479D01*
X170498358Y-315579895D01*
X170502806Y-315596618D01*
X170503632Y-315599530D01*
X170504072Y-315604836D01*
X170500201Y-315608461D01*
X170489784Y-315610722D01*
X170470587Y-315611932D01*
X170440375Y-315612409D01*
X170411908Y-315612474D01*
X170316351Y-315612474D01*
X170303131Y-315562547D01*
X170293574Y-315528352D01*
X170286600Y-315508502D01*
X170281855Y-315502844D01*
X170278981Y-315511225D01*
X170277625Y-315533491D01*
X170277398Y-315551452D01*
X170277173Y-315612474D01*
X170084861Y-315612474D01*
X170084861Y-315176073D01*
X170277173Y-315176073D01*
X170277173Y-315227850D01*
G37*
G36*
X164738003Y-312735198D02*
G01*
X164802998Y-312735266D01*
X164855649Y-312735449D01*
X164897179Y-312735803D01*
X164928813Y-312736386D01*
X164951775Y-312737255D01*
X164967289Y-312738466D01*
X164976580Y-312740077D01*
X164980871Y-312742145D01*
X164981388Y-312744725D01*
X164979353Y-312747876D01*
X164977493Y-312749981D01*
X164973726Y-312753630D01*
X164968733Y-312756623D01*
X164961124Y-312759027D01*
X164949509Y-312760905D01*
X164932499Y-312762323D01*
X164908702Y-312763345D01*
X164876728Y-312764035D01*
X164835189Y-312764458D01*
X164782693Y-312764679D01*
X164717851Y-312764763D01*
X164659438Y-312764775D01*
X164584280Y-312764752D01*
X164522525Y-312764641D01*
X164472782Y-312764377D01*
X164433663Y-312763896D01*
X164403777Y-312763132D01*
X164381734Y-312762022D01*
X164366143Y-312760500D01*
X164355615Y-312758501D01*
X164348760Y-312755962D01*
X164344188Y-312752817D01*
X164341384Y-312749981D01*
X164338433Y-312746474D01*
X164337325Y-312743571D01*
X164339284Y-312741213D01*
X164345534Y-312739346D01*
X164357300Y-312737910D01*
X164375806Y-312736850D01*
X164402275Y-312736109D01*
X164437933Y-312735629D01*
X164484003Y-312735354D01*
X164541710Y-312735227D01*
X164612278Y-312735190D01*
X164659438Y-312735188D01*
X164738003Y-312735198D01*
G37*
G36*
X165588614Y-312735198D02*
G01*
X165653610Y-312735266D01*
X165706260Y-312735449D01*
X165747790Y-312735803D01*
X165779424Y-312736386D01*
X165802386Y-312737255D01*
X165817901Y-312738466D01*
X165827191Y-312740077D01*
X165831483Y-312742145D01*
X165831999Y-312744725D01*
X165829965Y-312747876D01*
X165828105Y-312749981D01*
X165824338Y-312753630D01*
X165819345Y-312756623D01*
X165811736Y-312759027D01*
X165800121Y-312760905D01*
X165783110Y-312762323D01*
X165759313Y-312763345D01*
X165727340Y-312764035D01*
X165685800Y-312764458D01*
X165633305Y-312764679D01*
X165568463Y-312764763D01*
X165510050Y-312764775D01*
X165434891Y-312764752D01*
X165373136Y-312764641D01*
X165323394Y-312764377D01*
X165284275Y-312763896D01*
X165254388Y-312763132D01*
X165232345Y-312762022D01*
X165216755Y-312760500D01*
X165206227Y-312758501D01*
X165199372Y-312755962D01*
X165194800Y-312752817D01*
X165191995Y-312749981D01*
X165189044Y-312746474D01*
X165187937Y-312743571D01*
X165189896Y-312741213D01*
X165196146Y-312739346D01*
X165207912Y-312737910D01*
X165226417Y-312736850D01*
X165252887Y-312736109D01*
X165288544Y-312735629D01*
X165334614Y-312735354D01*
X165392321Y-312735227D01*
X165462889Y-312735190D01*
X165510050Y-312735188D01*
X165588614Y-312735198D01*
G37*
G36*
X166410916Y-312735199D02*
G01*
X166473523Y-312735273D01*
X166523849Y-312735472D01*
X166563153Y-312735859D01*
X166592691Y-312736494D01*
X166613719Y-312737441D01*
X166627494Y-312738762D01*
X166635273Y-312740518D01*
X166638314Y-312742771D01*
X166637871Y-312745584D01*
X166635203Y-312749019D01*
X166634336Y-312749981D01*
X166630450Y-312753735D01*
X166625298Y-312756794D01*
X166617442Y-312759229D01*
X166605443Y-312761112D01*
X166587864Y-312762512D01*
X166563267Y-312763501D01*
X166530212Y-312764151D01*
X166487262Y-312764532D01*
X166432979Y-312764715D01*
X166365923Y-312764772D01*
X166334773Y-312764775D01*
X166262131Y-312764749D01*
X166202843Y-312764626D01*
X166155472Y-312764334D01*
X166118579Y-312763802D01*
X166090726Y-312762959D01*
X166070476Y-312761733D01*
X166056388Y-312760055D01*
X166047026Y-312757853D01*
X166040951Y-312755055D01*
X166036725Y-312751592D01*
X166035210Y-312749981D01*
X166032182Y-312746382D01*
X166031066Y-312743419D01*
X166033119Y-312741032D01*
X166039596Y-312739157D01*
X166051756Y-312737734D01*
X166070855Y-312736699D01*
X166098149Y-312735992D01*
X166134895Y-312735549D01*
X166182351Y-312735309D01*
X166241772Y-312735209D01*
X166314416Y-312735188D01*
X166334773Y-312735188D01*
X166410916Y-312735199D01*
G37*
G36*
X168073879Y-312735198D02*
G01*
X168138875Y-312735266D01*
X168191525Y-312735449D01*
X168233055Y-312735803D01*
X168264689Y-312736386D01*
X168287651Y-312737255D01*
X168303166Y-312738466D01*
X168312456Y-312740077D01*
X168316748Y-312742145D01*
X168317264Y-312744725D01*
X168315230Y-312747876D01*
X168313370Y-312749981D01*
X168309603Y-312753630D01*
X168304610Y-312756623D01*
X168297001Y-312759027D01*
X168285386Y-312760905D01*
X168268375Y-312762323D01*
X168244578Y-312763345D01*
X168212605Y-312764035D01*
X168171065Y-312764458D01*
X168118570Y-312764679D01*
X168053728Y-312764763D01*
X167995315Y-312764775D01*
X167920156Y-312764752D01*
X167858401Y-312764641D01*
X167808659Y-312764377D01*
X167769540Y-312763896D01*
X167739653Y-312763132D01*
X167717610Y-312762022D01*
X167702020Y-312760500D01*
X167691492Y-312758501D01*
X167684637Y-312755962D01*
X167680065Y-312752817D01*
X167677260Y-312749981D01*
X167674309Y-312746474D01*
X167673202Y-312743571D01*
X167675161Y-312741213D01*
X167681411Y-312739346D01*
X167693177Y-312737910D01*
X167711682Y-312736850D01*
X167738152Y-312736109D01*
X167773809Y-312735629D01*
X167819879Y-312735354D01*
X167877586Y-312735227D01*
X167948154Y-312735190D01*
X167995315Y-312735188D01*
X168073879Y-312735198D01*
G37*
G36*
X170042658Y-312735199D02*
G01*
X170105264Y-312735273D01*
X170155591Y-312735472D01*
X170194895Y-312735859D01*
X170224432Y-312736494D01*
X170245460Y-312737441D01*
X170259235Y-312738762D01*
X170267015Y-312740518D01*
X170270055Y-312742771D01*
X170269613Y-312745584D01*
X170266945Y-312749019D01*
X170266078Y-312749981D01*
X170262191Y-312753735D01*
X170257039Y-312756794D01*
X170249183Y-312759229D01*
X170237185Y-312761112D01*
X170219606Y-312762512D01*
X170195008Y-312763501D01*
X170161954Y-312764151D01*
X170119004Y-312764532D01*
X170064720Y-312764715D01*
X169997665Y-312764772D01*
X169966515Y-312764775D01*
X169893872Y-312764749D01*
X169834584Y-312764626D01*
X169787213Y-312764334D01*
X169750320Y-312763802D01*
X169722468Y-312762959D01*
X169702217Y-312761733D01*
X169688130Y-312760055D01*
X169678768Y-312757853D01*
X169672693Y-312755055D01*
X169668467Y-312751592D01*
X169666951Y-312749981D01*
X169663924Y-312746382D01*
X169662808Y-312743419D01*
X169664860Y-312741032D01*
X169671338Y-312739157D01*
X169683498Y-312737734D01*
X169702596Y-312736699D01*
X169729890Y-312735992D01*
X169766637Y-312735549D01*
X169814092Y-312735309D01*
X169873513Y-312735209D01*
X169946157Y-312735188D01*
X169966515Y-312735188D01*
X170042658Y-312735199D01*
G37*
G36*
X172000787Y-318678577D02*
G01*
X172022897Y-318701390D01*
X172040035Y-318720143D01*
X172050177Y-318732552D01*
X172051962Y-318736329D01*
X172043556Y-318741606D01*
X172031411Y-318748227D01*
X172019676Y-318755410D01*
X172020352Y-318761242D01*
X172027712Y-318767192D01*
X172037066Y-318775169D01*
X172034164Y-318779718D01*
X172027343Y-318782566D01*
X172010045Y-318783288D01*
X171999567Y-318779309D01*
X171989476Y-318775702D01*
X171976160Y-318777612D01*
X171955880Y-318785919D01*
X171941585Y-318792935D01*
X171918310Y-318804263D01*
X171900240Y-318812284D01*
X171891498Y-318815211D01*
X171884050Y-318810276D01*
X171868875Y-318797004D01*
X171848524Y-318777695D01*
X171834982Y-318764262D01*
X171784422Y-318713312D01*
X171797283Y-318706281D01*
X171859019Y-318706281D01*
X171886924Y-318734858D01*
X171904601Y-318752410D01*
X171916980Y-318760799D01*
X171929201Y-318761341D01*
X171946408Y-318755354D01*
X171954239Y-318752094D01*
X171981383Y-318740752D01*
X171921794Y-318681163D01*
X171890407Y-318693722D01*
X171859019Y-318706281D01*
X171797283Y-318706281D01*
X171835180Y-318685564D01*
X171864630Y-318669392D01*
X171893518Y-318653410D01*
X171915706Y-318641014D01*
X171916126Y-318640777D01*
X171946314Y-318623738D01*
X172000787Y-318678577D01*
G37*
G36*
X164810336Y-315174163D02*
G01*
X164831410Y-315174700D01*
X164907225Y-315177025D01*
X164907225Y-315202980D01*
X164908721Y-315220487D01*
X164914424Y-315226705D01*
X164920169Y-315226482D01*
X164931183Y-315217168D01*
X164935431Y-315200052D01*
X164937749Y-315176073D01*
X165129124Y-315176073D01*
X165129124Y-315200578D01*
X165124019Y-315224285D01*
X165107036Y-315246244D01*
X165106934Y-315246341D01*
X165093009Y-315261538D01*
X165085293Y-315273564D01*
X165084744Y-315275928D01*
X165089689Y-315285891D01*
X165102036Y-315300616D01*
X165106934Y-315305514D01*
X165129124Y-315326774D01*
X165129124Y-315565192D01*
X165080342Y-315612474D01*
X164714913Y-315612474D01*
X164714913Y-315368386D01*
X164907225Y-315368386D01*
X164908004Y-315390568D01*
X164911310Y-315401632D01*
X164918597Y-315405210D01*
X164922018Y-315405369D01*
X164930891Y-315403422D01*
X164935317Y-315395157D01*
X164936748Y-315376940D01*
X164936812Y-315368386D01*
X164936033Y-315346203D01*
X164932727Y-315335140D01*
X164925440Y-315331561D01*
X164922018Y-315331403D01*
X164913145Y-315333350D01*
X164908720Y-315341614D01*
X164907288Y-315359831D01*
X164907225Y-315368386D01*
X164714913Y-315368386D01*
X164714913Y-315177056D01*
X164735254Y-315174716D01*
X164751229Y-315173941D01*
X164777688Y-315173756D01*
X164810336Y-315174163D01*
G37*
G36*
X172977885Y-318732345D02*
G01*
X172986954Y-318740575D01*
X172997253Y-318753534D01*
X172996851Y-318764571D01*
X172993397Y-318770915D01*
X172988890Y-318782049D01*
X172991234Y-318785625D01*
X173001239Y-318780221D01*
X173003126Y-318777747D01*
X173010822Y-318776530D01*
X173022529Y-318782785D01*
X173032733Y-318792663D01*
X173036113Y-318800773D01*
X173029997Y-318808627D01*
X173015338Y-318811121D01*
X172997670Y-318807444D01*
X172995889Y-318806678D01*
X172974855Y-318802223D01*
X172958163Y-318803527D01*
X172944546Y-318807854D01*
X172943777Y-318813775D01*
X172951776Y-318823409D01*
X172960451Y-318835062D01*
X172958569Y-318842116D01*
X172954456Y-318845136D01*
X172942584Y-318850691D01*
X172931397Y-318849497D01*
X172917524Y-318840080D01*
X172897593Y-318820962D01*
X172896334Y-318819681D01*
X172864424Y-318787167D01*
X172868291Y-318784975D01*
X172919373Y-318784975D01*
X172921685Y-318793197D01*
X172933651Y-318794830D01*
X172944111Y-318791468D01*
X172956751Y-318782961D01*
X172960027Y-318775567D01*
X172951027Y-318766216D01*
X172935865Y-318769161D01*
X172929282Y-318773308D01*
X172919373Y-318784975D01*
X172868291Y-318784975D01*
X172900341Y-318766809D01*
X172924079Y-318753206D01*
X172945196Y-318740859D01*
X172953791Y-318735697D01*
X172967477Y-318729210D01*
X172977885Y-318732345D01*
G37*
G36*
X173534661Y-318738329D02*
G01*
X173530967Y-318748558D01*
X173513693Y-318760990D01*
X173507405Y-318764318D01*
X173486334Y-318775067D01*
X173475718Y-318781495D01*
X173472846Y-318786023D01*
X173475005Y-318791074D01*
X173475874Y-318792474D01*
X173484309Y-318793702D01*
X173500489Y-318789216D01*
X173519577Y-318781081D01*
X173536733Y-318771359D01*
X173547118Y-318762114D01*
X173547133Y-318762091D01*
X173554519Y-318761031D01*
X173559973Y-318765567D01*
X173562436Y-318772713D01*
X173555718Y-318780226D01*
X173537699Y-318790158D01*
X173531437Y-318793139D01*
X173511034Y-318804280D01*
X173501007Y-318813267D01*
X173501074Y-318817144D01*
X173510676Y-318817697D01*
X173527918Y-318812452D01*
X173547967Y-318803566D01*
X173565994Y-318793200D01*
X173577165Y-318783511D01*
X173577517Y-318782990D01*
X173583618Y-318781120D01*
X173587677Y-318788000D01*
X173590613Y-318800029D01*
X173589924Y-318803559D01*
X173581031Y-318808942D01*
X173563350Y-318818138D01*
X173541129Y-318829100D01*
X173518615Y-318839779D01*
X173500053Y-318848129D01*
X173489690Y-318852102D01*
X173489058Y-318852195D01*
X173481016Y-318847299D01*
X173466356Y-318834604D01*
X173452048Y-318820666D01*
X173421105Y-318789138D01*
X173475915Y-318758604D01*
X173504151Y-318743600D01*
X173522090Y-318736073D01*
X173531765Y-318735322D01*
X173534661Y-318738329D01*
G37*
G36*
X166423077Y-312653849D02*
G01*
X166493532Y-312653948D01*
X166551563Y-312654163D01*
X166598355Y-312654536D01*
X166635093Y-312655107D01*
X166662961Y-312655918D01*
X166683145Y-312657011D01*
X166696829Y-312658427D01*
X166705197Y-312660206D01*
X166709435Y-312662391D01*
X166710727Y-312665022D01*
X166710594Y-312666769D01*
X166709271Y-312669694D01*
X166705723Y-312672157D01*
X166698743Y-312674206D01*
X166687129Y-312675889D01*
X166669677Y-312677253D01*
X166645182Y-312678346D01*
X166612441Y-312679217D01*
X166570248Y-312679913D01*
X166517401Y-312680481D01*
X166452696Y-312680971D01*
X166374927Y-312681429D01*
X166336522Y-312681631D01*
X166252910Y-312682052D01*
X166182886Y-312682348D01*
X166125246Y-312682477D01*
X166078784Y-312682399D01*
X166042297Y-312682070D01*
X166014578Y-312681449D01*
X165994423Y-312680494D01*
X165980628Y-312679162D01*
X165971987Y-312677412D01*
X165967296Y-312675203D01*
X165965350Y-312672491D01*
X165964945Y-312669235D01*
X165964942Y-312668687D01*
X165965230Y-312665353D01*
X165966896Y-312662559D01*
X165971139Y-312660257D01*
X165979161Y-312658400D01*
X165992163Y-312656940D01*
X166011344Y-312655829D01*
X166037907Y-312655020D01*
X166073051Y-312654464D01*
X166117977Y-312654115D01*
X166173887Y-312653923D01*
X166241980Y-312653843D01*
X166323458Y-312653825D01*
X166339014Y-312653825D01*
X166423077Y-312653849D01*
G37*
G36*
X170054818Y-312653849D02*
G01*
X170125273Y-312653948D01*
X170183304Y-312654163D01*
X170230096Y-312654536D01*
X170266834Y-312655107D01*
X170294703Y-312655918D01*
X170314886Y-312657011D01*
X170328570Y-312658427D01*
X170336938Y-312660206D01*
X170341176Y-312662391D01*
X170342469Y-312665022D01*
X170342335Y-312666769D01*
X170341013Y-312669694D01*
X170337464Y-312672157D01*
X170330485Y-312674206D01*
X170318871Y-312675889D01*
X170301419Y-312677253D01*
X170276924Y-312678346D01*
X170244182Y-312679217D01*
X170201990Y-312679913D01*
X170149143Y-312680481D01*
X170084437Y-312680971D01*
X170006668Y-312681429D01*
X169968263Y-312681631D01*
X169884652Y-312682052D01*
X169814628Y-312682348D01*
X169756988Y-312682477D01*
X169710526Y-312682399D01*
X169674038Y-312682070D01*
X169646319Y-312681449D01*
X169626164Y-312680494D01*
X169612369Y-312679162D01*
X169603728Y-312677412D01*
X169599038Y-312675203D01*
X169597092Y-312672491D01*
X169596686Y-312669235D01*
X169596684Y-312668687D01*
X169596972Y-312665353D01*
X169598637Y-312662559D01*
X169602881Y-312660257D01*
X169610903Y-312658400D01*
X169623904Y-312656940D01*
X169643086Y-312655829D01*
X169669648Y-312655020D01*
X169704792Y-312654464D01*
X169749719Y-312654115D01*
X169805628Y-312653923D01*
X169873722Y-312653843D01*
X169955200Y-312653825D01*
X169970755Y-312653825D01*
X170054818Y-312653849D01*
G37*
G36*
X172293026Y-318682348D02*
G01*
X172314252Y-318704338D01*
X172330400Y-318722223D01*
X172339380Y-318733623D01*
X172340424Y-318736396D01*
X172332198Y-318741447D01*
X172316432Y-318749877D01*
X172314140Y-318751048D01*
X172298777Y-318757875D01*
X172288361Y-318757152D01*
X172276596Y-318747466D01*
X172270583Y-318741267D01*
X172250018Y-318719802D01*
X172191232Y-318749792D01*
X172211360Y-318770801D01*
X172231488Y-318791811D01*
X172208862Y-318803511D01*
X172191868Y-318811452D01*
X172180680Y-318815173D01*
X172180107Y-318815211D01*
X172172518Y-318810279D01*
X172157333Y-318797070D01*
X172137215Y-318777963D01*
X172126529Y-318767336D01*
X172106097Y-318746114D01*
X172090839Y-318729095D01*
X172082901Y-318718732D01*
X172082363Y-318716800D01*
X172089817Y-318712499D01*
X172094422Y-318709988D01*
X172154141Y-318709988D01*
X172156840Y-318716472D01*
X172169756Y-318725214D01*
X172187676Y-318723833D01*
X172208978Y-318714692D01*
X172223546Y-318706117D01*
X172226446Y-318699477D01*
X172220024Y-318691235D01*
X172211352Y-318684535D01*
X172201382Y-318684095D01*
X172184911Y-318690138D01*
X172178442Y-318693015D01*
X172160259Y-318702496D01*
X172154141Y-318709988D01*
X172094422Y-318709988D01*
X172107685Y-318702755D01*
X172133292Y-318689014D01*
X172163960Y-318672720D01*
X172163992Y-318672704D01*
X172242337Y-318631268D01*
X172293026Y-318682348D01*
G37*
G36*
X164745073Y-312653837D02*
G01*
X164817092Y-312653900D01*
X164876675Y-312654060D01*
X164925001Y-312654363D01*
X164963247Y-312654852D01*
X164992592Y-312655574D01*
X165014214Y-312656572D01*
X165029293Y-312657891D01*
X165039005Y-312659577D01*
X165044531Y-312661675D01*
X165047048Y-312664228D01*
X165047735Y-312667283D01*
X165047761Y-312668619D01*
X165047468Y-312671881D01*
X165045804Y-312674624D01*
X165041591Y-312676894D01*
X165033649Y-312678735D01*
X165020801Y-312680192D01*
X165001867Y-312681310D01*
X164975670Y-312682134D01*
X164941032Y-312682708D01*
X164896772Y-312683078D01*
X164841714Y-312683289D01*
X164774679Y-312683385D01*
X164694488Y-312683411D01*
X164659438Y-312683412D01*
X164573804Y-312683401D01*
X164501784Y-312683337D01*
X164442201Y-312683177D01*
X164393876Y-312682874D01*
X164355630Y-312682385D01*
X164326285Y-312681663D01*
X164304663Y-312680666D01*
X164289584Y-312679346D01*
X164279871Y-312677660D01*
X164274346Y-312675562D01*
X164271829Y-312673009D01*
X164271142Y-312669954D01*
X164271116Y-312668619D01*
X164271408Y-312665356D01*
X164273072Y-312662613D01*
X164277286Y-312660343D01*
X164285228Y-312658502D01*
X164298076Y-312657045D01*
X164317010Y-312655927D01*
X164343206Y-312655103D01*
X164377845Y-312654529D01*
X164422104Y-312654159D01*
X164477162Y-312653948D01*
X164544198Y-312653853D01*
X164624389Y-312653826D01*
X164659438Y-312653825D01*
X164745073Y-312653837D01*
G37*
G36*
X165595684Y-312653837D02*
G01*
X165667704Y-312653900D01*
X165727287Y-312654060D01*
X165775612Y-312654363D01*
X165813858Y-312654852D01*
X165843203Y-312655574D01*
X165864826Y-312656572D01*
X165879904Y-312657891D01*
X165889617Y-312659577D01*
X165895143Y-312661675D01*
X165897660Y-312664228D01*
X165898346Y-312667283D01*
X165898373Y-312668619D01*
X165898080Y-312671881D01*
X165896416Y-312674624D01*
X165892202Y-312676894D01*
X165884260Y-312678735D01*
X165871412Y-312680192D01*
X165852479Y-312681310D01*
X165826282Y-312682134D01*
X165791643Y-312682708D01*
X165747384Y-312683078D01*
X165692326Y-312683289D01*
X165625291Y-312683385D01*
X165545099Y-312683411D01*
X165510050Y-312683412D01*
X165424416Y-312683401D01*
X165352396Y-312683337D01*
X165292813Y-312683177D01*
X165244487Y-312682874D01*
X165206242Y-312682385D01*
X165176897Y-312681663D01*
X165155274Y-312680666D01*
X165140196Y-312679346D01*
X165130483Y-312677660D01*
X165124957Y-312675562D01*
X165122440Y-312673009D01*
X165121753Y-312669954D01*
X165121727Y-312668619D01*
X165122020Y-312665356D01*
X165123684Y-312662613D01*
X165127898Y-312660343D01*
X165135839Y-312658502D01*
X165148688Y-312657045D01*
X165167621Y-312655927D01*
X165193818Y-312655103D01*
X165228457Y-312654529D01*
X165272716Y-312654159D01*
X165327774Y-312653948D01*
X165394809Y-312653853D01*
X165475000Y-312653826D01*
X165510050Y-312653825D01*
X165595684Y-312653837D01*
G37*
G36*
X168080949Y-312653837D02*
G01*
X168152969Y-312653900D01*
X168212552Y-312654060D01*
X168260877Y-312654363D01*
X168299123Y-312654852D01*
X168328468Y-312655574D01*
X168350091Y-312656572D01*
X168365169Y-312657891D01*
X168374882Y-312659577D01*
X168380408Y-312661675D01*
X168382925Y-312664228D01*
X168383611Y-312667283D01*
X168383638Y-312668619D01*
X168383345Y-312671881D01*
X168381681Y-312674624D01*
X168377467Y-312676894D01*
X168369525Y-312678735D01*
X168356677Y-312680192D01*
X168337744Y-312681310D01*
X168311547Y-312682134D01*
X168276908Y-312682708D01*
X168232649Y-312683078D01*
X168177591Y-312683289D01*
X168110556Y-312683385D01*
X168030364Y-312683411D01*
X167995315Y-312683412D01*
X167909681Y-312683401D01*
X167837661Y-312683337D01*
X167778078Y-312683177D01*
X167729752Y-312682874D01*
X167691507Y-312682385D01*
X167662162Y-312681663D01*
X167640539Y-312680666D01*
X167625461Y-312679346D01*
X167615748Y-312677660D01*
X167610222Y-312675562D01*
X167607705Y-312673009D01*
X167607018Y-312669954D01*
X167606992Y-312668619D01*
X167607285Y-312665356D01*
X167608949Y-312662613D01*
X167613163Y-312660343D01*
X167621104Y-312658502D01*
X167633953Y-312657045D01*
X167652886Y-312655927D01*
X167679083Y-312655103D01*
X167713722Y-312654529D01*
X167757981Y-312654159D01*
X167813039Y-312653948D01*
X167880074Y-312653853D01*
X167960265Y-312653826D01*
X167995315Y-312653825D01*
X168080949Y-312653837D01*
G37*
G36*
X168492382Y-315174067D02*
G01*
X168502123Y-315174841D01*
X168504800Y-315182947D01*
X168506946Y-315204182D01*
X168508469Y-315236888D01*
X168509275Y-315279408D01*
X168509380Y-315303805D01*
X168509267Y-315350192D01*
X168508758Y-315384134D01*
X168507602Y-315407978D01*
X168505545Y-315424073D01*
X168502335Y-315434765D01*
X168497719Y-315442402D01*
X168494001Y-315446674D01*
X168478622Y-315463044D01*
X168497699Y-315534720D01*
X168505730Y-315565177D01*
X168512093Y-315589848D01*
X168515972Y-315605541D01*
X168516777Y-315609435D01*
X168509840Y-315610570D01*
X168490869Y-315611512D01*
X168462621Y-315612174D01*
X168427855Y-315612467D01*
X168421442Y-315612474D01*
X168326107Y-315612474D01*
X168313011Y-315562547D01*
X168303574Y-315528437D01*
X168296705Y-315508671D01*
X168292046Y-315503090D01*
X168289238Y-315511538D01*
X168287922Y-315533856D01*
X168287706Y-315551452D01*
X168287481Y-315612474D01*
X168095169Y-315612474D01*
X168095169Y-315176073D01*
X168287481Y-315176073D01*
X168287481Y-315227850D01*
X168287881Y-315255060D01*
X168289680Y-315270648D01*
X168293785Y-315277778D01*
X168301097Y-315279612D01*
X168302275Y-315279626D01*
X168310075Y-315278218D01*
X168314530Y-315271878D01*
X168316555Y-315257429D01*
X168317065Y-315231698D01*
X168317068Y-315228285D01*
X168317068Y-315176943D01*
X168405967Y-315174659D01*
X168441120Y-315173966D01*
X168470983Y-315173771D01*
X168492382Y-315174067D01*
G37*
G36*
X164626852Y-315173862D02*
G01*
X164649096Y-315174239D01*
X164658257Y-315174767D01*
X164661985Y-315176677D01*
X164664880Y-315181882D01*
X164667044Y-315192039D01*
X164668581Y-315208805D01*
X164669596Y-315233835D01*
X164670190Y-315268786D01*
X164670468Y-315315314D01*
X164670533Y-315371175D01*
X164670533Y-315565192D01*
X164621751Y-315612474D01*
X164303604Y-315612474D01*
X164279963Y-315588083D01*
X164269523Y-315576863D01*
X164262723Y-315566758D01*
X164258783Y-315554352D01*
X164256922Y-315536225D01*
X164256361Y-315508960D01*
X164256322Y-315484530D01*
X164256322Y-315405369D01*
X164367814Y-315405369D01*
X164410659Y-315405241D01*
X164440825Y-315404691D01*
X164460426Y-315403468D01*
X164471574Y-315401321D01*
X164476383Y-315397998D01*
X164476966Y-315393249D01*
X164476825Y-315392425D01*
X164474125Y-315386851D01*
X164466903Y-315382985D01*
X164452699Y-315380421D01*
X164429054Y-315378751D01*
X164393508Y-315377570D01*
X164385818Y-315377382D01*
X164348057Y-315376312D01*
X164322004Y-315374810D01*
X164304577Y-315372262D01*
X164292693Y-315368052D01*
X164283267Y-315361566D01*
X164276807Y-315355657D01*
X164267758Y-315346325D01*
X164261863Y-315336938D01*
X164258447Y-315324222D01*
X164256834Y-315304904D01*
X164256351Y-315275711D01*
X164256322Y-315256288D01*
X164256322Y-315176545D01*
X164451151Y-315174460D01*
X164503896Y-315173989D01*
X164552157Y-315173734D01*
X164593841Y-315173692D01*
X164626852Y-315173862D01*
G37*
G36*
X166483421Y-315174078D02*
G01*
X166492891Y-315174767D01*
X166497304Y-315177204D01*
X166500500Y-315183847D01*
X166502666Y-315196730D01*
X166503994Y-315217887D01*
X166504673Y-315249354D01*
X166504890Y-315293166D01*
X166504896Y-315303731D01*
X166504782Y-315350133D01*
X166504274Y-315384089D01*
X166503119Y-315407945D01*
X166501064Y-315424049D01*
X166497857Y-315434748D01*
X166493246Y-315442387D01*
X166489517Y-315446674D01*
X166474137Y-315463044D01*
X166493215Y-315534720D01*
X166501246Y-315565177D01*
X166507608Y-315589848D01*
X166511488Y-315605541D01*
X166512292Y-315609435D01*
X166505356Y-315610572D01*
X166486389Y-315611515D01*
X166458154Y-315612176D01*
X166423413Y-315612468D01*
X166417234Y-315612474D01*
X166322176Y-315612474D01*
X166308955Y-315562547D01*
X166299398Y-315528352D01*
X166292425Y-315508502D01*
X166287679Y-315502844D01*
X166284806Y-315511225D01*
X166283449Y-315533491D01*
X166283222Y-315551452D01*
X166282997Y-315612474D01*
X166090685Y-315612474D01*
X166090685Y-315176073D01*
X166282997Y-315176073D01*
X166282997Y-315227850D01*
X166283396Y-315255060D01*
X166285196Y-315270648D01*
X166289300Y-315277778D01*
X166296613Y-315279612D01*
X166297790Y-315279626D01*
X166305591Y-315278218D01*
X166310047Y-315271876D01*
X166312071Y-315257425D01*
X166312581Y-315231690D01*
X166312583Y-315228298D01*
X166312583Y-315176969D01*
X166396735Y-315174672D01*
X166431535Y-315173952D01*
X166461603Y-315173756D01*
X166483421Y-315174078D01*
G37*
G36*
X169393628Y-307313517D02*
G01*
X169502586Y-307313611D01*
X169606446Y-307313764D01*
X169704304Y-307313972D01*
X169795255Y-307314232D01*
X169878394Y-307314539D01*
X169952817Y-307314888D01*
X170017617Y-307315277D01*
X170071890Y-307315700D01*
X170114732Y-307316154D01*
X170145237Y-307316635D01*
X170162501Y-307317138D01*
X170166223Y-307317509D01*
X170163505Y-307324946D01*
X170155704Y-307344753D01*
X170143353Y-307375612D01*
X170126986Y-307416206D01*
X170107134Y-307465219D01*
X170084329Y-307521334D01*
X170059106Y-307583233D01*
X170031995Y-307649599D01*
X170026390Y-307663301D01*
X169970425Y-307800103D01*
X169913948Y-307938205D01*
X169857504Y-308076274D01*
X169801636Y-308212977D01*
X169746889Y-308346980D01*
X169693808Y-308476952D01*
X169642935Y-308601559D01*
X169594817Y-308719467D01*
X169549997Y-308829346D01*
X169509019Y-308929860D01*
X169472427Y-309019678D01*
X169440766Y-309097467D01*
X169433822Y-309114542D01*
X169408785Y-309176058D01*
X169384333Y-309236031D01*
X169361305Y-309292412D01*
X169340540Y-309343151D01*
X169322876Y-309386197D01*
X169309152Y-309419500D01*
X169300636Y-309439993D01*
X169294362Y-309455031D01*
X169286101Y-309474982D01*
X169275566Y-309500544D01*
X169262470Y-309532420D01*
X169246528Y-309571309D01*
X169227454Y-309617911D01*
X169204960Y-309672926D01*
X169178761Y-309737056D01*
X169148571Y-309811000D01*
X169114103Y-309895458D01*
X169075071Y-309991131D01*
X169031188Y-310098719D01*
X168982169Y-310218922D01*
X168952940Y-310290605D01*
X168938313Y-310326462D01*
X168918937Y-310373932D01*
X168895663Y-310430935D01*
X168869340Y-310495389D01*
X168840818Y-310565216D01*
X168810946Y-310638335D01*
X168780575Y-310712664D01*
X168753555Y-310778782D01*
X168725796Y-310846701D01*
X168699684Y-310910593D01*
X168675763Y-310969125D01*
X168654578Y-311020966D01*
X168636673Y-311064781D01*
X168622593Y-311099240D01*
X168612881Y-311123010D01*
X168608084Y-311134757D01*
X168607712Y-311135669D01*
X168604150Y-311137412D01*
X168594437Y-311138937D01*
X168577772Y-311140256D01*
X168553353Y-311141382D01*
X168520378Y-311142326D01*
X168478047Y-311143102D01*
X168425556Y-311143722D01*
X168362104Y-311144199D01*
X168286889Y-311144543D01*
X168199111Y-311144769D01*
X168097966Y-311144888D01*
X168009317Y-311144914D01*
X167903970Y-311144831D01*
X167806833Y-311144587D01*
X167718653Y-311144191D01*
X167640178Y-311143651D01*
X167572153Y-311142976D01*
X167515327Y-311142174D01*
X167470445Y-311141254D01*
X167438255Y-311140225D01*
X167419504Y-311139094D01*
X167414680Y-311138107D01*
X167417404Y-311130157D01*
X167425233Y-311109803D01*
X167437654Y-311078322D01*
X167454153Y-311036993D01*
X167474216Y-310987096D01*
X167497331Y-310929909D01*
X167522983Y-310866713D01*
X167550659Y-310798785D01*
X167565390Y-310762728D01*
X167598923Y-310680684D01*
X167634817Y-310592802D01*
X167671896Y-310501962D01*
X167708985Y-310411043D01*
X167744911Y-310322927D01*
X167778498Y-310240493D01*
X167808571Y-310166623D01*
X167828840Y-310116784D01*
X167854270Y-310054284D01*
X167878733Y-309994276D01*
X167901495Y-309938556D01*
X167921820Y-309888918D01*
X167938973Y-309847159D01*
X167952219Y-309815074D01*
X167960822Y-309794457D01*
X167962149Y-309791333D01*
X167969879Y-309772924D01*
X167982343Y-309742821D01*
X167998716Y-309703036D01*
X168018171Y-309655584D01*
X168039884Y-309602478D01*
X168063027Y-309545731D01*
X168078968Y-309506563D01*
X168101673Y-309450771D01*
X168128930Y-309383861D01*
X168159689Y-309308409D01*
X168192900Y-309226987D01*
X168227514Y-309142169D01*
X168262479Y-309056530D01*
X168296745Y-308972644D01*
X168326425Y-308900026D01*
X168355164Y-308829664D01*
X168382309Y-308763076D01*
X168407324Y-308701583D01*
X168429674Y-308646507D01*
X168448823Y-308599173D01*
X168464236Y-308560901D01*
X168475378Y-308533013D01*
X168481713Y-308516834D01*
X168482909Y-308513553D01*
X168488187Y-308496924D01*
X168202056Y-308496924D01*
X168129418Y-308496891D01*
X168070228Y-308496750D01*
X168023141Y-308496441D01*
X167986811Y-308495901D01*
X167959895Y-308495069D01*
X167941046Y-308493884D01*
X167928920Y-308492283D01*
X167922171Y-308490205D01*
X167919454Y-308487588D01*
X167919425Y-308484371D01*
X167919528Y-308483980D01*
X167921363Y-308478796D01*
X167925751Y-308467440D01*
X167932916Y-308449357D01*
X167943085Y-308423989D01*
X167956485Y-308390781D01*
X167973342Y-308349176D01*
X167993882Y-308298618D01*
X168018331Y-308238551D01*
X168046915Y-308168419D01*
X168079862Y-308087665D01*
X168117398Y-307995733D01*
X168159748Y-307892066D01*
X168207139Y-307776110D01*
X168259797Y-307647307D01*
X168288937Y-307576044D01*
X168307809Y-307529781D01*
X168327013Y-307482512D01*
X168344926Y-307438241D01*
X168359928Y-307400970D01*
X168367544Y-307381906D01*
X168394732Y-307313510D01*
X169280478Y-307313487D01*
X169393628Y-307313517D01*
G37*
G36*
X167813083Y-307314872D02*
G01*
X167896208Y-307314973D01*
X167970616Y-307315131D01*
X168035402Y-307315344D01*
X168089660Y-307315611D01*
X168132486Y-307315928D01*
X168162974Y-307316296D01*
X168180219Y-307316712D01*
X168183929Y-307317036D01*
X168181238Y-307324544D01*
X168173628Y-307344010D01*
X168161793Y-307373706D01*
X168146426Y-307411903D01*
X168128221Y-307456873D01*
X168107870Y-307506887D01*
X168101571Y-307522323D01*
X168079731Y-307575806D01*
X168058908Y-307626822D01*
X168039987Y-307673194D01*
X168023857Y-307712750D01*
X168011403Y-307743313D01*
X168003513Y-307762709D01*
X168002722Y-307764658D01*
X167996349Y-307780324D01*
X167985072Y-307807977D01*
X167969590Y-307845914D01*
X167950596Y-307892430D01*
X167928789Y-307945818D01*
X167904864Y-308004376D01*
X167879516Y-308066398D01*
X167869824Y-308090110D01*
X167843365Y-308154842D01*
X167817423Y-308218324D01*
X167792808Y-308278568D01*
X167770333Y-308333589D01*
X167750809Y-308381399D01*
X167735047Y-308420011D01*
X167723858Y-308447440D01*
X167721778Y-308452544D01*
X167712627Y-308474984D01*
X167698571Y-308509418D01*
X167680303Y-308554148D01*
X167658519Y-308607475D01*
X167633911Y-308667700D01*
X167607175Y-308733125D01*
X167579003Y-308802052D01*
X167550090Y-308872781D01*
X167548017Y-308877850D01*
X167508866Y-308973620D01*
X167467191Y-309075575D01*
X167423440Y-309182618D01*
X167378060Y-309293653D01*
X167331500Y-309407585D01*
X167284206Y-309523318D01*
X167236627Y-309639754D01*
X167189211Y-309755800D01*
X167142404Y-309870358D01*
X167096656Y-309982333D01*
X167052414Y-310090629D01*
X167010125Y-310194149D01*
X166970237Y-310291799D01*
X166933198Y-310382481D01*
X166899456Y-310465101D01*
X166869459Y-310538561D01*
X166843654Y-310601767D01*
X166822488Y-310653622D01*
X166806411Y-310693030D01*
X166804621Y-310697419D01*
X166778290Y-310761979D01*
X166751651Y-310827266D01*
X166725664Y-310890927D01*
X166701291Y-310950609D01*
X166679492Y-311003961D01*
X166661229Y-311048628D01*
X166647462Y-311082259D01*
X166646034Y-311085741D01*
X166635501Y-311111640D01*
X166627550Y-311131579D01*
X166623515Y-311142200D01*
X166623267Y-311143065D01*
X166616050Y-311143352D01*
X166595144Y-311143626D01*
X166561652Y-311143882D01*
X166516678Y-311144118D01*
X166461326Y-311144330D01*
X166396700Y-311144514D01*
X166323903Y-311144668D01*
X166244039Y-311144788D01*
X166158213Y-311144869D01*
X166067526Y-311144910D01*
X166027813Y-311144914D01*
X165935398Y-311144838D01*
X165847374Y-311144615D01*
X165764845Y-311144259D01*
X165688914Y-311143781D01*
X165620686Y-311143193D01*
X165561263Y-311142505D01*
X165511750Y-311141731D01*
X165473250Y-311140882D01*
X165446868Y-311139969D01*
X165433706Y-311139005D01*
X165432385Y-311138582D01*
X165432877Y-311136151D01*
X165434545Y-311130972D01*
X165437681Y-311122327D01*
X165442575Y-311109496D01*
X165449519Y-311091762D01*
X165458802Y-311068405D01*
X165470717Y-311038707D01*
X165485554Y-311001950D01*
X165503603Y-310957414D01*
X165525156Y-310904381D01*
X165550503Y-310842132D01*
X165579935Y-310769949D01*
X165613743Y-310687113D01*
X165652218Y-310592906D01*
X165695651Y-310486608D01*
X165744332Y-310367502D01*
X165756113Y-310338683D01*
X165789566Y-310256841D01*
X165827179Y-310164809D01*
X165867521Y-310066087D01*
X165909161Y-309964182D01*
X165950667Y-309862595D01*
X165990607Y-309764831D01*
X166027549Y-309674394D01*
X166044741Y-309632305D01*
X166074802Y-309558710D01*
X166104626Y-309485712D01*
X166133465Y-309415140D01*
X166160571Y-309348822D01*
X166185196Y-309288590D01*
X166206592Y-309236271D01*
X166224012Y-309193696D01*
X166236707Y-309162693D01*
X166238253Y-309158921D01*
X166282381Y-309051206D01*
X166323275Y-308951244D01*
X166360684Y-308859652D01*
X166394357Y-308777047D01*
X166424044Y-308704049D01*
X166449494Y-308641274D01*
X166470457Y-308589339D01*
X166486682Y-308548863D01*
X166497918Y-308520462D01*
X166503916Y-308504755D01*
X166504896Y-308501690D01*
X166497765Y-308500631D01*
X166477437Y-308499654D01*
X166445508Y-308498785D01*
X166403574Y-308498052D01*
X166353230Y-308497480D01*
X166296073Y-308497097D01*
X166233698Y-308496929D01*
X166220126Y-308496924D01*
X166156861Y-308496769D01*
X166098479Y-308496329D01*
X166046577Y-308495637D01*
X166002749Y-308494729D01*
X165968593Y-308493638D01*
X165945704Y-308492400D01*
X165935678Y-308491048D01*
X165935356Y-308490754D01*
X165938065Y-308482723D01*
X165945775Y-308462572D01*
X165957865Y-308431864D01*
X165973709Y-308392162D01*
X165992684Y-308345028D01*
X166014168Y-308292023D01*
X166037535Y-308234711D01*
X166037940Y-308233722D01*
X166066252Y-308164432D01*
X166097034Y-308089007D01*
X166128780Y-308011139D01*
X166159987Y-307934519D01*
X166189149Y-307862841D01*
X166214764Y-307799797D01*
X166223019Y-307779451D01*
X166244653Y-307726187D01*
X166265166Y-307675830D01*
X166283709Y-307630453D01*
X166299432Y-307592131D01*
X166311487Y-307562935D01*
X166319025Y-307544940D01*
X166319962Y-307542760D01*
X166328187Y-307523389D01*
X166340428Y-307494029D01*
X166355145Y-307458397D01*
X166370796Y-307420214D01*
X166373609Y-307413319D01*
X166412807Y-307317163D01*
X167298368Y-307315283D01*
X167411506Y-307315073D01*
X167520451Y-307314929D01*
X167624299Y-307314848D01*
X167722145Y-307314830D01*
X167813083Y-307314872D01*
G37*
G36*
X174582007Y-319044507D02*
G01*
X160380493Y-319044507D01*
X160380493Y-318826309D01*
X171608565Y-318826309D01*
X171658492Y-318879408D01*
X171680216Y-318902025D01*
X171698314Y-318919961D01*
X171710351Y-318930853D01*
X171713716Y-318933033D01*
X171723235Y-318930449D01*
X171740236Y-318923384D01*
X171745151Y-318921093D01*
X171771290Y-318908628D01*
X171772148Y-318852674D01*
X171772941Y-318828131D01*
X171774287Y-318812551D01*
X171775931Y-318808493D01*
X171776406Y-318809753D01*
X171782745Y-318820270D01*
X171797198Y-318838432D01*
X171817419Y-318861420D01*
X171834642Y-318879799D01*
X171889478Y-318936811D01*
X171938372Y-318912700D01*
X171965379Y-318900188D01*
X171982766Y-318894512D01*
X171993592Y-318894883D01*
X171997843Y-318897368D01*
X172012941Y-318901708D01*
X172029792Y-318896508D01*
X172042206Y-318884708D01*
X172044965Y-318874980D01*
X172048326Y-318860754D01*
X172052362Y-318855893D01*
X172056057Y-318846795D01*
X172059120Y-318826867D01*
X172060983Y-318800073D01*
X172061157Y-318794434D01*
X172061898Y-318767280D01*
X172062559Y-318754253D01*
X172063335Y-318754691D01*
X172064424Y-318767930D01*
X172065242Y-318780654D01*
X172066841Y-318800248D01*
X172070059Y-318815206D01*
X172076833Y-318828893D01*
X172089099Y-318844677D01*
X172108795Y-318865925D01*
X172122422Y-318880051D01*
X172176916Y-318936340D01*
X172207097Y-318922730D01*
X172224309Y-318914329D01*
X172233292Y-318905936D01*
X172236724Y-318892708D01*
X172237277Y-318869803D01*
X172237278Y-318868112D01*
X172237278Y-318827103D01*
X172261669Y-318850744D01*
X172281566Y-318867579D01*
X172297988Y-318873182D01*
X172316223Y-318868237D01*
X172331430Y-318859766D01*
X172347604Y-318847169D01*
X172351398Y-318835565D01*
X172350482Y-318832056D01*
X172352456Y-318829865D01*
X172362334Y-318836962D01*
X172377078Y-318850924D01*
X172396828Y-318868681D01*
X172412406Y-318878167D01*
X172419048Y-318878894D01*
X172427895Y-318880635D01*
X172429590Y-318888278D01*
X172434228Y-318903300D01*
X172444640Y-318919060D01*
X172459690Y-318936413D01*
X172534712Y-318899851D01*
X172569429Y-318882068D01*
X172599276Y-318865154D01*
X172622479Y-318850312D01*
X172637262Y-318838746D01*
X172641850Y-318831659D01*
X172637775Y-318830005D01*
X172634224Y-318825192D01*
X172688479Y-318825192D01*
X172689430Y-318845619D01*
X172693937Y-318860945D01*
X172704465Y-318876172D01*
X172723483Y-318896300D01*
X172723605Y-318896424D01*
X172745301Y-318917425D01*
X172760192Y-318928751D01*
X172771335Y-318931754D01*
X172781789Y-318927783D01*
X172786774Y-318924312D01*
X172797958Y-318909349D01*
X172804937Y-318883121D01*
X172806268Y-318873433D01*
X172812749Y-318867710D01*
X172827739Y-318860124D01*
X172829007Y-318859591D01*
X172841666Y-318853266D01*
X172848288Y-318844845D01*
X172849100Y-318840039D01*
X172859431Y-318840039D01*
X172861827Y-318855637D01*
X172869403Y-318869580D01*
X172884290Y-318886949D01*
X172893047Y-318896289D01*
X172914343Y-318917871D01*
X172929219Y-318929425D01*
X172940725Y-318932290D01*
X172951910Y-318927804D01*
X172956896Y-318924312D01*
X172967866Y-318909980D01*
X172972554Y-318896574D01*
X172975236Y-318881622D01*
X172976390Y-318875383D01*
X172982117Y-318877004D01*
X172995197Y-318884647D01*
X172995754Y-318885011D01*
X173009635Y-318892697D01*
X173020299Y-318891903D01*
X173034586Y-318882606D01*
X173054604Y-318867874D01*
X173089962Y-318902508D01*
X173125320Y-318937141D01*
X173239520Y-318878083D01*
X173240428Y-318862214D01*
X173250615Y-318862214D01*
X173252850Y-318889932D01*
X173260654Y-318908947D01*
X173266697Y-318916438D01*
X173280256Y-318928316D01*
X173290597Y-318933165D01*
X173290736Y-318933160D01*
X173300679Y-318929707D01*
X173319869Y-318920914D01*
X173344562Y-318908518D01*
X173350469Y-318905423D01*
X173402246Y-318878083D01*
X173406631Y-318841100D01*
X173409226Y-318820075D01*
X173410677Y-318813043D01*
X173411532Y-318819300D01*
X173412178Y-318833981D01*
X173414489Y-318852081D01*
X173421502Y-318867751D01*
X173435767Y-318885425D01*
X173450262Y-318900212D01*
X173487184Y-318936579D01*
X173546418Y-318907699D01*
X173572755Y-318894073D01*
X173593073Y-318882065D01*
X173604342Y-318873537D01*
X173605653Y-318871332D01*
X173610375Y-318872332D01*
X173622826Y-318881930D01*
X173640428Y-318898110D01*
X173642575Y-318900212D01*
X173679496Y-318936579D01*
X173738731Y-318907699D01*
X173797965Y-318878819D01*
X173797965Y-318836826D01*
X173797275Y-318827985D01*
X173805465Y-318827985D01*
X173806515Y-318852259D01*
X173810978Y-318866797D01*
X173820574Y-318876558D01*
X173822855Y-318878109D01*
X173842210Y-318885605D01*
X173859014Y-318882474D01*
X173874209Y-318879460D01*
X173887025Y-318885968D01*
X173894587Y-318893372D01*
X173908713Y-318906852D01*
X173920189Y-318910416D01*
X173935924Y-318905438D01*
X173941851Y-318902784D01*
X173953439Y-318895512D01*
X173959015Y-318884368D01*
X173960653Y-318864464D01*
X173960691Y-318858404D01*
X173958875Y-318834395D01*
X173952569Y-318823580D01*
X173940482Y-318824713D01*
X173931149Y-318829820D01*
X173920378Y-318831261D01*
X173905750Y-318822319D01*
X173896200Y-318813642D01*
X173880403Y-318799613D01*
X173869113Y-318794835D01*
X173856941Y-318797564D01*
X173852499Y-318799501D01*
X173834737Y-318804308D01*
X173825886Y-318801711D01*
X173828207Y-318795227D01*
X173840560Y-318784854D01*
X173859401Y-318772594D01*
X173881193Y-318760446D01*
X173902392Y-318750411D01*
X173919461Y-318744489D01*
X173927861Y-318744095D01*
X173937761Y-318751972D01*
X173934149Y-318760601D01*
X173922150Y-318765986D01*
X173905800Y-318770261D01*
X173923999Y-318789731D01*
X173942199Y-318809200D01*
X173944517Y-318786318D01*
X173948081Y-318770428D01*
X173953515Y-318763450D01*
X173953763Y-318763435D01*
X173960332Y-318759878D01*
X173955251Y-318750506D01*
X173941980Y-318739061D01*
X173932857Y-318733060D01*
X173924313Y-318730870D01*
X173913072Y-318733276D01*
X173895854Y-318741061D01*
X173869381Y-318755010D01*
X173864651Y-318757552D01*
X173805569Y-318789323D01*
X173805465Y-318827985D01*
X173797275Y-318827985D01*
X173795462Y-318804732D01*
X173787621Y-318785974D01*
X173773938Y-318779910D01*
X173757064Y-318784379D01*
X173744107Y-318788967D01*
X173739396Y-318783973D01*
X173738792Y-318771493D01*
X173734042Y-318749437D01*
X173725440Y-318733792D01*
X173712088Y-318717302D01*
X173668116Y-318741605D01*
X173643590Y-318755701D01*
X173622941Y-318768525D01*
X173611503Y-318776638D01*
X173602168Y-318782329D01*
X173592923Y-318779866D01*
X173579089Y-318767809D01*
X173577411Y-318766156D01*
X173554515Y-318743498D01*
X173538766Y-318729880D01*
X173526288Y-318724475D01*
X173513203Y-318726459D01*
X173495636Y-318735006D01*
X173477726Y-318744930D01*
X173452750Y-318759458D01*
X173432288Y-318772812D01*
X173420470Y-318782280D01*
X173420000Y-318782815D01*
X173413835Y-318787404D01*
X173406005Y-318785188D01*
X173393951Y-318774551D01*
X173376257Y-318755173D01*
X173341908Y-318716214D01*
X173316602Y-318730944D01*
X173299314Y-318743557D01*
X173291398Y-318758787D01*
X173289073Y-318775695D01*
X173284883Y-318798247D01*
X173274806Y-318811590D01*
X173268732Y-318815412D01*
X173257650Y-318823542D01*
X173252253Y-318835617D01*
X173250648Y-318856530D01*
X173250615Y-318862214D01*
X173240428Y-318862214D01*
X173241776Y-318838675D01*
X173242335Y-318817251D01*
X173239695Y-318801570D01*
X173231838Y-318786618D01*
X173216745Y-318767380D01*
X173209768Y-318759161D01*
X173192268Y-318739436D01*
X173178333Y-318725123D01*
X173170779Y-318719098D01*
X173170529Y-318719061D01*
X173162413Y-318722618D01*
X173144674Y-318732174D01*
X173120344Y-318746061D01*
X173104492Y-318755392D01*
X173043431Y-318791717D01*
X173016103Y-318757235D01*
X173000564Y-318737664D01*
X172988557Y-318722603D01*
X172983700Y-318716570D01*
X172975486Y-318717240D01*
X172957736Y-318724217D01*
X172933583Y-318736172D01*
X172920459Y-318743389D01*
X172862292Y-318776392D01*
X172860082Y-318817706D01*
X172859431Y-318840039D01*
X172849100Y-318840039D01*
X172850817Y-318829875D01*
X172851197Y-318808691D01*
X172849879Y-318781810D01*
X172844734Y-318763689D01*
X172833974Y-318748435D01*
X172832406Y-318746717D01*
X172819135Y-318733535D01*
X172810219Y-318726713D01*
X172809284Y-318726452D01*
X172801262Y-318729744D01*
X172783463Y-318738551D01*
X172759078Y-318751269D01*
X172746720Y-318757888D01*
X172688486Y-318789323D01*
X172688479Y-318825192D01*
X172634224Y-318825192D01*
X172632534Y-318822902D01*
X172630968Y-318811513D01*
X172636695Y-318811513D01*
X172640393Y-318815211D01*
X172644092Y-318811513D01*
X172640393Y-318807815D01*
X172636695Y-318811513D01*
X172630968Y-318811513D01*
X172629722Y-318802445D01*
X172629299Y-318785857D01*
X172629932Y-318761166D01*
X172632336Y-318748516D01*
X172637267Y-318745191D01*
X172640393Y-318745967D01*
X172649862Y-318744728D01*
X172651488Y-318738338D01*
X172645899Y-318728033D01*
X172640379Y-318726452D01*
X172629542Y-318721381D01*
X172613177Y-318708291D01*
X172599977Y-318695353D01*
X172583414Y-318679555D01*
X172570539Y-318670512D01*
X172565159Y-318669780D01*
X172567290Y-318677091D01*
X172578430Y-318690460D01*
X172592617Y-318703828D01*
X172609563Y-318719526D01*
X172620048Y-318731304D01*
X172621902Y-318735948D01*
X172610974Y-318743246D01*
X172590629Y-318754168D01*
X172564146Y-318767218D01*
X172534803Y-318780902D01*
X172505879Y-318793723D01*
X172480653Y-318804187D01*
X172462402Y-318810799D01*
X172454660Y-318812223D01*
X172444776Y-318804076D01*
X172449318Y-318792780D01*
X172468263Y-318778361D01*
X172496057Y-318763485D01*
X172521779Y-318750706D01*
X172536145Y-318742091D01*
X172541249Y-318735641D01*
X172539182Y-318729355D01*
X172535899Y-318725412D01*
X172529391Y-318719516D01*
X172521744Y-318717735D01*
X172509829Y-318720783D01*
X172490515Y-318729373D01*
X172466763Y-318741150D01*
X172409459Y-318769962D01*
X172384896Y-318744619D01*
X172371198Y-318729270D01*
X172363871Y-318718615D01*
X172363526Y-318716106D01*
X172370943Y-318711556D01*
X172388706Y-318701569D01*
X172414098Y-318687651D01*
X172442306Y-318672432D01*
X172475607Y-318654965D01*
X172498445Y-318644139D01*
X172513126Y-318639130D01*
X172521960Y-318639115D01*
X172526572Y-318642386D01*
X172531290Y-318648197D01*
X172532337Y-318652741D01*
X172527595Y-318657831D01*
X172514949Y-318665278D01*
X172492283Y-318676893D01*
X172477668Y-318684256D01*
X172451967Y-318697844D01*
X172438359Y-318706896D01*
X172435323Y-318712665D01*
X172439391Y-318715720D01*
X172454368Y-318715617D01*
X172477277Y-318708859D01*
X172503852Y-318697165D01*
X172529829Y-318682254D01*
X172539784Y-318675259D01*
X172551495Y-318665374D01*
X172552887Y-318657223D01*
X172544698Y-318644284D01*
X172543482Y-318642616D01*
X172531298Y-318629142D01*
X172521224Y-318623147D01*
X172520968Y-318623132D01*
X172509527Y-318626480D01*
X172489207Y-318635690D01*
X172463107Y-318649017D01*
X172434327Y-318664718D01*
X172405964Y-318681050D01*
X172381119Y-318696268D01*
X172362889Y-318708629D01*
X172354375Y-318716388D01*
X172354135Y-318717005D01*
X172348373Y-318717434D01*
X172334091Y-318707011D01*
X172312094Y-318686368D01*
X172301304Y-318675380D01*
X172279341Y-318653045D01*
X172261131Y-318635335D01*
X172249115Y-318624581D01*
X172245829Y-318622427D01*
X172235717Y-318625372D01*
X172216144Y-318633993D01*
X172190117Y-318646691D01*
X172160642Y-318661866D01*
X172130726Y-318677919D01*
X172103373Y-318693251D01*
X172081591Y-318706262D01*
X172068385Y-318715353D01*
X172065842Y-318718189D01*
X172060109Y-318717796D01*
X172046245Y-318707400D01*
X172025743Y-318688234D01*
X172009853Y-318671960D01*
X171986857Y-318648635D01*
X171966904Y-318630039D01*
X171952527Y-318618438D01*
X171946981Y-318615688D01*
X171937195Y-318619182D01*
X171917436Y-318628554D01*
X171890590Y-318642369D01*
X171860050Y-318658911D01*
X171782385Y-318701948D01*
X171780192Y-318747141D01*
X171777999Y-318792335D01*
X171726159Y-318733505D01*
X171704254Y-318709321D01*
X171685586Y-318689960D01*
X171672468Y-318677747D01*
X171667634Y-318674676D01*
X171657195Y-318677730D01*
X171639702Y-318685303D01*
X171634939Y-318687620D01*
X171608929Y-318700564D01*
X171608747Y-318763436D01*
X171608565Y-318826309D01*
X160380493Y-318826309D01*
X160380493Y-318423191D01*
X161001809Y-318423191D01*
X173960691Y-318423191D01*
X173960691Y-305464309D01*
X161001809Y-305464309D01*
X161001809Y-318423191D01*
X160380493Y-318423191D01*
X160380493Y-304842993D01*
X174582007Y-304842993D01*
X174582007Y-319044507D01*
G37*
%TD*%
%LPC*%
D11*
%TO.C,MX61*%
X311943750Y-271621250D03*
D12*
X311943750Y-286861250D03*
D13*
X318770000Y-278606250D03*
D12*
X323850000Y-278606250D03*
D13*
X328930000Y-278606250D03*
D11*
X335756250Y-271621250D03*
D12*
X335756250Y-286861250D03*
%TD*%
D13*
%TO.C,MX54*%
X278288750Y-297656250D03*
D12*
X283368750Y-297656250D03*
D13*
X288448750Y-297656250D03*
%TD*%
%TO.C,MX69*%
X68738750Y-316706250D03*
D12*
X73818750Y-316706250D03*
D13*
X78898750Y-316706250D03*
%TD*%
%TO.C,MX8*%
X97313750Y-278606250D03*
D12*
X102393750Y-278606250D03*
D13*
X107473750Y-278606250D03*
%TD*%
%TO.C,MX29*%
X183038750Y-297656250D03*
D12*
X188118750Y-297656250D03*
D13*
X193198750Y-297656250D03*
%TD*%
%TO.C,MX3*%
X71120000Y-278606250D03*
D12*
X76200000Y-278606250D03*
D13*
X81280000Y-278606250D03*
%TD*%
%TO.C,MX5*%
X66357500Y-316706250D03*
D12*
X71437500Y-316706250D03*
D13*
X76517500Y-316706250D03*
%TD*%
%TO.C,MX31*%
X178276250Y-240506250D03*
D12*
X183356250Y-240506250D03*
D13*
X188436250Y-240506250D03*
%TD*%
%TO.C,MX71*%
X116363750Y-316706250D03*
D12*
X121443750Y-316706250D03*
D13*
X126523750Y-316706250D03*
%TD*%
%TO.C,MX15*%
X109220000Y-316706250D03*
D12*
X114300000Y-316706250D03*
D13*
X119380000Y-316706250D03*
%TD*%
%TO.C,MX60*%
X302101250Y-259556250D03*
D12*
X307181250Y-259556250D03*
D13*
X312261250Y-259556250D03*
%TD*%
%TO.C,MX13*%
X116363750Y-278606250D03*
D12*
X121443750Y-278606250D03*
D13*
X126523750Y-278606250D03*
%TD*%
%TO.C,MX28*%
X173513750Y-278606250D03*
D12*
X178593750Y-278606250D03*
D13*
X183673750Y-278606250D03*
%TD*%
D12*
%TO.C,*%
X169068750Y-278606250D03*
%TD*%
D13*
%TO.C,MX52*%
X264001250Y-259556250D03*
D12*
X269081250Y-259556250D03*
D13*
X274161250Y-259556250D03*
%TD*%
%TO.C,MX47*%
X244951250Y-259556250D03*
D12*
X250031250Y-259556250D03*
D13*
X255111250Y-259556250D03*
%TD*%
%TO.C,MX45*%
X340201250Y-316706250D03*
D12*
X345281250Y-316706250D03*
D13*
X350361250Y-316706250D03*
%TD*%
%TO.C,MX25*%
X252095000Y-316706250D03*
D12*
X257175000Y-316706250D03*
D13*
X262255000Y-316706250D03*
%TD*%
%TO.C,MX32*%
X187801250Y-259556250D03*
D12*
X192881250Y-259556250D03*
D13*
X197961250Y-259556250D03*
%TD*%
%TO.C,MX36*%
X197326250Y-240506250D03*
D12*
X202406250Y-240506250D03*
D13*
X207486250Y-240506250D03*
%TD*%
%TO.C,MX50*%
X359251250Y-316706250D03*
D12*
X364331250Y-316706250D03*
D13*
X369411250Y-316706250D03*
%TD*%
D14*
%TO.C,*%
X351409000Y-276606000D03*
%TD*%
D12*
%TO.C,*%
X264318750Y-278606250D03*
%TD*%
D13*
%TO.C,MX64*%
X325913750Y-259556250D03*
D12*
X330993750Y-259556250D03*
D13*
X336073750Y-259556250D03*
%TD*%
%TO.C,MX34*%
X202088750Y-297656250D03*
D12*
X207168750Y-297656250D03*
D13*
X212248750Y-297656250D03*
%TD*%
%TO.C,MX49*%
X259238750Y-297656250D03*
D12*
X264318750Y-297656250D03*
D13*
X269398750Y-297656250D03*
%TD*%
D11*
%TO.C,MX58*%
X302418750Y-290671250D03*
D12*
X302418750Y-305911250D03*
D13*
X309245000Y-297656250D03*
D12*
X314325000Y-297656250D03*
D13*
X319405000Y-297656250D03*
D11*
X326231250Y-290671250D03*
D12*
X326231250Y-305911250D03*
%TD*%
D13*
%TO.C,MX17*%
X130651250Y-259556250D03*
D12*
X135731250Y-259556250D03*
D13*
X140811250Y-259556250D03*
%TD*%
%TO.C,MX46*%
X235426250Y-240506250D03*
D12*
X240506250Y-240506250D03*
D13*
X245586250Y-240506250D03*
%TD*%
%TO.C,MX62*%
X340201250Y-297656250D03*
D12*
X345281250Y-297656250D03*
D13*
X350361250Y-297656250D03*
%TD*%
%TO.C,MX6*%
X83026250Y-240506250D03*
D12*
X88106250Y-240506250D03*
D13*
X93186250Y-240506250D03*
%TD*%
%TO.C,MX30*%
X275907500Y-316706250D03*
D12*
X280987500Y-316706250D03*
D13*
X286067500Y-316706250D03*
%TD*%
%TO.C,MX70*%
X92551250Y-316706250D03*
D12*
X97631250Y-316706250D03*
D13*
X102711250Y-316706250D03*
%TD*%
%TO.C,MX66*%
X359251250Y-297656250D03*
D12*
X364331250Y-297656250D03*
D13*
X369411250Y-297656250D03*
%TD*%
%TO.C,MX39*%
X221138750Y-297656250D03*
D12*
X226218750Y-297656250D03*
D13*
X231298750Y-297656250D03*
%TD*%
%TO.C,MX41*%
X216376250Y-240506250D03*
D12*
X221456250Y-240506250D03*
D13*
X226536250Y-240506250D03*
%TD*%
D12*
%TO.C,MX20*%
X135737600Y-308451250D03*
D11*
X135737600Y-323691250D03*
D13*
X180657500Y-316706250D03*
D12*
X185737500Y-316706250D03*
D13*
X190817500Y-316706250D03*
D12*
X235737400Y-308451250D03*
D11*
X235737400Y-323691250D03*
%TD*%
D13*
%TO.C,MX14*%
X125888750Y-297656250D03*
D12*
X130968750Y-297656250D03*
D13*
X136048750Y-297656250D03*
%TD*%
%TO.C,MX12*%
X111601250Y-259556250D03*
D12*
X116681250Y-259556250D03*
D13*
X121761250Y-259556250D03*
%TD*%
%TO.C,MX67*%
X359251250Y-240506250D03*
D12*
X364331250Y-240506250D03*
D13*
X369411250Y-240506250D03*
%TD*%
%TO.C,MX73*%
X66357500Y-278606250D03*
D12*
X71437500Y-278606250D03*
D13*
X76517500Y-278606250D03*
%TD*%
%TO.C,MX9*%
X106838750Y-297656250D03*
D12*
X111918750Y-297656250D03*
D13*
X116998750Y-297656250D03*
%TD*%
%TO.C,MX35*%
X299720000Y-316706250D03*
D12*
X304800000Y-316706250D03*
D13*
X309880000Y-316706250D03*
%TD*%
%TO.C,MX10*%
X87788750Y-316706250D03*
D12*
X92868750Y-316706250D03*
D13*
X97948750Y-316706250D03*
%TD*%
%TO.C,MX40*%
X321151250Y-316706250D03*
D12*
X326231250Y-316706250D03*
D13*
X331311250Y-316706250D03*
%TD*%
%TO.C,MX33*%
X192563750Y-278606250D03*
D12*
X197643750Y-278606250D03*
D13*
X202723750Y-278606250D03*
%TD*%
D11*
%TO.C,MX63*%
X314325000Y-233521250D03*
D12*
X314325000Y-248761250D03*
D13*
X321151250Y-240506250D03*
D12*
X326231250Y-240506250D03*
D13*
X331311250Y-240506250D03*
D11*
X338137500Y-233521250D03*
D12*
X338137500Y-248761250D03*
%TD*%
D13*
%TO.C,MX2*%
X68738750Y-259556250D03*
D12*
X73818750Y-259556250D03*
D13*
X78898750Y-259556250D03*
%TD*%
%TO.C,MX24*%
X163988750Y-297656250D03*
D12*
X169068750Y-297656250D03*
D13*
X174148750Y-297656250D03*
%TD*%
%TO.C,MX44*%
X240188750Y-297656250D03*
D12*
X245268750Y-297656250D03*
D13*
X250348750Y-297656250D03*
%TD*%
%TO.C,MX19*%
X144938750Y-297656250D03*
D12*
X150018750Y-297656250D03*
D13*
X155098750Y-297656250D03*
%TD*%
%TO.C,MX38*%
X211613750Y-278606250D03*
D12*
X216693750Y-278606250D03*
D13*
X221773750Y-278606250D03*
%TD*%
D12*
%TO.C,MX72*%
X145256250Y-308451250D03*
D11*
X145256250Y-323691250D03*
D13*
X197326250Y-316706250D03*
D12*
X202406250Y-316706250D03*
D13*
X207486250Y-316706250D03*
D12*
X259556250Y-308451250D03*
D11*
X259556250Y-323691250D03*
%TD*%
D13*
%TO.C,MX68*%
X359251250Y-259556250D03*
D12*
X364331250Y-259556250D03*
D13*
X369411250Y-259556250D03*
%TD*%
%TO.C,MX51*%
X254476250Y-240506250D03*
D12*
X259556250Y-240506250D03*
D13*
X264636250Y-240506250D03*
%TD*%
%TO.C,MX75*%
X306863750Y-278606250D03*
D12*
X311943750Y-278606250D03*
D13*
X317023750Y-278606250D03*
%TD*%
%TO.C,MX56*%
X283051250Y-259556250D03*
D12*
X288131250Y-259556250D03*
D13*
X293211250Y-259556250D03*
%TD*%
%TO.C,MX42*%
X225901250Y-259556250D03*
D12*
X230981250Y-259556250D03*
D13*
X236061250Y-259556250D03*
%TD*%
%TO.C,MX43*%
X230663750Y-278606250D03*
D12*
X235743750Y-278606250D03*
D13*
X240823750Y-278606250D03*
%TD*%
%TO.C,MX22*%
X149701250Y-259556250D03*
D12*
X154781250Y-259556250D03*
D13*
X159861250Y-259556250D03*
%TD*%
%TO.C,MX53*%
X268763750Y-278606250D03*
D12*
X273843750Y-278606250D03*
D13*
X278923750Y-278606250D03*
%TD*%
%TO.C,MX65*%
X359251250Y-278606250D03*
D12*
X364331250Y-278606250D03*
D13*
X369411250Y-278606250D03*
%TD*%
D11*
%TO.C,MX4*%
X69056250Y-290671250D03*
D12*
X69056250Y-305911250D03*
D13*
X75882500Y-297656250D03*
D12*
X80962500Y-297656250D03*
D13*
X86042500Y-297656250D03*
D11*
X92868750Y-290671250D03*
D12*
X92868750Y-305911250D03*
%TD*%
D13*
%TO.C,MX7*%
X92551250Y-259556250D03*
D12*
X97631250Y-259556250D03*
D13*
X102711250Y-259556250D03*
%TD*%
%TO.C,MX55*%
X273526250Y-240506250D03*
D12*
X278606250Y-240506250D03*
D13*
X283686250Y-240506250D03*
%TD*%
%TO.C,MX23*%
X154463750Y-278606250D03*
D12*
X159543750Y-278606250D03*
D13*
X164623750Y-278606250D03*
%TD*%
%TO.C,MX16*%
X121126250Y-240506250D03*
D12*
X126206250Y-240506250D03*
D13*
X131286250Y-240506250D03*
%TD*%
D12*
%TO.C,MX74*%
X325120000Y-257143250D03*
X325120000Y-281019250D03*
D13*
X328295000Y-269081250D03*
D12*
X333375000Y-269081250D03*
D13*
X338455000Y-269081250D03*
D11*
X340360000Y-257143250D03*
X340360000Y-281019250D03*
%TD*%
D13*
%TO.C,MX18*%
X135413750Y-278606250D03*
D12*
X140493750Y-278606250D03*
D13*
X145573750Y-278606250D03*
%TD*%
%TO.C,MX37*%
X206851250Y-259556250D03*
D12*
X211931250Y-259556250D03*
D13*
X217011250Y-259556250D03*
%TD*%
%TO.C,MX48*%
X249713750Y-278606250D03*
D12*
X254793750Y-278606250D03*
D13*
X259873750Y-278606250D03*
%TD*%
%TO.C,MX59*%
X292576250Y-240506250D03*
D12*
X297656250Y-240506250D03*
D13*
X302736250Y-240506250D03*
%TD*%
%TO.C,MX26*%
X159226250Y-240506250D03*
D12*
X164306250Y-240506250D03*
D13*
X169386250Y-240506250D03*
%TD*%
%TO.C,MX21*%
X140176250Y-240506250D03*
D12*
X145256250Y-240506250D03*
D13*
X150336250Y-240506250D03*
%TD*%
%TO.C,MX57*%
X287813750Y-278606250D03*
D12*
X292893750Y-278606250D03*
D13*
X297973750Y-278606250D03*
%TD*%
%TO.C,MX27*%
X168751250Y-259556250D03*
D12*
X173831250Y-259556250D03*
D13*
X178911250Y-259556250D03*
%TD*%
%TO.C,MX1*%
X63976250Y-240506250D03*
D12*
X69056250Y-240506250D03*
D13*
X74136250Y-240506250D03*
%TD*%
%TO.C,MX11*%
X102076250Y-240506250D03*
D12*
X107156250Y-240506250D03*
D13*
X112236250Y-240506250D03*
%TD*%
%LPD*%
M02*
