M48
; DRILL file {KiCad 7.0.9} date Thu Nov  9 15:49:42 2023
; FORMAT={-:-/ absolute / inch / decimal}
; #@! TF.CreationDate,2023-11-09T15:49:42+02:00
; #@! TF.GenerationSoftware,Kicad,Pcbnew,7.0.9
; #@! TF.FileFunction,Plated,1,2,PTH
FMAT,2
INCH
; #@! TA.AperFunction,Plated,PTH,ViaDrill
T1C0.0157
; #@! TA.AperFunction,Plated,PTH,ComponentDrill
T2C0.0579
; #@! TA.AperFunction,Plated,PTH,ComponentDrill
T3C0.0600
%
G90
G05
T1
X2.465Y-9.595
X2.465Y-10.345
X2.465Y-12.04
X2.475Y-11.1
X3.505Y-11.3265
X4.255Y-11.3088
X5.005Y-11.2911
X5.48Y-12.175
X5.66Y-12.485
X5.755Y-11.2734
X5.9219Y-12.355
X5.9846Y-12.2187
X6.005Y-12.645
X6.01Y-11.0364
X6.01Y-11.0935
X6.01Y-11.995
X6.0888Y-12.775
X6.165Y-11.95
X6.1669Y-12.465
X6.1825Y-12.775
X6.2472Y-12.3753
X6.2541Y-12.5941
X6.255Y-11.905
X6.325Y-11.95
X6.495Y-12.65
X6.6075Y-12.7575
X6.6825Y-12.65
X6.7551Y-11.9114
X6.83Y-12.01
X6.895Y-12.155
X6.9169Y-12.6031
X6.9225Y-12.5175
X6.9638Y-12.0738
X7.06Y-12.325
X8.285Y-12.36
X8.42Y-12.27
X8.53Y-12.27
X8.565Y-11.935
X8.565Y-11.975
X8.565Y-12.0144
X8.565Y-12.055
X8.565Y-12.095
X8.5686Y-11.894
X8.5739Y-11.815
X8.5739Y-11.855
X8.6814Y-11.815
X8.6814Y-11.895
X8.6814Y-11.935
X8.6814Y-11.975
X8.685Y-12.055
X8.685Y-12.095
X8.6852Y-12.0152
X8.7439Y-10.315
X8.8514Y-10.315
X8.935Y-11.155
X8.9439Y-11.065
X8.975Y-10.345
X9.0564Y-11.065
X9.18Y-9.89
X9.4148Y-9.8802
X9.5Y-11.86
X10.25Y-11.875
X11.0Y-11.895
X12.22Y-11.87
X12.68Y-10.2864
X12.68Y-10.3435
X13.445Y-11.885
X13.625Y-9.5312
X13.625Y-10.2812
X13.625Y-10.3438
X13.625Y-11.1562
X13.625Y-11.885
X13.625Y-12.5938
X14.195Y-11.905
T2
X2.5688Y-9.3688
X2.6625Y-12.3688
X2.7563Y-10.1188
X2.7563Y-12.3688
X2.8188Y-9.2687
X2.85Y-10.8688
X2.9125Y-12.2687
X3.0063Y-10.0187
X3.0063Y-12.2687
X3.0375Y-11.6188
X3.1Y-10.7687
X3.2875Y-11.5187
X3.3188Y-9.3688
X3.5063Y-12.3688
X3.5688Y-9.2687
X3.6938Y-10.1188
X3.6938Y-12.3688
X3.7563Y-12.2687
X3.8813Y-10.8688
X3.9438Y-10.0187
X3.9438Y-12.2687
X4.0687Y-9.3688
X4.1312Y-10.7687
X4.2562Y-11.6188
X4.3187Y-9.2687
X4.35Y-12.3688
X4.4437Y-10.1188
X4.5062Y-11.5187
X4.6Y-12.2687
X4.6312Y-10.8688
X4.6312Y-12.3688
X4.6937Y-10.0187
X4.8187Y-9.3688
X4.8812Y-10.7687
X4.8812Y-12.2687
X5.0062Y-11.6188
X5.0687Y-9.2687
X5.1937Y-10.1188
X5.2562Y-11.5187
X5.3812Y-10.8688
X5.4437Y-10.0187
X5.5687Y-9.3688
X5.6312Y-10.7687
X5.7562Y-11.6188
X5.8187Y-9.2687
X5.9437Y-10.1188
X6.0062Y-11.5187
X6.1312Y-10.8688
X6.1937Y-10.0187
X6.3187Y-9.3688
X6.3812Y-10.7687
X6.5062Y-11.6188
X6.5687Y-9.2687
X6.6937Y-10.1188
X6.7562Y-11.5187
X6.8812Y-10.8688
X6.9437Y-10.0187
X7.0687Y-9.3688
X7.1312Y-10.7687
X7.1625Y-12.3688
X7.2562Y-11.6188
X7.3187Y-9.2687
X7.4125Y-12.2687
X7.4437Y-10.1188
X7.5062Y-11.5187
X7.6312Y-10.8688
X7.6937Y-10.0187
X7.8187Y-9.3688
X7.8187Y-12.3688
X7.8812Y-10.7687
X8.0062Y-11.6188
X8.0687Y-9.2687
X8.0687Y-12.2687
X8.1937Y-10.1188
X8.2562Y-11.5187
X8.3812Y-10.8688
X8.4437Y-10.0187
X8.5687Y-9.3688
X8.6312Y-10.7687
X8.7562Y-11.6188
X8.8187Y-9.2687
X8.9437Y-10.1188
X9.0062Y-11.5187
X9.1312Y-10.8688
X9.1937Y-10.0187
X9.3187Y-9.3688
X9.3812Y-10.7687
X9.5062Y-11.6188
X9.5687Y-9.2687
X9.6937Y-10.1188
X9.7562Y-11.5187
X9.8812Y-10.8688
X9.9437Y-10.0187
X9.975Y-12.3688
X10.0687Y-9.3688
X10.1312Y-10.7687
X10.225Y-12.2687
X10.2562Y-11.6188
X10.3187Y-9.2687
X10.4437Y-10.1188
X10.5062Y-11.5187
X10.6312Y-10.8688
X10.6937Y-10.0187
X10.8187Y-9.3688
X10.8812Y-10.7687
X10.9125Y-12.3688
X11.0062Y-11.6188
X11.0687Y-9.2687
X11.1625Y-12.2687
X11.1937Y-10.1188
X11.2562Y-11.5187
X11.3812Y-10.8688
X11.4437Y-10.0187
X11.5687Y-9.3688
X11.6312Y-10.7687
X11.8187Y-9.2687
X11.85Y-12.3688
X11.9437Y-10.1188
X12.1Y-12.2687
X12.1312Y-10.8688
X12.1937Y-10.0187
X12.225Y-11.6188
X12.3812Y-10.7687
X12.475Y-11.5187
X12.6Y-10.8688
X12.6937Y-9.3688
X12.6937Y-12.3688
X12.85Y-10.7687
X12.8812Y-10.1188
X12.9437Y-9.2687
X12.9437Y-12.2687
X12.975Y-10.4938
X13.1312Y-10.0187
X13.225Y-10.3937
X13.4437Y-11.6188
X13.4437Y-12.3688
X13.6937Y-11.5187
X13.6937Y-12.2687
X14.1937Y-9.3688
X14.1937Y-10.1188
X14.1937Y-10.8688
X14.1937Y-11.6188
X14.1937Y-12.3688
X14.4437Y-9.2687
X14.4437Y-10.0187
X14.4437Y-10.7687
X14.4437Y-11.5187
X14.4437Y-12.2687
T3
X2.6625Y-10.8688
X2.9125Y-10.7687
T0
M30
