M48
; DRILL file {KiCad 7.0.9} date Thu Nov  9 15:49:42 2023
; FORMAT={-:-/ absolute / inch / decimal}
; #@! TF.CreationDate,2023-11-09T15:49:42+02:00
; #@! TF.GenerationSoftware,Kicad,Pcbnew,7.0.9
; #@! TF.FileFunction,NonPlated,1,2,NPTH
FMAT,2
INCH
; #@! TA.AperFunction,NonPlated,NPTH,ComponentDrill
T1C0.0689
; #@! TA.AperFunction,NonPlated,NPTH,ComponentDrill
T2C0.1200
; #@! TA.AperFunction,NonPlated,NPTH,ComponentDrill
T3C0.1570
; #@! TA.AperFunction,NonPlated,NPTH,ComponentDrill
T4C0.4016
%
G90
G05
T1
X2.5187Y-9.4688
X2.6125Y-10.9688
X2.6125Y-12.4688
X2.7062Y-10.2188
X2.7062Y-12.4688
X2.8Y-10.9688
X2.9187Y-9.4688
X2.9875Y-11.7188
X3.0125Y-10.9688
X3.0125Y-12.4688
X3.1062Y-10.2188
X3.1062Y-12.4688
X3.2Y-10.9688
X3.2687Y-9.4688
X3.3875Y-11.7188
X3.4562Y-12.4688
X3.6437Y-10.2188
X3.6437Y-12.4688
X3.6687Y-9.4688
X3.8312Y-10.9688
X3.8562Y-12.4688
X4.0187Y-9.4688
X4.0438Y-10.2188
X4.0438Y-12.4688
X4.2062Y-11.7188
X4.2313Y-10.9688
X4.3Y-12.4688
X4.3937Y-10.2188
X4.4188Y-9.4688
X4.5812Y-10.9688
X4.5812Y-12.4688
X4.6063Y-11.7188
X4.7Y-12.4688
X4.7687Y-9.4688
X4.7938Y-10.2188
X4.9562Y-11.7188
X4.9813Y-10.9688
X4.9813Y-12.4688
X5.1437Y-10.2188
X5.1688Y-9.4688
X5.3312Y-10.9688
X5.3563Y-11.7188
X5.5187Y-9.4688
X5.5438Y-10.2188
X5.7062Y-11.7188
X5.7313Y-10.9688
X5.8937Y-10.2188
X5.9188Y-9.4688
X6.0812Y-10.9688
X6.1063Y-11.7188
X6.2687Y-9.4688
X6.2938Y-10.2188
X6.4562Y-11.7188
X6.4813Y-10.9688
X6.6437Y-10.2188
X6.6688Y-9.4688
X6.8312Y-10.9688
X6.8563Y-11.7188
X7.0187Y-9.4688
X7.0438Y-10.2188
X7.1125Y-12.4688
X7.2062Y-11.7188
X7.2313Y-10.9688
X7.3937Y-10.2188
X7.4188Y-9.4688
X7.5125Y-12.4688
X7.5812Y-10.9688
X7.6063Y-11.7188
X7.7687Y-9.4688
X7.7687Y-12.4688
X7.7938Y-10.2188
X7.9562Y-11.7188
X7.9813Y-10.9688
X8.1437Y-10.2188
X8.1687Y-9.4688
X8.1687Y-12.4688
X8.3312Y-10.9688
X8.3562Y-11.7188
X8.5187Y-9.4688
X8.5437Y-10.2188
X8.7062Y-11.7188
X8.7312Y-10.9688
X8.8937Y-10.2188
X8.9187Y-9.4688
X9.0812Y-10.9688
X9.1062Y-11.7188
X9.2687Y-9.4688
X9.2937Y-10.2188
X9.4562Y-11.7188
X9.4812Y-10.9688
X9.6437Y-10.2188
X9.6687Y-9.4688
X9.8312Y-10.9688
X9.8562Y-11.7188
X9.925Y-12.4688
X10.0187Y-9.4688
X10.0437Y-10.2188
X10.2062Y-11.7188
X10.2312Y-10.9688
X10.325Y-12.4688
X10.3937Y-10.2188
X10.4187Y-9.4688
X10.5812Y-10.9688
X10.6062Y-11.7188
X10.7687Y-9.4688
X10.7937Y-10.2188
X10.8625Y-12.4688
X10.9562Y-11.7188
X10.9812Y-10.9688
X11.1437Y-10.2188
X11.1687Y-9.4688
X11.2625Y-12.4688
X11.3312Y-10.9688
X11.3562Y-11.7188
X11.5187Y-9.4688
X11.5437Y-10.2188
X11.7312Y-10.9688
X11.8Y-12.4688
X11.8937Y-10.2188
X11.9187Y-9.4688
X12.0812Y-10.9688
X12.175Y-11.7188
X12.2Y-12.4688
X12.2937Y-10.2188
X12.4812Y-10.9688
X12.55Y-10.9688
X12.575Y-11.7188
X12.6437Y-9.4688
X12.6437Y-12.4688
X12.8312Y-10.2188
X12.925Y-10.5938
X12.95Y-10.9688
X13.0437Y-9.4688
X13.0437Y-12.4688
X13.2312Y-10.2188
X13.325Y-10.5938
X13.3937Y-11.7188
X13.3937Y-12.4688
X13.7937Y-11.7188
X13.7937Y-12.4688
X14.1437Y-9.4688
X14.1437Y-10.2188
X14.1437Y-10.9688
X14.1437Y-11.7188
X14.1437Y-12.4688
X14.5437Y-9.4688
X14.5437Y-10.2188
X14.5437Y-10.9688
X14.5437Y-11.7188
X14.5437Y-12.4688
T2
X2.7188Y-11.4437
X3.6562Y-11.4437
X5.344Y-12.7438
X5.7188Y-12.7438
X9.281Y-12.7438
X10.2188Y-12.7438
X11.9062Y-11.4437
X12.2812Y-10.6937
X12.375Y-9.1937
X12.8438Y-11.4437
X13.2188Y-10.6937
X13.3125Y-9.1937
X13.4Y-10.1237
X13.4Y-11.0637
T3
X2.7188Y-9.4688
X2.7188Y-12.0437
X2.8125Y-10.9688
X2.8125Y-12.4688
X2.9062Y-10.2188
X2.9062Y-12.4688
X3.0Y-10.9688
X3.1875Y-11.7188
X3.4688Y-9.4688
X3.6562Y-12.0437
X3.6562Y-12.4688
X3.8438Y-10.2188
X3.8438Y-12.4688
X4.0312Y-10.9688
X4.2188Y-9.4688
X4.4062Y-11.7188
X4.5Y-12.4688
X4.5938Y-10.2188
X4.7812Y-10.9688
X4.7812Y-12.4688
X4.9688Y-9.4688
X5.1562Y-11.7188
X5.3438Y-10.2188
X5.344Y-12.1437
X5.5312Y-10.9688
X5.7188Y-9.4688
X5.7188Y-12.1437
X5.9062Y-11.7188
X6.0938Y-10.2188
X6.2812Y-10.9688
X6.4688Y-9.4688
X6.6562Y-10.9688
X6.6562Y-11.7188
X6.8438Y-10.2188
X7.0312Y-10.9688
X7.2188Y-9.4688
X7.3125Y-12.4688
X7.4062Y-11.7188
X7.5938Y-10.2188
X7.7812Y-10.9688
X7.9688Y-9.4688
X7.9688Y-12.4688
X8.1562Y-11.7188
X8.3438Y-10.2188
X8.5312Y-10.9688
X8.7188Y-9.4688
X8.9062Y-11.7188
X9.0938Y-10.2188
X9.281Y-12.1437
X9.2812Y-10.9688
X9.4688Y-9.4688
X9.6562Y-11.7188
X9.8438Y-10.2188
X10.0312Y-10.9688
X10.125Y-12.4688
X10.2188Y-9.4688
X10.2188Y-12.1437
X10.4062Y-10.9688
X10.4062Y-11.7188
X10.5938Y-10.2188
X10.7812Y-10.9688
X10.9688Y-9.4688
X11.0625Y-12.4688
X11.1562Y-11.7188
X11.3438Y-10.2188
X11.5312Y-10.9688
X11.7188Y-9.4688
X11.9062Y-12.0437
X12.0Y-12.4688
X12.0938Y-10.2188
X12.2812Y-10.9688
X12.2812Y-11.2937
X12.375Y-9.7937
X12.375Y-11.7188
X12.75Y-10.9688
X12.8Y-10.1237
X12.8Y-11.0637
X12.8438Y-9.4688
X12.8438Y-12.0437
X12.8438Y-12.4688
X13.0312Y-10.2188
X13.125Y-10.5938
X13.2188Y-11.2937
X13.3125Y-9.7937
X13.5938Y-11.7188
X13.5938Y-12.4688
X14.3438Y-9.4688
X14.3438Y-10.2188
X14.3438Y-10.9688
X14.3438Y-11.7188
X14.3438Y-12.4688
T4
X13.835Y-10.89
T0
M30
