%TF.GenerationSoftware,KiCad,Pcbnew,7.0.9*%
%TF.CreationDate,2023-11-09T15:49:42+02:00*%
%TF.ProjectId,keyboard,6b657962-6f61-4726-942e-6b696361645f,rev?*%
%TF.SameCoordinates,Original*%
%TF.FileFunction,Soldermask,Top*%
%TF.FilePolarity,Negative*%
%FSLAX46Y46*%
G04 Gerber Fmt 4.6, Leading zero omitted, Abs format (unit mm)*
G04 Created by KiCad (PCBNEW 7.0.9) date 2023-11-09 15:49:42*
%MOMM*%
%LPD*%
G01*
G04 APERTURE LIST*
%ADD10C,3.048000*%
%ADD11C,3.987800*%
%ADD12C,1.750000*%
%ADD13C,10.200000*%
G04 APERTURE END LIST*
D10*
%TO.C,MX61*%
X311943750Y-271621250D03*
D11*
X311943750Y-286861250D03*
D12*
X318770000Y-278606250D03*
D11*
X323850000Y-278606250D03*
D12*
X328930000Y-278606250D03*
D10*
X335756250Y-271621250D03*
D11*
X335756250Y-286861250D03*
%TD*%
D12*
%TO.C,MX54*%
X278288750Y-297656250D03*
D11*
X283368750Y-297656250D03*
D12*
X288448750Y-297656250D03*
%TD*%
%TO.C,MX69*%
X68738750Y-316706250D03*
D11*
X73818750Y-316706250D03*
D12*
X78898750Y-316706250D03*
%TD*%
%TO.C,MX8*%
X97313750Y-278606250D03*
D11*
X102393750Y-278606250D03*
D12*
X107473750Y-278606250D03*
%TD*%
%TO.C,MX29*%
X183038750Y-297656250D03*
D11*
X188118750Y-297656250D03*
D12*
X193198750Y-297656250D03*
%TD*%
%TO.C,MX3*%
X71120000Y-278606250D03*
D11*
X76200000Y-278606250D03*
D12*
X81280000Y-278606250D03*
%TD*%
%TO.C,MX5*%
X66357500Y-316706250D03*
D11*
X71437500Y-316706250D03*
D12*
X76517500Y-316706250D03*
%TD*%
%TO.C,MX31*%
X178276250Y-240506250D03*
D11*
X183356250Y-240506250D03*
D12*
X188436250Y-240506250D03*
%TD*%
%TO.C,MX71*%
X116363750Y-316706250D03*
D11*
X121443750Y-316706250D03*
D12*
X126523750Y-316706250D03*
%TD*%
%TO.C,MX15*%
X109220000Y-316706250D03*
D11*
X114300000Y-316706250D03*
D12*
X119380000Y-316706250D03*
%TD*%
%TO.C,MX60*%
X302101250Y-259556250D03*
D11*
X307181250Y-259556250D03*
D12*
X312261250Y-259556250D03*
%TD*%
%TO.C,MX13*%
X116363750Y-278606250D03*
D11*
X121443750Y-278606250D03*
D12*
X126523750Y-278606250D03*
%TD*%
%TO.C,MX28*%
X173513750Y-278606250D03*
D11*
X178593750Y-278606250D03*
D12*
X183673750Y-278606250D03*
%TD*%
D11*
%TO.C,*%
X169068750Y-278606250D03*
%TD*%
D12*
%TO.C,MX52*%
X264001250Y-259556250D03*
D11*
X269081250Y-259556250D03*
D12*
X274161250Y-259556250D03*
%TD*%
%TO.C,MX47*%
X244951250Y-259556250D03*
D11*
X250031250Y-259556250D03*
D12*
X255111250Y-259556250D03*
%TD*%
%TO.C,MX45*%
X340201250Y-316706250D03*
D11*
X345281250Y-316706250D03*
D12*
X350361250Y-316706250D03*
%TD*%
%TO.C,MX25*%
X252095000Y-316706250D03*
D11*
X257175000Y-316706250D03*
D12*
X262255000Y-316706250D03*
%TD*%
%TO.C,MX32*%
X187801250Y-259556250D03*
D11*
X192881250Y-259556250D03*
D12*
X197961250Y-259556250D03*
%TD*%
%TO.C,MX36*%
X197326250Y-240506250D03*
D11*
X202406250Y-240506250D03*
D12*
X207486250Y-240506250D03*
%TD*%
%TO.C,MX50*%
X359251250Y-316706250D03*
D11*
X364331250Y-316706250D03*
D12*
X369411250Y-316706250D03*
%TD*%
D13*
%TO.C,*%
X351409000Y-276606000D03*
%TD*%
D11*
%TO.C,*%
X264318750Y-278606250D03*
%TD*%
D12*
%TO.C,MX64*%
X325913750Y-259556250D03*
D11*
X330993750Y-259556250D03*
D12*
X336073750Y-259556250D03*
%TD*%
%TO.C,MX34*%
X202088750Y-297656250D03*
D11*
X207168750Y-297656250D03*
D12*
X212248750Y-297656250D03*
%TD*%
%TO.C,MX49*%
X259238750Y-297656250D03*
D11*
X264318750Y-297656250D03*
D12*
X269398750Y-297656250D03*
%TD*%
D10*
%TO.C,MX58*%
X302418750Y-290671250D03*
D11*
X302418750Y-305911250D03*
D12*
X309245000Y-297656250D03*
D11*
X314325000Y-297656250D03*
D12*
X319405000Y-297656250D03*
D10*
X326231250Y-290671250D03*
D11*
X326231250Y-305911250D03*
%TD*%
D12*
%TO.C,MX17*%
X130651250Y-259556250D03*
D11*
X135731250Y-259556250D03*
D12*
X140811250Y-259556250D03*
%TD*%
%TO.C,MX46*%
X235426250Y-240506250D03*
D11*
X240506250Y-240506250D03*
D12*
X245586250Y-240506250D03*
%TD*%
%TO.C,MX62*%
X340201250Y-297656250D03*
D11*
X345281250Y-297656250D03*
D12*
X350361250Y-297656250D03*
%TD*%
%TO.C,MX6*%
X83026250Y-240506250D03*
D11*
X88106250Y-240506250D03*
D12*
X93186250Y-240506250D03*
%TD*%
%TO.C,MX30*%
X275907500Y-316706250D03*
D11*
X280987500Y-316706250D03*
D12*
X286067500Y-316706250D03*
%TD*%
%TO.C,MX70*%
X92551250Y-316706250D03*
D11*
X97631250Y-316706250D03*
D12*
X102711250Y-316706250D03*
%TD*%
%TO.C,MX66*%
X359251250Y-297656250D03*
D11*
X364331250Y-297656250D03*
D12*
X369411250Y-297656250D03*
%TD*%
%TO.C,MX39*%
X221138750Y-297656250D03*
D11*
X226218750Y-297656250D03*
D12*
X231298750Y-297656250D03*
%TD*%
%TO.C,MX41*%
X216376250Y-240506250D03*
D11*
X221456250Y-240506250D03*
D12*
X226536250Y-240506250D03*
%TD*%
D11*
%TO.C,MX20*%
X135737600Y-308451250D03*
D10*
X135737600Y-323691250D03*
D12*
X180657500Y-316706250D03*
D11*
X185737500Y-316706250D03*
D12*
X190817500Y-316706250D03*
D11*
X235737400Y-308451250D03*
D10*
X235737400Y-323691250D03*
%TD*%
D12*
%TO.C,MX14*%
X125888750Y-297656250D03*
D11*
X130968750Y-297656250D03*
D12*
X136048750Y-297656250D03*
%TD*%
%TO.C,MX12*%
X111601250Y-259556250D03*
D11*
X116681250Y-259556250D03*
D12*
X121761250Y-259556250D03*
%TD*%
%TO.C,MX67*%
X359251250Y-240506250D03*
D11*
X364331250Y-240506250D03*
D12*
X369411250Y-240506250D03*
%TD*%
%TO.C,MX73*%
X66357500Y-278606250D03*
D11*
X71437500Y-278606250D03*
D12*
X76517500Y-278606250D03*
%TD*%
%TO.C,MX9*%
X106838750Y-297656250D03*
D11*
X111918750Y-297656250D03*
D12*
X116998750Y-297656250D03*
%TD*%
%TO.C,MX35*%
X299720000Y-316706250D03*
D11*
X304800000Y-316706250D03*
D12*
X309880000Y-316706250D03*
%TD*%
%TO.C,MX10*%
X87788750Y-316706250D03*
D11*
X92868750Y-316706250D03*
D12*
X97948750Y-316706250D03*
%TD*%
%TO.C,MX40*%
X321151250Y-316706250D03*
D11*
X326231250Y-316706250D03*
D12*
X331311250Y-316706250D03*
%TD*%
%TO.C,MX33*%
X192563750Y-278606250D03*
D11*
X197643750Y-278606250D03*
D12*
X202723750Y-278606250D03*
%TD*%
D10*
%TO.C,MX63*%
X314325000Y-233521250D03*
D11*
X314325000Y-248761250D03*
D12*
X321151250Y-240506250D03*
D11*
X326231250Y-240506250D03*
D12*
X331311250Y-240506250D03*
D10*
X338137500Y-233521250D03*
D11*
X338137500Y-248761250D03*
%TD*%
D12*
%TO.C,MX2*%
X68738750Y-259556250D03*
D11*
X73818750Y-259556250D03*
D12*
X78898750Y-259556250D03*
%TD*%
%TO.C,MX24*%
X163988750Y-297656250D03*
D11*
X169068750Y-297656250D03*
D12*
X174148750Y-297656250D03*
%TD*%
%TO.C,MX44*%
X240188750Y-297656250D03*
D11*
X245268750Y-297656250D03*
D12*
X250348750Y-297656250D03*
%TD*%
%TO.C,MX19*%
X144938750Y-297656250D03*
D11*
X150018750Y-297656250D03*
D12*
X155098750Y-297656250D03*
%TD*%
%TO.C,MX38*%
X211613750Y-278606250D03*
D11*
X216693750Y-278606250D03*
D12*
X221773750Y-278606250D03*
%TD*%
D11*
%TO.C,MX72*%
X145256250Y-308451250D03*
D10*
X145256250Y-323691250D03*
D12*
X197326250Y-316706250D03*
D11*
X202406250Y-316706250D03*
D12*
X207486250Y-316706250D03*
D11*
X259556250Y-308451250D03*
D10*
X259556250Y-323691250D03*
%TD*%
D12*
%TO.C,MX68*%
X359251250Y-259556250D03*
D11*
X364331250Y-259556250D03*
D12*
X369411250Y-259556250D03*
%TD*%
%TO.C,MX51*%
X254476250Y-240506250D03*
D11*
X259556250Y-240506250D03*
D12*
X264636250Y-240506250D03*
%TD*%
%TO.C,MX75*%
X306863750Y-278606250D03*
D11*
X311943750Y-278606250D03*
D12*
X317023750Y-278606250D03*
%TD*%
%TO.C,MX56*%
X283051250Y-259556250D03*
D11*
X288131250Y-259556250D03*
D12*
X293211250Y-259556250D03*
%TD*%
%TO.C,MX42*%
X225901250Y-259556250D03*
D11*
X230981250Y-259556250D03*
D12*
X236061250Y-259556250D03*
%TD*%
%TO.C,MX43*%
X230663750Y-278606250D03*
D11*
X235743750Y-278606250D03*
D12*
X240823750Y-278606250D03*
%TD*%
%TO.C,MX22*%
X149701250Y-259556250D03*
D11*
X154781250Y-259556250D03*
D12*
X159861250Y-259556250D03*
%TD*%
%TO.C,MX53*%
X268763750Y-278606250D03*
D11*
X273843750Y-278606250D03*
D12*
X278923750Y-278606250D03*
%TD*%
%TO.C,MX65*%
X359251250Y-278606250D03*
D11*
X364331250Y-278606250D03*
D12*
X369411250Y-278606250D03*
%TD*%
D10*
%TO.C,MX4*%
X69056250Y-290671250D03*
D11*
X69056250Y-305911250D03*
D12*
X75882500Y-297656250D03*
D11*
X80962500Y-297656250D03*
D12*
X86042500Y-297656250D03*
D10*
X92868750Y-290671250D03*
D11*
X92868750Y-305911250D03*
%TD*%
D12*
%TO.C,MX7*%
X92551250Y-259556250D03*
D11*
X97631250Y-259556250D03*
D12*
X102711250Y-259556250D03*
%TD*%
%TO.C,MX55*%
X273526250Y-240506250D03*
D11*
X278606250Y-240506250D03*
D12*
X283686250Y-240506250D03*
%TD*%
%TO.C,MX23*%
X154463750Y-278606250D03*
D11*
X159543750Y-278606250D03*
D12*
X164623750Y-278606250D03*
%TD*%
%TO.C,MX16*%
X121126250Y-240506250D03*
D11*
X126206250Y-240506250D03*
D12*
X131286250Y-240506250D03*
%TD*%
D11*
%TO.C,MX74*%
X325120000Y-257143250D03*
X325120000Y-281019250D03*
D12*
X328295000Y-269081250D03*
D11*
X333375000Y-269081250D03*
D12*
X338455000Y-269081250D03*
D10*
X340360000Y-257143250D03*
X340360000Y-281019250D03*
%TD*%
D12*
%TO.C,MX18*%
X135413750Y-278606250D03*
D11*
X140493750Y-278606250D03*
D12*
X145573750Y-278606250D03*
%TD*%
%TO.C,MX37*%
X206851250Y-259556250D03*
D11*
X211931250Y-259556250D03*
D12*
X217011250Y-259556250D03*
%TD*%
%TO.C,MX48*%
X249713750Y-278606250D03*
D11*
X254793750Y-278606250D03*
D12*
X259873750Y-278606250D03*
%TD*%
%TO.C,MX59*%
X292576250Y-240506250D03*
D11*
X297656250Y-240506250D03*
D12*
X302736250Y-240506250D03*
%TD*%
%TO.C,MX26*%
X159226250Y-240506250D03*
D11*
X164306250Y-240506250D03*
D12*
X169386250Y-240506250D03*
%TD*%
%TO.C,MX21*%
X140176250Y-240506250D03*
D11*
X145256250Y-240506250D03*
D12*
X150336250Y-240506250D03*
%TD*%
%TO.C,MX57*%
X287813750Y-278606250D03*
D11*
X292893750Y-278606250D03*
D12*
X297973750Y-278606250D03*
%TD*%
%TO.C,MX27*%
X168751250Y-259556250D03*
D11*
X173831250Y-259556250D03*
D12*
X178911250Y-259556250D03*
%TD*%
%TO.C,MX1*%
X63976250Y-240506250D03*
D11*
X69056250Y-240506250D03*
D12*
X74136250Y-240506250D03*
%TD*%
%TO.C,MX11*%
X102076250Y-240506250D03*
D11*
X107156250Y-240506250D03*
D12*
X112236250Y-240506250D03*
%TD*%
M02*
