%TF.GenerationSoftware,KiCad,Pcbnew,7.0.9*%
%TF.CreationDate,2023-11-09T15:49:42+02:00*%
%TF.ProjectId,keyboard,6b657962-6f61-4726-942e-6b696361645f,rev?*%
%TF.SameCoordinates,Original*%
%TF.FileFunction,Legend,Bot*%
%TF.FilePolarity,Positive*%
%FSLAX46Y46*%
G04 Gerber Fmt 4.6, Leading zero omitted, Abs format (unit mm)*
G04 Created by KiCad (PCBNEW 7.0.9) date 2023-11-09 15:49:42*
%MOMM*%
%LPD*%
G01*
G04 APERTURE LIST*
G04 Aperture macros list*
%AMRoundRect*
0 Rectangle with rounded corners*
0 $1 Rounding radius*
0 $2 $3 $4 $5 $6 $7 $8 $9 X,Y pos of 4 corners*
0 Add a 4 corners polygon primitive as box body*
4,1,4,$2,$3,$4,$5,$6,$7,$8,$9,$2,$3,0*
0 Add four circle primitives for the rounded corners*
1,1,$1+$1,$2,$3*
1,1,$1+$1,$4,$5*
1,1,$1+$1,$6,$7*
1,1,$1+$1,$8,$9*
0 Add four rect primitives between the rounded corners*
20,1,$1+$1,$2,$3,$4,$5,0*
20,1,$1+$1,$4,$5,$6,$7,0*
20,1,$1+$1,$6,$7,$8,$9,0*
20,1,$1+$1,$8,$9,$2,$3,0*%
G04 Aperture macros list end*
%ADD10C,0.150000*%
%ADD11C,0.120000*%
%ADD12C,3.048000*%
%ADD13C,3.987800*%
%ADD14C,1.750000*%
%ADD15C,2.250000*%
%ADD16C,10.200000*%
%ADD17C,2.300000*%
%ADD18R,1.200000X0.900000*%
%ADD19RoundRect,0.250000X-0.450000X0.262500X-0.450000X-0.262500X0.450000X-0.262500X0.450000X0.262500X0*%
%ADD20R,1.200000X1.400000*%
%ADD21RoundRect,0.250000X-0.475000X0.250000X-0.475000X-0.250000X0.475000X-0.250000X0.475000X0.250000X0*%
%ADD22RoundRect,0.250000X-0.262500X-0.450000X0.262500X-0.450000X0.262500X0.450000X-0.262500X0.450000X0*%
%ADD23RoundRect,0.150000X0.150000X-0.475000X0.150000X0.475000X-0.150000X0.475000X-0.150000X-0.475000X0*%
%ADD24RoundRect,0.250000X0.375000X0.625000X-0.375000X0.625000X-0.375000X-0.625000X0.375000X-0.625000X0*%
%ADD25RoundRect,0.250000X0.475000X-0.250000X0.475000X0.250000X-0.475000X0.250000X-0.475000X-0.250000X0*%
%ADD26R,0.550000X1.500000*%
%ADD27R,1.500000X0.550000*%
%ADD28R,1.100000X1.800000*%
%ADD29RoundRect,0.250000X0.250000X0.475000X-0.250000X0.475000X-0.250000X-0.475000X0.250000X-0.475000X0*%
%ADD30RoundRect,0.150000X-0.625000X0.150000X-0.625000X-0.150000X0.625000X-0.150000X0.625000X0.150000X0*%
%ADD31RoundRect,0.250000X-0.650000X0.350000X-0.650000X-0.350000X0.650000X-0.350000X0.650000X0.350000X0*%
%ADD32RoundRect,0.250000X0.262500X0.450000X-0.262500X0.450000X-0.262500X-0.450000X0.262500X-0.450000X0*%
%ADD33RoundRect,0.250000X-0.250000X-0.475000X0.250000X-0.475000X0.250000X0.475000X-0.250000X0.475000X0*%
%ADD34R,0.900000X1.200000*%
G04 APERTURE END LIST*
D10*
X142154819Y-297235714D02*
X141154819Y-297235714D01*
X141154819Y-297235714D02*
X141154819Y-297473809D01*
X141154819Y-297473809D02*
X141202438Y-297616666D01*
X141202438Y-297616666D02*
X141297676Y-297711904D01*
X141297676Y-297711904D02*
X141392914Y-297759523D01*
X141392914Y-297759523D02*
X141583390Y-297807142D01*
X141583390Y-297807142D02*
X141726247Y-297807142D01*
X141726247Y-297807142D02*
X141916723Y-297759523D01*
X141916723Y-297759523D02*
X142011961Y-297711904D01*
X142011961Y-297711904D02*
X142107200Y-297616666D01*
X142107200Y-297616666D02*
X142154819Y-297473809D01*
X142154819Y-297473809D02*
X142154819Y-297235714D01*
X142154819Y-298759523D02*
X142154819Y-298188095D01*
X142154819Y-298473809D02*
X141154819Y-298473809D01*
X141154819Y-298473809D02*
X141297676Y-298378571D01*
X141297676Y-298378571D02*
X141392914Y-298283333D01*
X141392914Y-298283333D02*
X141440533Y-298188095D01*
X141488152Y-299616666D02*
X142154819Y-299616666D01*
X141107200Y-299378571D02*
X141821485Y-299140476D01*
X141821485Y-299140476D02*
X141821485Y-299759523D01*
X165967319Y-259135714D02*
X164967319Y-259135714D01*
X164967319Y-259135714D02*
X164967319Y-259373809D01*
X164967319Y-259373809D02*
X165014938Y-259516666D01*
X165014938Y-259516666D02*
X165110176Y-259611904D01*
X165110176Y-259611904D02*
X165205414Y-259659523D01*
X165205414Y-259659523D02*
X165395890Y-259707142D01*
X165395890Y-259707142D02*
X165538747Y-259707142D01*
X165538747Y-259707142D02*
X165729223Y-259659523D01*
X165729223Y-259659523D02*
X165824461Y-259611904D01*
X165824461Y-259611904D02*
X165919700Y-259516666D01*
X165919700Y-259516666D02*
X165967319Y-259373809D01*
X165967319Y-259373809D02*
X165967319Y-259135714D01*
X165062557Y-260088095D02*
X165014938Y-260135714D01*
X165014938Y-260135714D02*
X164967319Y-260230952D01*
X164967319Y-260230952D02*
X164967319Y-260469047D01*
X164967319Y-260469047D02*
X165014938Y-260564285D01*
X165014938Y-260564285D02*
X165062557Y-260611904D01*
X165062557Y-260611904D02*
X165157795Y-260659523D01*
X165157795Y-260659523D02*
X165253033Y-260659523D01*
X165253033Y-260659523D02*
X165395890Y-260611904D01*
X165395890Y-260611904D02*
X165967319Y-260040476D01*
X165967319Y-260040476D02*
X165967319Y-260659523D01*
X165062557Y-261040476D02*
X165014938Y-261088095D01*
X165014938Y-261088095D02*
X164967319Y-261183333D01*
X164967319Y-261183333D02*
X164967319Y-261421428D01*
X164967319Y-261421428D02*
X165014938Y-261516666D01*
X165014938Y-261516666D02*
X165062557Y-261564285D01*
X165062557Y-261564285D02*
X165157795Y-261611904D01*
X165157795Y-261611904D02*
X165253033Y-261611904D01*
X165253033Y-261611904D02*
X165395890Y-261564285D01*
X165395890Y-261564285D02*
X165967319Y-260992857D01*
X165967319Y-260992857D02*
X165967319Y-261611904D01*
X261217319Y-259135714D02*
X260217319Y-259135714D01*
X260217319Y-259135714D02*
X260217319Y-259373809D01*
X260217319Y-259373809D02*
X260264938Y-259516666D01*
X260264938Y-259516666D02*
X260360176Y-259611904D01*
X260360176Y-259611904D02*
X260455414Y-259659523D01*
X260455414Y-259659523D02*
X260645890Y-259707142D01*
X260645890Y-259707142D02*
X260788747Y-259707142D01*
X260788747Y-259707142D02*
X260979223Y-259659523D01*
X260979223Y-259659523D02*
X261074461Y-259611904D01*
X261074461Y-259611904D02*
X261169700Y-259516666D01*
X261169700Y-259516666D02*
X261217319Y-259373809D01*
X261217319Y-259373809D02*
X261217319Y-259135714D01*
X260550652Y-260564285D02*
X261217319Y-260564285D01*
X260169700Y-260326190D02*
X260883985Y-260088095D01*
X260883985Y-260088095D02*
X260883985Y-260707142D01*
X260217319Y-260992857D02*
X260217319Y-261659523D01*
X260217319Y-261659523D02*
X261217319Y-261230952D01*
X280267319Y-259135714D02*
X279267319Y-259135714D01*
X279267319Y-259135714D02*
X279267319Y-259373809D01*
X279267319Y-259373809D02*
X279314938Y-259516666D01*
X279314938Y-259516666D02*
X279410176Y-259611904D01*
X279410176Y-259611904D02*
X279505414Y-259659523D01*
X279505414Y-259659523D02*
X279695890Y-259707142D01*
X279695890Y-259707142D02*
X279838747Y-259707142D01*
X279838747Y-259707142D02*
X280029223Y-259659523D01*
X280029223Y-259659523D02*
X280124461Y-259611904D01*
X280124461Y-259611904D02*
X280219700Y-259516666D01*
X280219700Y-259516666D02*
X280267319Y-259373809D01*
X280267319Y-259373809D02*
X280267319Y-259135714D01*
X279267319Y-260611904D02*
X279267319Y-260135714D01*
X279267319Y-260135714D02*
X279743509Y-260088095D01*
X279743509Y-260088095D02*
X279695890Y-260135714D01*
X279695890Y-260135714D02*
X279648271Y-260230952D01*
X279648271Y-260230952D02*
X279648271Y-260469047D01*
X279648271Y-260469047D02*
X279695890Y-260564285D01*
X279695890Y-260564285D02*
X279743509Y-260611904D01*
X279743509Y-260611904D02*
X279838747Y-260659523D01*
X279838747Y-260659523D02*
X280076842Y-260659523D01*
X280076842Y-260659523D02*
X280172080Y-260611904D01*
X280172080Y-260611904D02*
X280219700Y-260564285D01*
X280219700Y-260564285D02*
X280267319Y-260469047D01*
X280267319Y-260469047D02*
X280267319Y-260230952D01*
X280267319Y-260230952D02*
X280219700Y-260135714D01*
X280219700Y-260135714D02*
X280172080Y-260088095D01*
X279362557Y-261040476D02*
X279314938Y-261088095D01*
X279314938Y-261088095D02*
X279267319Y-261183333D01*
X279267319Y-261183333D02*
X279267319Y-261421428D01*
X279267319Y-261421428D02*
X279314938Y-261516666D01*
X279314938Y-261516666D02*
X279362557Y-261564285D01*
X279362557Y-261564285D02*
X279457795Y-261611904D01*
X279457795Y-261611904D02*
X279553033Y-261611904D01*
X279553033Y-261611904D02*
X279695890Y-261564285D01*
X279695890Y-261564285D02*
X280267319Y-260992857D01*
X280267319Y-260992857D02*
X280267319Y-261611904D01*
X199304819Y-297235714D02*
X198304819Y-297235714D01*
X198304819Y-297235714D02*
X198304819Y-297473809D01*
X198304819Y-297473809D02*
X198352438Y-297616666D01*
X198352438Y-297616666D02*
X198447676Y-297711904D01*
X198447676Y-297711904D02*
X198542914Y-297759523D01*
X198542914Y-297759523D02*
X198733390Y-297807142D01*
X198733390Y-297807142D02*
X198876247Y-297807142D01*
X198876247Y-297807142D02*
X199066723Y-297759523D01*
X199066723Y-297759523D02*
X199161961Y-297711904D01*
X199161961Y-297711904D02*
X199257200Y-297616666D01*
X199257200Y-297616666D02*
X199304819Y-297473809D01*
X199304819Y-297473809D02*
X199304819Y-297235714D01*
X198400057Y-298188095D02*
X198352438Y-298235714D01*
X198352438Y-298235714D02*
X198304819Y-298330952D01*
X198304819Y-298330952D02*
X198304819Y-298569047D01*
X198304819Y-298569047D02*
X198352438Y-298664285D01*
X198352438Y-298664285D02*
X198400057Y-298711904D01*
X198400057Y-298711904D02*
X198495295Y-298759523D01*
X198495295Y-298759523D02*
X198590533Y-298759523D01*
X198590533Y-298759523D02*
X198733390Y-298711904D01*
X198733390Y-298711904D02*
X199304819Y-298140476D01*
X199304819Y-298140476D02*
X199304819Y-298759523D01*
X199304819Y-299235714D02*
X199304819Y-299426190D01*
X199304819Y-299426190D02*
X199257200Y-299521428D01*
X199257200Y-299521428D02*
X199209580Y-299569047D01*
X199209580Y-299569047D02*
X199066723Y-299664285D01*
X199066723Y-299664285D02*
X198876247Y-299711904D01*
X198876247Y-299711904D02*
X198495295Y-299711904D01*
X198495295Y-299711904D02*
X198400057Y-299664285D01*
X198400057Y-299664285D02*
X198352438Y-299616666D01*
X198352438Y-299616666D02*
X198304819Y-299521428D01*
X198304819Y-299521428D02*
X198304819Y-299330952D01*
X198304819Y-299330952D02*
X198352438Y-299235714D01*
X198352438Y-299235714D02*
X198400057Y-299188095D01*
X198400057Y-299188095D02*
X198495295Y-299140476D01*
X198495295Y-299140476D02*
X198733390Y-299140476D01*
X198733390Y-299140476D02*
X198828628Y-299188095D01*
X198828628Y-299188095D02*
X198876247Y-299235714D01*
X198876247Y-299235714D02*
X198923866Y-299330952D01*
X198923866Y-299330952D02*
X198923866Y-299521428D01*
X198923866Y-299521428D02*
X198876247Y-299616666D01*
X198876247Y-299616666D02*
X198828628Y-299664285D01*
X198828628Y-299664285D02*
X198733390Y-299711904D01*
X153318628Y-313637809D02*
X153794819Y-313637809D01*
X152794819Y-313304476D02*
X153318628Y-313637809D01*
X153318628Y-313637809D02*
X152794819Y-313971142D01*
X153794819Y-314828285D02*
X153794819Y-314256857D01*
X153794819Y-314542571D02*
X152794819Y-314542571D01*
X152794819Y-314542571D02*
X152937676Y-314447333D01*
X152937676Y-314447333D02*
X153032914Y-314352095D01*
X153032914Y-314352095D02*
X153080533Y-314256857D01*
X172542580Y-307554333D02*
X172590200Y-307506714D01*
X172590200Y-307506714D02*
X172637819Y-307363857D01*
X172637819Y-307363857D02*
X172637819Y-307268619D01*
X172637819Y-307268619D02*
X172590200Y-307125762D01*
X172590200Y-307125762D02*
X172494961Y-307030524D01*
X172494961Y-307030524D02*
X172399723Y-306982905D01*
X172399723Y-306982905D02*
X172209247Y-306935286D01*
X172209247Y-306935286D02*
X172066390Y-306935286D01*
X172066390Y-306935286D02*
X171875914Y-306982905D01*
X171875914Y-306982905D02*
X171780676Y-307030524D01*
X171780676Y-307030524D02*
X171685438Y-307125762D01*
X171685438Y-307125762D02*
X171637819Y-307268619D01*
X171637819Y-307268619D02*
X171637819Y-307363857D01*
X171637819Y-307363857D02*
X171685438Y-307506714D01*
X171685438Y-307506714D02*
X171733057Y-307554333D01*
X171733057Y-307935286D02*
X171685438Y-307982905D01*
X171685438Y-307982905D02*
X171637819Y-308078143D01*
X171637819Y-308078143D02*
X171637819Y-308316238D01*
X171637819Y-308316238D02*
X171685438Y-308411476D01*
X171685438Y-308411476D02*
X171733057Y-308459095D01*
X171733057Y-308459095D02*
X171828295Y-308506714D01*
X171828295Y-308506714D02*
X171923533Y-308506714D01*
X171923533Y-308506714D02*
X172066390Y-308459095D01*
X172066390Y-308459095D02*
X172637819Y-307887667D01*
X172637819Y-307887667D02*
X172637819Y-308506714D01*
X242167319Y-259135714D02*
X241167319Y-259135714D01*
X241167319Y-259135714D02*
X241167319Y-259373809D01*
X241167319Y-259373809D02*
X241214938Y-259516666D01*
X241214938Y-259516666D02*
X241310176Y-259611904D01*
X241310176Y-259611904D02*
X241405414Y-259659523D01*
X241405414Y-259659523D02*
X241595890Y-259707142D01*
X241595890Y-259707142D02*
X241738747Y-259707142D01*
X241738747Y-259707142D02*
X241929223Y-259659523D01*
X241929223Y-259659523D02*
X242024461Y-259611904D01*
X242024461Y-259611904D02*
X242119700Y-259516666D01*
X242119700Y-259516666D02*
X242167319Y-259373809D01*
X242167319Y-259373809D02*
X242167319Y-259135714D01*
X241500652Y-260564285D02*
X242167319Y-260564285D01*
X241119700Y-260326190D02*
X241833985Y-260088095D01*
X241833985Y-260088095D02*
X241833985Y-260707142D01*
X241262557Y-261040476D02*
X241214938Y-261088095D01*
X241214938Y-261088095D02*
X241167319Y-261183333D01*
X241167319Y-261183333D02*
X241167319Y-261421428D01*
X241167319Y-261421428D02*
X241214938Y-261516666D01*
X241214938Y-261516666D02*
X241262557Y-261564285D01*
X241262557Y-261564285D02*
X241357795Y-261611904D01*
X241357795Y-261611904D02*
X241453033Y-261611904D01*
X241453033Y-261611904D02*
X241595890Y-261564285D01*
X241595890Y-261564285D02*
X242167319Y-260992857D01*
X242167319Y-260992857D02*
X242167319Y-261611904D01*
X374691819Y-240085714D02*
X373691819Y-240085714D01*
X373691819Y-240085714D02*
X373691819Y-240323809D01*
X373691819Y-240323809D02*
X373739438Y-240466666D01*
X373739438Y-240466666D02*
X373834676Y-240561904D01*
X373834676Y-240561904D02*
X373929914Y-240609523D01*
X373929914Y-240609523D02*
X374120390Y-240657142D01*
X374120390Y-240657142D02*
X374263247Y-240657142D01*
X374263247Y-240657142D02*
X374453723Y-240609523D01*
X374453723Y-240609523D02*
X374548961Y-240561904D01*
X374548961Y-240561904D02*
X374644200Y-240466666D01*
X374644200Y-240466666D02*
X374691819Y-240323809D01*
X374691819Y-240323809D02*
X374691819Y-240085714D01*
X373691819Y-241514285D02*
X373691819Y-241323809D01*
X373691819Y-241323809D02*
X373739438Y-241228571D01*
X373739438Y-241228571D02*
X373787057Y-241180952D01*
X373787057Y-241180952D02*
X373929914Y-241085714D01*
X373929914Y-241085714D02*
X374120390Y-241038095D01*
X374120390Y-241038095D02*
X374501342Y-241038095D01*
X374501342Y-241038095D02*
X374596580Y-241085714D01*
X374596580Y-241085714D02*
X374644200Y-241133333D01*
X374644200Y-241133333D02*
X374691819Y-241228571D01*
X374691819Y-241228571D02*
X374691819Y-241419047D01*
X374691819Y-241419047D02*
X374644200Y-241514285D01*
X374644200Y-241514285D02*
X374596580Y-241561904D01*
X374596580Y-241561904D02*
X374501342Y-241609523D01*
X374501342Y-241609523D02*
X374263247Y-241609523D01*
X374263247Y-241609523D02*
X374168009Y-241561904D01*
X374168009Y-241561904D02*
X374120390Y-241514285D01*
X374120390Y-241514285D02*
X374072771Y-241419047D01*
X374072771Y-241419047D02*
X374072771Y-241228571D01*
X374072771Y-241228571D02*
X374120390Y-241133333D01*
X374120390Y-241133333D02*
X374168009Y-241085714D01*
X374168009Y-241085714D02*
X374263247Y-241038095D01*
X373691819Y-241942857D02*
X373691819Y-242609523D01*
X373691819Y-242609523D02*
X374691819Y-242180952D01*
X346148569Y-259135714D02*
X345148569Y-259135714D01*
X345148569Y-259135714D02*
X345148569Y-259373809D01*
X345148569Y-259373809D02*
X345196188Y-259516666D01*
X345196188Y-259516666D02*
X345291426Y-259611904D01*
X345291426Y-259611904D02*
X345386664Y-259659523D01*
X345386664Y-259659523D02*
X345577140Y-259707142D01*
X345577140Y-259707142D02*
X345719997Y-259707142D01*
X345719997Y-259707142D02*
X345910473Y-259659523D01*
X345910473Y-259659523D02*
X346005711Y-259611904D01*
X346005711Y-259611904D02*
X346100950Y-259516666D01*
X346100950Y-259516666D02*
X346148569Y-259373809D01*
X346148569Y-259373809D02*
X346148569Y-259135714D01*
X345148569Y-260564285D02*
X345148569Y-260373809D01*
X345148569Y-260373809D02*
X345196188Y-260278571D01*
X345196188Y-260278571D02*
X345243807Y-260230952D01*
X345243807Y-260230952D02*
X345386664Y-260135714D01*
X345386664Y-260135714D02*
X345577140Y-260088095D01*
X345577140Y-260088095D02*
X345958092Y-260088095D01*
X345958092Y-260088095D02*
X346053330Y-260135714D01*
X346053330Y-260135714D02*
X346100950Y-260183333D01*
X346100950Y-260183333D02*
X346148569Y-260278571D01*
X346148569Y-260278571D02*
X346148569Y-260469047D01*
X346148569Y-260469047D02*
X346100950Y-260564285D01*
X346100950Y-260564285D02*
X346053330Y-260611904D01*
X346053330Y-260611904D02*
X345958092Y-260659523D01*
X345958092Y-260659523D02*
X345719997Y-260659523D01*
X345719997Y-260659523D02*
X345624759Y-260611904D01*
X345624759Y-260611904D02*
X345577140Y-260564285D01*
X345577140Y-260564285D02*
X345529521Y-260469047D01*
X345529521Y-260469047D02*
X345529521Y-260278571D01*
X345529521Y-260278571D02*
X345577140Y-260183333D01*
X345577140Y-260183333D02*
X345624759Y-260135714D01*
X345624759Y-260135714D02*
X345719997Y-260088095D01*
X345481902Y-261516666D02*
X346148569Y-261516666D01*
X345100950Y-261278571D02*
X345815235Y-261040476D01*
X345815235Y-261040476D02*
X345815235Y-261659523D01*
X99292319Y-240561905D02*
X98292319Y-240561905D01*
X98292319Y-240561905D02*
X98292319Y-240800000D01*
X98292319Y-240800000D02*
X98339938Y-240942857D01*
X98339938Y-240942857D02*
X98435176Y-241038095D01*
X98435176Y-241038095D02*
X98530414Y-241085714D01*
X98530414Y-241085714D02*
X98720890Y-241133333D01*
X98720890Y-241133333D02*
X98863747Y-241133333D01*
X98863747Y-241133333D02*
X99054223Y-241085714D01*
X99054223Y-241085714D02*
X99149461Y-241038095D01*
X99149461Y-241038095D02*
X99244700Y-240942857D01*
X99244700Y-240942857D02*
X99292319Y-240800000D01*
X99292319Y-240800000D02*
X99292319Y-240561905D01*
X98292319Y-241990476D02*
X98292319Y-241800000D01*
X98292319Y-241800000D02*
X98339938Y-241704762D01*
X98339938Y-241704762D02*
X98387557Y-241657143D01*
X98387557Y-241657143D02*
X98530414Y-241561905D01*
X98530414Y-241561905D02*
X98720890Y-241514286D01*
X98720890Y-241514286D02*
X99101842Y-241514286D01*
X99101842Y-241514286D02*
X99197080Y-241561905D01*
X99197080Y-241561905D02*
X99244700Y-241609524D01*
X99244700Y-241609524D02*
X99292319Y-241704762D01*
X99292319Y-241704762D02*
X99292319Y-241895238D01*
X99292319Y-241895238D02*
X99244700Y-241990476D01*
X99244700Y-241990476D02*
X99197080Y-242038095D01*
X99197080Y-242038095D02*
X99101842Y-242085714D01*
X99101842Y-242085714D02*
X98863747Y-242085714D01*
X98863747Y-242085714D02*
X98768509Y-242038095D01*
X98768509Y-242038095D02*
X98720890Y-241990476D01*
X98720890Y-241990476D02*
X98673271Y-241895238D01*
X98673271Y-241895238D02*
X98673271Y-241704762D01*
X98673271Y-241704762D02*
X98720890Y-241609524D01*
X98720890Y-241609524D02*
X98768509Y-241561905D01*
X98768509Y-241561905D02*
X98863747Y-241514286D01*
X87386069Y-278661905D02*
X86386069Y-278661905D01*
X86386069Y-278661905D02*
X86386069Y-278900000D01*
X86386069Y-278900000D02*
X86433688Y-279042857D01*
X86433688Y-279042857D02*
X86528926Y-279138095D01*
X86528926Y-279138095D02*
X86624164Y-279185714D01*
X86624164Y-279185714D02*
X86814640Y-279233333D01*
X86814640Y-279233333D02*
X86957497Y-279233333D01*
X86957497Y-279233333D02*
X87147973Y-279185714D01*
X87147973Y-279185714D02*
X87243211Y-279138095D01*
X87243211Y-279138095D02*
X87338450Y-279042857D01*
X87338450Y-279042857D02*
X87386069Y-278900000D01*
X87386069Y-278900000D02*
X87386069Y-278661905D01*
X86386069Y-279566667D02*
X86386069Y-280185714D01*
X86386069Y-280185714D02*
X86767021Y-279852381D01*
X86767021Y-279852381D02*
X86767021Y-279995238D01*
X86767021Y-279995238D02*
X86814640Y-280090476D01*
X86814640Y-280090476D02*
X86862259Y-280138095D01*
X86862259Y-280138095D02*
X86957497Y-280185714D01*
X86957497Y-280185714D02*
X87195592Y-280185714D01*
X87195592Y-280185714D02*
X87290830Y-280138095D01*
X87290830Y-280138095D02*
X87338450Y-280090476D01*
X87338450Y-280090476D02*
X87386069Y-279995238D01*
X87386069Y-279995238D02*
X87386069Y-279709524D01*
X87386069Y-279709524D02*
X87338450Y-279614286D01*
X87338450Y-279614286D02*
X87290830Y-279566667D01*
X337417319Y-316285714D02*
X336417319Y-316285714D01*
X336417319Y-316285714D02*
X336417319Y-316523809D01*
X336417319Y-316523809D02*
X336464938Y-316666666D01*
X336464938Y-316666666D02*
X336560176Y-316761904D01*
X336560176Y-316761904D02*
X336655414Y-316809523D01*
X336655414Y-316809523D02*
X336845890Y-316857142D01*
X336845890Y-316857142D02*
X336988747Y-316857142D01*
X336988747Y-316857142D02*
X337179223Y-316809523D01*
X337179223Y-316809523D02*
X337274461Y-316761904D01*
X337274461Y-316761904D02*
X337369700Y-316666666D01*
X337369700Y-316666666D02*
X337417319Y-316523809D01*
X337417319Y-316523809D02*
X337417319Y-316285714D01*
X336750652Y-317714285D02*
X337417319Y-317714285D01*
X336369700Y-317476190D02*
X337083985Y-317238095D01*
X337083985Y-317238095D02*
X337083985Y-317857142D01*
X336417319Y-318428571D02*
X336417319Y-318523809D01*
X336417319Y-318523809D02*
X336464938Y-318619047D01*
X336464938Y-318619047D02*
X336512557Y-318666666D01*
X336512557Y-318666666D02*
X336607795Y-318714285D01*
X336607795Y-318714285D02*
X336798271Y-318761904D01*
X336798271Y-318761904D02*
X337036366Y-318761904D01*
X337036366Y-318761904D02*
X337226842Y-318714285D01*
X337226842Y-318714285D02*
X337322080Y-318666666D01*
X337322080Y-318666666D02*
X337369700Y-318619047D01*
X337369700Y-318619047D02*
X337417319Y-318523809D01*
X337417319Y-318523809D02*
X337417319Y-318428571D01*
X337417319Y-318428571D02*
X337369700Y-318333333D01*
X337369700Y-318333333D02*
X337322080Y-318285714D01*
X337322080Y-318285714D02*
X337226842Y-318238095D01*
X337226842Y-318238095D02*
X337036366Y-318190476D01*
X337036366Y-318190476D02*
X336798271Y-318190476D01*
X336798271Y-318190476D02*
X336607795Y-318238095D01*
X336607795Y-318238095D02*
X336512557Y-318285714D01*
X336512557Y-318285714D02*
X336464938Y-318333333D01*
X336464938Y-318333333D02*
X336417319Y-318428571D01*
X146917319Y-259135714D02*
X145917319Y-259135714D01*
X145917319Y-259135714D02*
X145917319Y-259373809D01*
X145917319Y-259373809D02*
X145964938Y-259516666D01*
X145964938Y-259516666D02*
X146060176Y-259611904D01*
X146060176Y-259611904D02*
X146155414Y-259659523D01*
X146155414Y-259659523D02*
X146345890Y-259707142D01*
X146345890Y-259707142D02*
X146488747Y-259707142D01*
X146488747Y-259707142D02*
X146679223Y-259659523D01*
X146679223Y-259659523D02*
X146774461Y-259611904D01*
X146774461Y-259611904D02*
X146869700Y-259516666D01*
X146869700Y-259516666D02*
X146917319Y-259373809D01*
X146917319Y-259373809D02*
X146917319Y-259135714D01*
X146917319Y-260659523D02*
X146917319Y-260088095D01*
X146917319Y-260373809D02*
X145917319Y-260373809D01*
X145917319Y-260373809D02*
X146060176Y-260278571D01*
X146060176Y-260278571D02*
X146155414Y-260183333D01*
X146155414Y-260183333D02*
X146203033Y-260088095D01*
X145917319Y-260992857D02*
X145917319Y-261659523D01*
X145917319Y-261659523D02*
X146917319Y-261230952D01*
X185017319Y-259135714D02*
X184017319Y-259135714D01*
X184017319Y-259135714D02*
X184017319Y-259373809D01*
X184017319Y-259373809D02*
X184064938Y-259516666D01*
X184064938Y-259516666D02*
X184160176Y-259611904D01*
X184160176Y-259611904D02*
X184255414Y-259659523D01*
X184255414Y-259659523D02*
X184445890Y-259707142D01*
X184445890Y-259707142D02*
X184588747Y-259707142D01*
X184588747Y-259707142D02*
X184779223Y-259659523D01*
X184779223Y-259659523D02*
X184874461Y-259611904D01*
X184874461Y-259611904D02*
X184969700Y-259516666D01*
X184969700Y-259516666D02*
X185017319Y-259373809D01*
X185017319Y-259373809D02*
X185017319Y-259135714D01*
X184112557Y-260088095D02*
X184064938Y-260135714D01*
X184064938Y-260135714D02*
X184017319Y-260230952D01*
X184017319Y-260230952D02*
X184017319Y-260469047D01*
X184017319Y-260469047D02*
X184064938Y-260564285D01*
X184064938Y-260564285D02*
X184112557Y-260611904D01*
X184112557Y-260611904D02*
X184207795Y-260659523D01*
X184207795Y-260659523D02*
X184303033Y-260659523D01*
X184303033Y-260659523D02*
X184445890Y-260611904D01*
X184445890Y-260611904D02*
X185017319Y-260040476D01*
X185017319Y-260040476D02*
X185017319Y-260659523D01*
X184017319Y-260992857D02*
X184017319Y-261659523D01*
X184017319Y-261659523D02*
X185017319Y-261230952D01*
X374723569Y-316285714D02*
X373723569Y-316285714D01*
X373723569Y-316285714D02*
X373723569Y-316523809D01*
X373723569Y-316523809D02*
X373771188Y-316666666D01*
X373771188Y-316666666D02*
X373866426Y-316761904D01*
X373866426Y-316761904D02*
X373961664Y-316809523D01*
X373961664Y-316809523D02*
X374152140Y-316857142D01*
X374152140Y-316857142D02*
X374294997Y-316857142D01*
X374294997Y-316857142D02*
X374485473Y-316809523D01*
X374485473Y-316809523D02*
X374580711Y-316761904D01*
X374580711Y-316761904D02*
X374675950Y-316666666D01*
X374675950Y-316666666D02*
X374723569Y-316523809D01*
X374723569Y-316523809D02*
X374723569Y-316285714D01*
X373723569Y-317761904D02*
X373723569Y-317285714D01*
X373723569Y-317285714D02*
X374199759Y-317238095D01*
X374199759Y-317238095D02*
X374152140Y-317285714D01*
X374152140Y-317285714D02*
X374104521Y-317380952D01*
X374104521Y-317380952D02*
X374104521Y-317619047D01*
X374104521Y-317619047D02*
X374152140Y-317714285D01*
X374152140Y-317714285D02*
X374199759Y-317761904D01*
X374199759Y-317761904D02*
X374294997Y-317809523D01*
X374294997Y-317809523D02*
X374533092Y-317809523D01*
X374533092Y-317809523D02*
X374628330Y-317761904D01*
X374628330Y-317761904D02*
X374675950Y-317714285D01*
X374675950Y-317714285D02*
X374723569Y-317619047D01*
X374723569Y-317619047D02*
X374723569Y-317380952D01*
X374723569Y-317380952D02*
X374675950Y-317285714D01*
X374675950Y-317285714D02*
X374628330Y-317238095D01*
X373723569Y-318428571D02*
X373723569Y-318523809D01*
X373723569Y-318523809D02*
X373771188Y-318619047D01*
X373771188Y-318619047D02*
X373818807Y-318666666D01*
X373818807Y-318666666D02*
X373914045Y-318714285D01*
X373914045Y-318714285D02*
X374104521Y-318761904D01*
X374104521Y-318761904D02*
X374342616Y-318761904D01*
X374342616Y-318761904D02*
X374533092Y-318714285D01*
X374533092Y-318714285D02*
X374628330Y-318666666D01*
X374628330Y-318666666D02*
X374675950Y-318619047D01*
X374675950Y-318619047D02*
X374723569Y-318523809D01*
X374723569Y-318523809D02*
X374723569Y-318428571D01*
X374723569Y-318428571D02*
X374675950Y-318333333D01*
X374675950Y-318333333D02*
X374628330Y-318285714D01*
X374628330Y-318285714D02*
X374533092Y-318238095D01*
X374533092Y-318238095D02*
X374342616Y-318190476D01*
X374342616Y-318190476D02*
X374104521Y-318190476D01*
X374104521Y-318190476D02*
X373914045Y-318238095D01*
X373914045Y-318238095D02*
X373818807Y-318285714D01*
X373818807Y-318285714D02*
X373771188Y-318333333D01*
X373771188Y-318333333D02*
X373723569Y-318428571D01*
X374723569Y-278185714D02*
X373723569Y-278185714D01*
X373723569Y-278185714D02*
X373723569Y-278423809D01*
X373723569Y-278423809D02*
X373771188Y-278566666D01*
X373771188Y-278566666D02*
X373866426Y-278661904D01*
X373866426Y-278661904D02*
X373961664Y-278709523D01*
X373961664Y-278709523D02*
X374152140Y-278757142D01*
X374152140Y-278757142D02*
X374294997Y-278757142D01*
X374294997Y-278757142D02*
X374485473Y-278709523D01*
X374485473Y-278709523D02*
X374580711Y-278661904D01*
X374580711Y-278661904D02*
X374675950Y-278566666D01*
X374675950Y-278566666D02*
X374723569Y-278423809D01*
X374723569Y-278423809D02*
X374723569Y-278185714D01*
X373723569Y-279614285D02*
X373723569Y-279423809D01*
X373723569Y-279423809D02*
X373771188Y-279328571D01*
X373771188Y-279328571D02*
X373818807Y-279280952D01*
X373818807Y-279280952D02*
X373961664Y-279185714D01*
X373961664Y-279185714D02*
X374152140Y-279138095D01*
X374152140Y-279138095D02*
X374533092Y-279138095D01*
X374533092Y-279138095D02*
X374628330Y-279185714D01*
X374628330Y-279185714D02*
X374675950Y-279233333D01*
X374675950Y-279233333D02*
X374723569Y-279328571D01*
X374723569Y-279328571D02*
X374723569Y-279519047D01*
X374723569Y-279519047D02*
X374675950Y-279614285D01*
X374675950Y-279614285D02*
X374628330Y-279661904D01*
X374628330Y-279661904D02*
X374533092Y-279709523D01*
X374533092Y-279709523D02*
X374294997Y-279709523D01*
X374294997Y-279709523D02*
X374199759Y-279661904D01*
X374199759Y-279661904D02*
X374152140Y-279614285D01*
X374152140Y-279614285D02*
X374104521Y-279519047D01*
X374104521Y-279519047D02*
X374104521Y-279328571D01*
X374104521Y-279328571D02*
X374152140Y-279233333D01*
X374152140Y-279233333D02*
X374199759Y-279185714D01*
X374199759Y-279185714D02*
X374294997Y-279138095D01*
X373723569Y-280614285D02*
X373723569Y-280138095D01*
X373723569Y-280138095D02*
X374199759Y-280090476D01*
X374199759Y-280090476D02*
X374152140Y-280138095D01*
X374152140Y-280138095D02*
X374104521Y-280233333D01*
X374104521Y-280233333D02*
X374104521Y-280471428D01*
X374104521Y-280471428D02*
X374152140Y-280566666D01*
X374152140Y-280566666D02*
X374199759Y-280614285D01*
X374199759Y-280614285D02*
X374294997Y-280661904D01*
X374294997Y-280661904D02*
X374533092Y-280661904D01*
X374533092Y-280661904D02*
X374628330Y-280614285D01*
X374628330Y-280614285D02*
X374675950Y-280566666D01*
X374675950Y-280566666D02*
X374723569Y-280471428D01*
X374723569Y-280471428D02*
X374723569Y-280233333D01*
X374723569Y-280233333D02*
X374675950Y-280138095D01*
X374675950Y-280138095D02*
X374628330Y-280090476D01*
X294554819Y-297235714D02*
X293554819Y-297235714D01*
X293554819Y-297235714D02*
X293554819Y-297473809D01*
X293554819Y-297473809D02*
X293602438Y-297616666D01*
X293602438Y-297616666D02*
X293697676Y-297711904D01*
X293697676Y-297711904D02*
X293792914Y-297759523D01*
X293792914Y-297759523D02*
X293983390Y-297807142D01*
X293983390Y-297807142D02*
X294126247Y-297807142D01*
X294126247Y-297807142D02*
X294316723Y-297759523D01*
X294316723Y-297759523D02*
X294411961Y-297711904D01*
X294411961Y-297711904D02*
X294507200Y-297616666D01*
X294507200Y-297616666D02*
X294554819Y-297473809D01*
X294554819Y-297473809D02*
X294554819Y-297235714D01*
X293554819Y-298711904D02*
X293554819Y-298235714D01*
X293554819Y-298235714D02*
X294031009Y-298188095D01*
X294031009Y-298188095D02*
X293983390Y-298235714D01*
X293983390Y-298235714D02*
X293935771Y-298330952D01*
X293935771Y-298330952D02*
X293935771Y-298569047D01*
X293935771Y-298569047D02*
X293983390Y-298664285D01*
X293983390Y-298664285D02*
X294031009Y-298711904D01*
X294031009Y-298711904D02*
X294126247Y-298759523D01*
X294126247Y-298759523D02*
X294364342Y-298759523D01*
X294364342Y-298759523D02*
X294459580Y-298711904D01*
X294459580Y-298711904D02*
X294507200Y-298664285D01*
X294507200Y-298664285D02*
X294554819Y-298569047D01*
X294554819Y-298569047D02*
X294554819Y-298330952D01*
X294554819Y-298330952D02*
X294507200Y-298235714D01*
X294507200Y-298235714D02*
X294459580Y-298188095D01*
X293888152Y-299616666D02*
X294554819Y-299616666D01*
X293507200Y-299378571D02*
X294221485Y-299140476D01*
X294221485Y-299140476D02*
X294221485Y-299759523D01*
X356467319Y-316285714D02*
X355467319Y-316285714D01*
X355467319Y-316285714D02*
X355467319Y-316523809D01*
X355467319Y-316523809D02*
X355514938Y-316666666D01*
X355514938Y-316666666D02*
X355610176Y-316761904D01*
X355610176Y-316761904D02*
X355705414Y-316809523D01*
X355705414Y-316809523D02*
X355895890Y-316857142D01*
X355895890Y-316857142D02*
X356038747Y-316857142D01*
X356038747Y-316857142D02*
X356229223Y-316809523D01*
X356229223Y-316809523D02*
X356324461Y-316761904D01*
X356324461Y-316761904D02*
X356419700Y-316666666D01*
X356419700Y-316666666D02*
X356467319Y-316523809D01*
X356467319Y-316523809D02*
X356467319Y-316285714D01*
X355800652Y-317714285D02*
X356467319Y-317714285D01*
X355419700Y-317476190D02*
X356133985Y-317238095D01*
X356133985Y-317238095D02*
X356133985Y-317857142D01*
X355467319Y-318714285D02*
X355467319Y-318238095D01*
X355467319Y-318238095D02*
X355943509Y-318190476D01*
X355943509Y-318190476D02*
X355895890Y-318238095D01*
X355895890Y-318238095D02*
X355848271Y-318333333D01*
X355848271Y-318333333D02*
X355848271Y-318571428D01*
X355848271Y-318571428D02*
X355895890Y-318666666D01*
X355895890Y-318666666D02*
X355943509Y-318714285D01*
X355943509Y-318714285D02*
X356038747Y-318761904D01*
X356038747Y-318761904D02*
X356276842Y-318761904D01*
X356276842Y-318761904D02*
X356372080Y-318714285D01*
X356372080Y-318714285D02*
X356419700Y-318666666D01*
X356419700Y-318666666D02*
X356467319Y-318571428D01*
X356467319Y-318571428D02*
X356467319Y-318333333D01*
X356467319Y-318333333D02*
X356419700Y-318238095D01*
X356419700Y-318238095D02*
X356372080Y-318190476D01*
X337417319Y-240085714D02*
X336417319Y-240085714D01*
X336417319Y-240085714D02*
X336417319Y-240323809D01*
X336417319Y-240323809D02*
X336464938Y-240466666D01*
X336464938Y-240466666D02*
X336560176Y-240561904D01*
X336560176Y-240561904D02*
X336655414Y-240609523D01*
X336655414Y-240609523D02*
X336845890Y-240657142D01*
X336845890Y-240657142D02*
X336988747Y-240657142D01*
X336988747Y-240657142D02*
X337179223Y-240609523D01*
X337179223Y-240609523D02*
X337274461Y-240561904D01*
X337274461Y-240561904D02*
X337369700Y-240466666D01*
X337369700Y-240466666D02*
X337417319Y-240323809D01*
X337417319Y-240323809D02*
X337417319Y-240085714D01*
X336417319Y-241514285D02*
X336417319Y-241323809D01*
X336417319Y-241323809D02*
X336464938Y-241228571D01*
X336464938Y-241228571D02*
X336512557Y-241180952D01*
X336512557Y-241180952D02*
X336655414Y-241085714D01*
X336655414Y-241085714D02*
X336845890Y-241038095D01*
X336845890Y-241038095D02*
X337226842Y-241038095D01*
X337226842Y-241038095D02*
X337322080Y-241085714D01*
X337322080Y-241085714D02*
X337369700Y-241133333D01*
X337369700Y-241133333D02*
X337417319Y-241228571D01*
X337417319Y-241228571D02*
X337417319Y-241419047D01*
X337417319Y-241419047D02*
X337369700Y-241514285D01*
X337369700Y-241514285D02*
X337322080Y-241561904D01*
X337322080Y-241561904D02*
X337226842Y-241609523D01*
X337226842Y-241609523D02*
X336988747Y-241609523D01*
X336988747Y-241609523D02*
X336893509Y-241561904D01*
X336893509Y-241561904D02*
X336845890Y-241514285D01*
X336845890Y-241514285D02*
X336798271Y-241419047D01*
X336798271Y-241419047D02*
X336798271Y-241228571D01*
X336798271Y-241228571D02*
X336845890Y-241133333D01*
X336845890Y-241133333D02*
X336893509Y-241085714D01*
X336893509Y-241085714D02*
X336988747Y-241038095D01*
X336417319Y-241942857D02*
X336417319Y-242561904D01*
X336417319Y-242561904D02*
X336798271Y-242228571D01*
X336798271Y-242228571D02*
X336798271Y-242371428D01*
X336798271Y-242371428D02*
X336845890Y-242466666D01*
X336845890Y-242466666D02*
X336893509Y-242514285D01*
X336893509Y-242514285D02*
X336988747Y-242561904D01*
X336988747Y-242561904D02*
X337226842Y-242561904D01*
X337226842Y-242561904D02*
X337322080Y-242514285D01*
X337322080Y-242514285D02*
X337369700Y-242466666D01*
X337369700Y-242466666D02*
X337417319Y-242371428D01*
X337417319Y-242371428D02*
X337417319Y-242085714D01*
X337417319Y-242085714D02*
X337369700Y-241990476D01*
X337369700Y-241990476D02*
X337322080Y-241942857D01*
X227879819Y-278185714D02*
X226879819Y-278185714D01*
X226879819Y-278185714D02*
X226879819Y-278423809D01*
X226879819Y-278423809D02*
X226927438Y-278566666D01*
X226927438Y-278566666D02*
X227022676Y-278661904D01*
X227022676Y-278661904D02*
X227117914Y-278709523D01*
X227117914Y-278709523D02*
X227308390Y-278757142D01*
X227308390Y-278757142D02*
X227451247Y-278757142D01*
X227451247Y-278757142D02*
X227641723Y-278709523D01*
X227641723Y-278709523D02*
X227736961Y-278661904D01*
X227736961Y-278661904D02*
X227832200Y-278566666D01*
X227832200Y-278566666D02*
X227879819Y-278423809D01*
X227879819Y-278423809D02*
X227879819Y-278185714D01*
X226879819Y-279090476D02*
X226879819Y-279709523D01*
X226879819Y-279709523D02*
X227260771Y-279376190D01*
X227260771Y-279376190D02*
X227260771Y-279519047D01*
X227260771Y-279519047D02*
X227308390Y-279614285D01*
X227308390Y-279614285D02*
X227356009Y-279661904D01*
X227356009Y-279661904D02*
X227451247Y-279709523D01*
X227451247Y-279709523D02*
X227689342Y-279709523D01*
X227689342Y-279709523D02*
X227784580Y-279661904D01*
X227784580Y-279661904D02*
X227832200Y-279614285D01*
X227832200Y-279614285D02*
X227879819Y-279519047D01*
X227879819Y-279519047D02*
X227879819Y-279233333D01*
X227879819Y-279233333D02*
X227832200Y-279138095D01*
X227832200Y-279138095D02*
X227784580Y-279090476D01*
X227308390Y-280280952D02*
X227260771Y-280185714D01*
X227260771Y-280185714D02*
X227213152Y-280138095D01*
X227213152Y-280138095D02*
X227117914Y-280090476D01*
X227117914Y-280090476D02*
X227070295Y-280090476D01*
X227070295Y-280090476D02*
X226975057Y-280138095D01*
X226975057Y-280138095D02*
X226927438Y-280185714D01*
X226927438Y-280185714D02*
X226879819Y-280280952D01*
X226879819Y-280280952D02*
X226879819Y-280471428D01*
X226879819Y-280471428D02*
X226927438Y-280566666D01*
X226927438Y-280566666D02*
X226975057Y-280614285D01*
X226975057Y-280614285D02*
X227070295Y-280661904D01*
X227070295Y-280661904D02*
X227117914Y-280661904D01*
X227117914Y-280661904D02*
X227213152Y-280614285D01*
X227213152Y-280614285D02*
X227260771Y-280566666D01*
X227260771Y-280566666D02*
X227308390Y-280471428D01*
X227308390Y-280471428D02*
X227308390Y-280280952D01*
X227308390Y-280280952D02*
X227356009Y-280185714D01*
X227356009Y-280185714D02*
X227403628Y-280138095D01*
X227403628Y-280138095D02*
X227498866Y-280090476D01*
X227498866Y-280090476D02*
X227689342Y-280090476D01*
X227689342Y-280090476D02*
X227784580Y-280138095D01*
X227784580Y-280138095D02*
X227832200Y-280185714D01*
X227832200Y-280185714D02*
X227879819Y-280280952D01*
X227879819Y-280280952D02*
X227879819Y-280471428D01*
X227879819Y-280471428D02*
X227832200Y-280566666D01*
X227832200Y-280566666D02*
X227784580Y-280614285D01*
X227784580Y-280614285D02*
X227689342Y-280661904D01*
X227689342Y-280661904D02*
X227498866Y-280661904D01*
X227498866Y-280661904D02*
X227403628Y-280614285D01*
X227403628Y-280614285D02*
X227356009Y-280566666D01*
X227356009Y-280566666D02*
X227308390Y-280471428D01*
X171616666Y-306904819D02*
X171949999Y-306428628D01*
X172188094Y-306904819D02*
X172188094Y-305904819D01*
X172188094Y-305904819D02*
X171807142Y-305904819D01*
X171807142Y-305904819D02*
X171711904Y-305952438D01*
X171711904Y-305952438D02*
X171664285Y-306000057D01*
X171664285Y-306000057D02*
X171616666Y-306095295D01*
X171616666Y-306095295D02*
X171616666Y-306238152D01*
X171616666Y-306238152D02*
X171664285Y-306333390D01*
X171664285Y-306333390D02*
X171711904Y-306381009D01*
X171711904Y-306381009D02*
X171807142Y-306428628D01*
X171807142Y-306428628D02*
X172188094Y-306428628D01*
X170759523Y-306238152D02*
X170759523Y-306904819D01*
X170997618Y-305857200D02*
X171235713Y-306571485D01*
X171235713Y-306571485D02*
X170616666Y-306571485D01*
X236230319Y-247647344D02*
X237039842Y-247647344D01*
X237039842Y-247647344D02*
X237135080Y-247694963D01*
X237135080Y-247694963D02*
X237182700Y-247742582D01*
X237182700Y-247742582D02*
X237230319Y-247837820D01*
X237230319Y-247837820D02*
X237230319Y-248028296D01*
X237230319Y-248028296D02*
X237182700Y-248123534D01*
X237182700Y-248123534D02*
X237135080Y-248171153D01*
X237135080Y-248171153D02*
X237039842Y-248218772D01*
X237039842Y-248218772D02*
X236230319Y-248218772D01*
X236325557Y-248647344D02*
X236277938Y-248694963D01*
X236277938Y-248694963D02*
X236230319Y-248790201D01*
X236230319Y-248790201D02*
X236230319Y-249028296D01*
X236230319Y-249028296D02*
X236277938Y-249123534D01*
X236277938Y-249123534D02*
X236325557Y-249171153D01*
X236325557Y-249171153D02*
X236420795Y-249218772D01*
X236420795Y-249218772D02*
X236516033Y-249218772D01*
X236516033Y-249218772D02*
X236658890Y-249171153D01*
X236658890Y-249171153D02*
X237230319Y-248599725D01*
X237230319Y-248599725D02*
X237230319Y-249218772D01*
X123104819Y-297711905D02*
X122104819Y-297711905D01*
X122104819Y-297711905D02*
X122104819Y-297950000D01*
X122104819Y-297950000D02*
X122152438Y-298092857D01*
X122152438Y-298092857D02*
X122247676Y-298188095D01*
X122247676Y-298188095D02*
X122342914Y-298235714D01*
X122342914Y-298235714D02*
X122533390Y-298283333D01*
X122533390Y-298283333D02*
X122676247Y-298283333D01*
X122676247Y-298283333D02*
X122866723Y-298235714D01*
X122866723Y-298235714D02*
X122961961Y-298188095D01*
X122961961Y-298188095D02*
X123057200Y-298092857D01*
X123057200Y-298092857D02*
X123104819Y-297950000D01*
X123104819Y-297950000D02*
X123104819Y-297711905D01*
X123104819Y-298759524D02*
X123104819Y-298950000D01*
X123104819Y-298950000D02*
X123057200Y-299045238D01*
X123057200Y-299045238D02*
X123009580Y-299092857D01*
X123009580Y-299092857D02*
X122866723Y-299188095D01*
X122866723Y-299188095D02*
X122676247Y-299235714D01*
X122676247Y-299235714D02*
X122295295Y-299235714D01*
X122295295Y-299235714D02*
X122200057Y-299188095D01*
X122200057Y-299188095D02*
X122152438Y-299140476D01*
X122152438Y-299140476D02*
X122104819Y-299045238D01*
X122104819Y-299045238D02*
X122104819Y-298854762D01*
X122104819Y-298854762D02*
X122152438Y-298759524D01*
X122152438Y-298759524D02*
X122200057Y-298711905D01*
X122200057Y-298711905D02*
X122295295Y-298664286D01*
X122295295Y-298664286D02*
X122533390Y-298664286D01*
X122533390Y-298664286D02*
X122628628Y-298711905D01*
X122628628Y-298711905D02*
X122676247Y-298759524D01*
X122676247Y-298759524D02*
X122723866Y-298854762D01*
X122723866Y-298854762D02*
X122723866Y-299045238D01*
X122723866Y-299045238D02*
X122676247Y-299140476D01*
X122676247Y-299140476D02*
X122628628Y-299188095D01*
X122628628Y-299188095D02*
X122533390Y-299235714D01*
X218354819Y-297235714D02*
X217354819Y-297235714D01*
X217354819Y-297235714D02*
X217354819Y-297473809D01*
X217354819Y-297473809D02*
X217402438Y-297616666D01*
X217402438Y-297616666D02*
X217497676Y-297711904D01*
X217497676Y-297711904D02*
X217592914Y-297759523D01*
X217592914Y-297759523D02*
X217783390Y-297807142D01*
X217783390Y-297807142D02*
X217926247Y-297807142D01*
X217926247Y-297807142D02*
X218116723Y-297759523D01*
X218116723Y-297759523D02*
X218211961Y-297711904D01*
X218211961Y-297711904D02*
X218307200Y-297616666D01*
X218307200Y-297616666D02*
X218354819Y-297473809D01*
X218354819Y-297473809D02*
X218354819Y-297235714D01*
X217354819Y-298140476D02*
X217354819Y-298759523D01*
X217354819Y-298759523D02*
X217735771Y-298426190D01*
X217735771Y-298426190D02*
X217735771Y-298569047D01*
X217735771Y-298569047D02*
X217783390Y-298664285D01*
X217783390Y-298664285D02*
X217831009Y-298711904D01*
X217831009Y-298711904D02*
X217926247Y-298759523D01*
X217926247Y-298759523D02*
X218164342Y-298759523D01*
X218164342Y-298759523D02*
X218259580Y-298711904D01*
X218259580Y-298711904D02*
X218307200Y-298664285D01*
X218307200Y-298664285D02*
X218354819Y-298569047D01*
X218354819Y-298569047D02*
X218354819Y-298283333D01*
X218354819Y-298283333D02*
X218307200Y-298188095D01*
X218307200Y-298188095D02*
X218259580Y-298140476D01*
X217688152Y-299616666D02*
X218354819Y-299616666D01*
X217307200Y-299378571D02*
X218021485Y-299140476D01*
X218021485Y-299140476D02*
X218021485Y-299759523D01*
X80242319Y-240561905D02*
X79242319Y-240561905D01*
X79242319Y-240561905D02*
X79242319Y-240800000D01*
X79242319Y-240800000D02*
X79289938Y-240942857D01*
X79289938Y-240942857D02*
X79385176Y-241038095D01*
X79385176Y-241038095D02*
X79480414Y-241085714D01*
X79480414Y-241085714D02*
X79670890Y-241133333D01*
X79670890Y-241133333D02*
X79813747Y-241133333D01*
X79813747Y-241133333D02*
X80004223Y-241085714D01*
X80004223Y-241085714D02*
X80099461Y-241038095D01*
X80099461Y-241038095D02*
X80194700Y-240942857D01*
X80194700Y-240942857D02*
X80242319Y-240800000D01*
X80242319Y-240800000D02*
X80242319Y-240561905D01*
X80242319Y-242085714D02*
X80242319Y-241514286D01*
X80242319Y-241800000D02*
X79242319Y-241800000D01*
X79242319Y-241800000D02*
X79385176Y-241704762D01*
X79385176Y-241704762D02*
X79480414Y-241609524D01*
X79480414Y-241609524D02*
X79528033Y-241514286D01*
X181181333Y-309642009D02*
X181514666Y-309642009D01*
X181514666Y-310165819D02*
X181514666Y-309165819D01*
X181514666Y-309165819D02*
X181038476Y-309165819D01*
X180133714Y-310165819D02*
X180705142Y-310165819D01*
X180419428Y-310165819D02*
X180419428Y-309165819D01*
X180419428Y-309165819D02*
X180514666Y-309308676D01*
X180514666Y-309308676D02*
X180609904Y-309403914D01*
X180609904Y-309403914D02*
X180705142Y-309451533D01*
X237404819Y-297235714D02*
X236404819Y-297235714D01*
X236404819Y-297235714D02*
X236404819Y-297473809D01*
X236404819Y-297473809D02*
X236452438Y-297616666D01*
X236452438Y-297616666D02*
X236547676Y-297711904D01*
X236547676Y-297711904D02*
X236642914Y-297759523D01*
X236642914Y-297759523D02*
X236833390Y-297807142D01*
X236833390Y-297807142D02*
X236976247Y-297807142D01*
X236976247Y-297807142D02*
X237166723Y-297759523D01*
X237166723Y-297759523D02*
X237261961Y-297711904D01*
X237261961Y-297711904D02*
X237357200Y-297616666D01*
X237357200Y-297616666D02*
X237404819Y-297473809D01*
X237404819Y-297473809D02*
X237404819Y-297235714D01*
X236404819Y-298140476D02*
X236404819Y-298759523D01*
X236404819Y-298759523D02*
X236785771Y-298426190D01*
X236785771Y-298426190D02*
X236785771Y-298569047D01*
X236785771Y-298569047D02*
X236833390Y-298664285D01*
X236833390Y-298664285D02*
X236881009Y-298711904D01*
X236881009Y-298711904D02*
X236976247Y-298759523D01*
X236976247Y-298759523D02*
X237214342Y-298759523D01*
X237214342Y-298759523D02*
X237309580Y-298711904D01*
X237309580Y-298711904D02*
X237357200Y-298664285D01*
X237357200Y-298664285D02*
X237404819Y-298569047D01*
X237404819Y-298569047D02*
X237404819Y-298283333D01*
X237404819Y-298283333D02*
X237357200Y-298188095D01*
X237357200Y-298188095D02*
X237309580Y-298140476D01*
X237404819Y-299235714D02*
X237404819Y-299426190D01*
X237404819Y-299426190D02*
X237357200Y-299521428D01*
X237357200Y-299521428D02*
X237309580Y-299569047D01*
X237309580Y-299569047D02*
X237166723Y-299664285D01*
X237166723Y-299664285D02*
X236976247Y-299711904D01*
X236976247Y-299711904D02*
X236595295Y-299711904D01*
X236595295Y-299711904D02*
X236500057Y-299664285D01*
X236500057Y-299664285D02*
X236452438Y-299616666D01*
X236452438Y-299616666D02*
X236404819Y-299521428D01*
X236404819Y-299521428D02*
X236404819Y-299330952D01*
X236404819Y-299330952D02*
X236452438Y-299235714D01*
X236452438Y-299235714D02*
X236500057Y-299188095D01*
X236500057Y-299188095D02*
X236595295Y-299140476D01*
X236595295Y-299140476D02*
X236833390Y-299140476D01*
X236833390Y-299140476D02*
X236928628Y-299188095D01*
X236928628Y-299188095D02*
X236976247Y-299235714D01*
X236976247Y-299235714D02*
X237023866Y-299330952D01*
X237023866Y-299330952D02*
X237023866Y-299521428D01*
X237023866Y-299521428D02*
X236976247Y-299616666D01*
X236976247Y-299616666D02*
X236928628Y-299664285D01*
X236928628Y-299664285D02*
X236833390Y-299711904D01*
X318367319Y-259135714D02*
X317367319Y-259135714D01*
X317367319Y-259135714D02*
X317367319Y-259373809D01*
X317367319Y-259373809D02*
X317414938Y-259516666D01*
X317414938Y-259516666D02*
X317510176Y-259611904D01*
X317510176Y-259611904D02*
X317605414Y-259659523D01*
X317605414Y-259659523D02*
X317795890Y-259707142D01*
X317795890Y-259707142D02*
X317938747Y-259707142D01*
X317938747Y-259707142D02*
X318129223Y-259659523D01*
X318129223Y-259659523D02*
X318224461Y-259611904D01*
X318224461Y-259611904D02*
X318319700Y-259516666D01*
X318319700Y-259516666D02*
X318367319Y-259373809D01*
X318367319Y-259373809D02*
X318367319Y-259135714D01*
X317367319Y-260564285D02*
X317367319Y-260373809D01*
X317367319Y-260373809D02*
X317414938Y-260278571D01*
X317414938Y-260278571D02*
X317462557Y-260230952D01*
X317462557Y-260230952D02*
X317605414Y-260135714D01*
X317605414Y-260135714D02*
X317795890Y-260088095D01*
X317795890Y-260088095D02*
X318176842Y-260088095D01*
X318176842Y-260088095D02*
X318272080Y-260135714D01*
X318272080Y-260135714D02*
X318319700Y-260183333D01*
X318319700Y-260183333D02*
X318367319Y-260278571D01*
X318367319Y-260278571D02*
X318367319Y-260469047D01*
X318367319Y-260469047D02*
X318319700Y-260564285D01*
X318319700Y-260564285D02*
X318272080Y-260611904D01*
X318272080Y-260611904D02*
X318176842Y-260659523D01*
X318176842Y-260659523D02*
X317938747Y-260659523D01*
X317938747Y-260659523D02*
X317843509Y-260611904D01*
X317843509Y-260611904D02*
X317795890Y-260564285D01*
X317795890Y-260564285D02*
X317748271Y-260469047D01*
X317748271Y-260469047D02*
X317748271Y-260278571D01*
X317748271Y-260278571D02*
X317795890Y-260183333D01*
X317795890Y-260183333D02*
X317843509Y-260135714D01*
X317843509Y-260135714D02*
X317938747Y-260088095D01*
X317367319Y-261278571D02*
X317367319Y-261373809D01*
X317367319Y-261373809D02*
X317414938Y-261469047D01*
X317414938Y-261469047D02*
X317462557Y-261516666D01*
X317462557Y-261516666D02*
X317557795Y-261564285D01*
X317557795Y-261564285D02*
X317748271Y-261611904D01*
X317748271Y-261611904D02*
X317986366Y-261611904D01*
X317986366Y-261611904D02*
X318176842Y-261564285D01*
X318176842Y-261564285D02*
X318272080Y-261516666D01*
X318272080Y-261516666D02*
X318319700Y-261469047D01*
X318319700Y-261469047D02*
X318367319Y-261373809D01*
X318367319Y-261373809D02*
X318367319Y-261278571D01*
X318367319Y-261278571D02*
X318319700Y-261183333D01*
X318319700Y-261183333D02*
X318272080Y-261135714D01*
X318272080Y-261135714D02*
X318176842Y-261088095D01*
X318176842Y-261088095D02*
X317986366Y-261040476D01*
X317986366Y-261040476D02*
X317748271Y-261040476D01*
X317748271Y-261040476D02*
X317557795Y-261088095D01*
X317557795Y-261088095D02*
X317462557Y-261135714D01*
X317462557Y-261135714D02*
X317414938Y-261183333D01*
X317414938Y-261183333D02*
X317367319Y-261278571D01*
X137392319Y-240085714D02*
X136392319Y-240085714D01*
X136392319Y-240085714D02*
X136392319Y-240323809D01*
X136392319Y-240323809D02*
X136439938Y-240466666D01*
X136439938Y-240466666D02*
X136535176Y-240561904D01*
X136535176Y-240561904D02*
X136630414Y-240609523D01*
X136630414Y-240609523D02*
X136820890Y-240657142D01*
X136820890Y-240657142D02*
X136963747Y-240657142D01*
X136963747Y-240657142D02*
X137154223Y-240609523D01*
X137154223Y-240609523D02*
X137249461Y-240561904D01*
X137249461Y-240561904D02*
X137344700Y-240466666D01*
X137344700Y-240466666D02*
X137392319Y-240323809D01*
X137392319Y-240323809D02*
X137392319Y-240085714D01*
X137392319Y-241609523D02*
X137392319Y-241038095D01*
X137392319Y-241323809D02*
X136392319Y-241323809D01*
X136392319Y-241323809D02*
X136535176Y-241228571D01*
X136535176Y-241228571D02*
X136630414Y-241133333D01*
X136630414Y-241133333D02*
X136678033Y-241038095D01*
X136392319Y-242466666D02*
X136392319Y-242276190D01*
X136392319Y-242276190D02*
X136439938Y-242180952D01*
X136439938Y-242180952D02*
X136487557Y-242133333D01*
X136487557Y-242133333D02*
X136630414Y-242038095D01*
X136630414Y-242038095D02*
X136820890Y-241990476D01*
X136820890Y-241990476D02*
X137201842Y-241990476D01*
X137201842Y-241990476D02*
X137297080Y-242038095D01*
X137297080Y-242038095D02*
X137344700Y-242085714D01*
X137344700Y-242085714D02*
X137392319Y-242180952D01*
X137392319Y-242180952D02*
X137392319Y-242371428D01*
X137392319Y-242371428D02*
X137344700Y-242466666D01*
X137344700Y-242466666D02*
X137297080Y-242514285D01*
X137297080Y-242514285D02*
X137201842Y-242561904D01*
X137201842Y-242561904D02*
X136963747Y-242561904D01*
X136963747Y-242561904D02*
X136868509Y-242514285D01*
X136868509Y-242514285D02*
X136820890Y-242466666D01*
X136820890Y-242466666D02*
X136773271Y-242371428D01*
X136773271Y-242371428D02*
X136773271Y-242180952D01*
X136773271Y-242180952D02*
X136820890Y-242085714D01*
X136820890Y-242085714D02*
X136868509Y-242038095D01*
X136868509Y-242038095D02*
X136963747Y-241990476D01*
X299317319Y-259135714D02*
X298317319Y-259135714D01*
X298317319Y-259135714D02*
X298317319Y-259373809D01*
X298317319Y-259373809D02*
X298364938Y-259516666D01*
X298364938Y-259516666D02*
X298460176Y-259611904D01*
X298460176Y-259611904D02*
X298555414Y-259659523D01*
X298555414Y-259659523D02*
X298745890Y-259707142D01*
X298745890Y-259707142D02*
X298888747Y-259707142D01*
X298888747Y-259707142D02*
X299079223Y-259659523D01*
X299079223Y-259659523D02*
X299174461Y-259611904D01*
X299174461Y-259611904D02*
X299269700Y-259516666D01*
X299269700Y-259516666D02*
X299317319Y-259373809D01*
X299317319Y-259373809D02*
X299317319Y-259135714D01*
X298317319Y-260611904D02*
X298317319Y-260135714D01*
X298317319Y-260135714D02*
X298793509Y-260088095D01*
X298793509Y-260088095D02*
X298745890Y-260135714D01*
X298745890Y-260135714D02*
X298698271Y-260230952D01*
X298698271Y-260230952D02*
X298698271Y-260469047D01*
X298698271Y-260469047D02*
X298745890Y-260564285D01*
X298745890Y-260564285D02*
X298793509Y-260611904D01*
X298793509Y-260611904D02*
X298888747Y-260659523D01*
X298888747Y-260659523D02*
X299126842Y-260659523D01*
X299126842Y-260659523D02*
X299222080Y-260611904D01*
X299222080Y-260611904D02*
X299269700Y-260564285D01*
X299269700Y-260564285D02*
X299317319Y-260469047D01*
X299317319Y-260469047D02*
X299317319Y-260230952D01*
X299317319Y-260230952D02*
X299269700Y-260135714D01*
X299269700Y-260135714D02*
X299222080Y-260088095D01*
X298317319Y-261516666D02*
X298317319Y-261326190D01*
X298317319Y-261326190D02*
X298364938Y-261230952D01*
X298364938Y-261230952D02*
X298412557Y-261183333D01*
X298412557Y-261183333D02*
X298555414Y-261088095D01*
X298555414Y-261088095D02*
X298745890Y-261040476D01*
X298745890Y-261040476D02*
X299126842Y-261040476D01*
X299126842Y-261040476D02*
X299222080Y-261088095D01*
X299222080Y-261088095D02*
X299269700Y-261135714D01*
X299269700Y-261135714D02*
X299317319Y-261230952D01*
X299317319Y-261230952D02*
X299317319Y-261421428D01*
X299317319Y-261421428D02*
X299269700Y-261516666D01*
X299269700Y-261516666D02*
X299222080Y-261564285D01*
X299222080Y-261564285D02*
X299126842Y-261611904D01*
X299126842Y-261611904D02*
X298888747Y-261611904D01*
X298888747Y-261611904D02*
X298793509Y-261564285D01*
X298793509Y-261564285D02*
X298745890Y-261516666D01*
X298745890Y-261516666D02*
X298698271Y-261421428D01*
X298698271Y-261421428D02*
X298698271Y-261230952D01*
X298698271Y-261230952D02*
X298745890Y-261135714D01*
X298745890Y-261135714D02*
X298793509Y-261088095D01*
X298793509Y-261088095D02*
X298888747Y-261040476D01*
X213592319Y-240085714D02*
X212592319Y-240085714D01*
X212592319Y-240085714D02*
X212592319Y-240323809D01*
X212592319Y-240323809D02*
X212639938Y-240466666D01*
X212639938Y-240466666D02*
X212735176Y-240561904D01*
X212735176Y-240561904D02*
X212830414Y-240609523D01*
X212830414Y-240609523D02*
X213020890Y-240657142D01*
X213020890Y-240657142D02*
X213163747Y-240657142D01*
X213163747Y-240657142D02*
X213354223Y-240609523D01*
X213354223Y-240609523D02*
X213449461Y-240561904D01*
X213449461Y-240561904D02*
X213544700Y-240466666D01*
X213544700Y-240466666D02*
X213592319Y-240323809D01*
X213592319Y-240323809D02*
X213592319Y-240085714D01*
X212592319Y-240990476D02*
X212592319Y-241609523D01*
X212592319Y-241609523D02*
X212973271Y-241276190D01*
X212973271Y-241276190D02*
X212973271Y-241419047D01*
X212973271Y-241419047D02*
X213020890Y-241514285D01*
X213020890Y-241514285D02*
X213068509Y-241561904D01*
X213068509Y-241561904D02*
X213163747Y-241609523D01*
X213163747Y-241609523D02*
X213401842Y-241609523D01*
X213401842Y-241609523D02*
X213497080Y-241561904D01*
X213497080Y-241561904D02*
X213544700Y-241514285D01*
X213544700Y-241514285D02*
X213592319Y-241419047D01*
X213592319Y-241419047D02*
X213592319Y-241133333D01*
X213592319Y-241133333D02*
X213544700Y-241038095D01*
X213544700Y-241038095D02*
X213497080Y-240990476D01*
X212592319Y-242466666D02*
X212592319Y-242276190D01*
X212592319Y-242276190D02*
X212639938Y-242180952D01*
X212639938Y-242180952D02*
X212687557Y-242133333D01*
X212687557Y-242133333D02*
X212830414Y-242038095D01*
X212830414Y-242038095D02*
X213020890Y-241990476D01*
X213020890Y-241990476D02*
X213401842Y-241990476D01*
X213401842Y-241990476D02*
X213497080Y-242038095D01*
X213497080Y-242038095D02*
X213544700Y-242085714D01*
X213544700Y-242085714D02*
X213592319Y-242180952D01*
X213592319Y-242180952D02*
X213592319Y-242371428D01*
X213592319Y-242371428D02*
X213544700Y-242466666D01*
X213544700Y-242466666D02*
X213497080Y-242514285D01*
X213497080Y-242514285D02*
X213401842Y-242561904D01*
X213401842Y-242561904D02*
X213163747Y-242561904D01*
X213163747Y-242561904D02*
X213068509Y-242514285D01*
X213068509Y-242514285D02*
X213020890Y-242466666D01*
X213020890Y-242466666D02*
X212973271Y-242371428D01*
X212973271Y-242371428D02*
X212973271Y-242180952D01*
X212973271Y-242180952D02*
X213020890Y-242085714D01*
X213020890Y-242085714D02*
X213068509Y-242038095D01*
X213068509Y-242038095D02*
X213163747Y-241990476D01*
X108023569Y-316285714D02*
X107023569Y-316285714D01*
X107023569Y-316285714D02*
X107023569Y-316523809D01*
X107023569Y-316523809D02*
X107071188Y-316666666D01*
X107071188Y-316666666D02*
X107166426Y-316761904D01*
X107166426Y-316761904D02*
X107261664Y-316809523D01*
X107261664Y-316809523D02*
X107452140Y-316857142D01*
X107452140Y-316857142D02*
X107594997Y-316857142D01*
X107594997Y-316857142D02*
X107785473Y-316809523D01*
X107785473Y-316809523D02*
X107880711Y-316761904D01*
X107880711Y-316761904D02*
X107975950Y-316666666D01*
X107975950Y-316666666D02*
X108023569Y-316523809D01*
X108023569Y-316523809D02*
X108023569Y-316285714D01*
X108023569Y-317809523D02*
X108023569Y-317238095D01*
X108023569Y-317523809D02*
X107023569Y-317523809D01*
X107023569Y-317523809D02*
X107166426Y-317428571D01*
X107166426Y-317428571D02*
X107261664Y-317333333D01*
X107261664Y-317333333D02*
X107309283Y-317238095D01*
X107023569Y-318428571D02*
X107023569Y-318523809D01*
X107023569Y-318523809D02*
X107071188Y-318619047D01*
X107071188Y-318619047D02*
X107118807Y-318666666D01*
X107118807Y-318666666D02*
X107214045Y-318714285D01*
X107214045Y-318714285D02*
X107404521Y-318761904D01*
X107404521Y-318761904D02*
X107642616Y-318761904D01*
X107642616Y-318761904D02*
X107833092Y-318714285D01*
X107833092Y-318714285D02*
X107928330Y-318666666D01*
X107928330Y-318666666D02*
X107975950Y-318619047D01*
X107975950Y-318619047D02*
X108023569Y-318523809D01*
X108023569Y-318523809D02*
X108023569Y-318428571D01*
X108023569Y-318428571D02*
X107975950Y-318333333D01*
X107975950Y-318333333D02*
X107928330Y-318285714D01*
X107928330Y-318285714D02*
X107833092Y-318238095D01*
X107833092Y-318238095D02*
X107642616Y-318190476D01*
X107642616Y-318190476D02*
X107404521Y-318190476D01*
X107404521Y-318190476D02*
X107214045Y-318238095D01*
X107214045Y-318238095D02*
X107118807Y-318285714D01*
X107118807Y-318285714D02*
X107071188Y-318333333D01*
X107071188Y-318333333D02*
X107023569Y-318428571D01*
X150747580Y-314031333D02*
X150795200Y-313983714D01*
X150795200Y-313983714D02*
X150842819Y-313840857D01*
X150842819Y-313840857D02*
X150842819Y-313745619D01*
X150842819Y-313745619D02*
X150795200Y-313602762D01*
X150795200Y-313602762D02*
X150699961Y-313507524D01*
X150699961Y-313507524D02*
X150604723Y-313459905D01*
X150604723Y-313459905D02*
X150414247Y-313412286D01*
X150414247Y-313412286D02*
X150271390Y-313412286D01*
X150271390Y-313412286D02*
X150080914Y-313459905D01*
X150080914Y-313459905D02*
X149985676Y-313507524D01*
X149985676Y-313507524D02*
X149890438Y-313602762D01*
X149890438Y-313602762D02*
X149842819Y-313745619D01*
X149842819Y-313745619D02*
X149842819Y-313840857D01*
X149842819Y-313840857D02*
X149890438Y-313983714D01*
X149890438Y-313983714D02*
X149938057Y-314031333D01*
X150176152Y-314888476D02*
X150842819Y-314888476D01*
X149795200Y-314650381D02*
X150509485Y-314412286D01*
X150509485Y-314412286D02*
X150509485Y-315031333D01*
X294554819Y-316285714D02*
X293554819Y-316285714D01*
X293554819Y-316285714D02*
X293554819Y-316523809D01*
X293554819Y-316523809D02*
X293602438Y-316666666D01*
X293602438Y-316666666D02*
X293697676Y-316761904D01*
X293697676Y-316761904D02*
X293792914Y-316809523D01*
X293792914Y-316809523D02*
X293983390Y-316857142D01*
X293983390Y-316857142D02*
X294126247Y-316857142D01*
X294126247Y-316857142D02*
X294316723Y-316809523D01*
X294316723Y-316809523D02*
X294411961Y-316761904D01*
X294411961Y-316761904D02*
X294507200Y-316666666D01*
X294507200Y-316666666D02*
X294554819Y-316523809D01*
X294554819Y-316523809D02*
X294554819Y-316285714D01*
X293554819Y-317190476D02*
X293554819Y-317809523D01*
X293554819Y-317809523D02*
X293935771Y-317476190D01*
X293935771Y-317476190D02*
X293935771Y-317619047D01*
X293935771Y-317619047D02*
X293983390Y-317714285D01*
X293983390Y-317714285D02*
X294031009Y-317761904D01*
X294031009Y-317761904D02*
X294126247Y-317809523D01*
X294126247Y-317809523D02*
X294364342Y-317809523D01*
X294364342Y-317809523D02*
X294459580Y-317761904D01*
X294459580Y-317761904D02*
X294507200Y-317714285D01*
X294507200Y-317714285D02*
X294554819Y-317619047D01*
X294554819Y-317619047D02*
X294554819Y-317333333D01*
X294554819Y-317333333D02*
X294507200Y-317238095D01*
X294507200Y-317238095D02*
X294459580Y-317190476D01*
X293554819Y-318428571D02*
X293554819Y-318523809D01*
X293554819Y-318523809D02*
X293602438Y-318619047D01*
X293602438Y-318619047D02*
X293650057Y-318666666D01*
X293650057Y-318666666D02*
X293745295Y-318714285D01*
X293745295Y-318714285D02*
X293935771Y-318761904D01*
X293935771Y-318761904D02*
X294173866Y-318761904D01*
X294173866Y-318761904D02*
X294364342Y-318714285D01*
X294364342Y-318714285D02*
X294459580Y-318666666D01*
X294459580Y-318666666D02*
X294507200Y-318619047D01*
X294507200Y-318619047D02*
X294554819Y-318523809D01*
X294554819Y-318523809D02*
X294554819Y-318428571D01*
X294554819Y-318428571D02*
X294507200Y-318333333D01*
X294507200Y-318333333D02*
X294459580Y-318285714D01*
X294459580Y-318285714D02*
X294364342Y-318238095D01*
X294364342Y-318238095D02*
X294173866Y-318190476D01*
X294173866Y-318190476D02*
X293935771Y-318190476D01*
X293935771Y-318190476D02*
X293745295Y-318238095D01*
X293745295Y-318238095D02*
X293650057Y-318285714D01*
X293650057Y-318285714D02*
X293602438Y-318333333D01*
X293602438Y-318333333D02*
X293554819Y-318428571D01*
X176294198Y-318225122D02*
X176341818Y-318177503D01*
X176341818Y-318177503D02*
X176389437Y-318034646D01*
X176389437Y-318034646D02*
X176389437Y-317939408D01*
X176389437Y-317939408D02*
X176341818Y-317796551D01*
X176341818Y-317796551D02*
X176246579Y-317701313D01*
X176246579Y-317701313D02*
X176151341Y-317653694D01*
X176151341Y-317653694D02*
X175960865Y-317606075D01*
X175960865Y-317606075D02*
X175818008Y-317606075D01*
X175818008Y-317606075D02*
X175627532Y-317653694D01*
X175627532Y-317653694D02*
X175532294Y-317701313D01*
X175532294Y-317701313D02*
X175437056Y-317796551D01*
X175437056Y-317796551D02*
X175389437Y-317939408D01*
X175389437Y-317939408D02*
X175389437Y-318034646D01*
X175389437Y-318034646D02*
X175437056Y-318177503D01*
X175437056Y-318177503D02*
X175484675Y-318225122D01*
X175389437Y-318558456D02*
X175389437Y-319225122D01*
X175389437Y-319225122D02*
X176389437Y-318796551D01*
X270742319Y-316285714D02*
X269742319Y-316285714D01*
X269742319Y-316285714D02*
X269742319Y-316523809D01*
X269742319Y-316523809D02*
X269789938Y-316666666D01*
X269789938Y-316666666D02*
X269885176Y-316761904D01*
X269885176Y-316761904D02*
X269980414Y-316809523D01*
X269980414Y-316809523D02*
X270170890Y-316857142D01*
X270170890Y-316857142D02*
X270313747Y-316857142D01*
X270313747Y-316857142D02*
X270504223Y-316809523D01*
X270504223Y-316809523D02*
X270599461Y-316761904D01*
X270599461Y-316761904D02*
X270694700Y-316666666D01*
X270694700Y-316666666D02*
X270742319Y-316523809D01*
X270742319Y-316523809D02*
X270742319Y-316285714D01*
X269837557Y-317238095D02*
X269789938Y-317285714D01*
X269789938Y-317285714D02*
X269742319Y-317380952D01*
X269742319Y-317380952D02*
X269742319Y-317619047D01*
X269742319Y-317619047D02*
X269789938Y-317714285D01*
X269789938Y-317714285D02*
X269837557Y-317761904D01*
X269837557Y-317761904D02*
X269932795Y-317809523D01*
X269932795Y-317809523D02*
X270028033Y-317809523D01*
X270028033Y-317809523D02*
X270170890Y-317761904D01*
X270170890Y-317761904D02*
X270742319Y-317190476D01*
X270742319Y-317190476D02*
X270742319Y-317809523D01*
X269742319Y-318714285D02*
X269742319Y-318238095D01*
X269742319Y-318238095D02*
X270218509Y-318190476D01*
X270218509Y-318190476D02*
X270170890Y-318238095D01*
X270170890Y-318238095D02*
X270123271Y-318333333D01*
X270123271Y-318333333D02*
X270123271Y-318571428D01*
X270123271Y-318571428D02*
X270170890Y-318666666D01*
X270170890Y-318666666D02*
X270218509Y-318714285D01*
X270218509Y-318714285D02*
X270313747Y-318761904D01*
X270313747Y-318761904D02*
X270551842Y-318761904D01*
X270551842Y-318761904D02*
X270647080Y-318714285D01*
X270647080Y-318714285D02*
X270694700Y-318666666D01*
X270694700Y-318666666D02*
X270742319Y-318571428D01*
X270742319Y-318571428D02*
X270742319Y-318333333D01*
X270742319Y-318333333D02*
X270694700Y-318238095D01*
X270694700Y-318238095D02*
X270647080Y-318190476D01*
X246929819Y-278185714D02*
X245929819Y-278185714D01*
X245929819Y-278185714D02*
X245929819Y-278423809D01*
X245929819Y-278423809D02*
X245977438Y-278566666D01*
X245977438Y-278566666D02*
X246072676Y-278661904D01*
X246072676Y-278661904D02*
X246167914Y-278709523D01*
X246167914Y-278709523D02*
X246358390Y-278757142D01*
X246358390Y-278757142D02*
X246501247Y-278757142D01*
X246501247Y-278757142D02*
X246691723Y-278709523D01*
X246691723Y-278709523D02*
X246786961Y-278661904D01*
X246786961Y-278661904D02*
X246882200Y-278566666D01*
X246882200Y-278566666D02*
X246929819Y-278423809D01*
X246929819Y-278423809D02*
X246929819Y-278185714D01*
X246263152Y-279614285D02*
X246929819Y-279614285D01*
X245882200Y-279376190D02*
X246596485Y-279138095D01*
X246596485Y-279138095D02*
X246596485Y-279757142D01*
X245929819Y-280042857D02*
X245929819Y-280661904D01*
X245929819Y-280661904D02*
X246310771Y-280328571D01*
X246310771Y-280328571D02*
X246310771Y-280471428D01*
X246310771Y-280471428D02*
X246358390Y-280566666D01*
X246358390Y-280566666D02*
X246406009Y-280614285D01*
X246406009Y-280614285D02*
X246501247Y-280661904D01*
X246501247Y-280661904D02*
X246739342Y-280661904D01*
X246739342Y-280661904D02*
X246834580Y-280614285D01*
X246834580Y-280614285D02*
X246882200Y-280566666D01*
X246882200Y-280566666D02*
X246929819Y-280471428D01*
X246929819Y-280471428D02*
X246929819Y-280185714D01*
X246929819Y-280185714D02*
X246882200Y-280090476D01*
X246882200Y-280090476D02*
X246834580Y-280042857D01*
X256454819Y-297235714D02*
X255454819Y-297235714D01*
X255454819Y-297235714D02*
X255454819Y-297473809D01*
X255454819Y-297473809D02*
X255502438Y-297616666D01*
X255502438Y-297616666D02*
X255597676Y-297711904D01*
X255597676Y-297711904D02*
X255692914Y-297759523D01*
X255692914Y-297759523D02*
X255883390Y-297807142D01*
X255883390Y-297807142D02*
X256026247Y-297807142D01*
X256026247Y-297807142D02*
X256216723Y-297759523D01*
X256216723Y-297759523D02*
X256311961Y-297711904D01*
X256311961Y-297711904D02*
X256407200Y-297616666D01*
X256407200Y-297616666D02*
X256454819Y-297473809D01*
X256454819Y-297473809D02*
X256454819Y-297235714D01*
X255788152Y-298664285D02*
X256454819Y-298664285D01*
X255407200Y-298426190D02*
X256121485Y-298188095D01*
X256121485Y-298188095D02*
X256121485Y-298807142D01*
X255788152Y-299616666D02*
X256454819Y-299616666D01*
X255407200Y-299378571D02*
X256121485Y-299140476D01*
X256121485Y-299140476D02*
X256121485Y-299759523D01*
X156693830Y-321937083D02*
X156741450Y-321889464D01*
X156741450Y-321889464D02*
X156789069Y-321746607D01*
X156789069Y-321746607D02*
X156789069Y-321651369D01*
X156789069Y-321651369D02*
X156741450Y-321508512D01*
X156741450Y-321508512D02*
X156646211Y-321413274D01*
X156646211Y-321413274D02*
X156550973Y-321365655D01*
X156550973Y-321365655D02*
X156360497Y-321318036D01*
X156360497Y-321318036D02*
X156217640Y-321318036D01*
X156217640Y-321318036D02*
X156027164Y-321365655D01*
X156027164Y-321365655D02*
X155931926Y-321413274D01*
X155931926Y-321413274D02*
X155836688Y-321508512D01*
X155836688Y-321508512D02*
X155789069Y-321651369D01*
X155789069Y-321651369D02*
X155789069Y-321746607D01*
X155789069Y-321746607D02*
X155836688Y-321889464D01*
X155836688Y-321889464D02*
X155884307Y-321937083D01*
X156789069Y-322889464D02*
X156789069Y-322318036D01*
X156789069Y-322603750D02*
X155789069Y-322603750D01*
X155789069Y-322603750D02*
X155931926Y-322508512D01*
X155931926Y-322508512D02*
X156027164Y-322413274D01*
X156027164Y-322413274D02*
X156074783Y-322318036D01*
X204067319Y-259135714D02*
X203067319Y-259135714D01*
X203067319Y-259135714D02*
X203067319Y-259373809D01*
X203067319Y-259373809D02*
X203114938Y-259516666D01*
X203114938Y-259516666D02*
X203210176Y-259611904D01*
X203210176Y-259611904D02*
X203305414Y-259659523D01*
X203305414Y-259659523D02*
X203495890Y-259707142D01*
X203495890Y-259707142D02*
X203638747Y-259707142D01*
X203638747Y-259707142D02*
X203829223Y-259659523D01*
X203829223Y-259659523D02*
X203924461Y-259611904D01*
X203924461Y-259611904D02*
X204019700Y-259516666D01*
X204019700Y-259516666D02*
X204067319Y-259373809D01*
X204067319Y-259373809D02*
X204067319Y-259135714D01*
X203067319Y-260040476D02*
X203067319Y-260659523D01*
X203067319Y-260659523D02*
X203448271Y-260326190D01*
X203448271Y-260326190D02*
X203448271Y-260469047D01*
X203448271Y-260469047D02*
X203495890Y-260564285D01*
X203495890Y-260564285D02*
X203543509Y-260611904D01*
X203543509Y-260611904D02*
X203638747Y-260659523D01*
X203638747Y-260659523D02*
X203876842Y-260659523D01*
X203876842Y-260659523D02*
X203972080Y-260611904D01*
X203972080Y-260611904D02*
X204019700Y-260564285D01*
X204019700Y-260564285D02*
X204067319Y-260469047D01*
X204067319Y-260469047D02*
X204067319Y-260183333D01*
X204067319Y-260183333D02*
X204019700Y-260088095D01*
X204019700Y-260088095D02*
X203972080Y-260040476D01*
X203162557Y-261040476D02*
X203114938Y-261088095D01*
X203114938Y-261088095D02*
X203067319Y-261183333D01*
X203067319Y-261183333D02*
X203067319Y-261421428D01*
X203067319Y-261421428D02*
X203114938Y-261516666D01*
X203114938Y-261516666D02*
X203162557Y-261564285D01*
X203162557Y-261564285D02*
X203257795Y-261611904D01*
X203257795Y-261611904D02*
X203353033Y-261611904D01*
X203353033Y-261611904D02*
X203495890Y-261564285D01*
X203495890Y-261564285D02*
X204067319Y-260992857D01*
X204067319Y-260992857D02*
X204067319Y-261611904D01*
X337417319Y-297235714D02*
X336417319Y-297235714D01*
X336417319Y-297235714D02*
X336417319Y-297473809D01*
X336417319Y-297473809D02*
X336464938Y-297616666D01*
X336464938Y-297616666D02*
X336560176Y-297711904D01*
X336560176Y-297711904D02*
X336655414Y-297759523D01*
X336655414Y-297759523D02*
X336845890Y-297807142D01*
X336845890Y-297807142D02*
X336988747Y-297807142D01*
X336988747Y-297807142D02*
X337179223Y-297759523D01*
X337179223Y-297759523D02*
X337274461Y-297711904D01*
X337274461Y-297711904D02*
X337369700Y-297616666D01*
X337369700Y-297616666D02*
X337417319Y-297473809D01*
X337417319Y-297473809D02*
X337417319Y-297235714D01*
X336417319Y-298711904D02*
X336417319Y-298235714D01*
X336417319Y-298235714D02*
X336893509Y-298188095D01*
X336893509Y-298188095D02*
X336845890Y-298235714D01*
X336845890Y-298235714D02*
X336798271Y-298330952D01*
X336798271Y-298330952D02*
X336798271Y-298569047D01*
X336798271Y-298569047D02*
X336845890Y-298664285D01*
X336845890Y-298664285D02*
X336893509Y-298711904D01*
X336893509Y-298711904D02*
X336988747Y-298759523D01*
X336988747Y-298759523D02*
X337226842Y-298759523D01*
X337226842Y-298759523D02*
X337322080Y-298711904D01*
X337322080Y-298711904D02*
X337369700Y-298664285D01*
X337369700Y-298664285D02*
X337417319Y-298569047D01*
X337417319Y-298569047D02*
X337417319Y-298330952D01*
X337417319Y-298330952D02*
X337369700Y-298235714D01*
X337369700Y-298235714D02*
X337322080Y-298188095D01*
X336845890Y-299330952D02*
X336798271Y-299235714D01*
X336798271Y-299235714D02*
X336750652Y-299188095D01*
X336750652Y-299188095D02*
X336655414Y-299140476D01*
X336655414Y-299140476D02*
X336607795Y-299140476D01*
X336607795Y-299140476D02*
X336512557Y-299188095D01*
X336512557Y-299188095D02*
X336464938Y-299235714D01*
X336464938Y-299235714D02*
X336417319Y-299330952D01*
X336417319Y-299330952D02*
X336417319Y-299521428D01*
X336417319Y-299521428D02*
X336464938Y-299616666D01*
X336464938Y-299616666D02*
X336512557Y-299664285D01*
X336512557Y-299664285D02*
X336607795Y-299711904D01*
X336607795Y-299711904D02*
X336655414Y-299711904D01*
X336655414Y-299711904D02*
X336750652Y-299664285D01*
X336750652Y-299664285D02*
X336798271Y-299616666D01*
X336798271Y-299616666D02*
X336845890Y-299521428D01*
X336845890Y-299521428D02*
X336845890Y-299330952D01*
X336845890Y-299330952D02*
X336893509Y-299235714D01*
X336893509Y-299235714D02*
X336941128Y-299188095D01*
X336941128Y-299188095D02*
X337036366Y-299140476D01*
X337036366Y-299140476D02*
X337226842Y-299140476D01*
X337226842Y-299140476D02*
X337322080Y-299188095D01*
X337322080Y-299188095D02*
X337369700Y-299235714D01*
X337369700Y-299235714D02*
X337417319Y-299330952D01*
X337417319Y-299330952D02*
X337417319Y-299521428D01*
X337417319Y-299521428D02*
X337369700Y-299616666D01*
X337369700Y-299616666D02*
X337322080Y-299664285D01*
X337322080Y-299664285D02*
X337226842Y-299711904D01*
X337226842Y-299711904D02*
X337036366Y-299711904D01*
X337036366Y-299711904D02*
X336941128Y-299664285D01*
X336941128Y-299664285D02*
X336893509Y-299616666D01*
X336893509Y-299616666D02*
X336845890Y-299521428D01*
X304079819Y-278185714D02*
X303079819Y-278185714D01*
X303079819Y-278185714D02*
X303079819Y-278423809D01*
X303079819Y-278423809D02*
X303127438Y-278566666D01*
X303127438Y-278566666D02*
X303222676Y-278661904D01*
X303222676Y-278661904D02*
X303317914Y-278709523D01*
X303317914Y-278709523D02*
X303508390Y-278757142D01*
X303508390Y-278757142D02*
X303651247Y-278757142D01*
X303651247Y-278757142D02*
X303841723Y-278709523D01*
X303841723Y-278709523D02*
X303936961Y-278661904D01*
X303936961Y-278661904D02*
X304032200Y-278566666D01*
X304032200Y-278566666D02*
X304079819Y-278423809D01*
X304079819Y-278423809D02*
X304079819Y-278185714D01*
X303079819Y-279661904D02*
X303079819Y-279185714D01*
X303079819Y-279185714D02*
X303556009Y-279138095D01*
X303556009Y-279138095D02*
X303508390Y-279185714D01*
X303508390Y-279185714D02*
X303460771Y-279280952D01*
X303460771Y-279280952D02*
X303460771Y-279519047D01*
X303460771Y-279519047D02*
X303508390Y-279614285D01*
X303508390Y-279614285D02*
X303556009Y-279661904D01*
X303556009Y-279661904D02*
X303651247Y-279709523D01*
X303651247Y-279709523D02*
X303889342Y-279709523D01*
X303889342Y-279709523D02*
X303984580Y-279661904D01*
X303984580Y-279661904D02*
X304032200Y-279614285D01*
X304032200Y-279614285D02*
X304079819Y-279519047D01*
X304079819Y-279519047D02*
X304079819Y-279280952D01*
X304079819Y-279280952D02*
X304032200Y-279185714D01*
X304032200Y-279185714D02*
X303984580Y-279138095D01*
X303079819Y-280042857D02*
X303079819Y-280709523D01*
X303079819Y-280709523D02*
X304079819Y-280280952D01*
X289728819Y-240085714D02*
X288728819Y-240085714D01*
X288728819Y-240085714D02*
X288728819Y-240323809D01*
X288728819Y-240323809D02*
X288776438Y-240466666D01*
X288776438Y-240466666D02*
X288871676Y-240561904D01*
X288871676Y-240561904D02*
X288966914Y-240609523D01*
X288966914Y-240609523D02*
X289157390Y-240657142D01*
X289157390Y-240657142D02*
X289300247Y-240657142D01*
X289300247Y-240657142D02*
X289490723Y-240609523D01*
X289490723Y-240609523D02*
X289585961Y-240561904D01*
X289585961Y-240561904D02*
X289681200Y-240466666D01*
X289681200Y-240466666D02*
X289728819Y-240323809D01*
X289728819Y-240323809D02*
X289728819Y-240085714D01*
X288728819Y-241561904D02*
X288728819Y-241085714D01*
X288728819Y-241085714D02*
X289205009Y-241038095D01*
X289205009Y-241038095D02*
X289157390Y-241085714D01*
X289157390Y-241085714D02*
X289109771Y-241180952D01*
X289109771Y-241180952D02*
X289109771Y-241419047D01*
X289109771Y-241419047D02*
X289157390Y-241514285D01*
X289157390Y-241514285D02*
X289205009Y-241561904D01*
X289205009Y-241561904D02*
X289300247Y-241609523D01*
X289300247Y-241609523D02*
X289538342Y-241609523D01*
X289538342Y-241609523D02*
X289633580Y-241561904D01*
X289633580Y-241561904D02*
X289681200Y-241514285D01*
X289681200Y-241514285D02*
X289728819Y-241419047D01*
X289728819Y-241419047D02*
X289728819Y-241180952D01*
X289728819Y-241180952D02*
X289681200Y-241085714D01*
X289681200Y-241085714D02*
X289633580Y-241038095D01*
X288728819Y-242514285D02*
X288728819Y-242038095D01*
X288728819Y-242038095D02*
X289205009Y-241990476D01*
X289205009Y-241990476D02*
X289157390Y-242038095D01*
X289157390Y-242038095D02*
X289109771Y-242133333D01*
X289109771Y-242133333D02*
X289109771Y-242371428D01*
X289109771Y-242371428D02*
X289157390Y-242466666D01*
X289157390Y-242466666D02*
X289205009Y-242514285D01*
X289205009Y-242514285D02*
X289300247Y-242561904D01*
X289300247Y-242561904D02*
X289538342Y-242561904D01*
X289538342Y-242561904D02*
X289633580Y-242514285D01*
X289633580Y-242514285D02*
X289681200Y-242466666D01*
X289681200Y-242466666D02*
X289728819Y-242371428D01*
X289728819Y-242371428D02*
X289728819Y-242133333D01*
X289728819Y-242133333D02*
X289681200Y-242038095D01*
X289681200Y-242038095D02*
X289633580Y-241990476D01*
X136932200Y-312737667D02*
X136979819Y-312880524D01*
X136979819Y-312880524D02*
X136979819Y-313118619D01*
X136979819Y-313118619D02*
X136932200Y-313213857D01*
X136932200Y-313213857D02*
X136884580Y-313261476D01*
X136884580Y-313261476D02*
X136789342Y-313309095D01*
X136789342Y-313309095D02*
X136694104Y-313309095D01*
X136694104Y-313309095D02*
X136598866Y-313261476D01*
X136598866Y-313261476D02*
X136551247Y-313213857D01*
X136551247Y-313213857D02*
X136503628Y-313118619D01*
X136503628Y-313118619D02*
X136456009Y-312928143D01*
X136456009Y-312928143D02*
X136408390Y-312832905D01*
X136408390Y-312832905D02*
X136360771Y-312785286D01*
X136360771Y-312785286D02*
X136265533Y-312737667D01*
X136265533Y-312737667D02*
X136170295Y-312737667D01*
X136170295Y-312737667D02*
X136075057Y-312785286D01*
X136075057Y-312785286D02*
X136027438Y-312832905D01*
X136027438Y-312832905D02*
X135979819Y-312928143D01*
X135979819Y-312928143D02*
X135979819Y-313166238D01*
X135979819Y-313166238D02*
X136027438Y-313309095D01*
X135979819Y-313642429D02*
X136979819Y-313880524D01*
X136979819Y-313880524D02*
X136265533Y-314071000D01*
X136265533Y-314071000D02*
X136979819Y-314261476D01*
X136979819Y-314261476D02*
X135979819Y-314499572D01*
X136979819Y-315404333D02*
X136979819Y-314832905D01*
X136979819Y-315118619D02*
X135979819Y-315118619D01*
X135979819Y-315118619D02*
X136122676Y-315023381D01*
X136122676Y-315023381D02*
X136217914Y-314928143D01*
X136217914Y-314928143D02*
X136265533Y-314832905D01*
X180254819Y-297235714D02*
X179254819Y-297235714D01*
X179254819Y-297235714D02*
X179254819Y-297473809D01*
X179254819Y-297473809D02*
X179302438Y-297616666D01*
X179302438Y-297616666D02*
X179397676Y-297711904D01*
X179397676Y-297711904D02*
X179492914Y-297759523D01*
X179492914Y-297759523D02*
X179683390Y-297807142D01*
X179683390Y-297807142D02*
X179826247Y-297807142D01*
X179826247Y-297807142D02*
X180016723Y-297759523D01*
X180016723Y-297759523D02*
X180111961Y-297711904D01*
X180111961Y-297711904D02*
X180207200Y-297616666D01*
X180207200Y-297616666D02*
X180254819Y-297473809D01*
X180254819Y-297473809D02*
X180254819Y-297235714D01*
X179350057Y-298188095D02*
X179302438Y-298235714D01*
X179302438Y-298235714D02*
X179254819Y-298330952D01*
X179254819Y-298330952D02*
X179254819Y-298569047D01*
X179254819Y-298569047D02*
X179302438Y-298664285D01*
X179302438Y-298664285D02*
X179350057Y-298711904D01*
X179350057Y-298711904D02*
X179445295Y-298759523D01*
X179445295Y-298759523D02*
X179540533Y-298759523D01*
X179540533Y-298759523D02*
X179683390Y-298711904D01*
X179683390Y-298711904D02*
X180254819Y-298140476D01*
X180254819Y-298140476D02*
X180254819Y-298759523D01*
X179588152Y-299616666D02*
X180254819Y-299616666D01*
X179207200Y-299378571D02*
X179921485Y-299140476D01*
X179921485Y-299140476D02*
X179921485Y-299759523D01*
X132629819Y-278185714D02*
X131629819Y-278185714D01*
X131629819Y-278185714D02*
X131629819Y-278423809D01*
X131629819Y-278423809D02*
X131677438Y-278566666D01*
X131677438Y-278566666D02*
X131772676Y-278661904D01*
X131772676Y-278661904D02*
X131867914Y-278709523D01*
X131867914Y-278709523D02*
X132058390Y-278757142D01*
X132058390Y-278757142D02*
X132201247Y-278757142D01*
X132201247Y-278757142D02*
X132391723Y-278709523D01*
X132391723Y-278709523D02*
X132486961Y-278661904D01*
X132486961Y-278661904D02*
X132582200Y-278566666D01*
X132582200Y-278566666D02*
X132629819Y-278423809D01*
X132629819Y-278423809D02*
X132629819Y-278185714D01*
X132629819Y-279709523D02*
X132629819Y-279138095D01*
X132629819Y-279423809D02*
X131629819Y-279423809D01*
X131629819Y-279423809D02*
X131772676Y-279328571D01*
X131772676Y-279328571D02*
X131867914Y-279233333D01*
X131867914Y-279233333D02*
X131915533Y-279138095D01*
X131629819Y-280042857D02*
X131629819Y-280661904D01*
X131629819Y-280661904D02*
X132010771Y-280328571D01*
X132010771Y-280328571D02*
X132010771Y-280471428D01*
X132010771Y-280471428D02*
X132058390Y-280566666D01*
X132058390Y-280566666D02*
X132106009Y-280614285D01*
X132106009Y-280614285D02*
X132201247Y-280661904D01*
X132201247Y-280661904D02*
X132439342Y-280661904D01*
X132439342Y-280661904D02*
X132534580Y-280614285D01*
X132534580Y-280614285D02*
X132582200Y-280566666D01*
X132582200Y-280566666D02*
X132629819Y-280471428D01*
X132629819Y-280471428D02*
X132629819Y-280185714D01*
X132629819Y-280185714D02*
X132582200Y-280090476D01*
X132582200Y-280090476D02*
X132534580Y-280042857D01*
X108817319Y-259611905D02*
X107817319Y-259611905D01*
X107817319Y-259611905D02*
X107817319Y-259850000D01*
X107817319Y-259850000D02*
X107864938Y-259992857D01*
X107864938Y-259992857D02*
X107960176Y-260088095D01*
X107960176Y-260088095D02*
X108055414Y-260135714D01*
X108055414Y-260135714D02*
X108245890Y-260183333D01*
X108245890Y-260183333D02*
X108388747Y-260183333D01*
X108388747Y-260183333D02*
X108579223Y-260135714D01*
X108579223Y-260135714D02*
X108674461Y-260088095D01*
X108674461Y-260088095D02*
X108769700Y-259992857D01*
X108769700Y-259992857D02*
X108817319Y-259850000D01*
X108817319Y-259850000D02*
X108817319Y-259611905D01*
X107817319Y-260516667D02*
X107817319Y-261183333D01*
X107817319Y-261183333D02*
X108817319Y-260754762D01*
X374723569Y-259135714D02*
X373723569Y-259135714D01*
X373723569Y-259135714D02*
X373723569Y-259373809D01*
X373723569Y-259373809D02*
X373771188Y-259516666D01*
X373771188Y-259516666D02*
X373866426Y-259611904D01*
X373866426Y-259611904D02*
X373961664Y-259659523D01*
X373961664Y-259659523D02*
X374152140Y-259707142D01*
X374152140Y-259707142D02*
X374294997Y-259707142D01*
X374294997Y-259707142D02*
X374485473Y-259659523D01*
X374485473Y-259659523D02*
X374580711Y-259611904D01*
X374580711Y-259611904D02*
X374675950Y-259516666D01*
X374675950Y-259516666D02*
X374723569Y-259373809D01*
X374723569Y-259373809D02*
X374723569Y-259135714D01*
X373723569Y-260564285D02*
X373723569Y-260373809D01*
X373723569Y-260373809D02*
X373771188Y-260278571D01*
X373771188Y-260278571D02*
X373818807Y-260230952D01*
X373818807Y-260230952D02*
X373961664Y-260135714D01*
X373961664Y-260135714D02*
X374152140Y-260088095D01*
X374152140Y-260088095D02*
X374533092Y-260088095D01*
X374533092Y-260088095D02*
X374628330Y-260135714D01*
X374628330Y-260135714D02*
X374675950Y-260183333D01*
X374675950Y-260183333D02*
X374723569Y-260278571D01*
X374723569Y-260278571D02*
X374723569Y-260469047D01*
X374723569Y-260469047D02*
X374675950Y-260564285D01*
X374675950Y-260564285D02*
X374628330Y-260611904D01*
X374628330Y-260611904D02*
X374533092Y-260659523D01*
X374533092Y-260659523D02*
X374294997Y-260659523D01*
X374294997Y-260659523D02*
X374199759Y-260611904D01*
X374199759Y-260611904D02*
X374152140Y-260564285D01*
X374152140Y-260564285D02*
X374104521Y-260469047D01*
X374104521Y-260469047D02*
X374104521Y-260278571D01*
X374104521Y-260278571D02*
X374152140Y-260183333D01*
X374152140Y-260183333D02*
X374199759Y-260135714D01*
X374199759Y-260135714D02*
X374294997Y-260088095D01*
X374152140Y-261230952D02*
X374104521Y-261135714D01*
X374104521Y-261135714D02*
X374056902Y-261088095D01*
X374056902Y-261088095D02*
X373961664Y-261040476D01*
X373961664Y-261040476D02*
X373914045Y-261040476D01*
X373914045Y-261040476D02*
X373818807Y-261088095D01*
X373818807Y-261088095D02*
X373771188Y-261135714D01*
X373771188Y-261135714D02*
X373723569Y-261230952D01*
X373723569Y-261230952D02*
X373723569Y-261421428D01*
X373723569Y-261421428D02*
X373771188Y-261516666D01*
X373771188Y-261516666D02*
X373818807Y-261564285D01*
X373818807Y-261564285D02*
X373914045Y-261611904D01*
X373914045Y-261611904D02*
X373961664Y-261611904D01*
X373961664Y-261611904D02*
X374056902Y-261564285D01*
X374056902Y-261564285D02*
X374104521Y-261516666D01*
X374104521Y-261516666D02*
X374152140Y-261421428D01*
X374152140Y-261421428D02*
X374152140Y-261230952D01*
X374152140Y-261230952D02*
X374199759Y-261135714D01*
X374199759Y-261135714D02*
X374247378Y-261088095D01*
X374247378Y-261088095D02*
X374342616Y-261040476D01*
X374342616Y-261040476D02*
X374533092Y-261040476D01*
X374533092Y-261040476D02*
X374628330Y-261088095D01*
X374628330Y-261088095D02*
X374675950Y-261135714D01*
X374675950Y-261135714D02*
X374723569Y-261230952D01*
X374723569Y-261230952D02*
X374723569Y-261421428D01*
X374723569Y-261421428D02*
X374675950Y-261516666D01*
X374675950Y-261516666D02*
X374628330Y-261564285D01*
X374628330Y-261564285D02*
X374533092Y-261611904D01*
X374533092Y-261611904D02*
X374342616Y-261611904D01*
X374342616Y-261611904D02*
X374247378Y-261564285D01*
X374247378Y-261564285D02*
X374199759Y-261516666D01*
X374199759Y-261516666D02*
X374152140Y-261421428D01*
X154979666Y-303352580D02*
X155027285Y-303400200D01*
X155027285Y-303400200D02*
X155170142Y-303447819D01*
X155170142Y-303447819D02*
X155265380Y-303447819D01*
X155265380Y-303447819D02*
X155408237Y-303400200D01*
X155408237Y-303400200D02*
X155503475Y-303304961D01*
X155503475Y-303304961D02*
X155551094Y-303209723D01*
X155551094Y-303209723D02*
X155598713Y-303019247D01*
X155598713Y-303019247D02*
X155598713Y-302876390D01*
X155598713Y-302876390D02*
X155551094Y-302685914D01*
X155551094Y-302685914D02*
X155503475Y-302590676D01*
X155503475Y-302590676D02*
X155408237Y-302495438D01*
X155408237Y-302495438D02*
X155265380Y-302447819D01*
X155265380Y-302447819D02*
X155170142Y-302447819D01*
X155170142Y-302447819D02*
X155027285Y-302495438D01*
X155027285Y-302495438D02*
X154979666Y-302543057D01*
X154074904Y-302447819D02*
X154551094Y-302447819D01*
X154551094Y-302447819D02*
X154598713Y-302924009D01*
X154598713Y-302924009D02*
X154551094Y-302876390D01*
X154551094Y-302876390D02*
X154455856Y-302828771D01*
X154455856Y-302828771D02*
X154217761Y-302828771D01*
X154217761Y-302828771D02*
X154122523Y-302876390D01*
X154122523Y-302876390D02*
X154074904Y-302924009D01*
X154074904Y-302924009D02*
X154027285Y-303019247D01*
X154027285Y-303019247D02*
X154027285Y-303257342D01*
X154027285Y-303257342D02*
X154074904Y-303352580D01*
X154074904Y-303352580D02*
X154122523Y-303400200D01*
X154122523Y-303400200D02*
X154217761Y-303447819D01*
X154217761Y-303447819D02*
X154455856Y-303447819D01*
X154455856Y-303447819D02*
X154551094Y-303400200D01*
X154551094Y-303400200D02*
X154598713Y-303352580D01*
X189779819Y-278185714D02*
X188779819Y-278185714D01*
X188779819Y-278185714D02*
X188779819Y-278423809D01*
X188779819Y-278423809D02*
X188827438Y-278566666D01*
X188827438Y-278566666D02*
X188922676Y-278661904D01*
X188922676Y-278661904D02*
X189017914Y-278709523D01*
X189017914Y-278709523D02*
X189208390Y-278757142D01*
X189208390Y-278757142D02*
X189351247Y-278757142D01*
X189351247Y-278757142D02*
X189541723Y-278709523D01*
X189541723Y-278709523D02*
X189636961Y-278661904D01*
X189636961Y-278661904D02*
X189732200Y-278566666D01*
X189732200Y-278566666D02*
X189779819Y-278423809D01*
X189779819Y-278423809D02*
X189779819Y-278185714D01*
X188875057Y-279138095D02*
X188827438Y-279185714D01*
X188827438Y-279185714D02*
X188779819Y-279280952D01*
X188779819Y-279280952D02*
X188779819Y-279519047D01*
X188779819Y-279519047D02*
X188827438Y-279614285D01*
X188827438Y-279614285D02*
X188875057Y-279661904D01*
X188875057Y-279661904D02*
X188970295Y-279709523D01*
X188970295Y-279709523D02*
X189065533Y-279709523D01*
X189065533Y-279709523D02*
X189208390Y-279661904D01*
X189208390Y-279661904D02*
X189779819Y-279090476D01*
X189779819Y-279090476D02*
X189779819Y-279709523D01*
X189208390Y-280280952D02*
X189160771Y-280185714D01*
X189160771Y-280185714D02*
X189113152Y-280138095D01*
X189113152Y-280138095D02*
X189017914Y-280090476D01*
X189017914Y-280090476D02*
X188970295Y-280090476D01*
X188970295Y-280090476D02*
X188875057Y-280138095D01*
X188875057Y-280138095D02*
X188827438Y-280185714D01*
X188827438Y-280185714D02*
X188779819Y-280280952D01*
X188779819Y-280280952D02*
X188779819Y-280471428D01*
X188779819Y-280471428D02*
X188827438Y-280566666D01*
X188827438Y-280566666D02*
X188875057Y-280614285D01*
X188875057Y-280614285D02*
X188970295Y-280661904D01*
X188970295Y-280661904D02*
X189017914Y-280661904D01*
X189017914Y-280661904D02*
X189113152Y-280614285D01*
X189113152Y-280614285D02*
X189160771Y-280566666D01*
X189160771Y-280566666D02*
X189208390Y-280471428D01*
X189208390Y-280471428D02*
X189208390Y-280280952D01*
X189208390Y-280280952D02*
X189256009Y-280185714D01*
X189256009Y-280185714D02*
X189303628Y-280138095D01*
X189303628Y-280138095D02*
X189398866Y-280090476D01*
X189398866Y-280090476D02*
X189589342Y-280090476D01*
X189589342Y-280090476D02*
X189684580Y-280138095D01*
X189684580Y-280138095D02*
X189732200Y-280185714D01*
X189732200Y-280185714D02*
X189779819Y-280280952D01*
X189779819Y-280280952D02*
X189779819Y-280471428D01*
X189779819Y-280471428D02*
X189732200Y-280566666D01*
X189732200Y-280566666D02*
X189684580Y-280614285D01*
X189684580Y-280614285D02*
X189589342Y-280661904D01*
X189589342Y-280661904D02*
X189398866Y-280661904D01*
X189398866Y-280661904D02*
X189303628Y-280614285D01*
X189303628Y-280614285D02*
X189256009Y-280566666D01*
X189256009Y-280566666D02*
X189208390Y-280471428D01*
X275504819Y-297235714D02*
X274504819Y-297235714D01*
X274504819Y-297235714D02*
X274504819Y-297473809D01*
X274504819Y-297473809D02*
X274552438Y-297616666D01*
X274552438Y-297616666D02*
X274647676Y-297711904D01*
X274647676Y-297711904D02*
X274742914Y-297759523D01*
X274742914Y-297759523D02*
X274933390Y-297807142D01*
X274933390Y-297807142D02*
X275076247Y-297807142D01*
X275076247Y-297807142D02*
X275266723Y-297759523D01*
X275266723Y-297759523D02*
X275361961Y-297711904D01*
X275361961Y-297711904D02*
X275457200Y-297616666D01*
X275457200Y-297616666D02*
X275504819Y-297473809D01*
X275504819Y-297473809D02*
X275504819Y-297235714D01*
X274838152Y-298664285D02*
X275504819Y-298664285D01*
X274457200Y-298426190D02*
X275171485Y-298188095D01*
X275171485Y-298188095D02*
X275171485Y-298807142D01*
X275504819Y-299235714D02*
X275504819Y-299426190D01*
X275504819Y-299426190D02*
X275457200Y-299521428D01*
X275457200Y-299521428D02*
X275409580Y-299569047D01*
X275409580Y-299569047D02*
X275266723Y-299664285D01*
X275266723Y-299664285D02*
X275076247Y-299711904D01*
X275076247Y-299711904D02*
X274695295Y-299711904D01*
X274695295Y-299711904D02*
X274600057Y-299664285D01*
X274600057Y-299664285D02*
X274552438Y-299616666D01*
X274552438Y-299616666D02*
X274504819Y-299521428D01*
X274504819Y-299521428D02*
X274504819Y-299330952D01*
X274504819Y-299330952D02*
X274552438Y-299235714D01*
X274552438Y-299235714D02*
X274600057Y-299188095D01*
X274600057Y-299188095D02*
X274695295Y-299140476D01*
X274695295Y-299140476D02*
X274933390Y-299140476D01*
X274933390Y-299140476D02*
X275028628Y-299188095D01*
X275028628Y-299188095D02*
X275076247Y-299235714D01*
X275076247Y-299235714D02*
X275123866Y-299330952D01*
X275123866Y-299330952D02*
X275123866Y-299521428D01*
X275123866Y-299521428D02*
X275076247Y-299616666D01*
X275076247Y-299616666D02*
X275028628Y-299664285D01*
X275028628Y-299664285D02*
X274933390Y-299711904D01*
X171491819Y-272089714D02*
X170491819Y-272089714D01*
X170491819Y-272089714D02*
X170491819Y-272327809D01*
X170491819Y-272327809D02*
X170539438Y-272470666D01*
X170539438Y-272470666D02*
X170634676Y-272565904D01*
X170634676Y-272565904D02*
X170729914Y-272613523D01*
X170729914Y-272613523D02*
X170920390Y-272661142D01*
X170920390Y-272661142D02*
X171063247Y-272661142D01*
X171063247Y-272661142D02*
X171253723Y-272613523D01*
X171253723Y-272613523D02*
X171348961Y-272565904D01*
X171348961Y-272565904D02*
X171444200Y-272470666D01*
X171444200Y-272470666D02*
X171491819Y-272327809D01*
X171491819Y-272327809D02*
X171491819Y-272089714D01*
X170587057Y-273042095D02*
X170539438Y-273089714D01*
X170539438Y-273089714D02*
X170491819Y-273184952D01*
X170491819Y-273184952D02*
X170491819Y-273423047D01*
X170491819Y-273423047D02*
X170539438Y-273518285D01*
X170539438Y-273518285D02*
X170587057Y-273565904D01*
X170587057Y-273565904D02*
X170682295Y-273613523D01*
X170682295Y-273613523D02*
X170777533Y-273613523D01*
X170777533Y-273613523D02*
X170920390Y-273565904D01*
X170920390Y-273565904D02*
X171491819Y-272994476D01*
X171491819Y-272994476D02*
X171491819Y-273613523D01*
X170491819Y-273946857D02*
X170491819Y-274565904D01*
X170491819Y-274565904D02*
X170872771Y-274232571D01*
X170872771Y-274232571D02*
X170872771Y-274375428D01*
X170872771Y-274375428D02*
X170920390Y-274470666D01*
X170920390Y-274470666D02*
X170968009Y-274518285D01*
X170968009Y-274518285D02*
X171063247Y-274565904D01*
X171063247Y-274565904D02*
X171301342Y-274565904D01*
X171301342Y-274565904D02*
X171396580Y-274518285D01*
X171396580Y-274518285D02*
X171444200Y-274470666D01*
X171444200Y-274470666D02*
X171491819Y-274375428D01*
X171491819Y-274375428D02*
X171491819Y-274089714D01*
X171491819Y-274089714D02*
X171444200Y-273994476D01*
X171444200Y-273994476D02*
X171396580Y-273946857D01*
X223117319Y-259135714D02*
X222117319Y-259135714D01*
X222117319Y-259135714D02*
X222117319Y-259373809D01*
X222117319Y-259373809D02*
X222164938Y-259516666D01*
X222164938Y-259516666D02*
X222260176Y-259611904D01*
X222260176Y-259611904D02*
X222355414Y-259659523D01*
X222355414Y-259659523D02*
X222545890Y-259707142D01*
X222545890Y-259707142D02*
X222688747Y-259707142D01*
X222688747Y-259707142D02*
X222879223Y-259659523D01*
X222879223Y-259659523D02*
X222974461Y-259611904D01*
X222974461Y-259611904D02*
X223069700Y-259516666D01*
X223069700Y-259516666D02*
X223117319Y-259373809D01*
X223117319Y-259373809D02*
X223117319Y-259135714D01*
X222117319Y-260040476D02*
X222117319Y-260659523D01*
X222117319Y-260659523D02*
X222498271Y-260326190D01*
X222498271Y-260326190D02*
X222498271Y-260469047D01*
X222498271Y-260469047D02*
X222545890Y-260564285D01*
X222545890Y-260564285D02*
X222593509Y-260611904D01*
X222593509Y-260611904D02*
X222688747Y-260659523D01*
X222688747Y-260659523D02*
X222926842Y-260659523D01*
X222926842Y-260659523D02*
X223022080Y-260611904D01*
X223022080Y-260611904D02*
X223069700Y-260564285D01*
X223069700Y-260564285D02*
X223117319Y-260469047D01*
X223117319Y-260469047D02*
X223117319Y-260183333D01*
X223117319Y-260183333D02*
X223069700Y-260088095D01*
X223069700Y-260088095D02*
X223022080Y-260040476D01*
X222117319Y-260992857D02*
X222117319Y-261659523D01*
X222117319Y-261659523D02*
X223117319Y-261230952D01*
X236581319Y-247980665D02*
X237295604Y-247980665D01*
X237295604Y-247980665D02*
X237438461Y-247933046D01*
X237438461Y-247933046D02*
X237533700Y-247837808D01*
X237533700Y-247837808D02*
X237581319Y-247694951D01*
X237581319Y-247694951D02*
X237581319Y-247599713D01*
X237581319Y-248980665D02*
X237581319Y-248409237D01*
X237581319Y-248694951D02*
X236581319Y-248694951D01*
X236581319Y-248694951D02*
X236724176Y-248599713D01*
X236724176Y-248599713D02*
X236819414Y-248504475D01*
X236819414Y-248504475D02*
X236867033Y-248409237D01*
X208829819Y-278185714D02*
X207829819Y-278185714D01*
X207829819Y-278185714D02*
X207829819Y-278423809D01*
X207829819Y-278423809D02*
X207877438Y-278566666D01*
X207877438Y-278566666D02*
X207972676Y-278661904D01*
X207972676Y-278661904D02*
X208067914Y-278709523D01*
X208067914Y-278709523D02*
X208258390Y-278757142D01*
X208258390Y-278757142D02*
X208401247Y-278757142D01*
X208401247Y-278757142D02*
X208591723Y-278709523D01*
X208591723Y-278709523D02*
X208686961Y-278661904D01*
X208686961Y-278661904D02*
X208782200Y-278566666D01*
X208782200Y-278566666D02*
X208829819Y-278423809D01*
X208829819Y-278423809D02*
X208829819Y-278185714D01*
X207829819Y-279090476D02*
X207829819Y-279709523D01*
X207829819Y-279709523D02*
X208210771Y-279376190D01*
X208210771Y-279376190D02*
X208210771Y-279519047D01*
X208210771Y-279519047D02*
X208258390Y-279614285D01*
X208258390Y-279614285D02*
X208306009Y-279661904D01*
X208306009Y-279661904D02*
X208401247Y-279709523D01*
X208401247Y-279709523D02*
X208639342Y-279709523D01*
X208639342Y-279709523D02*
X208734580Y-279661904D01*
X208734580Y-279661904D02*
X208782200Y-279614285D01*
X208782200Y-279614285D02*
X208829819Y-279519047D01*
X208829819Y-279519047D02*
X208829819Y-279233333D01*
X208829819Y-279233333D02*
X208782200Y-279138095D01*
X208782200Y-279138095D02*
X208734580Y-279090476D01*
X207829819Y-280042857D02*
X207829819Y-280661904D01*
X207829819Y-280661904D02*
X208210771Y-280328571D01*
X208210771Y-280328571D02*
X208210771Y-280471428D01*
X208210771Y-280471428D02*
X208258390Y-280566666D01*
X208258390Y-280566666D02*
X208306009Y-280614285D01*
X208306009Y-280614285D02*
X208401247Y-280661904D01*
X208401247Y-280661904D02*
X208639342Y-280661904D01*
X208639342Y-280661904D02*
X208734580Y-280614285D01*
X208734580Y-280614285D02*
X208782200Y-280566666D01*
X208782200Y-280566666D02*
X208829819Y-280471428D01*
X208829819Y-280471428D02*
X208829819Y-280185714D01*
X208829819Y-280185714D02*
X208782200Y-280090476D01*
X208782200Y-280090476D02*
X208734580Y-280042857D01*
X308778819Y-240085714D02*
X307778819Y-240085714D01*
X307778819Y-240085714D02*
X307778819Y-240323809D01*
X307778819Y-240323809D02*
X307826438Y-240466666D01*
X307826438Y-240466666D02*
X307921676Y-240561904D01*
X307921676Y-240561904D02*
X308016914Y-240609523D01*
X308016914Y-240609523D02*
X308207390Y-240657142D01*
X308207390Y-240657142D02*
X308350247Y-240657142D01*
X308350247Y-240657142D02*
X308540723Y-240609523D01*
X308540723Y-240609523D02*
X308635961Y-240561904D01*
X308635961Y-240561904D02*
X308731200Y-240466666D01*
X308731200Y-240466666D02*
X308778819Y-240323809D01*
X308778819Y-240323809D02*
X308778819Y-240085714D01*
X307778819Y-241561904D02*
X307778819Y-241085714D01*
X307778819Y-241085714D02*
X308255009Y-241038095D01*
X308255009Y-241038095D02*
X308207390Y-241085714D01*
X308207390Y-241085714D02*
X308159771Y-241180952D01*
X308159771Y-241180952D02*
X308159771Y-241419047D01*
X308159771Y-241419047D02*
X308207390Y-241514285D01*
X308207390Y-241514285D02*
X308255009Y-241561904D01*
X308255009Y-241561904D02*
X308350247Y-241609523D01*
X308350247Y-241609523D02*
X308588342Y-241609523D01*
X308588342Y-241609523D02*
X308683580Y-241561904D01*
X308683580Y-241561904D02*
X308731200Y-241514285D01*
X308731200Y-241514285D02*
X308778819Y-241419047D01*
X308778819Y-241419047D02*
X308778819Y-241180952D01*
X308778819Y-241180952D02*
X308731200Y-241085714D01*
X308731200Y-241085714D02*
X308683580Y-241038095D01*
X308778819Y-242085714D02*
X308778819Y-242276190D01*
X308778819Y-242276190D02*
X308731200Y-242371428D01*
X308731200Y-242371428D02*
X308683580Y-242419047D01*
X308683580Y-242419047D02*
X308540723Y-242514285D01*
X308540723Y-242514285D02*
X308350247Y-242561904D01*
X308350247Y-242561904D02*
X307969295Y-242561904D01*
X307969295Y-242561904D02*
X307874057Y-242514285D01*
X307874057Y-242514285D02*
X307826438Y-242466666D01*
X307826438Y-242466666D02*
X307778819Y-242371428D01*
X307778819Y-242371428D02*
X307778819Y-242180952D01*
X307778819Y-242180952D02*
X307826438Y-242085714D01*
X307826438Y-242085714D02*
X307874057Y-242038095D01*
X307874057Y-242038095D02*
X307969295Y-241990476D01*
X307969295Y-241990476D02*
X308207390Y-241990476D01*
X308207390Y-241990476D02*
X308302628Y-242038095D01*
X308302628Y-242038095D02*
X308350247Y-242085714D01*
X308350247Y-242085714D02*
X308397866Y-242180952D01*
X308397866Y-242180952D02*
X308397866Y-242371428D01*
X308397866Y-242371428D02*
X308350247Y-242466666D01*
X308350247Y-242466666D02*
X308302628Y-242514285D01*
X308302628Y-242514285D02*
X308207390Y-242561904D01*
X356467319Y-297235714D02*
X355467319Y-297235714D01*
X355467319Y-297235714D02*
X355467319Y-297473809D01*
X355467319Y-297473809D02*
X355514938Y-297616666D01*
X355514938Y-297616666D02*
X355610176Y-297711904D01*
X355610176Y-297711904D02*
X355705414Y-297759523D01*
X355705414Y-297759523D02*
X355895890Y-297807142D01*
X355895890Y-297807142D02*
X356038747Y-297807142D01*
X356038747Y-297807142D02*
X356229223Y-297759523D01*
X356229223Y-297759523D02*
X356324461Y-297711904D01*
X356324461Y-297711904D02*
X356419700Y-297616666D01*
X356419700Y-297616666D02*
X356467319Y-297473809D01*
X356467319Y-297473809D02*
X356467319Y-297235714D01*
X355467319Y-298664285D02*
X355467319Y-298473809D01*
X355467319Y-298473809D02*
X355514938Y-298378571D01*
X355514938Y-298378571D02*
X355562557Y-298330952D01*
X355562557Y-298330952D02*
X355705414Y-298235714D01*
X355705414Y-298235714D02*
X355895890Y-298188095D01*
X355895890Y-298188095D02*
X356276842Y-298188095D01*
X356276842Y-298188095D02*
X356372080Y-298235714D01*
X356372080Y-298235714D02*
X356419700Y-298283333D01*
X356419700Y-298283333D02*
X356467319Y-298378571D01*
X356467319Y-298378571D02*
X356467319Y-298569047D01*
X356467319Y-298569047D02*
X356419700Y-298664285D01*
X356419700Y-298664285D02*
X356372080Y-298711904D01*
X356372080Y-298711904D02*
X356276842Y-298759523D01*
X356276842Y-298759523D02*
X356038747Y-298759523D01*
X356038747Y-298759523D02*
X355943509Y-298711904D01*
X355943509Y-298711904D02*
X355895890Y-298664285D01*
X355895890Y-298664285D02*
X355848271Y-298569047D01*
X355848271Y-298569047D02*
X355848271Y-298378571D01*
X355848271Y-298378571D02*
X355895890Y-298283333D01*
X355895890Y-298283333D02*
X355943509Y-298235714D01*
X355943509Y-298235714D02*
X356038747Y-298188095D01*
X355562557Y-299140476D02*
X355514938Y-299188095D01*
X355514938Y-299188095D02*
X355467319Y-299283333D01*
X355467319Y-299283333D02*
X355467319Y-299521428D01*
X355467319Y-299521428D02*
X355514938Y-299616666D01*
X355514938Y-299616666D02*
X355562557Y-299664285D01*
X355562557Y-299664285D02*
X355657795Y-299711904D01*
X355657795Y-299711904D02*
X355753033Y-299711904D01*
X355753033Y-299711904D02*
X355895890Y-299664285D01*
X355895890Y-299664285D02*
X356467319Y-299092857D01*
X356467319Y-299092857D02*
X356467319Y-299711904D01*
X227239666Y-245176568D02*
X227572999Y-244700377D01*
X227811094Y-245176568D02*
X227811094Y-244176568D01*
X227811094Y-244176568D02*
X227430142Y-244176568D01*
X227430142Y-244176568D02*
X227334904Y-244224187D01*
X227334904Y-244224187D02*
X227287285Y-244271806D01*
X227287285Y-244271806D02*
X227239666Y-244367044D01*
X227239666Y-244367044D02*
X227239666Y-244509901D01*
X227239666Y-244509901D02*
X227287285Y-244605139D01*
X227287285Y-244605139D02*
X227334904Y-244652758D01*
X227334904Y-244652758D02*
X227430142Y-244700377D01*
X227430142Y-244700377D02*
X227811094Y-244700377D01*
X226858713Y-244271806D02*
X226811094Y-244224187D01*
X226811094Y-244224187D02*
X226715856Y-244176568D01*
X226715856Y-244176568D02*
X226477761Y-244176568D01*
X226477761Y-244176568D02*
X226382523Y-244224187D01*
X226382523Y-244224187D02*
X226334904Y-244271806D01*
X226334904Y-244271806D02*
X226287285Y-244367044D01*
X226287285Y-244367044D02*
X226287285Y-244462282D01*
X226287285Y-244462282D02*
X226334904Y-244605139D01*
X226334904Y-244605139D02*
X226906332Y-245176568D01*
X226906332Y-245176568D02*
X226287285Y-245176568D01*
X165838166Y-324937080D02*
X165885785Y-324984700D01*
X165885785Y-324984700D02*
X166028642Y-325032319D01*
X166028642Y-325032319D02*
X166123880Y-325032319D01*
X166123880Y-325032319D02*
X166266737Y-324984700D01*
X166266737Y-324984700D02*
X166361975Y-324889461D01*
X166361975Y-324889461D02*
X166409594Y-324794223D01*
X166409594Y-324794223D02*
X166457213Y-324603747D01*
X166457213Y-324603747D02*
X166457213Y-324460890D01*
X166457213Y-324460890D02*
X166409594Y-324270414D01*
X166409594Y-324270414D02*
X166361975Y-324175176D01*
X166361975Y-324175176D02*
X166266737Y-324079938D01*
X166266737Y-324079938D02*
X166123880Y-324032319D01*
X166123880Y-324032319D02*
X166028642Y-324032319D01*
X166028642Y-324032319D02*
X165885785Y-324079938D01*
X165885785Y-324079938D02*
X165838166Y-324127557D01*
X164981023Y-324032319D02*
X165171499Y-324032319D01*
X165171499Y-324032319D02*
X165266737Y-324079938D01*
X165266737Y-324079938D02*
X165314356Y-324127557D01*
X165314356Y-324127557D02*
X165409594Y-324270414D01*
X165409594Y-324270414D02*
X165457213Y-324460890D01*
X165457213Y-324460890D02*
X165457213Y-324841842D01*
X165457213Y-324841842D02*
X165409594Y-324937080D01*
X165409594Y-324937080D02*
X165361975Y-324984700D01*
X165361975Y-324984700D02*
X165266737Y-325032319D01*
X165266737Y-325032319D02*
X165076261Y-325032319D01*
X165076261Y-325032319D02*
X164981023Y-324984700D01*
X164981023Y-324984700D02*
X164933404Y-324937080D01*
X164933404Y-324937080D02*
X164885785Y-324841842D01*
X164885785Y-324841842D02*
X164885785Y-324603747D01*
X164885785Y-324603747D02*
X164933404Y-324508509D01*
X164933404Y-324508509D02*
X164981023Y-324460890D01*
X164981023Y-324460890D02*
X165076261Y-324413271D01*
X165076261Y-324413271D02*
X165266737Y-324413271D01*
X165266737Y-324413271D02*
X165361975Y-324460890D01*
X165361975Y-324460890D02*
X165409594Y-324508509D01*
X165409594Y-324508509D02*
X165457213Y-324603747D01*
X85004819Y-316761905D02*
X84004819Y-316761905D01*
X84004819Y-316761905D02*
X84004819Y-317000000D01*
X84004819Y-317000000D02*
X84052438Y-317142857D01*
X84052438Y-317142857D02*
X84147676Y-317238095D01*
X84147676Y-317238095D02*
X84242914Y-317285714D01*
X84242914Y-317285714D02*
X84433390Y-317333333D01*
X84433390Y-317333333D02*
X84576247Y-317333333D01*
X84576247Y-317333333D02*
X84766723Y-317285714D01*
X84766723Y-317285714D02*
X84861961Y-317238095D01*
X84861961Y-317238095D02*
X84957200Y-317142857D01*
X84957200Y-317142857D02*
X85004819Y-317000000D01*
X85004819Y-317000000D02*
X85004819Y-316761905D01*
X84004819Y-318238095D02*
X84004819Y-317761905D01*
X84004819Y-317761905D02*
X84481009Y-317714286D01*
X84481009Y-317714286D02*
X84433390Y-317761905D01*
X84433390Y-317761905D02*
X84385771Y-317857143D01*
X84385771Y-317857143D02*
X84385771Y-318095238D01*
X84385771Y-318095238D02*
X84433390Y-318190476D01*
X84433390Y-318190476D02*
X84481009Y-318238095D01*
X84481009Y-318238095D02*
X84576247Y-318285714D01*
X84576247Y-318285714D02*
X84814342Y-318285714D01*
X84814342Y-318285714D02*
X84909580Y-318238095D01*
X84909580Y-318238095D02*
X84957200Y-318190476D01*
X84957200Y-318190476D02*
X85004819Y-318095238D01*
X85004819Y-318095238D02*
X85004819Y-317857143D01*
X85004819Y-317857143D02*
X84957200Y-317761905D01*
X84957200Y-317761905D02*
X84909580Y-317714286D01*
X318367319Y-316285714D02*
X317367319Y-316285714D01*
X317367319Y-316285714D02*
X317367319Y-316523809D01*
X317367319Y-316523809D02*
X317414938Y-316666666D01*
X317414938Y-316666666D02*
X317510176Y-316761904D01*
X317510176Y-316761904D02*
X317605414Y-316809523D01*
X317605414Y-316809523D02*
X317795890Y-316857142D01*
X317795890Y-316857142D02*
X317938747Y-316857142D01*
X317938747Y-316857142D02*
X318129223Y-316809523D01*
X318129223Y-316809523D02*
X318224461Y-316761904D01*
X318224461Y-316761904D02*
X318319700Y-316666666D01*
X318319700Y-316666666D02*
X318367319Y-316523809D01*
X318367319Y-316523809D02*
X318367319Y-316285714D01*
X317367319Y-317190476D02*
X317367319Y-317809523D01*
X317367319Y-317809523D02*
X317748271Y-317476190D01*
X317748271Y-317476190D02*
X317748271Y-317619047D01*
X317748271Y-317619047D02*
X317795890Y-317714285D01*
X317795890Y-317714285D02*
X317843509Y-317761904D01*
X317843509Y-317761904D02*
X317938747Y-317809523D01*
X317938747Y-317809523D02*
X318176842Y-317809523D01*
X318176842Y-317809523D02*
X318272080Y-317761904D01*
X318272080Y-317761904D02*
X318319700Y-317714285D01*
X318319700Y-317714285D02*
X318367319Y-317619047D01*
X318367319Y-317619047D02*
X318367319Y-317333333D01*
X318367319Y-317333333D02*
X318319700Y-317238095D01*
X318319700Y-317238095D02*
X318272080Y-317190476D01*
X317367319Y-318714285D02*
X317367319Y-318238095D01*
X317367319Y-318238095D02*
X317843509Y-318190476D01*
X317843509Y-318190476D02*
X317795890Y-318238095D01*
X317795890Y-318238095D02*
X317748271Y-318333333D01*
X317748271Y-318333333D02*
X317748271Y-318571428D01*
X317748271Y-318571428D02*
X317795890Y-318666666D01*
X317795890Y-318666666D02*
X317843509Y-318714285D01*
X317843509Y-318714285D02*
X317938747Y-318761904D01*
X317938747Y-318761904D02*
X318176842Y-318761904D01*
X318176842Y-318761904D02*
X318272080Y-318714285D01*
X318272080Y-318714285D02*
X318319700Y-318666666D01*
X318319700Y-318666666D02*
X318367319Y-318571428D01*
X318367319Y-318571428D02*
X318367319Y-318333333D01*
X318367319Y-318333333D02*
X318319700Y-318238095D01*
X318319700Y-318238095D02*
X318272080Y-318190476D01*
X113579819Y-278661905D02*
X112579819Y-278661905D01*
X112579819Y-278661905D02*
X112579819Y-278900000D01*
X112579819Y-278900000D02*
X112627438Y-279042857D01*
X112627438Y-279042857D02*
X112722676Y-279138095D01*
X112722676Y-279138095D02*
X112817914Y-279185714D01*
X112817914Y-279185714D02*
X113008390Y-279233333D01*
X113008390Y-279233333D02*
X113151247Y-279233333D01*
X113151247Y-279233333D02*
X113341723Y-279185714D01*
X113341723Y-279185714D02*
X113436961Y-279138095D01*
X113436961Y-279138095D02*
X113532200Y-279042857D01*
X113532200Y-279042857D02*
X113579819Y-278900000D01*
X113579819Y-278900000D02*
X113579819Y-278661905D01*
X113008390Y-279804762D02*
X112960771Y-279709524D01*
X112960771Y-279709524D02*
X112913152Y-279661905D01*
X112913152Y-279661905D02*
X112817914Y-279614286D01*
X112817914Y-279614286D02*
X112770295Y-279614286D01*
X112770295Y-279614286D02*
X112675057Y-279661905D01*
X112675057Y-279661905D02*
X112627438Y-279709524D01*
X112627438Y-279709524D02*
X112579819Y-279804762D01*
X112579819Y-279804762D02*
X112579819Y-279995238D01*
X112579819Y-279995238D02*
X112627438Y-280090476D01*
X112627438Y-280090476D02*
X112675057Y-280138095D01*
X112675057Y-280138095D02*
X112770295Y-280185714D01*
X112770295Y-280185714D02*
X112817914Y-280185714D01*
X112817914Y-280185714D02*
X112913152Y-280138095D01*
X112913152Y-280138095D02*
X112960771Y-280090476D01*
X112960771Y-280090476D02*
X113008390Y-279995238D01*
X113008390Y-279995238D02*
X113008390Y-279804762D01*
X113008390Y-279804762D02*
X113056009Y-279709524D01*
X113056009Y-279709524D02*
X113103628Y-279661905D01*
X113103628Y-279661905D02*
X113198866Y-279614286D01*
X113198866Y-279614286D02*
X113389342Y-279614286D01*
X113389342Y-279614286D02*
X113484580Y-279661905D01*
X113484580Y-279661905D02*
X113532200Y-279709524D01*
X113532200Y-279709524D02*
X113579819Y-279804762D01*
X113579819Y-279804762D02*
X113579819Y-279995238D01*
X113579819Y-279995238D02*
X113532200Y-280090476D01*
X113532200Y-280090476D02*
X113484580Y-280138095D01*
X113484580Y-280138095D02*
X113389342Y-280185714D01*
X113389342Y-280185714D02*
X113198866Y-280185714D01*
X113198866Y-280185714D02*
X113103628Y-280138095D01*
X113103628Y-280138095D02*
X113056009Y-280090476D01*
X113056009Y-280090476D02*
X113008390Y-279995238D01*
X150439285Y-304079819D02*
X150439285Y-303079819D01*
X150439285Y-303079819D02*
X150201190Y-303079819D01*
X150201190Y-303079819D02*
X150058333Y-303127438D01*
X150058333Y-303127438D02*
X149963095Y-303222676D01*
X149963095Y-303222676D02*
X149915476Y-303317914D01*
X149915476Y-303317914D02*
X149867857Y-303508390D01*
X149867857Y-303508390D02*
X149867857Y-303651247D01*
X149867857Y-303651247D02*
X149915476Y-303841723D01*
X149915476Y-303841723D02*
X149963095Y-303936961D01*
X149963095Y-303936961D02*
X150058333Y-304032200D01*
X150058333Y-304032200D02*
X150201190Y-304079819D01*
X150201190Y-304079819D02*
X150439285Y-304079819D01*
X148915476Y-304079819D02*
X149486904Y-304079819D01*
X149201190Y-304079819D02*
X149201190Y-303079819D01*
X149201190Y-303079819D02*
X149296428Y-303222676D01*
X149296428Y-303222676D02*
X149391666Y-303317914D01*
X149391666Y-303317914D02*
X149486904Y-303365533D01*
X148439285Y-304079819D02*
X148248809Y-304079819D01*
X148248809Y-304079819D02*
X148153571Y-304032200D01*
X148153571Y-304032200D02*
X148105952Y-303984580D01*
X148105952Y-303984580D02*
X148010714Y-303841723D01*
X148010714Y-303841723D02*
X147963095Y-303651247D01*
X147963095Y-303651247D02*
X147963095Y-303270295D01*
X147963095Y-303270295D02*
X148010714Y-303175057D01*
X148010714Y-303175057D02*
X148058333Y-303127438D01*
X148058333Y-303127438D02*
X148153571Y-303079819D01*
X148153571Y-303079819D02*
X148344047Y-303079819D01*
X148344047Y-303079819D02*
X148439285Y-303127438D01*
X148439285Y-303127438D02*
X148486904Y-303175057D01*
X148486904Y-303175057D02*
X148534523Y-303270295D01*
X148534523Y-303270295D02*
X148534523Y-303508390D01*
X148534523Y-303508390D02*
X148486904Y-303603628D01*
X148486904Y-303603628D02*
X148439285Y-303651247D01*
X148439285Y-303651247D02*
X148344047Y-303698866D01*
X148344047Y-303698866D02*
X148153571Y-303698866D01*
X148153571Y-303698866D02*
X148058333Y-303651247D01*
X148058333Y-303651247D02*
X148010714Y-303603628D01*
X148010714Y-303603628D02*
X147963095Y-303508390D01*
X154469166Y-312619830D02*
X154516785Y-312667450D01*
X154516785Y-312667450D02*
X154659642Y-312715069D01*
X154659642Y-312715069D02*
X154754880Y-312715069D01*
X154754880Y-312715069D02*
X154897737Y-312667450D01*
X154897737Y-312667450D02*
X154992975Y-312572211D01*
X154992975Y-312572211D02*
X155040594Y-312476973D01*
X155040594Y-312476973D02*
X155088213Y-312286497D01*
X155088213Y-312286497D02*
X155088213Y-312143640D01*
X155088213Y-312143640D02*
X155040594Y-311953164D01*
X155040594Y-311953164D02*
X154992975Y-311857926D01*
X154992975Y-311857926D02*
X154897737Y-311762688D01*
X154897737Y-311762688D02*
X154754880Y-311715069D01*
X154754880Y-311715069D02*
X154659642Y-311715069D01*
X154659642Y-311715069D02*
X154516785Y-311762688D01*
X154516785Y-311762688D02*
X154469166Y-311810307D01*
X154135832Y-311715069D02*
X153516785Y-311715069D01*
X153516785Y-311715069D02*
X153850118Y-312096021D01*
X153850118Y-312096021D02*
X153707261Y-312096021D01*
X153707261Y-312096021D02*
X153612023Y-312143640D01*
X153612023Y-312143640D02*
X153564404Y-312191259D01*
X153564404Y-312191259D02*
X153516785Y-312286497D01*
X153516785Y-312286497D02*
X153516785Y-312524592D01*
X153516785Y-312524592D02*
X153564404Y-312619830D01*
X153564404Y-312619830D02*
X153612023Y-312667450D01*
X153612023Y-312667450D02*
X153707261Y-312715069D01*
X153707261Y-312715069D02*
X153992975Y-312715069D01*
X153992975Y-312715069D02*
X154088213Y-312667450D01*
X154088213Y-312667450D02*
X154135832Y-312619830D01*
X156442319Y-240085714D02*
X155442319Y-240085714D01*
X155442319Y-240085714D02*
X155442319Y-240323809D01*
X155442319Y-240323809D02*
X155489938Y-240466666D01*
X155489938Y-240466666D02*
X155585176Y-240561904D01*
X155585176Y-240561904D02*
X155680414Y-240609523D01*
X155680414Y-240609523D02*
X155870890Y-240657142D01*
X155870890Y-240657142D02*
X156013747Y-240657142D01*
X156013747Y-240657142D02*
X156204223Y-240609523D01*
X156204223Y-240609523D02*
X156299461Y-240561904D01*
X156299461Y-240561904D02*
X156394700Y-240466666D01*
X156394700Y-240466666D02*
X156442319Y-240323809D01*
X156442319Y-240323809D02*
X156442319Y-240085714D01*
X155537557Y-241038095D02*
X155489938Y-241085714D01*
X155489938Y-241085714D02*
X155442319Y-241180952D01*
X155442319Y-241180952D02*
X155442319Y-241419047D01*
X155442319Y-241419047D02*
X155489938Y-241514285D01*
X155489938Y-241514285D02*
X155537557Y-241561904D01*
X155537557Y-241561904D02*
X155632795Y-241609523D01*
X155632795Y-241609523D02*
X155728033Y-241609523D01*
X155728033Y-241609523D02*
X155870890Y-241561904D01*
X155870890Y-241561904D02*
X156442319Y-240990476D01*
X156442319Y-240990476D02*
X156442319Y-241609523D01*
X156442319Y-242561904D02*
X156442319Y-241990476D01*
X156442319Y-242276190D02*
X155442319Y-242276190D01*
X155442319Y-242276190D02*
X155585176Y-242180952D01*
X155585176Y-242180952D02*
X155680414Y-242085714D01*
X155680414Y-242085714D02*
X155728033Y-241990476D01*
X151679819Y-278185714D02*
X150679819Y-278185714D01*
X150679819Y-278185714D02*
X150679819Y-278423809D01*
X150679819Y-278423809D02*
X150727438Y-278566666D01*
X150727438Y-278566666D02*
X150822676Y-278661904D01*
X150822676Y-278661904D02*
X150917914Y-278709523D01*
X150917914Y-278709523D02*
X151108390Y-278757142D01*
X151108390Y-278757142D02*
X151251247Y-278757142D01*
X151251247Y-278757142D02*
X151441723Y-278709523D01*
X151441723Y-278709523D02*
X151536961Y-278661904D01*
X151536961Y-278661904D02*
X151632200Y-278566666D01*
X151632200Y-278566666D02*
X151679819Y-278423809D01*
X151679819Y-278423809D02*
X151679819Y-278185714D01*
X151679819Y-279709523D02*
X151679819Y-279138095D01*
X151679819Y-279423809D02*
X150679819Y-279423809D01*
X150679819Y-279423809D02*
X150822676Y-279328571D01*
X150822676Y-279328571D02*
X150917914Y-279233333D01*
X150917914Y-279233333D02*
X150965533Y-279138095D01*
X151108390Y-280280952D02*
X151060771Y-280185714D01*
X151060771Y-280185714D02*
X151013152Y-280138095D01*
X151013152Y-280138095D02*
X150917914Y-280090476D01*
X150917914Y-280090476D02*
X150870295Y-280090476D01*
X150870295Y-280090476D02*
X150775057Y-280138095D01*
X150775057Y-280138095D02*
X150727438Y-280185714D01*
X150727438Y-280185714D02*
X150679819Y-280280952D01*
X150679819Y-280280952D02*
X150679819Y-280471428D01*
X150679819Y-280471428D02*
X150727438Y-280566666D01*
X150727438Y-280566666D02*
X150775057Y-280614285D01*
X150775057Y-280614285D02*
X150870295Y-280661904D01*
X150870295Y-280661904D02*
X150917914Y-280661904D01*
X150917914Y-280661904D02*
X151013152Y-280614285D01*
X151013152Y-280614285D02*
X151060771Y-280566666D01*
X151060771Y-280566666D02*
X151108390Y-280471428D01*
X151108390Y-280471428D02*
X151108390Y-280280952D01*
X151108390Y-280280952D02*
X151156009Y-280185714D01*
X151156009Y-280185714D02*
X151203628Y-280138095D01*
X151203628Y-280138095D02*
X151298866Y-280090476D01*
X151298866Y-280090476D02*
X151489342Y-280090476D01*
X151489342Y-280090476D02*
X151584580Y-280138095D01*
X151584580Y-280138095D02*
X151632200Y-280185714D01*
X151632200Y-280185714D02*
X151679819Y-280280952D01*
X151679819Y-280280952D02*
X151679819Y-280471428D01*
X151679819Y-280471428D02*
X151632200Y-280566666D01*
X151632200Y-280566666D02*
X151584580Y-280614285D01*
X151584580Y-280614285D02*
X151489342Y-280661904D01*
X151489342Y-280661904D02*
X151298866Y-280661904D01*
X151298866Y-280661904D02*
X151203628Y-280614285D01*
X151203628Y-280614285D02*
X151156009Y-280566666D01*
X151156009Y-280566666D02*
X151108390Y-280471428D01*
X175492319Y-240085714D02*
X174492319Y-240085714D01*
X174492319Y-240085714D02*
X174492319Y-240323809D01*
X174492319Y-240323809D02*
X174539938Y-240466666D01*
X174539938Y-240466666D02*
X174635176Y-240561904D01*
X174635176Y-240561904D02*
X174730414Y-240609523D01*
X174730414Y-240609523D02*
X174920890Y-240657142D01*
X174920890Y-240657142D02*
X175063747Y-240657142D01*
X175063747Y-240657142D02*
X175254223Y-240609523D01*
X175254223Y-240609523D02*
X175349461Y-240561904D01*
X175349461Y-240561904D02*
X175444700Y-240466666D01*
X175444700Y-240466666D02*
X175492319Y-240323809D01*
X175492319Y-240323809D02*
X175492319Y-240085714D01*
X174587557Y-241038095D02*
X174539938Y-241085714D01*
X174539938Y-241085714D02*
X174492319Y-241180952D01*
X174492319Y-241180952D02*
X174492319Y-241419047D01*
X174492319Y-241419047D02*
X174539938Y-241514285D01*
X174539938Y-241514285D02*
X174587557Y-241561904D01*
X174587557Y-241561904D02*
X174682795Y-241609523D01*
X174682795Y-241609523D02*
X174778033Y-241609523D01*
X174778033Y-241609523D02*
X174920890Y-241561904D01*
X174920890Y-241561904D02*
X175492319Y-240990476D01*
X175492319Y-240990476D02*
X175492319Y-241609523D01*
X174492319Y-242466666D02*
X174492319Y-242276190D01*
X174492319Y-242276190D02*
X174539938Y-242180952D01*
X174539938Y-242180952D02*
X174587557Y-242133333D01*
X174587557Y-242133333D02*
X174730414Y-242038095D01*
X174730414Y-242038095D02*
X174920890Y-241990476D01*
X174920890Y-241990476D02*
X175301842Y-241990476D01*
X175301842Y-241990476D02*
X175397080Y-242038095D01*
X175397080Y-242038095D02*
X175444700Y-242085714D01*
X175444700Y-242085714D02*
X175492319Y-242180952D01*
X175492319Y-242180952D02*
X175492319Y-242371428D01*
X175492319Y-242371428D02*
X175444700Y-242466666D01*
X175444700Y-242466666D02*
X175397080Y-242514285D01*
X175397080Y-242514285D02*
X175301842Y-242561904D01*
X175301842Y-242561904D02*
X175063747Y-242561904D01*
X175063747Y-242561904D02*
X174968509Y-242514285D01*
X174968509Y-242514285D02*
X174920890Y-242466666D01*
X174920890Y-242466666D02*
X174873271Y-242371428D01*
X174873271Y-242371428D02*
X174873271Y-242180952D01*
X174873271Y-242180952D02*
X174920890Y-242085714D01*
X174920890Y-242085714D02*
X174968509Y-242038095D01*
X174968509Y-242038095D02*
X175063747Y-241990476D01*
X285029819Y-278185714D02*
X284029819Y-278185714D01*
X284029819Y-278185714D02*
X284029819Y-278423809D01*
X284029819Y-278423809D02*
X284077438Y-278566666D01*
X284077438Y-278566666D02*
X284172676Y-278661904D01*
X284172676Y-278661904D02*
X284267914Y-278709523D01*
X284267914Y-278709523D02*
X284458390Y-278757142D01*
X284458390Y-278757142D02*
X284601247Y-278757142D01*
X284601247Y-278757142D02*
X284791723Y-278709523D01*
X284791723Y-278709523D02*
X284886961Y-278661904D01*
X284886961Y-278661904D02*
X284982200Y-278566666D01*
X284982200Y-278566666D02*
X285029819Y-278423809D01*
X285029819Y-278423809D02*
X285029819Y-278185714D01*
X284029819Y-279661904D02*
X284029819Y-279185714D01*
X284029819Y-279185714D02*
X284506009Y-279138095D01*
X284506009Y-279138095D02*
X284458390Y-279185714D01*
X284458390Y-279185714D02*
X284410771Y-279280952D01*
X284410771Y-279280952D02*
X284410771Y-279519047D01*
X284410771Y-279519047D02*
X284458390Y-279614285D01*
X284458390Y-279614285D02*
X284506009Y-279661904D01*
X284506009Y-279661904D02*
X284601247Y-279709523D01*
X284601247Y-279709523D02*
X284839342Y-279709523D01*
X284839342Y-279709523D02*
X284934580Y-279661904D01*
X284934580Y-279661904D02*
X284982200Y-279614285D01*
X284982200Y-279614285D02*
X285029819Y-279519047D01*
X285029819Y-279519047D02*
X285029819Y-279280952D01*
X285029819Y-279280952D02*
X284982200Y-279185714D01*
X284982200Y-279185714D02*
X284934580Y-279138095D01*
X284029819Y-280042857D02*
X284029819Y-280661904D01*
X284029819Y-280661904D02*
X284410771Y-280328571D01*
X284410771Y-280328571D02*
X284410771Y-280471428D01*
X284410771Y-280471428D02*
X284458390Y-280566666D01*
X284458390Y-280566666D02*
X284506009Y-280614285D01*
X284506009Y-280614285D02*
X284601247Y-280661904D01*
X284601247Y-280661904D02*
X284839342Y-280661904D01*
X284839342Y-280661904D02*
X284934580Y-280614285D01*
X284934580Y-280614285D02*
X284982200Y-280566666D01*
X284982200Y-280566666D02*
X285029819Y-280471428D01*
X285029819Y-280471428D02*
X285029819Y-280185714D01*
X285029819Y-280185714D02*
X284982200Y-280090476D01*
X284982200Y-280090476D02*
X284934580Y-280042857D01*
X194542319Y-240085714D02*
X193542319Y-240085714D01*
X193542319Y-240085714D02*
X193542319Y-240323809D01*
X193542319Y-240323809D02*
X193589938Y-240466666D01*
X193589938Y-240466666D02*
X193685176Y-240561904D01*
X193685176Y-240561904D02*
X193780414Y-240609523D01*
X193780414Y-240609523D02*
X193970890Y-240657142D01*
X193970890Y-240657142D02*
X194113747Y-240657142D01*
X194113747Y-240657142D02*
X194304223Y-240609523D01*
X194304223Y-240609523D02*
X194399461Y-240561904D01*
X194399461Y-240561904D02*
X194494700Y-240466666D01*
X194494700Y-240466666D02*
X194542319Y-240323809D01*
X194542319Y-240323809D02*
X194542319Y-240085714D01*
X193542319Y-240990476D02*
X193542319Y-241609523D01*
X193542319Y-241609523D02*
X193923271Y-241276190D01*
X193923271Y-241276190D02*
X193923271Y-241419047D01*
X193923271Y-241419047D02*
X193970890Y-241514285D01*
X193970890Y-241514285D02*
X194018509Y-241561904D01*
X194018509Y-241561904D02*
X194113747Y-241609523D01*
X194113747Y-241609523D02*
X194351842Y-241609523D01*
X194351842Y-241609523D02*
X194447080Y-241561904D01*
X194447080Y-241561904D02*
X194494700Y-241514285D01*
X194494700Y-241514285D02*
X194542319Y-241419047D01*
X194542319Y-241419047D02*
X194542319Y-241133333D01*
X194542319Y-241133333D02*
X194494700Y-241038095D01*
X194494700Y-241038095D02*
X194447080Y-240990476D01*
X194542319Y-242561904D02*
X194542319Y-241990476D01*
X194542319Y-242276190D02*
X193542319Y-242276190D01*
X193542319Y-242276190D02*
X193685176Y-242180952D01*
X193685176Y-242180952D02*
X193780414Y-242085714D01*
X193780414Y-242085714D02*
X193828033Y-241990476D01*
X246929819Y-316285714D02*
X245929819Y-316285714D01*
X245929819Y-316285714D02*
X245929819Y-316523809D01*
X245929819Y-316523809D02*
X245977438Y-316666666D01*
X245977438Y-316666666D02*
X246072676Y-316761904D01*
X246072676Y-316761904D02*
X246167914Y-316809523D01*
X246167914Y-316809523D02*
X246358390Y-316857142D01*
X246358390Y-316857142D02*
X246501247Y-316857142D01*
X246501247Y-316857142D02*
X246691723Y-316809523D01*
X246691723Y-316809523D02*
X246786961Y-316761904D01*
X246786961Y-316761904D02*
X246882200Y-316666666D01*
X246882200Y-316666666D02*
X246929819Y-316523809D01*
X246929819Y-316523809D02*
X246929819Y-316285714D01*
X246025057Y-317238095D02*
X245977438Y-317285714D01*
X245977438Y-317285714D02*
X245929819Y-317380952D01*
X245929819Y-317380952D02*
X245929819Y-317619047D01*
X245929819Y-317619047D02*
X245977438Y-317714285D01*
X245977438Y-317714285D02*
X246025057Y-317761904D01*
X246025057Y-317761904D02*
X246120295Y-317809523D01*
X246120295Y-317809523D02*
X246215533Y-317809523D01*
X246215533Y-317809523D02*
X246358390Y-317761904D01*
X246358390Y-317761904D02*
X246929819Y-317190476D01*
X246929819Y-317190476D02*
X246929819Y-317809523D01*
X245929819Y-318428571D02*
X245929819Y-318523809D01*
X245929819Y-318523809D02*
X245977438Y-318619047D01*
X245977438Y-318619047D02*
X246025057Y-318666666D01*
X246025057Y-318666666D02*
X246120295Y-318714285D01*
X246120295Y-318714285D02*
X246310771Y-318761904D01*
X246310771Y-318761904D02*
X246548866Y-318761904D01*
X246548866Y-318761904D02*
X246739342Y-318714285D01*
X246739342Y-318714285D02*
X246834580Y-318666666D01*
X246834580Y-318666666D02*
X246882200Y-318619047D01*
X246882200Y-318619047D02*
X246929819Y-318523809D01*
X246929819Y-318523809D02*
X246929819Y-318428571D01*
X246929819Y-318428571D02*
X246882200Y-318333333D01*
X246882200Y-318333333D02*
X246834580Y-318285714D01*
X246834580Y-318285714D02*
X246739342Y-318238095D01*
X246739342Y-318238095D02*
X246548866Y-318190476D01*
X246548866Y-318190476D02*
X246310771Y-318190476D01*
X246310771Y-318190476D02*
X246120295Y-318238095D01*
X246120295Y-318238095D02*
X246025057Y-318285714D01*
X246025057Y-318285714D02*
X245977438Y-318333333D01*
X245977438Y-318333333D02*
X245929819Y-318428571D01*
X104054819Y-297711905D02*
X103054819Y-297711905D01*
X103054819Y-297711905D02*
X103054819Y-297950000D01*
X103054819Y-297950000D02*
X103102438Y-298092857D01*
X103102438Y-298092857D02*
X103197676Y-298188095D01*
X103197676Y-298188095D02*
X103292914Y-298235714D01*
X103292914Y-298235714D02*
X103483390Y-298283333D01*
X103483390Y-298283333D02*
X103626247Y-298283333D01*
X103626247Y-298283333D02*
X103816723Y-298235714D01*
X103816723Y-298235714D02*
X103911961Y-298188095D01*
X103911961Y-298188095D02*
X104007200Y-298092857D01*
X104007200Y-298092857D02*
X104054819Y-297950000D01*
X104054819Y-297950000D02*
X104054819Y-297711905D01*
X103388152Y-299140476D02*
X104054819Y-299140476D01*
X103007200Y-298902381D02*
X103721485Y-298664286D01*
X103721485Y-298664286D02*
X103721485Y-299283333D01*
X374723569Y-297235714D02*
X373723569Y-297235714D01*
X373723569Y-297235714D02*
X373723569Y-297473809D01*
X373723569Y-297473809D02*
X373771188Y-297616666D01*
X373771188Y-297616666D02*
X373866426Y-297711904D01*
X373866426Y-297711904D02*
X373961664Y-297759523D01*
X373961664Y-297759523D02*
X374152140Y-297807142D01*
X374152140Y-297807142D02*
X374294997Y-297807142D01*
X374294997Y-297807142D02*
X374485473Y-297759523D01*
X374485473Y-297759523D02*
X374580711Y-297711904D01*
X374580711Y-297711904D02*
X374675950Y-297616666D01*
X374675950Y-297616666D02*
X374723569Y-297473809D01*
X374723569Y-297473809D02*
X374723569Y-297235714D01*
X373723569Y-298664285D02*
X373723569Y-298473809D01*
X373723569Y-298473809D02*
X373771188Y-298378571D01*
X373771188Y-298378571D02*
X373818807Y-298330952D01*
X373818807Y-298330952D02*
X373961664Y-298235714D01*
X373961664Y-298235714D02*
X374152140Y-298188095D01*
X374152140Y-298188095D02*
X374533092Y-298188095D01*
X374533092Y-298188095D02*
X374628330Y-298235714D01*
X374628330Y-298235714D02*
X374675950Y-298283333D01*
X374675950Y-298283333D02*
X374723569Y-298378571D01*
X374723569Y-298378571D02*
X374723569Y-298569047D01*
X374723569Y-298569047D02*
X374675950Y-298664285D01*
X374675950Y-298664285D02*
X374628330Y-298711904D01*
X374628330Y-298711904D02*
X374533092Y-298759523D01*
X374533092Y-298759523D02*
X374294997Y-298759523D01*
X374294997Y-298759523D02*
X374199759Y-298711904D01*
X374199759Y-298711904D02*
X374152140Y-298664285D01*
X374152140Y-298664285D02*
X374104521Y-298569047D01*
X374104521Y-298569047D02*
X374104521Y-298378571D01*
X374104521Y-298378571D02*
X374152140Y-298283333D01*
X374152140Y-298283333D02*
X374199759Y-298235714D01*
X374199759Y-298235714D02*
X374294997Y-298188095D01*
X373723569Y-299616666D02*
X373723569Y-299426190D01*
X373723569Y-299426190D02*
X373771188Y-299330952D01*
X373771188Y-299330952D02*
X373818807Y-299283333D01*
X373818807Y-299283333D02*
X373961664Y-299188095D01*
X373961664Y-299188095D02*
X374152140Y-299140476D01*
X374152140Y-299140476D02*
X374533092Y-299140476D01*
X374533092Y-299140476D02*
X374628330Y-299188095D01*
X374628330Y-299188095D02*
X374675950Y-299235714D01*
X374675950Y-299235714D02*
X374723569Y-299330952D01*
X374723569Y-299330952D02*
X374723569Y-299521428D01*
X374723569Y-299521428D02*
X374675950Y-299616666D01*
X374675950Y-299616666D02*
X374628330Y-299664285D01*
X374628330Y-299664285D02*
X374533092Y-299711904D01*
X374533092Y-299711904D02*
X374294997Y-299711904D01*
X374294997Y-299711904D02*
X374199759Y-299664285D01*
X374199759Y-299664285D02*
X374152140Y-299616666D01*
X374152140Y-299616666D02*
X374104521Y-299521428D01*
X374104521Y-299521428D02*
X374104521Y-299330952D01*
X374104521Y-299330952D02*
X374152140Y-299235714D01*
X374152140Y-299235714D02*
X374199759Y-299188095D01*
X374199759Y-299188095D02*
X374294997Y-299140476D01*
X346942319Y-278185714D02*
X345942319Y-278185714D01*
X345942319Y-278185714D02*
X345942319Y-278423809D01*
X345942319Y-278423809D02*
X345989938Y-278566666D01*
X345989938Y-278566666D02*
X346085176Y-278661904D01*
X346085176Y-278661904D02*
X346180414Y-278709523D01*
X346180414Y-278709523D02*
X346370890Y-278757142D01*
X346370890Y-278757142D02*
X346513747Y-278757142D01*
X346513747Y-278757142D02*
X346704223Y-278709523D01*
X346704223Y-278709523D02*
X346799461Y-278661904D01*
X346799461Y-278661904D02*
X346894700Y-278566666D01*
X346894700Y-278566666D02*
X346942319Y-278423809D01*
X346942319Y-278423809D02*
X346942319Y-278185714D01*
X345942319Y-279614285D02*
X345942319Y-279423809D01*
X345942319Y-279423809D02*
X345989938Y-279328571D01*
X345989938Y-279328571D02*
X346037557Y-279280952D01*
X346037557Y-279280952D02*
X346180414Y-279185714D01*
X346180414Y-279185714D02*
X346370890Y-279138095D01*
X346370890Y-279138095D02*
X346751842Y-279138095D01*
X346751842Y-279138095D02*
X346847080Y-279185714D01*
X346847080Y-279185714D02*
X346894700Y-279233333D01*
X346894700Y-279233333D02*
X346942319Y-279328571D01*
X346942319Y-279328571D02*
X346942319Y-279519047D01*
X346942319Y-279519047D02*
X346894700Y-279614285D01*
X346894700Y-279614285D02*
X346847080Y-279661904D01*
X346847080Y-279661904D02*
X346751842Y-279709523D01*
X346751842Y-279709523D02*
X346513747Y-279709523D01*
X346513747Y-279709523D02*
X346418509Y-279661904D01*
X346418509Y-279661904D02*
X346370890Y-279614285D01*
X346370890Y-279614285D02*
X346323271Y-279519047D01*
X346323271Y-279519047D02*
X346323271Y-279328571D01*
X346323271Y-279328571D02*
X346370890Y-279233333D01*
X346370890Y-279233333D02*
X346418509Y-279185714D01*
X346418509Y-279185714D02*
X346513747Y-279138095D01*
X346942319Y-280661904D02*
X346942319Y-280090476D01*
X346942319Y-280376190D02*
X345942319Y-280376190D01*
X345942319Y-280376190D02*
X346085176Y-280280952D01*
X346085176Y-280280952D02*
X346180414Y-280185714D01*
X346180414Y-280185714D02*
X346228033Y-280090476D01*
X251692319Y-240085714D02*
X250692319Y-240085714D01*
X250692319Y-240085714D02*
X250692319Y-240323809D01*
X250692319Y-240323809D02*
X250739938Y-240466666D01*
X250739938Y-240466666D02*
X250835176Y-240561904D01*
X250835176Y-240561904D02*
X250930414Y-240609523D01*
X250930414Y-240609523D02*
X251120890Y-240657142D01*
X251120890Y-240657142D02*
X251263747Y-240657142D01*
X251263747Y-240657142D02*
X251454223Y-240609523D01*
X251454223Y-240609523D02*
X251549461Y-240561904D01*
X251549461Y-240561904D02*
X251644700Y-240466666D01*
X251644700Y-240466666D02*
X251692319Y-240323809D01*
X251692319Y-240323809D02*
X251692319Y-240085714D01*
X251025652Y-241514285D02*
X251692319Y-241514285D01*
X250644700Y-241276190D02*
X251358985Y-241038095D01*
X251358985Y-241038095D02*
X251358985Y-241657142D01*
X250692319Y-242466666D02*
X250692319Y-242276190D01*
X250692319Y-242276190D02*
X250739938Y-242180952D01*
X250739938Y-242180952D02*
X250787557Y-242133333D01*
X250787557Y-242133333D02*
X250930414Y-242038095D01*
X250930414Y-242038095D02*
X251120890Y-241990476D01*
X251120890Y-241990476D02*
X251501842Y-241990476D01*
X251501842Y-241990476D02*
X251597080Y-242038095D01*
X251597080Y-242038095D02*
X251644700Y-242085714D01*
X251644700Y-242085714D02*
X251692319Y-242180952D01*
X251692319Y-242180952D02*
X251692319Y-242371428D01*
X251692319Y-242371428D02*
X251644700Y-242466666D01*
X251644700Y-242466666D02*
X251597080Y-242514285D01*
X251597080Y-242514285D02*
X251501842Y-242561904D01*
X251501842Y-242561904D02*
X251263747Y-242561904D01*
X251263747Y-242561904D02*
X251168509Y-242514285D01*
X251168509Y-242514285D02*
X251120890Y-242466666D01*
X251120890Y-242466666D02*
X251073271Y-242371428D01*
X251073271Y-242371428D02*
X251073271Y-242180952D01*
X251073271Y-242180952D02*
X251120890Y-242085714D01*
X251120890Y-242085714D02*
X251168509Y-242038095D01*
X251168509Y-242038095D02*
X251263747Y-241990476D01*
X227112666Y-247715568D02*
X227445999Y-247239377D01*
X227684094Y-247715568D02*
X227684094Y-246715568D01*
X227684094Y-246715568D02*
X227303142Y-246715568D01*
X227303142Y-246715568D02*
X227207904Y-246763187D01*
X227207904Y-246763187D02*
X227160285Y-246810806D01*
X227160285Y-246810806D02*
X227112666Y-246906044D01*
X227112666Y-246906044D02*
X227112666Y-247048901D01*
X227112666Y-247048901D02*
X227160285Y-247144139D01*
X227160285Y-247144139D02*
X227207904Y-247191758D01*
X227207904Y-247191758D02*
X227303142Y-247239377D01*
X227303142Y-247239377D02*
X227684094Y-247239377D01*
X226160285Y-247715568D02*
X226731713Y-247715568D01*
X226445999Y-247715568D02*
X226445999Y-246715568D01*
X226445999Y-246715568D02*
X226541237Y-246858425D01*
X226541237Y-246858425D02*
X226636475Y-246953663D01*
X226636475Y-246953663D02*
X226731713Y-247001282D01*
D11*
%TO.C,D14*%
X138700000Y-300700000D02*
X138700000Y-296800000D01*
X140700000Y-300700000D02*
X138700000Y-300700000D01*
X140700000Y-300700000D02*
X140700000Y-296800000D01*
%TO.C,D22*%
X162512500Y-262600000D02*
X162512500Y-258700000D01*
X164512500Y-262600000D02*
X162512500Y-262600000D01*
X164512500Y-262600000D02*
X164512500Y-258700000D01*
%TO.C,D12*%
X124412500Y-262600000D02*
X124412500Y-258700000D01*
X126412500Y-262600000D02*
X124412500Y-262600000D01*
X126412500Y-262600000D02*
X126412500Y-258700000D01*
%TO.C,D47*%
X257762500Y-262600000D02*
X257762500Y-258700000D01*
X259762500Y-262600000D02*
X257762500Y-262600000D01*
X259762500Y-262600000D02*
X259762500Y-258700000D01*
%TO.C,R3*%
X158564250Y-321876686D02*
X158564250Y-322330814D01*
X157094250Y-321876686D02*
X157094250Y-322330814D01*
%TO.C,D48*%
X263318750Y-275554000D02*
X263318750Y-271654000D01*
X265318750Y-275554000D02*
X263318750Y-275554000D01*
X265318750Y-275554000D02*
X265318750Y-271654000D01*
%TO.C,D52*%
X276812500Y-262600000D02*
X276812500Y-258700000D01*
X278812500Y-262600000D02*
X276812500Y-262600000D01*
X278812500Y-262600000D02*
X278812500Y-258700000D01*
%TO.C,D29*%
X195850000Y-300700000D02*
X195850000Y-296800000D01*
X197850000Y-300700000D02*
X195850000Y-300700000D01*
X197850000Y-300700000D02*
X197850000Y-296800000D01*
%TO.C,Y1*%
X157440000Y-312114000D02*
X157440000Y-316114000D01*
X154140000Y-312114000D02*
X157440000Y-312114000D01*
%TO.C,C2*%
X174598000Y-307459748D02*
X174598000Y-307982252D01*
X173128000Y-307459748D02*
X173128000Y-307982252D01*
%TO.C,D42*%
X238712500Y-262600000D02*
X238712500Y-258700000D01*
X240712500Y-262600000D02*
X238712500Y-262600000D01*
X240712500Y-262600000D02*
X240712500Y-258700000D01*
%TO.C,D67*%
X371237000Y-243550000D02*
X371237000Y-239650000D01*
X373237000Y-243550000D02*
X371237000Y-243550000D01*
X373237000Y-243550000D02*
X373237000Y-239650000D01*
%TO.C,D64*%
X342693750Y-262600000D02*
X342693750Y-258700000D01*
X344693750Y-262600000D02*
X342693750Y-262600000D01*
X344693750Y-262600000D02*
X344693750Y-258700000D01*
%TO.C,D6*%
X95837500Y-243550000D02*
X95837500Y-239650000D01*
X97837500Y-243550000D02*
X95837500Y-243550000D01*
X97837500Y-243550000D02*
X97837500Y-239650000D01*
%TO.C,D3*%
X83931250Y-281650000D02*
X83931250Y-277750000D01*
X85931250Y-281650000D02*
X83931250Y-281650000D01*
X85931250Y-281650000D02*
X85931250Y-277750000D01*
%TO.C,D40*%
X333962500Y-319750000D02*
X333962500Y-315850000D01*
X335962500Y-319750000D02*
X333962500Y-319750000D01*
X335962500Y-319750000D02*
X335962500Y-315850000D01*
%TO.C,D17*%
X143462500Y-262600000D02*
X143462500Y-258700000D01*
X145462500Y-262600000D02*
X143462500Y-262600000D01*
X145462500Y-262600000D02*
X145462500Y-258700000D01*
%TO.C,D27*%
X181562500Y-262600000D02*
X181562500Y-258700000D01*
X183562500Y-262600000D02*
X181562500Y-262600000D01*
X183562500Y-262600000D02*
X183562500Y-258700000D01*
%TO.C,D50*%
X371268750Y-319750000D02*
X371268750Y-315850000D01*
X373268750Y-319750000D02*
X371268750Y-319750000D01*
X373268750Y-319750000D02*
X373268750Y-315850000D01*
%TO.C,D65*%
X371268750Y-281650000D02*
X371268750Y-277750000D01*
X373268750Y-281650000D02*
X371268750Y-281650000D01*
X373268750Y-281650000D02*
X373268750Y-277750000D01*
%TO.C,D54*%
X291100000Y-300700000D02*
X291100000Y-296800000D01*
X293100000Y-300700000D02*
X291100000Y-300700000D01*
X293100000Y-300700000D02*
X293100000Y-296800000D01*
%TO.C,D45*%
X353012500Y-319750000D02*
X353012500Y-315850000D01*
X355012500Y-319750000D02*
X353012500Y-319750000D01*
X355012500Y-319750000D02*
X355012500Y-315850000D01*
%TO.C,D63*%
X333962500Y-243550000D02*
X333962500Y-239650000D01*
X335962500Y-243550000D02*
X333962500Y-243550000D01*
X335962500Y-243550000D02*
X335962500Y-239650000D01*
%TO.C,D38*%
X224425000Y-281650000D02*
X224425000Y-277750000D01*
X226425000Y-281650000D02*
X224425000Y-281650000D01*
X226425000Y-281650000D02*
X226425000Y-277750000D01*
%TO.C,R4*%
X171222936Y-304065000D02*
X171677064Y-304065000D01*
X171222936Y-305535000D02*
X171677064Y-305535000D01*
%TO.C,U2*%
X234182500Y-250413999D02*
X234792500Y-250413999D01*
X234792500Y-250413999D02*
X234792500Y-247513999D01*
X231672500Y-248313999D02*
X231672500Y-249113999D01*
X231672500Y-248313999D02*
X231672500Y-247513999D01*
%TO.C,D9*%
X119650000Y-300700000D02*
X119650000Y-296800000D01*
X121650000Y-300700000D02*
X119650000Y-300700000D01*
X121650000Y-300700000D02*
X121650000Y-296800000D01*
%TO.C,D34*%
X214900000Y-300700000D02*
X214900000Y-296800000D01*
X216900000Y-300700000D02*
X214900000Y-300700000D01*
X216900000Y-300700000D02*
X216900000Y-296800000D01*
%TO.C,D1*%
X76787500Y-243550000D02*
X76787500Y-239650000D01*
X78787500Y-243550000D02*
X76787500Y-243550000D01*
X78787500Y-243550000D02*
X78787500Y-239650000D01*
%TO.C,F1*%
X181450064Y-312441000D02*
X180245936Y-312441000D01*
X181450064Y-310621000D02*
X180245936Y-310621000D01*
%TO.C,D41*%
X229187500Y-243550000D02*
X229187500Y-239650000D01*
X231187500Y-243550000D02*
X229187500Y-243550000D01*
X231187500Y-243550000D02*
X231187500Y-239650000D01*
%TO.C,D39*%
X233950000Y-300700000D02*
X233950000Y-296800000D01*
X235950000Y-300700000D02*
X233950000Y-300700000D01*
X235950000Y-300700000D02*
X235950000Y-296800000D01*
%TO.C,D60*%
X314912500Y-262600000D02*
X314912500Y-258700000D01*
X316912500Y-262600000D02*
X314912500Y-262600000D01*
X316912500Y-262600000D02*
X316912500Y-258700000D01*
%TO.C,D16*%
X133937500Y-243550000D02*
X133937500Y-239650000D01*
X135937500Y-243550000D02*
X133937500Y-243550000D01*
X135937500Y-243550000D02*
X135937500Y-239650000D01*
%TO.C,D56*%
X295862500Y-262600000D02*
X295862500Y-258700000D01*
X297862500Y-262600000D02*
X295862500Y-262600000D01*
X297862500Y-262600000D02*
X297862500Y-258700000D01*
%TO.C,D36*%
X210137500Y-243550000D02*
X210137500Y-239650000D01*
X212137500Y-243550000D02*
X210137500Y-243550000D01*
X212137500Y-243550000D02*
X212137500Y-239650000D01*
%TO.C,D10*%
X104568750Y-319750000D02*
X104568750Y-315850000D01*
X106568750Y-319750000D02*
X104568750Y-319750000D01*
X106568750Y-319750000D02*
X106568750Y-315850000D01*
%TO.C,C4*%
X152803000Y-313936748D02*
X152803000Y-314459252D01*
X151333000Y-313936748D02*
X151333000Y-314459252D01*
%TO.C,D30*%
X291100000Y-319750000D02*
X291100000Y-315850000D01*
X293100000Y-319750000D02*
X291100000Y-319750000D01*
X293100000Y-319750000D02*
X293100000Y-315850000D01*
%TO.C,C7*%
X173519618Y-318653041D02*
X173519618Y-318130537D01*
X174989618Y-318653041D02*
X174989618Y-318130537D01*
%TO.C,D25*%
X267287500Y-319750000D02*
X267287500Y-315850000D01*
X269287500Y-319750000D02*
X267287500Y-319750000D01*
X269287500Y-319750000D02*
X269287500Y-315850000D01*
%TO.C,D43*%
X243475000Y-281650000D02*
X243475000Y-277750000D01*
X245475000Y-281650000D02*
X243475000Y-281650000D01*
X245475000Y-281650000D02*
X245475000Y-277750000D01*
%TO.C,D44*%
X253000000Y-300700000D02*
X253000000Y-296800000D01*
X255000000Y-300700000D02*
X253000000Y-300700000D01*
X255000000Y-300700000D02*
X255000000Y-296800000D01*
D10*
%TO.C,U1*%
X160591750Y-317753750D02*
X161266750Y-317753750D01*
X160591750Y-317753750D02*
X160591750Y-317078750D01*
X170366750Y-317753750D02*
X170366750Y-319028750D01*
X170941750Y-317753750D02*
X170366750Y-317753750D01*
X170941750Y-317753750D02*
X170941750Y-317078750D01*
X160591750Y-307403750D02*
X160591750Y-308078750D01*
X160591750Y-307403750D02*
X161266750Y-307403750D01*
X170941750Y-307403750D02*
X170941750Y-308078750D01*
X170941750Y-307403750D02*
X170266750Y-307403750D01*
D11*
%TO.C,D2*%
X86312500Y-262600000D02*
X86312500Y-258700000D01*
X88312500Y-262600000D02*
X86312500Y-262600000D01*
X88312500Y-262600000D02*
X88312500Y-258700000D01*
%TO.C,C1*%
X153919250Y-322365002D02*
X153919250Y-321842498D01*
X155389250Y-322365002D02*
X155389250Y-321842498D01*
%TO.C,D32*%
X200612500Y-262600000D02*
X200612500Y-258700000D01*
X202612500Y-262600000D02*
X200612500Y-262600000D01*
X202612500Y-262600000D02*
X202612500Y-258700000D01*
%TO.C,D58*%
X333962500Y-300700000D02*
X333962500Y-296800000D01*
X335962500Y-300700000D02*
X333962500Y-300700000D01*
X335962500Y-300700000D02*
X335962500Y-296800000D01*
%TO.C,D15*%
X129175000Y-319750000D02*
X129175000Y-315850000D01*
X131175000Y-319750000D02*
X129175000Y-319750000D01*
X131175000Y-319750000D02*
X131175000Y-315850000D01*
%TO.C,D57*%
X300625000Y-281650000D02*
X300625000Y-277750000D01*
X302625000Y-281650000D02*
X300625000Y-281650000D01*
X302625000Y-281650000D02*
X302625000Y-277750000D01*
%TO.C,D55*%
X286274000Y-243550000D02*
X286274000Y-239650000D01*
X288274000Y-243550000D02*
X286274000Y-243550000D01*
X288274000Y-243550000D02*
X288274000Y-239650000D01*
D10*
%TO.C,SW1*%
X137989000Y-316671000D02*
X143189000Y-316671000D01*
X143189000Y-316671000D02*
X143189000Y-311471000D01*
X137989000Y-311471000D02*
X137989000Y-316671000D01*
X143189000Y-311471000D02*
X137989000Y-311471000D01*
X141589000Y-314071000D02*
G75*
G03*
X141589000Y-314071000I-1000000J0D01*
G01*
D11*
%TO.C,D24*%
X176800000Y-300700000D02*
X176800000Y-296800000D01*
X178800000Y-300700000D02*
X176800000Y-300700000D01*
X178800000Y-300700000D02*
X178800000Y-296800000D01*
%TO.C,D13*%
X129175000Y-281650000D02*
X129175000Y-277750000D01*
X131175000Y-281650000D02*
X129175000Y-281650000D01*
X131175000Y-281650000D02*
X131175000Y-277750000D01*
%TO.C,D7*%
X105362500Y-262600000D02*
X105362500Y-258700000D01*
X107362500Y-262600000D02*
X105362500Y-262600000D01*
X107362500Y-262600000D02*
X107362500Y-258700000D01*
%TO.C,D68*%
X371268750Y-262600000D02*
X371268750Y-258700000D01*
X373268750Y-262600000D02*
X371268750Y-262600000D01*
X373268750Y-262600000D02*
X373268750Y-258700000D01*
%TO.C,C5*%
X155074252Y-305408000D02*
X154551748Y-305408000D01*
X155074252Y-303938000D02*
X154551748Y-303938000D01*
%TO.C,D28*%
X186325000Y-281650000D02*
X186325000Y-277750000D01*
X188325000Y-281650000D02*
X186325000Y-281650000D01*
X188325000Y-281650000D02*
X188325000Y-277750000D01*
%TO.C,D49*%
X272050000Y-300700000D02*
X272050000Y-296800000D01*
X274050000Y-300700000D02*
X272050000Y-300700000D01*
X274050000Y-300700000D02*
X274050000Y-296800000D01*
%TO.C,D23*%
X168037000Y-275554000D02*
X168037000Y-271654000D01*
X170037000Y-275554000D02*
X168037000Y-275554000D01*
X170037000Y-275554000D02*
X170037000Y-271654000D01*
%TO.C,D37*%
X219662500Y-262600000D02*
X219662500Y-258700000D01*
X221662500Y-262600000D02*
X219662500Y-262600000D01*
X221662500Y-262600000D02*
X221662500Y-258700000D01*
%TO.C,J1*%
X241821500Y-245203999D02*
X239321500Y-245203999D01*
X239321500Y-245203999D02*
X239321500Y-246253999D01*
X239321500Y-246253999D02*
X238331500Y-246253999D01*
X243791500Y-246373999D02*
X243791500Y-250253999D01*
X241821500Y-251423999D02*
X239321500Y-251423999D01*
X239321500Y-251423999D02*
X239321500Y-250373999D01*
%TO.C,D33*%
X205375000Y-281650000D02*
X205375000Y-277750000D01*
X207375000Y-281650000D02*
X205375000Y-281650000D01*
X207375000Y-281650000D02*
X207375000Y-277750000D01*
%TO.C,D59*%
X305324000Y-243550000D02*
X305324000Y-239650000D01*
X307324000Y-243550000D02*
X305324000Y-243550000D01*
X307324000Y-243550000D02*
X307324000Y-239650000D01*
%TO.C,D62*%
X353012500Y-300700000D02*
X353012500Y-296800000D01*
X355012500Y-300700000D02*
X353012500Y-300700000D01*
X355012500Y-300700000D02*
X355012500Y-296800000D01*
%TO.C,R2*%
X227300064Y-247106749D02*
X226845936Y-247106749D01*
X227300064Y-245636749D02*
X226845936Y-245636749D01*
%TO.C,C6*%
X165410248Y-322162500D02*
X165932752Y-322162500D01*
X165410248Y-323632500D02*
X165932752Y-323632500D01*
%TO.C,D5*%
X81550000Y-319750000D02*
X81550000Y-315850000D01*
X83550000Y-319750000D02*
X81550000Y-319750000D01*
X83550000Y-319750000D02*
X83550000Y-315850000D01*
%TO.C,D35*%
X314912500Y-319750000D02*
X314912500Y-315850000D01*
X316912500Y-319750000D02*
X314912500Y-319750000D01*
X316912500Y-319750000D02*
X316912500Y-315850000D01*
%TO.C,D8*%
X110125000Y-281650000D02*
X110125000Y-277750000D01*
X112125000Y-281650000D02*
X110125000Y-281650000D01*
X112125000Y-281650000D02*
X112125000Y-277750000D01*
%TO.C,D19*%
X146975000Y-300625000D02*
X150875000Y-300625000D01*
X146975000Y-302625000D02*
X146975000Y-300625000D01*
X146975000Y-302625000D02*
X150875000Y-302625000D01*
%TO.C,C3*%
X154041248Y-309845250D02*
X154563752Y-309845250D01*
X154041248Y-311315250D02*
X154563752Y-311315250D01*
%TO.C,D21*%
X152987500Y-243550000D02*
X152987500Y-239650000D01*
X154987500Y-243550000D02*
X152987500Y-243550000D01*
X154987500Y-243550000D02*
X154987500Y-239650000D01*
%TO.C,D18*%
X148225000Y-281650000D02*
X148225000Y-277750000D01*
X150225000Y-281650000D02*
X148225000Y-281650000D01*
X150225000Y-281650000D02*
X150225000Y-277750000D01*
%TO.C,D51*%
X267287500Y-243550000D02*
X267287500Y-239650000D01*
X269287500Y-243550000D02*
X267287500Y-243550000D01*
X269287500Y-243550000D02*
X269287500Y-239650000D01*
%TO.C,D26*%
X172037500Y-243550000D02*
X172037500Y-239650000D01*
X174037500Y-243550000D02*
X172037500Y-243550000D01*
X174037500Y-243550000D02*
X174037500Y-239650000D01*
%TO.C,D53*%
X281575000Y-281650000D02*
X281575000Y-277750000D01*
X283575000Y-281650000D02*
X281575000Y-281650000D01*
X283575000Y-281650000D02*
X283575000Y-277750000D01*
%TO.C,D31*%
X191087500Y-243550000D02*
X191087500Y-239650000D01*
X193087500Y-243550000D02*
X191087500Y-243550000D01*
X193087500Y-243550000D02*
X193087500Y-239650000D01*
%TO.C,D20*%
X243475000Y-319750000D02*
X243475000Y-315850000D01*
X245475000Y-319750000D02*
X243475000Y-319750000D01*
X245475000Y-319750000D02*
X245475000Y-315850000D01*
%TO.C,D4*%
X100600000Y-300700000D02*
X100600000Y-296800000D01*
X102600000Y-300700000D02*
X100600000Y-300700000D01*
X102600000Y-300700000D02*
X102600000Y-296800000D01*
%TO.C,D11*%
X114887500Y-243550000D02*
X114887500Y-239650000D01*
X116887500Y-243550000D02*
X114887500Y-243550000D01*
X116887500Y-243550000D02*
X116887500Y-239650000D01*
%TO.C,D66*%
X371268750Y-300700000D02*
X371268750Y-296800000D01*
X373268750Y-300700000D02*
X371268750Y-300700000D01*
X373268750Y-300700000D02*
X373268750Y-296800000D01*
%TO.C,D61*%
X343487500Y-281650000D02*
X343487500Y-277750000D01*
X345487500Y-281650000D02*
X343487500Y-281650000D01*
X345487500Y-281650000D02*
X345487500Y-277750000D01*
%TO.C,D46*%
X248237500Y-243550000D02*
X248237500Y-239650000D01*
X250237500Y-243550000D02*
X248237500Y-243550000D01*
X250237500Y-243550000D02*
X250237500Y-239650000D01*
%TO.C,R1*%
X227300064Y-249646749D02*
X226845936Y-249646749D01*
X227300064Y-248176749D02*
X226845936Y-248176749D01*
%TD*%
%LPC*%
D12*
%TO.C,MX61*%
X311943750Y-271621250D03*
D13*
X311943750Y-286861250D03*
D14*
X318770000Y-278606250D03*
D13*
X323850000Y-278606250D03*
D14*
X328930000Y-278606250D03*
D12*
X335756250Y-271621250D03*
D13*
X335756250Y-286861250D03*
D15*
X320040000Y-276066250D03*
X326390000Y-273526250D03*
%TD*%
D14*
%TO.C,MX54*%
X278288750Y-297656250D03*
D13*
X283368750Y-297656250D03*
D14*
X288448750Y-297656250D03*
D15*
X279558750Y-295116250D03*
X285908750Y-292576250D03*
%TD*%
D14*
%TO.C,MX69*%
X68738750Y-316706250D03*
D13*
X73818750Y-316706250D03*
D14*
X78898750Y-316706250D03*
D15*
X70008750Y-314166250D03*
X76358750Y-311626250D03*
%TD*%
D14*
%TO.C,MX8*%
X97313750Y-278606250D03*
D13*
X102393750Y-278606250D03*
D14*
X107473750Y-278606250D03*
D15*
X98583750Y-276066250D03*
X104933750Y-273526250D03*
%TD*%
D14*
%TO.C,MX29*%
X183038750Y-297656250D03*
D13*
X188118750Y-297656250D03*
D14*
X193198750Y-297656250D03*
D15*
X184308750Y-295116250D03*
X190658750Y-292576250D03*
%TD*%
D14*
%TO.C,MX3*%
X71120000Y-278606250D03*
D13*
X76200000Y-278606250D03*
D14*
X81280000Y-278606250D03*
D15*
X72390000Y-276066250D03*
X78740000Y-273526250D03*
%TD*%
D14*
%TO.C,MX5*%
X66357500Y-316706250D03*
D13*
X71437500Y-316706250D03*
D14*
X76517500Y-316706250D03*
D15*
X67627500Y-314166250D03*
X73977500Y-311626250D03*
%TD*%
D14*
%TO.C,MX31*%
X178276250Y-240506250D03*
D13*
X183356250Y-240506250D03*
D14*
X188436250Y-240506250D03*
D15*
X179546250Y-237966250D03*
X185896250Y-235426250D03*
%TD*%
D14*
%TO.C,MX71*%
X116363750Y-316706250D03*
D13*
X121443750Y-316706250D03*
D14*
X126523750Y-316706250D03*
D15*
X117633750Y-314166250D03*
X123983750Y-311626250D03*
%TD*%
D14*
%TO.C,MX15*%
X109220000Y-316706250D03*
D13*
X114300000Y-316706250D03*
D14*
X119380000Y-316706250D03*
D15*
X110490000Y-314166250D03*
X116840000Y-311626250D03*
%TD*%
D14*
%TO.C,MX60*%
X302101250Y-259556250D03*
D13*
X307181250Y-259556250D03*
D14*
X312261250Y-259556250D03*
D15*
X303371250Y-257016250D03*
X309721250Y-254476250D03*
%TD*%
D14*
%TO.C,MX13*%
X116363750Y-278606250D03*
D13*
X121443750Y-278606250D03*
D14*
X126523750Y-278606250D03*
D15*
X117633750Y-276066250D03*
X123983750Y-273526250D03*
%TD*%
D14*
%TO.C,MX28*%
X173513750Y-278606250D03*
D13*
X178593750Y-278606250D03*
D14*
X183673750Y-278606250D03*
D15*
X174783750Y-276066250D03*
X181133750Y-273526250D03*
%TD*%
D13*
%TO.C,*%
X169068750Y-278606250D03*
%TD*%
D14*
%TO.C,MX52*%
X264001250Y-259556250D03*
D13*
X269081250Y-259556250D03*
D14*
X274161250Y-259556250D03*
D15*
X265271250Y-257016250D03*
X271621250Y-254476250D03*
%TD*%
D14*
%TO.C,MX47*%
X244951250Y-259556250D03*
D13*
X250031250Y-259556250D03*
D14*
X255111250Y-259556250D03*
D15*
X246221250Y-257016250D03*
X252571250Y-254476250D03*
%TD*%
D14*
%TO.C,MX45*%
X340201250Y-316706250D03*
D13*
X345281250Y-316706250D03*
D14*
X350361250Y-316706250D03*
D15*
X341471250Y-314166250D03*
X347821250Y-311626250D03*
%TD*%
D14*
%TO.C,MX25*%
X252095000Y-316706250D03*
D13*
X257175000Y-316706250D03*
D14*
X262255000Y-316706250D03*
D15*
X253365000Y-314166250D03*
X259715000Y-311626250D03*
%TD*%
D14*
%TO.C,MX32*%
X187801250Y-259556250D03*
D13*
X192881250Y-259556250D03*
D14*
X197961250Y-259556250D03*
D15*
X189071250Y-257016250D03*
X195421250Y-254476250D03*
%TD*%
D14*
%TO.C,MX36*%
X197326250Y-240506250D03*
D13*
X202406250Y-240506250D03*
D14*
X207486250Y-240506250D03*
D15*
X198596250Y-237966250D03*
X204946250Y-235426250D03*
%TD*%
D14*
%TO.C,MX50*%
X359251250Y-316706250D03*
D13*
X364331250Y-316706250D03*
D14*
X369411250Y-316706250D03*
D15*
X360521250Y-314166250D03*
X366871250Y-311626250D03*
%TD*%
D16*
%TO.C,*%
X351409000Y-276606000D03*
%TD*%
D13*
%TO.C,*%
X264318750Y-278606250D03*
%TD*%
D14*
%TO.C,MX64*%
X325913750Y-259556250D03*
D13*
X330993750Y-259556250D03*
D14*
X336073750Y-259556250D03*
D15*
X327183750Y-257016250D03*
X333533750Y-254476250D03*
%TD*%
D14*
%TO.C,MX34*%
X202088750Y-297656250D03*
D13*
X207168750Y-297656250D03*
D14*
X212248750Y-297656250D03*
D15*
X203358750Y-295116250D03*
X209708750Y-292576250D03*
%TD*%
D14*
%TO.C,MX49*%
X259238750Y-297656250D03*
D13*
X264318750Y-297656250D03*
D14*
X269398750Y-297656250D03*
D15*
X260508750Y-295116250D03*
X266858750Y-292576250D03*
%TD*%
D12*
%TO.C,MX58*%
X302418750Y-290671250D03*
D13*
X302418750Y-305911250D03*
D14*
X309245000Y-297656250D03*
D13*
X314325000Y-297656250D03*
D14*
X319405000Y-297656250D03*
D12*
X326231250Y-290671250D03*
D13*
X326231250Y-305911250D03*
D15*
X310515000Y-295116250D03*
X316865000Y-292576250D03*
%TD*%
D14*
%TO.C,MX17*%
X130651250Y-259556250D03*
D13*
X135731250Y-259556250D03*
D14*
X140811250Y-259556250D03*
D15*
X131921250Y-257016250D03*
X138271250Y-254476250D03*
%TD*%
D14*
%TO.C,MX46*%
X235426250Y-240506250D03*
D13*
X240506250Y-240506250D03*
D14*
X245586250Y-240506250D03*
D15*
X236696250Y-237966250D03*
X243046250Y-235426250D03*
%TD*%
D14*
%TO.C,MX62*%
X340201250Y-297656250D03*
D13*
X345281250Y-297656250D03*
D14*
X350361250Y-297656250D03*
D15*
X341471250Y-295116250D03*
X347821250Y-292576250D03*
%TD*%
D14*
%TO.C,MX6*%
X83026250Y-240506250D03*
D13*
X88106250Y-240506250D03*
D14*
X93186250Y-240506250D03*
D15*
X84296250Y-237966250D03*
X90646250Y-235426250D03*
%TD*%
D14*
%TO.C,MX30*%
X275907500Y-316706250D03*
D13*
X280987500Y-316706250D03*
D14*
X286067500Y-316706250D03*
D15*
X277177500Y-314166250D03*
X283527500Y-311626250D03*
%TD*%
D14*
%TO.C,MX70*%
X92551250Y-316706250D03*
D13*
X97631250Y-316706250D03*
D14*
X102711250Y-316706250D03*
D15*
X93821250Y-314166250D03*
X100171250Y-311626250D03*
%TD*%
D14*
%TO.C,MX66*%
X359251250Y-297656250D03*
D13*
X364331250Y-297656250D03*
D14*
X369411250Y-297656250D03*
D15*
X360521250Y-295116250D03*
X366871250Y-292576250D03*
%TD*%
D14*
%TO.C,MX39*%
X221138750Y-297656250D03*
D13*
X226218750Y-297656250D03*
D14*
X231298750Y-297656250D03*
D15*
X222408750Y-295116250D03*
X228758750Y-292576250D03*
%TD*%
D14*
%TO.C,MX41*%
X216376250Y-240506250D03*
D13*
X221456250Y-240506250D03*
D14*
X226536250Y-240506250D03*
D15*
X217646250Y-237966250D03*
X223996250Y-235426250D03*
%TD*%
D13*
%TO.C,MX20*%
X135737600Y-308451250D03*
D12*
X135737600Y-323691250D03*
D14*
X180657500Y-316706250D03*
D13*
X185737500Y-316706250D03*
D14*
X190817500Y-316706250D03*
D13*
X235737400Y-308451250D03*
D12*
X235737400Y-323691250D03*
D15*
X181927500Y-314166250D03*
X188277500Y-311626250D03*
%TD*%
D14*
%TO.C,MX14*%
X125888750Y-297656250D03*
D13*
X130968750Y-297656250D03*
D14*
X136048750Y-297656250D03*
D15*
X127158750Y-295116250D03*
X133508750Y-292576250D03*
%TD*%
D14*
%TO.C,MX12*%
X111601250Y-259556250D03*
D13*
X116681250Y-259556250D03*
D14*
X121761250Y-259556250D03*
D15*
X112871250Y-257016250D03*
X119221250Y-254476250D03*
%TD*%
D14*
%TO.C,MX67*%
X359251250Y-240506250D03*
D13*
X364331250Y-240506250D03*
D14*
X369411250Y-240506250D03*
D15*
X360521250Y-237966250D03*
X366871250Y-235426250D03*
%TD*%
D14*
%TO.C,MX73*%
X66357500Y-278606250D03*
D13*
X71437500Y-278606250D03*
D14*
X76517500Y-278606250D03*
D17*
X67627500Y-276066250D03*
X73977500Y-273526250D03*
%TD*%
D14*
%TO.C,MX9*%
X106838750Y-297656250D03*
D13*
X111918750Y-297656250D03*
D14*
X116998750Y-297656250D03*
D15*
X108108750Y-295116250D03*
X114458750Y-292576250D03*
%TD*%
D14*
%TO.C,MX35*%
X299720000Y-316706250D03*
D13*
X304800000Y-316706250D03*
D14*
X309880000Y-316706250D03*
D15*
X300990000Y-314166250D03*
X307340000Y-311626250D03*
%TD*%
D14*
%TO.C,MX10*%
X87788750Y-316706250D03*
D13*
X92868750Y-316706250D03*
D14*
X97948750Y-316706250D03*
D15*
X89058750Y-314166250D03*
X95408750Y-311626250D03*
%TD*%
D14*
%TO.C,MX40*%
X321151250Y-316706250D03*
D13*
X326231250Y-316706250D03*
D14*
X331311250Y-316706250D03*
D15*
X322421250Y-314166250D03*
X328771250Y-311626250D03*
%TD*%
D14*
%TO.C,MX33*%
X192563750Y-278606250D03*
D13*
X197643750Y-278606250D03*
D14*
X202723750Y-278606250D03*
D15*
X193833750Y-276066250D03*
X200183750Y-273526250D03*
%TD*%
D12*
%TO.C,MX63*%
X314325000Y-233521250D03*
D13*
X314325000Y-248761250D03*
D14*
X321151250Y-240506250D03*
D13*
X326231250Y-240506250D03*
D14*
X331311250Y-240506250D03*
D12*
X338137500Y-233521250D03*
D13*
X338137500Y-248761250D03*
D15*
X322421250Y-237966250D03*
X328771250Y-235426250D03*
%TD*%
D14*
%TO.C,MX2*%
X68738750Y-259556250D03*
D13*
X73818750Y-259556250D03*
D14*
X78898750Y-259556250D03*
D15*
X70008750Y-257016250D03*
X76358750Y-254476250D03*
%TD*%
D14*
%TO.C,MX24*%
X163988750Y-297656250D03*
D13*
X169068750Y-297656250D03*
D14*
X174148750Y-297656250D03*
D15*
X165258750Y-295116250D03*
X171608750Y-292576250D03*
%TD*%
D14*
%TO.C,MX44*%
X240188750Y-297656250D03*
D13*
X245268750Y-297656250D03*
D14*
X250348750Y-297656250D03*
D15*
X241458750Y-295116250D03*
X247808750Y-292576250D03*
%TD*%
D14*
%TO.C,MX19*%
X144938750Y-297656250D03*
D13*
X150018750Y-297656250D03*
D14*
X155098750Y-297656250D03*
D15*
X146208750Y-295116250D03*
X152558750Y-292576250D03*
%TD*%
D14*
%TO.C,MX38*%
X211613750Y-278606250D03*
D13*
X216693750Y-278606250D03*
D14*
X221773750Y-278606250D03*
D15*
X212883750Y-276066250D03*
X219233750Y-273526250D03*
%TD*%
D13*
%TO.C,MX72*%
X145256250Y-308451250D03*
D12*
X145256250Y-323691250D03*
D14*
X197326250Y-316706250D03*
D13*
X202406250Y-316706250D03*
D14*
X207486250Y-316706250D03*
D13*
X259556250Y-308451250D03*
D12*
X259556250Y-323691250D03*
D15*
X198596250Y-314166250D03*
X204946250Y-311626250D03*
%TD*%
D14*
%TO.C,MX68*%
X359251250Y-259556250D03*
D13*
X364331250Y-259556250D03*
D14*
X369411250Y-259556250D03*
D15*
X360521250Y-257016250D03*
X366871250Y-254476250D03*
%TD*%
D14*
%TO.C,MX51*%
X254476250Y-240506250D03*
D13*
X259556250Y-240506250D03*
D14*
X264636250Y-240506250D03*
D15*
X255746250Y-237966250D03*
X262096250Y-235426250D03*
%TD*%
D14*
%TO.C,MX75*%
X306863750Y-278606250D03*
D13*
X311943750Y-278606250D03*
D14*
X317023750Y-278606250D03*
D15*
X308133750Y-276066250D03*
X314483750Y-273526250D03*
%TD*%
D14*
%TO.C,MX56*%
X283051250Y-259556250D03*
D13*
X288131250Y-259556250D03*
D14*
X293211250Y-259556250D03*
D15*
X284321250Y-257016250D03*
X290671250Y-254476250D03*
%TD*%
D14*
%TO.C,MX42*%
X225901250Y-259556250D03*
D13*
X230981250Y-259556250D03*
D14*
X236061250Y-259556250D03*
D15*
X227171250Y-257016250D03*
X233521250Y-254476250D03*
%TD*%
D14*
%TO.C,MX43*%
X230663750Y-278606250D03*
D13*
X235743750Y-278606250D03*
D14*
X240823750Y-278606250D03*
D15*
X231933750Y-276066250D03*
X238283750Y-273526250D03*
%TD*%
D14*
%TO.C,MX22*%
X149701250Y-259556250D03*
D13*
X154781250Y-259556250D03*
D14*
X159861250Y-259556250D03*
D15*
X150971250Y-257016250D03*
X157321250Y-254476250D03*
%TD*%
D14*
%TO.C,MX53*%
X268763750Y-278606250D03*
D13*
X273843750Y-278606250D03*
D14*
X278923750Y-278606250D03*
D15*
X270033750Y-276066250D03*
X276383750Y-273526250D03*
%TD*%
D14*
%TO.C,MX65*%
X359251250Y-278606250D03*
D13*
X364331250Y-278606250D03*
D14*
X369411250Y-278606250D03*
D15*
X360521250Y-276066250D03*
X366871250Y-273526250D03*
%TD*%
D12*
%TO.C,MX4*%
X69056250Y-290671250D03*
D13*
X69056250Y-305911250D03*
D14*
X75882500Y-297656250D03*
D13*
X80962500Y-297656250D03*
D14*
X86042500Y-297656250D03*
D12*
X92868750Y-290671250D03*
D13*
X92868750Y-305911250D03*
D15*
X77152500Y-295116250D03*
X83502500Y-292576250D03*
%TD*%
D14*
%TO.C,MX7*%
X92551250Y-259556250D03*
D13*
X97631250Y-259556250D03*
D14*
X102711250Y-259556250D03*
D15*
X93821250Y-257016250D03*
X100171250Y-254476250D03*
%TD*%
D14*
%TO.C,MX55*%
X273526250Y-240506250D03*
D13*
X278606250Y-240506250D03*
D14*
X283686250Y-240506250D03*
D15*
X274796250Y-237966250D03*
X281146250Y-235426250D03*
%TD*%
D14*
%TO.C,MX23*%
X154463750Y-278606250D03*
D13*
X159543750Y-278606250D03*
D14*
X164623750Y-278606250D03*
D15*
X155733750Y-276066250D03*
X162083750Y-273526250D03*
%TD*%
D14*
%TO.C,MX16*%
X121126250Y-240506250D03*
D13*
X126206250Y-240506250D03*
D14*
X131286250Y-240506250D03*
D15*
X122396250Y-237966250D03*
X128746250Y-235426250D03*
%TD*%
D13*
%TO.C,MX74*%
X325120000Y-257143250D03*
X325120000Y-281019250D03*
D14*
X328295000Y-269081250D03*
D13*
X333375000Y-269081250D03*
D14*
X338455000Y-269081250D03*
D12*
X340360000Y-257143250D03*
X340360000Y-281019250D03*
D15*
X329565000Y-266541250D03*
X335915000Y-264001250D03*
%TD*%
D14*
%TO.C,MX18*%
X135413750Y-278606250D03*
D13*
X140493750Y-278606250D03*
D14*
X145573750Y-278606250D03*
D15*
X136683750Y-276066250D03*
X143033750Y-273526250D03*
%TD*%
D14*
%TO.C,MX37*%
X206851250Y-259556250D03*
D13*
X211931250Y-259556250D03*
D14*
X217011250Y-259556250D03*
D15*
X208121250Y-257016250D03*
X214471250Y-254476250D03*
%TD*%
D14*
%TO.C,MX48*%
X249713750Y-278606250D03*
D13*
X254793750Y-278606250D03*
D14*
X259873750Y-278606250D03*
D15*
X250983750Y-276066250D03*
X257333750Y-273526250D03*
%TD*%
D14*
%TO.C,MX59*%
X292576250Y-240506250D03*
D13*
X297656250Y-240506250D03*
D14*
X302736250Y-240506250D03*
D15*
X293846250Y-237966250D03*
X300196250Y-235426250D03*
%TD*%
D14*
%TO.C,MX26*%
X159226250Y-240506250D03*
D13*
X164306250Y-240506250D03*
D14*
X169386250Y-240506250D03*
D15*
X160496250Y-237966250D03*
X166846250Y-235426250D03*
%TD*%
D14*
%TO.C,MX21*%
X140176250Y-240506250D03*
D13*
X145256250Y-240506250D03*
D14*
X150336250Y-240506250D03*
D15*
X141446250Y-237966250D03*
X147796250Y-235426250D03*
%TD*%
D14*
%TO.C,MX57*%
X287813750Y-278606250D03*
D13*
X292893750Y-278606250D03*
D14*
X297973750Y-278606250D03*
D15*
X289083750Y-276066250D03*
X295433750Y-273526250D03*
%TD*%
D14*
%TO.C,MX27*%
X168751250Y-259556250D03*
D13*
X173831250Y-259556250D03*
D14*
X178911250Y-259556250D03*
D15*
X170021250Y-257016250D03*
X176371250Y-254476250D03*
%TD*%
D14*
%TO.C,MX1*%
X63976250Y-240506250D03*
D13*
X69056250Y-240506250D03*
D14*
X74136250Y-240506250D03*
D15*
X65246250Y-237966250D03*
X71596250Y-235426250D03*
%TD*%
D14*
%TO.C,MX11*%
X102076250Y-240506250D03*
D13*
X107156250Y-240506250D03*
D14*
X112236250Y-240506250D03*
D15*
X103346250Y-237966250D03*
X109696250Y-235426250D03*
%TD*%
D18*
%TO.C,D14*%
X139700000Y-300100000D03*
X139700000Y-296800000D03*
%TD*%
%TO.C,D22*%
X163512500Y-262000000D03*
X163512500Y-258700000D03*
%TD*%
%TO.C,D12*%
X125412500Y-262000000D03*
X125412500Y-258700000D03*
%TD*%
%TO.C,D47*%
X258762500Y-262000000D03*
X258762500Y-258700000D03*
%TD*%
D19*
%TO.C,R3*%
X157829250Y-321191250D03*
X157829250Y-323016250D03*
%TD*%
D18*
%TO.C,D48*%
X264318750Y-274954000D03*
X264318750Y-271654000D03*
%TD*%
%TO.C,D52*%
X277812500Y-262000000D03*
X277812500Y-258700000D03*
%TD*%
%TO.C,D29*%
X196850000Y-300100000D03*
X196850000Y-296800000D03*
%TD*%
D20*
%TO.C,Y1*%
X156640000Y-313014000D03*
X156640000Y-315214000D03*
X154940000Y-315214000D03*
X154940000Y-313014000D03*
%TD*%
D21*
%TO.C,C2*%
X173863000Y-306771000D03*
X173863000Y-308671000D03*
%TD*%
D18*
%TO.C,D42*%
X239712500Y-262000000D03*
X239712500Y-258700000D03*
%TD*%
%TO.C,D67*%
X372237000Y-242950000D03*
X372237000Y-239650000D03*
%TD*%
%TO.C,D64*%
X343693750Y-262000000D03*
X343693750Y-258700000D03*
%TD*%
%TO.C,D6*%
X96837500Y-242950000D03*
X96837500Y-239650000D03*
%TD*%
%TO.C,D3*%
X84931250Y-281050000D03*
X84931250Y-277750000D03*
%TD*%
%TO.C,D40*%
X334962500Y-319150000D03*
X334962500Y-315850000D03*
%TD*%
%TO.C,D17*%
X144462500Y-262000000D03*
X144462500Y-258700000D03*
%TD*%
%TO.C,D27*%
X182562500Y-262000000D03*
X182562500Y-258700000D03*
%TD*%
%TO.C,D50*%
X372268750Y-319150000D03*
X372268750Y-315850000D03*
%TD*%
%TO.C,D65*%
X372268750Y-281050000D03*
X372268750Y-277750000D03*
%TD*%
%TO.C,D54*%
X292100000Y-300100000D03*
X292100000Y-296800000D03*
%TD*%
%TO.C,D45*%
X354012500Y-319150000D03*
X354012500Y-315850000D03*
%TD*%
%TO.C,D63*%
X334962500Y-242950000D03*
X334962500Y-239650000D03*
%TD*%
%TO.C,D38*%
X225425000Y-281050000D03*
X225425000Y-277750000D03*
%TD*%
D22*
%TO.C,R4*%
X170537500Y-304800000D03*
X172362500Y-304800000D03*
%TD*%
D23*
%TO.C,U2*%
X234182500Y-249488999D03*
X233232500Y-249488999D03*
X232282500Y-249488999D03*
X232282500Y-247138999D03*
X233232500Y-247138999D03*
X234182500Y-247138999D03*
%TD*%
D18*
%TO.C,D9*%
X120650000Y-300100000D03*
X120650000Y-296800000D03*
%TD*%
%TO.C,D34*%
X215900000Y-300100000D03*
X215900000Y-296800000D03*
%TD*%
%TO.C,D1*%
X77787500Y-242950000D03*
X77787500Y-239650000D03*
%TD*%
D24*
%TO.C,F1*%
X182248000Y-311531000D03*
X179448000Y-311531000D03*
%TD*%
D18*
%TO.C,D41*%
X230187500Y-242950000D03*
X230187500Y-239650000D03*
%TD*%
%TO.C,D39*%
X234950000Y-300100000D03*
X234950000Y-296800000D03*
%TD*%
%TO.C,D60*%
X315912500Y-262000000D03*
X315912500Y-258700000D03*
%TD*%
%TO.C,D16*%
X134937500Y-242950000D03*
X134937500Y-239650000D03*
%TD*%
%TO.C,D56*%
X296862500Y-262000000D03*
X296862500Y-258700000D03*
%TD*%
%TO.C,D36*%
X211137500Y-242950000D03*
X211137500Y-239650000D03*
%TD*%
%TO.C,D10*%
X105568750Y-319150000D03*
X105568750Y-315850000D03*
%TD*%
D21*
%TO.C,C4*%
X152068000Y-313248000D03*
X152068000Y-315148000D03*
%TD*%
D18*
%TO.C,D30*%
X292100000Y-319150000D03*
X292100000Y-315850000D03*
%TD*%
D25*
%TO.C,C7*%
X174254618Y-319341789D03*
X174254618Y-317441789D03*
%TD*%
D18*
%TO.C,D25*%
X268287500Y-319150000D03*
X268287500Y-315850000D03*
%TD*%
%TO.C,D43*%
X244475000Y-281050000D03*
X244475000Y-277750000D03*
%TD*%
%TO.C,D44*%
X254000000Y-300100000D03*
X254000000Y-296800000D03*
%TD*%
D26*
%TO.C,U1*%
X169766750Y-318278750D03*
X168966750Y-318278750D03*
X168166750Y-318278750D03*
X167366750Y-318278750D03*
X166566750Y-318278750D03*
X165766750Y-318278750D03*
X164966750Y-318278750D03*
X164166750Y-318278750D03*
X163366750Y-318278750D03*
X162566750Y-318278750D03*
X161766750Y-318278750D03*
D27*
X160066750Y-316578750D03*
X160066750Y-315778750D03*
X160066750Y-314978750D03*
X160066750Y-314178750D03*
X160066750Y-313378750D03*
X160066750Y-312578750D03*
X160066750Y-311778750D03*
X160066750Y-310978750D03*
X160066750Y-310178750D03*
X160066750Y-309378750D03*
X160066750Y-308578750D03*
D26*
X161766750Y-306878750D03*
X162566750Y-306878750D03*
X163366750Y-306878750D03*
X164166750Y-306878750D03*
X164966750Y-306878750D03*
X165766750Y-306878750D03*
X166566750Y-306878750D03*
X167366750Y-306878750D03*
X168166750Y-306878750D03*
X168966750Y-306878750D03*
X169766750Y-306878750D03*
D27*
X171466750Y-308578750D03*
X171466750Y-309378750D03*
X171466750Y-310178750D03*
X171466750Y-310978750D03*
X171466750Y-311778750D03*
X171466750Y-312578750D03*
X171466750Y-313378750D03*
X171466750Y-314178750D03*
X171466750Y-314978750D03*
X171466750Y-315778750D03*
X171466750Y-316578750D03*
%TD*%
D18*
%TO.C,D2*%
X87312500Y-262000000D03*
X87312500Y-258700000D03*
%TD*%
D25*
%TO.C,C1*%
X154654250Y-323053750D03*
X154654250Y-321153750D03*
%TD*%
D18*
%TO.C,D32*%
X201612500Y-262000000D03*
X201612500Y-258700000D03*
%TD*%
%TO.C,D58*%
X334962500Y-300100000D03*
X334962500Y-296800000D03*
%TD*%
%TO.C,D15*%
X130175000Y-319150000D03*
X130175000Y-315850000D03*
%TD*%
%TO.C,D57*%
X301625000Y-281050000D03*
X301625000Y-277750000D03*
%TD*%
%TO.C,D55*%
X287274000Y-242950000D03*
X287274000Y-239650000D03*
%TD*%
D28*
%TO.C,SW1*%
X138739000Y-310971000D03*
X142439000Y-317171000D03*
X142439000Y-310971000D03*
X138739000Y-317171000D03*
%TD*%
D18*
%TO.C,D24*%
X177800000Y-300100000D03*
X177800000Y-296800000D03*
%TD*%
%TO.C,D13*%
X130175000Y-281050000D03*
X130175000Y-277750000D03*
%TD*%
%TO.C,D7*%
X106362500Y-262000000D03*
X106362500Y-258700000D03*
%TD*%
%TO.C,D68*%
X372268750Y-262000000D03*
X372268750Y-258700000D03*
%TD*%
D29*
%TO.C,C5*%
X155763000Y-304673000D03*
X153863000Y-304673000D03*
%TD*%
D18*
%TO.C,D28*%
X187325000Y-281050000D03*
X187325000Y-277750000D03*
%TD*%
%TO.C,D49*%
X273050000Y-300100000D03*
X273050000Y-296800000D03*
%TD*%
%TO.C,D23*%
X169037000Y-274954000D03*
X169037000Y-271654000D03*
%TD*%
%TO.C,D37*%
X220662500Y-262000000D03*
X220662500Y-258700000D03*
%TD*%
D30*
%TO.C,J1*%
X239106500Y-246813999D03*
X239106500Y-247813999D03*
X239106500Y-248813999D03*
X239106500Y-249813999D03*
D31*
X242981500Y-245513999D03*
X242981500Y-251113999D03*
%TD*%
D18*
%TO.C,D33*%
X206375000Y-281050000D03*
X206375000Y-277750000D03*
%TD*%
%TO.C,D59*%
X306324000Y-242950000D03*
X306324000Y-239650000D03*
%TD*%
%TO.C,D62*%
X354012500Y-300100000D03*
X354012500Y-296800000D03*
%TD*%
D32*
%TO.C,R2*%
X227985500Y-246371749D03*
X226160500Y-246371749D03*
%TD*%
D33*
%TO.C,C6*%
X164721500Y-322897500D03*
X166621500Y-322897500D03*
%TD*%
D18*
%TO.C,D5*%
X82550000Y-319150000D03*
X82550000Y-315850000D03*
%TD*%
%TO.C,D35*%
X315912500Y-319150000D03*
X315912500Y-315850000D03*
%TD*%
%TO.C,D8*%
X111125000Y-281050000D03*
X111125000Y-277750000D03*
%TD*%
D34*
%TO.C,D19*%
X147575000Y-301625000D03*
X150875000Y-301625000D03*
%TD*%
D33*
%TO.C,C3*%
X153352500Y-310580250D03*
X155252500Y-310580250D03*
%TD*%
D18*
%TO.C,D21*%
X153987500Y-242950000D03*
X153987500Y-239650000D03*
%TD*%
%TO.C,D18*%
X149225000Y-281050000D03*
X149225000Y-277750000D03*
%TD*%
%TO.C,D51*%
X268287500Y-242950000D03*
X268287500Y-239650000D03*
%TD*%
%TO.C,D26*%
X173037500Y-242950000D03*
X173037500Y-239650000D03*
%TD*%
%TO.C,D53*%
X282575000Y-281050000D03*
X282575000Y-277750000D03*
%TD*%
%TO.C,D31*%
X192087500Y-242950000D03*
X192087500Y-239650000D03*
%TD*%
%TO.C,D20*%
X244475000Y-319150000D03*
X244475000Y-315850000D03*
%TD*%
%TO.C,D4*%
X101600000Y-300100000D03*
X101600000Y-296800000D03*
%TD*%
%TO.C,D11*%
X115887500Y-242950000D03*
X115887500Y-239650000D03*
%TD*%
%TO.C,D66*%
X372268750Y-300100000D03*
X372268750Y-296800000D03*
%TD*%
%TO.C,D61*%
X344487500Y-281050000D03*
X344487500Y-277750000D03*
%TD*%
%TO.C,D46*%
X249237500Y-242950000D03*
X249237500Y-239650000D03*
%TD*%
D32*
%TO.C,R1*%
X227985500Y-248911749D03*
X226160500Y-248911749D03*
%TD*%
%LPD*%
M02*
