<?xml version="1.0"?>
<!-- Generated by SVGo -->
<svg width="314.802mm" height="105.252mm"
     viewBox="0.000 0.000 314.802 105.252"
     xmlns="http://www.w3.org/2000/svg" 
     xmlns:xlink="http://www.w3.org/1999/xlink">
<polygon points="309.802,100.251 5.001,100.251 5.001,5.001 309.802,5.001" style="fill:none;stroke-width:0.050000mm;stroke:black"/>
<polygon points="128.968,83.726 128.968,84.325 128.169,84.325 128.169,88.426 94.101,88.426 94.101,85.196 82.594,85.196 82.594,88.426 81.769,88.426 81.769,91.226 82.594,91.226 82.594,97.495 84.319,97.495 84.319,98.696 87.619,98.696 87.619,97.495 89.076,97.495 89.076,98.696 92.376,98.696 92.376,97.495 94.101,97.495 94.101,93.025 128.169,93.025 128.169,97.126 128.968,97.126 128.968,97.726 154.876,97.726 154.876,97.126 155.676,97.126 155.676,93.025 182.594,93.025 182.594,97.495 184.319,97.495 184.319,98.696 187.619,98.696 187.619,97.495 189.344,97.495 189.344,93.025 199.607,93.025 199.607,97.126 200.407,97.126 200.407,97.726 203.376,97.726 203.376,98.696 206.676,98.696 206.676,97.726 214.407,97.726 214.407,97.126 215.207,97.126 215.207,84.325 214.407,84.325 214.407,83.726 200.407,83.726 200.407,84.325 199.607,84.325 199.607,88.426 189.344,88.426 189.344,85.196 182.594,85.196 182.594,88.426 155.676,88.426 155.676,84.325 154.876,84.325 154.876,83.726" style="fill:none;stroke-width:0.050000mm;stroke:black"/>
<polygon points="9.907,83.726 9.907,84.325 9.107,84.325 9.107,97.126 9.907,97.126 9.907,97.726 26.288,97.726 26.288,97.126 27.088,97.126 27.088,84.325 26.288,84.325 26.288,83.726" style="fill:none;stroke-width:0.050000mm;stroke:black"/>
<polygon points="33.719,83.726 33.719,84.325 32.919,84.325 32.919,97.126 33.719,97.126 33.719,97.726 50.101,97.726 50.101,97.126 50.901,97.126 50.901,84.325 50.101,84.325 50.101,83.726" style="fill:none;stroke-width:0.050000mm;stroke:black"/>
<polygon points="57.532,83.726 57.532,84.325 56.732,84.325 56.732,97.126 57.532,97.126 57.532,97.726 73.913,97.726 73.913,97.126 74.713,97.126 74.713,84.325 73.913,84.325 73.913,83.726" style="fill:none;stroke-width:0.050000mm;stroke:black"/>
<polygon points="221.838,83.726 221.838,84.325 221.038,84.325 221.038,97.126 221.838,97.126 221.838,97.726 238.219,97.726 238.219,97.126 239.019,97.126 239.019,84.325 238.219,84.325 238.219,83.726" style="fill:none;stroke-width:0.050000mm;stroke:black"/>
<polygon points="255.176,83.726 255.176,84.325 254.376,84.325 254.376,97.126 255.176,97.126 255.176,97.726 269.176,97.726 269.176,97.126 269.976,97.126 269.976,84.325 269.176,84.325 269.176,83.726" style="fill:none;stroke-width:0.050000mm;stroke:black"/>
<polygon points="274.226,83.726 274.226,84.325 273.426,84.325 273.426,97.126 274.226,97.126 274.226,97.726 288.226,97.726 288.226,97.126 289.026,97.126 289.026,84.325 288.226,84.325 288.226,83.726" style="fill:none;stroke-width:0.050000mm;stroke:black"/>
<polygon points="293.276,83.726 293.276,84.325 292.476,84.325 292.476,97.126 293.276,97.126 293.276,97.726 307.276,97.726 307.276,97.126 308.076,97.126 308.076,84.325 307.276,84.325 307.276,83.726" style="fill:none;stroke-width:0.050000mm;stroke:black"/>
<polygon points="9.907,64.676 9.907,65.275 9.107,65.275 9.107,78.076 9.907,78.076 9.907,78.676 12.882,78.676 12.882,79.646 16.182,79.646 16.182,78.676 36.682,78.676 36.682,79.646 39.982,79.646 39.982,78.676 45.338,78.676 45.338,78.076 46.138,78.076 46.138,65.275 45.338,65.275 45.338,64.676" style="fill:none;stroke-width:0.050000mm;stroke:black"/>
<polygon points="50.388,64.676 50.388,65.275 49.588,65.275 49.588,78.076 50.388,78.076 50.388,78.676 64.388,78.676 64.388,78.076 65.188,78.076 65.188,65.275 64.388,65.275 64.388,64.676" style="fill:none;stroke-width:0.050000mm;stroke:black"/>
<polygon points="69.438,64.676 69.438,65.275 68.638,65.275 68.638,78.076 69.438,78.076 69.438,78.676 83.438,78.676 83.438,78.076 84.238,78.076 84.238,65.275 83.438,65.275 83.438,64.676" style="fill:none;stroke-width:0.050000mm;stroke:black"/>
<polygon points="88.488,64.676 88.488,65.275 87.688,65.275 87.688,78.076 88.488,78.076 88.488,78.676 102.488,78.676 102.488,78.076 103.288,78.076 103.288,65.275 102.488,65.275 102.488,64.676" style="fill:none;stroke-width:0.050000mm;stroke:black"/>
<polygon points="107.538,64.676 107.538,65.275 106.738,65.275 106.738,78.076 107.538,78.076 107.538,78.676 121.538,78.676 121.538,78.076 122.338,78.076 122.338,65.275 121.538,65.275 121.538,64.676" style="fill:none;stroke-width:0.050000mm;stroke:black"/>
<polygon points="126.588,64.676 126.588,65.275 125.788,65.275 125.788,78.076 126.588,78.076 126.588,78.676 140.588,78.676 140.588,78.076 141.388,78.076 141.388,65.275 140.588,65.275 140.588,64.676" style="fill:none;stroke-width:0.050000mm;stroke:black"/>
<polygon points="145.638,64.676 145.638,65.275 144.838,65.275 144.838,78.076 145.638,78.076 145.638,78.676 159.638,78.676 159.638,78.076 160.438,78.076 160.438,65.275 159.638,65.275 159.638,64.676" style="fill:none;stroke-width:0.050000mm;stroke:black"/>
<polygon points="164.688,64.676 164.688,65.275 163.888,65.275 163.888,78.076 164.688,78.076 164.688,78.676 178.688,78.676 178.688,78.076 179.488,78.076 179.488,65.275 178.688,65.275 178.688,64.676" style="fill:none;stroke-width:0.050000mm;stroke:black"/>
<polygon points="183.738,64.676 183.738,65.275 182.938,65.275 182.938,78.076 183.738,78.076 183.738,78.676 197.738,78.676 197.738,78.076 198.538,78.076 198.538,65.275 197.738,65.275 197.738,64.676" style="fill:none;stroke-width:0.050000mm;stroke:black"/>
<polygon points="202.788,64.676 202.788,65.275 201.988,65.275 201.988,78.076 202.788,78.076 202.788,78.676 216.788,78.676 216.788,78.076 217.588,78.076 217.588,65.275 216.788,65.275 216.788,64.676" style="fill:none;stroke-width:0.050000mm;stroke:black"/>
<polygon points="221.838,64.676 221.838,65.275 221.038,65.275 221.038,78.076 221.838,78.076 221.838,78.676 235.838,78.676 235.838,78.076 236.638,78.076 236.638,65.275 235.838,65.275 235.838,64.676" style="fill:none;stroke-width:0.050000mm;stroke:black"/>
<polygon points="248.032,64.676 248.032,65.275 247.232,65.275 247.232,78.076 248.032,78.076 248.032,78.676 262.032,78.676 262.032,78.076 262.832,78.076 262.832,65.275 262.032,65.275 262.032,64.676" style="fill:none;stroke-width:0.050000mm;stroke:black"/>
<polygon points="274.226,64.676 274.226,65.275 273.426,65.275 273.426,78.076 274.226,78.076 274.226,78.676 288.226,78.676 288.226,78.076 289.026,78.076 289.026,65.275 288.226,65.275 288.226,64.676" style="fill:none;stroke-width:0.050000mm;stroke:black"/>
<polygon points="293.276,64.676 293.276,65.275 292.476,65.275 292.476,78.076 293.276,78.076 293.276,78.676 307.276,78.676 307.276,78.076 308.076,78.076 308.076,65.275 307.276,65.275 307.276,64.676" style="fill:none;stroke-width:0.050000mm;stroke:black"/>
<polygon points="269.463,26.576 269.463,27.176 268.663,27.176 268.663,39.976 269.463,39.976 269.463,40.576 271.844,40.576 271.844,45.626 250.413,45.626 250.413,46.226 249.613,46.226 249.613,59.026 250.413,59.026 250.413,59.626 255.769,59.626 255.769,60.596 259.068,60.596 259.068,59.626 276.319,59.626 276.319,59.026 277.119,59.026 277.119,58.376 277.844,58.376 277.844,59.395 279.569,59.395 279.569,60.596 282.869,60.596 282.869,59.395 284.594,59.395 284.594,53.126 285.419,53.126 285.419,50.326 285.244,50.326 285.244,50.101 285.844,50.101 285.844,36.101 285.244,36.101 285.244,35.301 284.263,35.301 284.263,34.576 284.374,34.576 284.374,27.826 284.263,27.826 284.263,27.176 283.463,27.176 283.463,26.576" style="fill:none;stroke-width:0.050000mm;stroke:black"/>
<polygon points="9.907,45.626 9.907,46.226 9.107,46.226 9.107,59.026 9.907,59.026 9.907,59.626 28.669,59.626 28.669,59.026 29.469,59.026 29.469,46.226 28.669,46.226 28.669,45.626" style="fill:none;stroke-width:0.050000mm;stroke:black"/>
<polygon points="40.863,45.626 40.863,46.226 40.063,46.226 40.063,59.026 40.863,59.026 40.863,59.626 54.863,59.626 54.863,59.026 55.663,59.026 55.663,46.226 54.863,46.226 54.863,45.626" style="fill:none;stroke-width:0.050000mm;stroke:black"/>
<polygon points="59.913,45.626 59.913,46.226 59.113,46.226 59.113,59.026 59.913,59.026 59.913,59.626 73.913,59.626 73.913,59.026 74.713,59.026 74.713,46.226 73.913,46.226 73.913,45.626" style="fill:none;stroke-width:0.050000mm;stroke:black"/>
<polygon points="78.963,45.626 78.963,46.226 78.163,46.226 78.163,59.026 78.963,59.026 78.963,59.626 92.963,59.626 92.963,59.026 93.763,59.026 93.763,46.226 92.963,46.226 92.963,45.626" style="fill:none;stroke-width:0.050000mm;stroke:black"/>
<polygon points="98.013,45.626 98.013,46.226 97.213,46.226 97.213,59.026 98.013,59.026 98.013,59.626 112.013,59.626 112.013,59.026 112.813,59.026 112.813,46.226 112.013,46.226 112.013,45.626" style="fill:none;stroke-width:0.050000mm;stroke:black"/>
<polygon points="117.063,45.626 117.063,46.226 116.263,46.226 116.263,59.026 117.063,59.026 117.063,59.626 131.063,59.626 131.063,59.026 131.863,59.026 131.863,46.226 131.063,46.226 131.063,45.626" style="fill:none;stroke-width:0.050000mm;stroke:black"/>
<polygon points="136.113,45.626 136.113,46.226 135.313,46.226 135.313,59.026 136.113,59.026 136.113,59.626 150.113,59.626 150.113,59.026 150.913,59.026 150.913,46.226 150.113,46.226 150.113,45.626" style="fill:none;stroke-width:0.050000mm;stroke:black"/>
<polygon points="155.163,45.626 155.163,46.226 154.363,46.226 154.363,59.026 155.163,59.026 155.163,59.626 169.163,59.626 169.163,59.026 169.963,59.026 169.963,46.226 169.163,46.226 169.163,45.626" style="fill:none;stroke-width:0.050000mm;stroke:black"/>
<polygon points="174.213,45.626 174.213,46.226 173.413,46.226 173.413,59.026 174.213,59.026 174.213,59.626 188.213,59.626 188.213,59.026 189.013,59.026 189.013,46.226 188.213,46.226 188.213,45.626" style="fill:none;stroke-width:0.050000mm;stroke:black"/>
<polygon points="193.263,45.626 193.263,46.226 192.463,46.226 192.463,59.026 193.263,59.026 193.263,59.626 207.263,59.626 207.263,59.026 208.063,59.026 208.063,46.226 207.263,46.226 207.263,45.626" style="fill:none;stroke-width:0.050000mm;stroke:black"/>
<polygon points="212.313,45.626 212.313,46.226 211.513,46.226 211.513,59.026 212.313,59.026 212.313,59.626 226.313,59.626 226.313,59.026 227.113,59.026 227.113,46.226 226.313,46.226 226.313,45.626" style="fill:none;stroke-width:0.050000mm;stroke:black"/>
<polygon points="231.363,45.626 231.363,46.226 230.563,46.226 230.563,59.026 231.363,59.026 231.363,59.626 245.363,59.626 245.363,59.026 246.163,59.026 246.163,46.226 245.363,46.226 245.363,45.626" style="fill:none;stroke-width:0.050000mm;stroke:black"/>
<polygon points="293.276,45.626 293.276,46.226 292.476,46.226 292.476,59.026 293.276,59.026 293.276,59.626 307.276,59.626 307.276,59.026 308.076,59.026 308.076,46.226 307.276,46.226 307.276,45.626" style="fill:none;stroke-width:0.050000mm;stroke:black"/>
<polygon points="12.288,26.576 12.288,27.176 11.488,27.176 11.488,39.976 12.288,39.976 12.288,40.576 26.288,40.576 26.288,39.976 27.088,39.976 27.088,27.176 26.288,27.176 26.288,26.576" style="fill:none;stroke-width:0.050000mm;stroke:black"/>
<polygon points="36.101,26.576 36.101,27.176 35.301,27.176 35.301,39.976 36.101,39.976 36.101,40.576 50.101,40.576 50.101,39.976 50.901,39.976 50.901,27.176 50.101,27.176 50.101,26.576" style="fill:none;stroke-width:0.050000mm;stroke:black"/>
<polygon points="55.151,26.576 55.151,27.176 54.351,27.176 54.351,39.976 55.151,39.976 55.151,40.576 69.151,40.576 69.151,39.976 69.951,39.976 69.951,27.176 69.151,27.176 69.151,26.576" style="fill:none;stroke-width:0.050000mm;stroke:black"/>
<polygon points="74.201,26.576 74.201,27.176 73.401,27.176 73.401,39.976 74.201,39.976 74.201,40.576 88.201,40.576 88.201,39.976 89.001,39.976 89.001,27.176 88.201,27.176 88.201,26.576" style="fill:none;stroke-width:0.050000mm;stroke:black"/>
<polygon points="93.251,26.576 93.251,27.176 92.451,27.176 92.451,39.976 93.251,39.976 93.251,40.576 107.251,40.576 107.251,39.976 108.051,39.976 108.051,27.176 107.251,27.176 107.251,26.576" style="fill:none;stroke-width:0.050000mm;stroke:black"/>
<polygon points="112.301,26.576 112.301,27.176 111.501,27.176 111.501,39.976 112.301,39.976 112.301,40.576 126.301,40.576 126.301,39.976 127.101,39.976 127.101,27.176 126.301,27.176 126.301,26.576" style="fill:none;stroke-width:0.050000mm;stroke:black"/>
<polygon points="131.351,26.576 131.351,27.176 130.550,27.176 130.550,39.976 131.351,39.976 131.351,40.576 145.351,40.576 145.351,39.976 146.151,39.976 146.151,27.176 145.351,27.176 145.351,26.576" style="fill:none;stroke-width:0.050000mm;stroke:black"/>
<polygon points="150.401,26.576 150.401,27.176 149.601,27.176 149.601,39.976 150.401,39.976 150.401,40.576 164.401,40.576 164.401,39.976 165.201,39.976 165.201,27.176 164.401,27.176 164.401,26.576" style="fill:none;stroke-width:0.050000mm;stroke:black"/>
<polygon points="169.451,26.576 169.451,27.176 168.651,27.176 168.651,39.976 169.451,39.976 169.451,40.576 183.451,40.576 183.451,39.976 184.251,39.976 184.251,27.176 183.451,27.176 183.451,26.576" style="fill:none;stroke-width:0.050000mm;stroke:black"/>
<polygon points="188.501,26.576 188.501,27.176 187.701,27.176 187.701,39.976 188.501,39.976 188.501,40.576 202.501,40.576 202.501,39.976 203.301,39.976 203.301,27.176 202.501,27.176 202.501,26.576" style="fill:none;stroke-width:0.050000mm;stroke:black"/>
<polygon points="207.551,26.576 207.551,27.176 206.751,27.176 206.751,39.976 207.551,39.976 207.551,40.576 221.551,40.576 221.551,39.976 222.351,39.976 222.351,27.176 221.551,27.176 221.551,26.576" style="fill:none;stroke-width:0.050000mm;stroke:black"/>
<polygon points="226.601,26.576 226.601,27.176 225.801,27.176 225.801,39.976 226.601,39.976 226.601,40.576 240.601,40.576 240.601,39.976 241.401,39.976 241.401,27.176 240.601,27.176 240.601,26.576" style="fill:none;stroke-width:0.050000mm;stroke:black"/>
<polygon points="245.651,26.576 245.651,27.176 244.851,27.176 244.851,39.976 245.651,39.976 245.651,40.576 259.650,40.576 259.650,39.976 260.451,39.976 260.451,27.176 259.650,27.176 259.650,26.576" style="fill:none;stroke-width:0.050000mm;stroke:black"/>
<polygon points="293.276,26.576 293.276,27.176 292.476,27.176 292.476,39.976 293.276,39.976 293.276,40.576 307.276,40.576 307.276,39.976 308.076,39.976 308.076,27.176 307.276,27.176 307.276,26.576" style="fill:none;stroke-width:0.050000mm;stroke:black"/>
<polygon points="255.176,7.526 255.176,8.126 254.376,8.126 254.376,20.926 255.176,20.926 255.176,21.526 258.150,21.526 258.150,22.496 261.451,22.496 261.451,21.526 281.951,21.526 281.951,22.496 285.251,22.496 285.251,21.526 288.226,21.526 288.226,20.926 289.026,20.926 289.026,8.126 288.226,8.126 288.226,7.526" style="fill:none;stroke-width:0.050000mm;stroke:black"/>
<polygon points="7.526,7.526 7.526,8.126 6.726,8.126 6.726,20.926 7.526,20.926 7.526,21.526 21.526,21.526 21.526,20.926 22.326,20.926 22.326,8.126 21.526,8.126 21.526,7.526" style="fill:none;stroke-width:0.050000mm;stroke:black"/>
<polygon points="26.576,7.526 26.576,8.126 25.776,8.126 25.776,20.926 26.576,20.926 26.576,21.526 40.576,21.526 40.576,20.926 41.376,20.926 41.376,8.126 40.576,8.126 40.576,7.526" style="fill:none;stroke-width:0.050000mm;stroke:black"/>
<polygon points="45.626,7.526 45.626,8.126 44.826,8.126 44.826,20.926 45.626,20.926 45.626,21.526 59.626,21.526 59.626,20.926 60.426,20.926 60.426,8.126 59.626,8.126 59.626,7.526" style="fill:none;stroke-width:0.050000mm;stroke:black"/>
<polygon points="64.676,7.526 64.676,8.126 63.876,8.126 63.876,20.926 64.676,20.926 64.676,21.526 78.676,21.526 78.676,20.926 79.476,20.926 79.476,8.126 78.676,8.126 78.676,7.526" style="fill:none;stroke-width:0.050000mm;stroke:black"/>
<polygon points="83.726,7.526 83.726,8.126 82.926,8.126 82.926,20.926 83.726,20.926 83.726,21.526 97.726,21.526 97.726,20.926 98.525,20.926 98.525,8.126 97.726,8.126 97.726,7.526" style="fill:none;stroke-width:0.050000mm;stroke:black"/>
<polygon points="102.775,7.526 102.775,8.126 101.976,8.126 101.976,20.926 102.775,20.926 102.775,21.526 116.775,21.526 116.775,20.926 117.575,20.926 117.575,8.126 116.775,8.126 116.775,7.526" style="fill:none;stroke-width:0.050000mm;stroke:black"/>
<polygon points="121.825,7.526 121.825,8.126 121.025,8.126 121.025,20.926 121.825,20.926 121.825,21.526 135.826,21.526 135.826,20.926 136.626,20.926 136.626,8.126 135.826,8.126 135.826,7.526" style="fill:none;stroke-width:0.050000mm;stroke:black"/>
<polygon points="140.876,7.526 140.876,8.126 140.076,8.126 140.076,20.926 140.876,20.926 140.876,21.526 154.876,21.526 154.876,20.926 155.676,20.926 155.676,8.126 154.876,8.126 154.876,7.526" style="fill:none;stroke-width:0.050000mm;stroke:black"/>
<polygon points="159.926,7.526 159.926,8.126 159.126,8.126 159.126,20.926 159.926,20.926 159.926,21.526 173.926,21.526 173.926,20.926 174.726,20.926 174.726,8.126 173.926,8.126 173.926,7.526" style="fill:none;stroke-width:0.050000mm;stroke:black"/>
<polygon points="178.976,7.526 178.976,8.126 178.176,8.126 178.176,20.926 178.976,20.926 178.976,21.526 192.976,21.526 192.976,20.926 193.776,20.926 193.776,8.126 192.976,8.126 192.976,7.526" style="fill:none;stroke-width:0.050000mm;stroke:black"/>
<polygon points="198.026,7.526 198.026,8.126 197.226,8.126 197.226,20.926 198.026,20.926 198.026,21.526 212.026,21.526 212.026,20.926 212.826,20.926 212.826,8.126 212.026,8.126 212.026,7.526" style="fill:none;stroke-width:0.050000mm;stroke:black"/>
<polygon points="217.076,7.526 217.076,8.126 216.276,8.126 216.276,20.926 217.076,20.926 217.076,21.526 231.076,21.526 231.076,20.926 231.876,20.926 231.876,8.126 231.076,8.126 231.076,7.526" style="fill:none;stroke-width:0.050000mm;stroke:black"/>
<polygon points="236.126,7.526 236.126,8.126 235.326,8.126 235.326,20.926 236.126,20.926 236.126,21.526 250.126,21.526 250.126,20.926 250.926,20.926 250.926,8.126 250.126,8.126 250.126,7.526" style="fill:none;stroke-width:0.050000mm;stroke:black"/>
<polygon points="293.276,7.526 293.276,8.126 292.476,8.126 292.476,20.926 293.276,20.926 293.276,21.526 307.276,21.526 307.276,20.926 308.076,20.926 308.076,8.126 307.276,8.126 307.276,7.526" style="fill:none;stroke-width:0.050000mm;stroke:black"/>
</svg>
